<svg width="30" height="29" viewBox="0 0 30 29" fill="none" xmlns="http://www.w3.org/2000/svg">
<path d="M18.0102 0.5L12.1813 0.5C10.6353 0.5 9.14908 1.09669 8.03232 2.16568L2.35107 7.60392C1.16868 8.73574 0.5 10.3015 0.5 11.9382L0.5 17.1349C0.5 18.7824 1.1775 20.3575 2.37356 21.4906L8.0368 26.8557C9.15128 27.9115 10.6281 28.5 12.1632 28.5H18.0283C19.5903 28.5 21.0907 27.8909 22.2106 26.8021L27.6823 21.4828C28.8444 20.3531 29.5 18.8013 29.5 17.1806V11.8926C29.5 10.2827 28.853 8.74032 27.7046 7.61218L22.2147 2.21961C21.0928 1.11751 19.5829 0.5 18.0102 0.5Z" fill="#859E4F" stroke="#437338"/>
</svg>
