<svg width="12" height="12" viewBox="0 0 12 12" fill="none" xmlns="http://www.w3.org/2000/svg">
<path d="M4.89551 0.5L7.18262 0.5C7.73812 0.5 8.27072 0.723013 8.66016 1.11914L10.9062 3.4043C11.2868 3.79166 11.5 4.3134 11.5 4.85645V7.17578C11.4999 7.72244 11.2836 8.24684 10.8984 8.63477L8.66016 10.8887C8.27132 11.28 7.7421 11.5 7.19043 11.5H4.8877C4.34514 11.5 3.8238 11.2872 3.43652 10.9072L1.12109 8.63477C0.724185 8.24532 0.500108 7.7123 0.5 7.15625L0.5 4.87598C0.5 4.3235 0.720943 3.79327 1.11328 3.4043L3.4375 1.10059C3.77706 0.763995 4.22065 0.556226 4.69238 0.509766L4.89551 0.5Z" fill="#437338" stroke="#ADC178"/>
<path fill-rule="evenodd" clip-rule="evenodd" d="M9.18217 3.70367C9.27591 3.79743 9.32857 3.92458 9.32857 4.05717C9.32857 4.18975 9.27591 4.3169 9.18217 4.41067L5.4345 8.15833C5.38498 8.20787 5.32618 8.24717 5.26146 8.27398C5.19675 8.30079 5.12739 8.31459 5.05734 8.31459C4.98729 8.31459 4.91793 8.30079 4.85321 8.27398C4.7885 8.24717 4.7297 8.20787 4.68017 8.15833L2.81817 6.29667C2.77042 6.25054 2.73233 6.19537 2.70612 6.13437C2.67992 6.07337 2.66612 6.00776 2.66555 5.94137C2.66497 5.87498 2.67762 5.80914 2.70276 5.74769C2.7279 5.68624 2.76503 5.63041 2.81197 5.58347C2.85892 5.53652 2.91475 5.4994 2.97619 5.47425C3.03764 5.44911 3.10348 5.43646 3.16987 5.43704C3.23626 5.43762 3.30187 5.45141 3.36287 5.47762C3.42388 5.50382 3.47905 5.54191 3.52517 5.58967L5.05717 7.12167L8.47484 3.70367C8.52127 3.6572 8.57641 3.62034 8.63709 3.5952C8.69777 3.57005 8.76282 3.55711 8.82851 3.55711C8.89419 3.55711 8.95924 3.57005 9.01992 3.5952C9.08061 3.62034 9.13574 3.6572 9.18217 3.70367Z" fill="#ADC178"/>
</svg>
