<svg width="12" height="12" viewBox="0 0 12 12" fill="none" xmlns="http://www.w3.org/2000/svg">
<path d="M4.89551 0.5L7.18262 0.5C7.73812 0.5 8.27072 0.723014 8.66016 1.11914L10.9062 3.4043C11.2868 3.79166 11.5 4.3134 11.5 4.85645V7.17578C11.4999 7.72244 11.2836 8.24684 10.8984 8.63477L8.66016 10.8887C8.27132 11.28 7.7421 11.5 7.19043 11.5H4.8877C4.34514 11.5 3.82379 11.2872 3.43652 10.9072L1.12109 8.63477C0.724186 8.24532 0.500108 7.7123 0.5 7.15625L0.5 4.87598C0.5 4.3235 0.720943 3.79327 1.11328 3.4043L3.4375 1.10059C3.77706 0.763995 4.22065 0.556226 4.69238 0.509766L4.89551 0.5Z" fill="#8D2F2F" stroke="#E09999"/>
<path fill-rule="evenodd" clip-rule="evenodd" d="M4.5 4.91667L4.91667 4.5L6 5.58333L7.08333 4.5L7.5 4.91667L6.41667 6L7.5 7.08333L7.08333 7.5L6 6.41667L4.91667 7.5L4.5 7.08333L5.58333 6L4.5 4.91667Z" fill="#E09999" stroke="#E09999" stroke-width="0.333333" stroke-linecap="round" stroke-linejoin="round"/>
</svg>
