<svg width="13" height="12" viewBox="0 0 13 12" fill="none" xmlns="http://www.w3.org/2000/svg">
<path d="M5.00586 0.5L7.50391 0.5C8.04687 0.5 8.5687 0.713262 8.95605 1.09375L11.3086 3.4043C11.7051 3.79378 11.9287 4.32702 11.9287 4.88281V7.14844C11.9287 7.70794 11.702 8.24378 11.3008 8.63379L8.95605 10.9141C8.56941 11.2899 8.05092 11.5 7.51172 11.5H4.99805C4.46835 11.4999 3.95883 11.2968 3.57422 10.9326L1.14648 8.63281C0.733728 8.24164 0.5 7.69758 0.5 7.12891L0.5 4.90234C0.5 4.33726 0.730466 3.79602 1.13867 3.40527L3.57422 1.0752C3.95966 0.706294 4.47234 0.500101 5.00586 0.5Z" stroke="#ADC178"/>
</svg>
