<svg width="71" height="71" viewBox="0 0 71 71" fill="none" xmlns="http://www.w3.org/2000/svg">
<path d="M43.7693 2.69141L27.5392 2.69141C25.1023 2.69141 22.7639 3.65407 21.0333 5.36982L5.73476 20.537C3.98454 22.2722 3 24.6347 3 27.0993V43.3169C3 45.7981 3.99781 48.1751 5.76885 49.9128L21.0395 64.8962C22.7671 66.5914 25.0909 67.541 27.5113 67.541H43.7974C46.2592 67.541 48.6192 66.5587 50.3539 64.8121L65.1654 49.8987C66.8847 48.1676 67.8496 45.8268 67.8496 43.387V27.0294C67.8496 24.6062 66.8978 22.2799 65.1991 20.5518L50.3595 5.45442C48.6222 3.68694 46.2477 2.69141 43.7693 2.69141Z" fill="#FAF2DD" stroke="#ADC178" stroke-width="5"/>
<path d="M42.12 17.8914V37.3314L46.84 36.4514V48.6914H22.72L22 37.5314H27.72V30.7314H24.6L23.6 20.4514L30.6 17.8914H42.12Z" fill="#ADC178"/>
</svg>
