<svg width="71" height="71" viewBox="0 0 71 71" fill="none" xmlns="http://www.w3.org/2000/svg">
<path d="M43.7693 2.69141L27.5392 2.69141C25.1023 2.69141 22.7639 3.65407 21.0333 5.36982L5.73476 20.537C3.98454 22.2722 3 24.6347 3 27.0993V43.3169C3 45.7981 3.99781 48.1751 5.76885 49.9128L21.0395 64.8962C22.7671 66.5914 25.0909 67.541 27.5113 67.541H43.7974C46.2592 67.541 48.6192 66.5587 50.3539 64.8121L65.1654 49.8987C66.8847 48.1676 67.8496 45.8268 67.8496 43.387V27.0294C67.8496 24.6062 66.8978 22.2799 65.1991 20.5518L50.3595 5.45442C48.6222 3.68694 46.2477 2.69141 43.7693 2.69141Z" fill="#FAF2DD" stroke="#ADC178" stroke-width="5"/>
<path d="M23.48 31.8514L21.92 20.2914C24.2933 19.2781 26.5467 18.5181 28.68 18.0114C30.84 17.5047 32.8133 17.2514 34.6 17.2514C38.4133 17.2514 41.36 18.0914 43.44 19.7714C45.5467 21.4514 46.6 23.9981 46.6 27.4114C46.6 28.9047 46.4133 30.1581 46.04 31.1714C45.6933 32.1847 45.2 33.0514 44.56 33.7714C43.92 34.4647 43.1467 35.1047 42.24 35.6914C41.36 36.2514 40.3733 36.8381 39.28 37.4514V38.1714L47.2 36.4514V48.6914H22.36L21.64 36.2914C25.0267 34.6381 27.5867 33.3314 29.32 32.3714C31.0533 31.4114 31.9067 30.6247 31.88 30.0114C31.88 29.6114 31.6 29.4114 31.04 29.4114C30.64 29.4114 30.04 29.5447 29.24 29.8114C28.4667 30.0514 27.5733 30.3581 26.56 30.7314C25.5733 31.1047 24.5467 31.4781 23.48 31.8514Z" fill="#ADC178"/>
</svg>
