<svg width="71" height="71" viewBox="0 0 71 71" fill="none" xmlns="http://www.w3.org/2000/svg">
<path d="M43.7693 2.69141L27.5392 2.69141C25.1023 2.69141 22.7639 3.65407 21.0333 5.36982L5.73476 20.537C3.98454 22.2722 3 24.6347 3 27.0993V43.3169C3 45.7981 3.99781 48.1751 5.76885 49.9128L21.0395 64.8962C22.7671 66.5914 25.0909 67.541 27.5113 67.541H43.7974C46.2592 67.541 48.6192 66.5587 50.3539 64.8121L65.1654 49.8987C66.8847 48.1676 67.8496 45.8268 67.8496 43.387V27.0294C67.8496 24.6062 66.8978 22.2799 65.1991 20.5518L50.3595 5.45442C48.6222 3.68694 46.2477 2.69141 43.7693 2.69141Z" fill="#FAF2DD" stroke="#ADC178" stroke-width="5"/>
<path d="M42.08 32.6114C43.7867 33.1981 45.1467 34.0914 46.16 35.2914C47.2 36.4914 47.72 38.1314 47.72 40.2114C47.72 41.9981 47.2933 43.4781 46.44 44.6514C45.6133 45.8247 44.4533 46.7581 42.96 47.4514C41.4933 48.1181 39.8 48.5981 37.88 48.8914C35.96 49.1847 33.9333 49.3314 31.8 49.3314C30.12 49.3314 28.4 49.2647 26.64 49.1314C24.9067 49.0247 23.1733 48.8781 21.44 48.6914L23.36 36.1714C24.8533 36.8381 26.24 37.3847 27.52 37.8114C28.8 38.2381 29.84 38.4514 30.64 38.4514C31.6267 38.4514 32.12 38.1314 32.12 37.4914C32.12 36.9581 31.64 36.5047 30.68 36.1314C29.72 35.7314 28.1733 35.4914 26.04 35.4114V31.5714C28.1733 31.1447 29.6267 30.7314 30.4 30.3314C31.1733 29.9047 31.56 29.4781 31.56 29.0514C31.56 28.8114 31.4533 28.6381 31.24 28.5314C31.0533 28.3981 30.8133 28.3314 30.52 28.3314C29.8267 28.3314 28.8267 28.5447 27.52 28.9714C26.24 29.3981 24.8533 29.9314 23.36 30.5714L22 20.2514C24.5333 19.1047 26.96 18.3181 29.28 17.8914C31.6 17.4647 33.76 17.2514 35.76 17.2514C37.8133 17.2514 39.68 17.5981 41.36 18.2914C43.04 18.9581 44.3733 19.9447 45.36 21.2514C46.3467 22.5581 46.84 24.1714 46.84 26.0914C46.84 27.7981 46.4 29.1714 45.52 30.2114C44.6667 31.2514 43.52 32.0514 42.08 32.6114Z" fill="#ADC178"/>
</svg>
