<svg width="200" height="123" viewBox="0 0 200 123" fill="none" xmlns="http://www.w3.org/2000/svg">
<path d="M197 100.191C197 110.685 188.493 119.191 178 119.191H22C11.5066 119.191 3 110.685 3 100.191V44.7439C3 34.2505 11.5066 25.7439 22 25.7439H120.802C122.099 25.7439 123.339 25.2456 124.294 24.3689C129.546 19.5462 147.676 3.69141 159 3.69141C161.804 3.69141 159.221 12.2513 156.875 18.7051C155.651 22.073 158.099 25.7439 161.682 25.7439H178C188.493 25.7439 197 34.2505 197 44.7439V100.191Z" fill="#ADC178" stroke="#437338" stroke-width="6"/>
<path d="M30.56 54.6914H23.296V42.9954H30.56V44.8834H24.624L25.344 44.2274V47.8914H30.016V49.6994H25.344V53.4594L24.624 52.8034H30.56V54.6914ZM34.853 54.6914L31.717 46.7874H33.797L35.173 50.4194C35.3437 50.8887 35.4877 51.3207 35.605 51.7154C35.733 52.0994 35.8237 52.3981 35.877 52.6114C35.9303 52.3661 36.021 52.0514 36.149 51.6674C36.2877 51.2727 36.4423 50.8567 36.613 50.4194L38.053 46.7874H40.069L36.773 54.6914H34.853ZM44.8321 54.8994C44.0535 54.8994 43.3601 54.7234 42.7521 54.3714C42.1548 54.0087 41.6855 53.5181 41.3441 52.8994C41.0028 52.2701 40.8321 51.5501 40.8321 50.7394C40.8321 49.9181 40.9975 49.1927 41.3281 48.5634C41.6588 47.9341 42.1228 47.4434 42.7201 47.0914C43.3175 46.7287 44.0001 46.5474 44.7681 46.5474C45.5681 46.5474 46.2561 46.7181 46.8321 47.0594C47.4081 47.3901 47.8508 47.8541 48.1601 48.4514C48.4801 49.0487 48.6401 49.7634 48.6401 50.5954V51.1874L41.8561 51.2034L41.8881 49.9554H46.7041C46.7041 49.4114 46.5281 48.9741 46.1761 48.6434C45.8348 48.3127 45.3708 48.1474 44.7841 48.1474C44.3255 48.1474 43.9361 48.2434 43.6161 48.4354C43.3068 48.6274 43.0721 48.9154 42.9121 49.2994C42.7521 49.6834 42.6721 50.1527 42.6721 50.7074C42.6721 51.5607 42.8535 52.2061 43.2161 52.6434C43.5895 53.0807 44.1388 53.2994 44.8641 53.2994C45.3975 53.2994 45.8348 53.1981 46.1761 52.9954C46.5281 52.7927 46.7575 52.5047 46.8641 52.1314H48.6721C48.5015 52.9954 48.0748 53.6727 47.3921 54.1634C46.7201 54.6541 45.8668 54.8994 44.8321 54.8994ZM55.6424 46.7554V48.5634H54.9224C54.2077 48.5634 53.6477 48.7554 53.2424 49.1394C52.837 49.5127 52.6344 50.0834 52.6344 50.8514V54.6914H50.6824V46.8034H52.5224L52.6824 48.4354H52.4904C52.597 47.9127 52.8477 47.4861 53.2424 47.1554C53.637 46.8247 54.149 46.6594 54.7784 46.6594C54.917 46.6594 55.0557 46.6647 55.1944 46.6754C55.333 46.6861 55.4824 46.7127 55.6424 46.7554ZM58.846 46.7874L61.422 54.0834L60.366 56.0834L56.782 46.7874H58.846ZM56.99 58.3554V56.7394H58.158C58.414 56.7394 58.638 56.7074 58.83 56.6434C59.022 56.5901 59.1927 56.4834 59.342 56.3234C59.502 56.1634 59.6353 55.9287 59.742 55.6194L63.022 46.7874H65.038L61.166 56.4514C60.878 57.1767 60.5153 57.7047 60.078 58.0354C59.6407 58.3661 59.0967 58.5314 58.446 58.5314C58.1687 58.5314 57.9073 58.5154 57.662 58.4834C57.4273 58.4621 57.2033 58.4194 56.99 58.3554ZM73.7713 54.8994C72.9393 54.8994 72.2779 54.6754 71.7873 54.2274C71.3073 53.7687 71.0673 53.1714 71.0673 52.4354C71.0673 51.7101 71.3179 51.1341 71.8193 50.7074C72.3313 50.2701 73.0566 50.0141 73.9953 49.9394L76.3633 49.7474V49.5714C76.3633 49.2087 76.2939 48.9207 76.1553 48.7074C76.0273 48.4834 75.8406 48.3234 75.5953 48.2274C75.3499 48.1207 75.0619 48.0674 74.7313 48.0674C74.1553 48.0674 73.7126 48.1847 73.4033 48.4194C73.0939 48.6434 72.9393 48.9634 72.9393 49.3794H71.2753C71.2753 48.8034 71.4193 48.3074 71.7073 47.8914C72.0059 47.4647 72.4219 47.1341 72.9553 46.8994C73.4993 46.6647 74.1233 46.5474 74.8273 46.5474C75.5419 46.5474 76.1553 46.6754 76.6673 46.9314C77.1793 47.1767 77.5739 47.5501 77.8513 48.0514C78.1286 48.5421 78.2673 49.1554 78.2673 49.8914V54.6914H76.5553L76.4113 53.5234C76.2406 53.9287 75.9099 54.2594 75.4193 54.5154C74.9393 54.7714 74.3899 54.8994 73.7713 54.8994ZM74.3953 53.4274C75.0033 53.4274 75.4833 53.2567 75.8353 52.9154C76.1979 52.5741 76.3793 52.0994 76.3793 51.4914V51.0754L74.7313 51.2034C74.1233 51.2567 73.6913 51.3847 73.4353 51.5874C73.1793 51.7794 73.0513 52.0354 73.0513 52.3554C73.0513 52.7074 73.1686 52.9741 73.4033 53.1554C73.6379 53.3367 73.9686 53.4274 74.3953 53.4274ZM80.6649 58.3554V46.7874H82.4729L82.6009 47.9874C82.8355 47.5287 83.1982 47.1767 83.6889 46.9314C84.1795 46.6754 84.7182 46.5474 85.3049 46.5474C86.0622 46.5474 86.7129 46.7181 87.2569 47.0594C87.8115 47.4007 88.2435 47.8754 88.5529 48.4834C88.8622 49.0914 89.0169 49.8114 89.0169 50.6434C89.0169 51.4647 88.8729 52.1954 88.5849 52.8354C88.2969 53.4754 87.8755 53.9821 87.3209 54.3554C86.7769 54.7181 86.1102 54.8994 85.3209 54.8994C84.7342 54.8994 84.1955 54.7874 83.7049 54.5634C83.2249 54.3394 82.8622 54.0301 82.6169 53.6354V58.3554H80.6649ZM82.6329 50.7394C82.6329 51.2087 82.7235 51.6247 82.9049 51.9874C83.0862 52.3501 83.3422 52.6381 83.6729 52.8514C84.0142 53.0541 84.4089 53.1554 84.8569 53.1554C85.3155 53.1554 85.7102 53.0541 86.0409 52.8514C86.3715 52.6381 86.6222 52.3501 86.7929 51.9874C86.9635 51.6247 87.0489 51.2087 87.0489 50.7394C87.0489 50.2701 86.9635 49.8541 86.7929 49.4914C86.6222 49.1287 86.3715 48.8461 86.0409 48.6434C85.7102 48.4301 85.3155 48.3234 84.8569 48.3234C84.4089 48.3234 84.0142 48.4247 83.6729 48.6274C83.3422 48.8301 83.0862 49.1127 82.9049 49.4754C82.7235 49.8381 82.6329 50.2594 82.6329 50.7394ZM91.0511 58.3554V46.7874H92.8591L92.9871 47.9874C93.2218 47.5287 93.5845 47.1767 94.0751 46.9314C94.5658 46.6754 95.1045 46.5474 95.6911 46.5474C96.4485 46.5474 97.0991 46.7181 97.6431 47.0594C98.1978 47.4007 98.6298 47.8754 98.9391 48.4834C99.2485 49.0914 99.4031 49.8114 99.4031 50.6434C99.4031 51.4647 99.2591 52.1954 98.9711 52.8354C98.6831 53.4754 98.2618 53.9821 97.7071 54.3554C97.1631 54.7181 96.4965 54.8994 95.7071 54.8994C95.1205 54.8994 94.5818 54.7874 94.0911 54.5634C93.6111 54.3394 93.2485 54.0301 93.0031 53.6354V58.3554H91.0511ZM93.0191 50.7394C93.0191 51.2087 93.1098 51.6247 93.2911 51.9874C93.4725 52.3501 93.7285 52.6381 94.0591 52.8514C94.4005 53.0541 94.7951 53.1554 95.2431 53.1554C95.7018 53.1554 96.0965 53.0541 96.4271 52.8514C96.7578 52.6381 97.0085 52.3501 97.1791 51.9874C97.3498 51.6247 97.4351 51.2087 97.4351 50.7394C97.4351 50.2701 97.3498 49.8541 97.1791 49.4914C97.0085 49.1287 96.7578 48.8461 96.4271 48.6434C96.0965 48.4301 95.7018 48.3234 95.2431 48.3234C94.7951 48.3234 94.4005 48.4247 94.0591 48.6274C93.7285 48.8301 93.4725 49.1127 93.2911 49.4754C93.1098 49.8381 93.0191 50.2594 93.0191 50.7394ZM108.582 54.8994C107.75 54.8994 107.089 54.6754 106.598 54.2274C106.118 53.7687 105.878 53.1714 105.878 52.4354C105.878 51.7101 106.129 51.1341 106.63 50.7074C107.142 50.2701 107.867 50.0141 108.806 49.9394L111.174 49.7474V49.5714C111.174 49.2087 111.105 48.9207 110.966 48.7074C110.838 48.4834 110.651 48.3234 110.406 48.2274C110.161 48.1207 109.873 48.0674 109.542 48.0674C108.966 48.0674 108.523 48.1847 108.214 48.4194C107.905 48.6434 107.75 48.9634 107.75 49.3794H106.086C106.086 48.8034 106.23 48.3074 106.518 47.8914C106.817 47.4647 107.233 47.1341 107.766 46.8994C108.31 46.6647 108.934 46.5474 109.638 46.5474C110.353 46.5474 110.966 46.6754 111.478 46.9314C111.99 47.1767 112.385 47.5501 112.662 48.0514C112.939 48.5421 113.078 49.1554 113.078 49.8914V54.6914H111.366L111.222 53.5234C111.051 53.9287 110.721 54.2594 110.23 54.5154C109.75 54.7714 109.201 54.8994 108.582 54.8994ZM109.206 53.4274C109.814 53.4274 110.294 53.2567 110.646 52.9154C111.009 52.5741 111.19 52.0994 111.19 51.4914V51.0754L109.542 51.2034C108.934 51.2567 108.502 51.3847 108.246 51.5874C107.99 51.7794 107.862 52.0354 107.862 52.3554C107.862 52.7074 107.979 52.9741 108.214 53.1554C108.449 53.3367 108.779 53.4274 109.206 53.4274ZM114.867 52.2914H116.723C116.734 52.6327 116.862 52.9047 117.107 53.1074C117.353 53.3101 117.694 53.4114 118.131 53.4114C118.601 53.4114 118.953 53.3261 119.187 53.1554C119.433 52.9847 119.555 52.7554 119.555 52.4674C119.555 52.2754 119.491 52.1047 119.363 51.9554C119.235 51.8061 118.995 51.6941 118.643 51.6194L117.219 51.2834C116.505 51.1234 115.971 50.8674 115.619 50.5154C115.278 50.1527 115.107 49.6567 115.107 49.0274C115.107 48.5154 115.241 48.0727 115.507 47.6994C115.785 47.3261 116.158 47.0434 116.627 46.8514C117.097 46.6487 117.635 46.5474 118.243 46.5474C118.83 46.5474 119.347 46.6541 119.795 46.8674C120.243 47.0807 120.59 47.3794 120.835 47.7634C121.091 48.1474 121.225 48.5954 121.235 49.1074H119.379C119.379 48.7661 119.273 48.4994 119.059 48.3074C118.846 48.1047 118.547 48.0034 118.163 48.0034C117.779 48.0034 117.481 48.0887 117.267 48.2594C117.054 48.4301 116.947 48.6594 116.947 48.9474C116.947 49.3847 117.289 49.6834 117.971 49.8434L119.395 50.1794C120.057 50.3287 120.553 50.5687 120.883 50.8994C121.225 51.2301 121.395 51.6994 121.395 52.3074C121.395 52.8407 121.257 53.3047 120.979 53.6994C120.702 54.0834 120.313 54.3821 119.811 54.5954C119.31 54.7981 118.734 54.8994 118.083 54.8994C117.102 54.8994 116.318 54.6594 115.731 54.1794C115.155 53.6994 114.867 53.0701 114.867 52.2914ZM122.754 52.2914H124.61C124.62 52.6327 124.748 52.9047 124.994 53.1074C125.239 53.3101 125.58 53.4114 126.018 53.4114C126.487 53.4114 126.839 53.3261 127.074 53.1554C127.319 52.9847 127.442 52.7554 127.442 52.4674C127.442 52.2754 127.378 52.1047 127.25 51.9554C127.122 51.8061 126.882 51.6941 126.53 51.6194L125.106 51.2834C124.391 51.1234 123.858 50.8674 123.506 50.5154C123.164 50.1527 122.994 49.6567 122.994 49.0274C122.994 48.5154 123.127 48.0727 123.394 47.6994C123.671 47.3261 124.044 47.0434 124.514 46.8514C124.983 46.6487 125.522 46.5474 126.13 46.5474C126.716 46.5474 127.234 46.6541 127.682 46.8674C128.13 47.0807 128.476 47.3794 128.722 47.7634C128.978 48.1474 129.111 48.5954 129.122 49.1074H127.266C127.266 48.7661 127.159 48.4994 126.946 48.3074C126.732 48.1047 126.434 48.0034 126.05 48.0034C125.666 48.0034 125.367 48.0887 125.154 48.2594C124.94 48.4301 124.834 48.6594 124.834 48.9474C124.834 49.3847 125.175 49.6834 125.858 49.8434L127.282 50.1794C127.943 50.3287 128.439 50.5687 128.77 50.8994C129.111 51.2301 129.282 51.6994 129.282 52.3074C129.282 52.8407 129.143 53.3047 128.866 53.6994C128.588 54.0834 128.199 54.3821 127.698 54.5954C127.196 54.7981 126.62 54.8994 125.97 54.8994C124.988 54.8994 124.204 54.6594 123.618 54.1794C123.042 53.6994 122.754 53.0701 122.754 52.2914ZM136.608 46.7874H138.56V54.6914H136.752L136.608 53.6354C136.373 54.0087 136.021 54.3127 135.552 54.5474C135.083 54.7821 134.581 54.8994 134.048 54.8994C133.141 54.8994 132.432 54.6114 131.92 54.0354C131.408 53.4594 131.152 52.6914 131.152 51.7314V46.7874H133.104V51.0434C133.104 51.7901 133.248 52.3287 133.536 52.6594C133.824 52.9901 134.24 53.1554 134.784 53.1554C135.403 53.1554 135.861 52.9741 136.16 52.6114C136.459 52.2381 136.608 51.6781 136.608 50.9314V46.7874ZM143.008 54.6914H141.056V46.7874H142.848L143.088 48.1954L142.864 48.0034C143.024 47.6194 143.317 47.2834 143.744 46.9954C144.171 46.6967 144.704 46.5474 145.344 46.5474C146.037 46.5474 146.603 46.7287 147.04 47.0914C147.488 47.4541 147.797 47.9341 147.968 48.5314H147.648C147.765 47.9341 148.064 47.4541 148.544 47.0914C149.035 46.7287 149.627 46.5474 150.32 46.5474C151.28 46.5474 152.016 46.8194 152.528 47.3634C153.04 47.8967 153.296 48.6167 153.296 49.5234V54.6914H151.36V50.0354C151.36 49.4701 151.216 49.0434 150.928 48.7554C150.651 48.4567 150.277 48.3074 149.808 48.3074C149.509 48.3074 149.232 48.3767 148.976 48.5154C148.731 48.6541 148.533 48.8621 148.384 49.1394C148.235 49.4167 148.16 49.7741 148.16 50.2114V54.6914H146.208V50.0194C146.208 49.4647 146.069 49.0434 145.792 48.7554C145.515 48.4674 145.147 48.3234 144.688 48.3234C144.379 48.3234 144.096 48.3927 143.84 48.5314C143.584 48.6594 143.381 48.8674 143.232 49.1554C143.083 49.4327 143.008 49.7847 143.008 50.2114V54.6914ZM159.228 54.8994C158.45 54.8994 157.756 54.7234 157.148 54.3714C156.551 54.0087 156.082 53.5181 155.74 52.8994C155.399 52.2701 155.228 51.5501 155.228 50.7394C155.228 49.9181 155.394 49.1927 155.724 48.5634C156.055 47.9341 156.519 47.4434 157.116 47.0914C157.714 46.7287 158.396 46.5474 159.164 46.5474C159.964 46.5474 160.652 46.7181 161.228 47.0594C161.804 47.3901 162.247 47.8541 162.556 48.4514C162.876 49.0487 163.036 49.7634 163.036 50.5954V51.1874L156.252 51.2034L156.284 49.9554H161.1C161.1 49.4114 160.924 48.9741 160.572 48.6434C160.231 48.3127 159.767 48.1474 159.18 48.1474C158.722 48.1474 158.332 48.2434 158.012 48.4354C157.703 48.6274 157.468 48.9154 157.308 49.2994C157.148 49.6834 157.068 50.1527 157.068 50.7074C157.068 51.5607 157.25 52.2061 157.612 52.6434C157.986 53.0807 158.535 53.2994 159.26 53.2994C159.794 53.2994 160.231 53.1981 160.572 52.9954C160.924 52.7927 161.154 52.5047 161.26 52.1314H163.068C162.898 52.9954 162.471 53.6727 161.788 54.1634C161.116 54.6541 160.263 54.8994 159.228 54.8994ZM164.471 52.2914H166.327C166.337 52.6327 166.465 52.9047 166.711 53.1074C166.956 53.3101 167.297 53.4114 167.735 53.4114C168.204 53.4114 168.556 53.3261 168.791 53.1554C169.036 52.9847 169.159 52.7554 169.159 52.4674C169.159 52.2754 169.095 52.1047 168.967 51.9554C168.839 51.8061 168.599 51.6941 168.247 51.6194L166.823 51.2834C166.108 51.1234 165.575 50.8674 165.223 50.5154C164.881 50.1527 164.711 49.6567 164.711 49.0274C164.711 48.5154 164.844 48.0727 165.111 47.6994C165.388 47.3261 165.761 47.0434 166.231 46.8514C166.7 46.6487 167.239 46.5474 167.847 46.5474C168.433 46.5474 168.951 46.6541 169.399 46.8674C169.847 47.0807 170.193 47.3794 170.439 47.7634C170.695 48.1474 170.828 48.5954 170.839 49.1074H168.983C168.983 48.7661 168.876 48.4994 168.663 48.3074C168.449 48.1047 168.151 48.0034 167.767 48.0034C167.383 48.0034 167.084 48.0887 166.871 48.2594C166.657 48.4301 166.551 48.6594 166.551 48.9474C166.551 49.3847 166.892 49.6834 167.575 49.8434L168.999 50.1794C169.66 50.3287 170.156 50.5687 170.487 50.8994C170.828 51.2301 170.999 51.6994 170.999 52.3074C170.999 52.8407 170.86 53.3047 170.583 53.6994C170.305 54.0834 169.916 54.3821 169.415 54.5954C168.913 54.7981 168.337 54.8994 167.687 54.8994C166.705 54.8994 165.921 54.6594 165.335 54.1794C164.759 53.6994 164.471 53.0701 164.471 52.2914ZM25.344 64.9954V76.6914H23.296V64.9954H25.344ZM35.2731 76.8994C34.4411 76.8994 33.7798 76.6754 33.2891 76.2274C32.8091 75.7687 32.5691 75.1714 32.5691 74.4354C32.5691 73.7101 32.8198 73.1341 33.3211 72.7074C33.8331 72.2701 34.5585 72.0141 35.4971 71.9394L37.8651 71.7474V71.5714C37.8651 71.2087 37.7958 70.9207 37.6571 70.7074C37.5291 70.4834 37.3425 70.3234 37.0971 70.2274C36.8518 70.1207 36.5638 70.0674 36.2331 70.0674C35.6571 70.0674 35.2145 70.1847 34.9051 70.4194C34.5958 70.6434 34.4411 70.9634 34.4411 71.3794H32.7771C32.7771 70.8034 32.9211 70.3074 33.2091 69.8914C33.5078 69.4647 33.9238 69.1341 34.4571 68.8994C35.0011 68.6647 35.6251 68.5474 36.3291 68.5474C37.0438 68.5474 37.6571 68.6754 38.1691 68.9314C38.6811 69.1767 39.0758 69.5501 39.3531 70.0514C39.6305 70.5421 39.7691 71.1554 39.7691 71.8914V76.6914H38.0571L37.9131 75.5234C37.7425 75.9287 37.4118 76.2594 36.9211 76.5154C36.4411 76.7714 35.8918 76.8994 35.2731 76.8994ZM35.8971 75.4274C36.5051 75.4274 36.9851 75.2567 37.3371 74.9154C37.6998 74.5741 37.8811 74.0994 37.8811 73.4914V73.0754L36.2331 73.2034C35.6251 73.2567 35.1931 73.3847 34.9371 73.5874C34.6811 73.7794 34.5531 74.0354 34.5531 74.3554C34.5531 74.7074 34.6705 74.9741 34.9051 75.1554C35.1398 75.3367 35.4705 75.4274 35.8971 75.4274ZM44.1348 76.6914H42.1988V64.7874H44.1348V76.6914ZM51.6224 68.7554V70.5634H50.9024C50.1877 70.5634 49.6277 70.7554 49.2224 71.1394C48.817 71.5127 48.6144 72.0834 48.6144 72.8514V76.6914H46.6624V68.8034H48.5024L48.6624 70.4354H48.4704C48.577 69.9127 48.8277 69.4861 49.2224 69.1554C49.617 68.8247 50.129 68.6594 50.7584 68.6594C50.897 68.6594 51.0357 68.6647 51.1744 68.6754C51.313 68.6861 51.4624 68.7127 51.6224 68.7554ZM56.694 76.8994C55.9153 76.8994 55.222 76.7234 54.614 76.3714C54.0167 76.0087 53.5473 75.5181 53.206 74.8994C52.8647 74.2701 52.694 73.5501 52.694 72.7394C52.694 71.9181 52.8593 71.1927 53.19 70.5634C53.5207 69.9341 53.9847 69.4434 54.582 69.0914C55.1793 68.7287 55.862 68.5474 56.63 68.5474C57.43 68.5474 58.118 68.7181 58.694 69.0594C59.27 69.3901 59.7127 69.8541 60.022 70.4514C60.342 71.0487 60.502 71.7634 60.502 72.5954V73.1874L53.718 73.2034L53.75 71.9554H58.566C58.566 71.4114 58.39 70.9741 58.038 70.6434C57.6967 70.3127 57.2327 70.1474 56.646 70.1474C56.1873 70.1474 55.798 70.2434 55.478 70.4354C55.1687 70.6274 54.934 70.9154 54.774 71.2994C54.614 71.6834 54.534 72.1527 54.534 72.7074C54.534 73.5607 54.7153 74.2061 55.078 74.6434C55.4513 75.0807 56.0007 75.2994 56.726 75.2994C57.2593 75.2994 57.6967 75.1981 58.038 74.9954C58.39 74.7927 58.6193 74.5047 58.726 74.1314H60.534C60.3633 74.9954 59.9367 75.6727 59.254 76.1634C58.582 76.6541 57.7287 76.8994 56.694 76.8994ZM64.8181 76.8994C63.9861 76.8994 63.3248 76.6754 62.8341 76.2274C62.3541 75.7687 62.1141 75.1714 62.1141 74.4354C62.1141 73.7101 62.3648 73.1341 62.8661 72.7074C63.3781 72.2701 64.1035 72.0141 65.0421 71.9394L67.4101 71.7474V71.5714C67.4101 71.2087 67.3408 70.9207 67.2021 70.7074C67.0741 70.4834 66.8875 70.3234 66.6421 70.2274C66.3968 70.1207 66.1088 70.0674 65.7781 70.0674C65.2021 70.0674 64.7595 70.1847 64.4501 70.4194C64.1408 70.6434 63.9861 70.9634 63.9861 71.3794H62.3221C62.3221 70.8034 62.4661 70.3074 62.7541 69.8914C63.0528 69.4647 63.4688 69.1341 64.0021 68.8994C64.5461 68.6647 65.1701 68.5474 65.8741 68.5474C66.5888 68.5474 67.2021 68.6754 67.7141 68.9314C68.2261 69.1767 68.6208 69.5501 68.8981 70.0514C69.1755 70.5421 69.3141 71.1554 69.3141 71.8914V76.6914H67.6021L67.4581 75.5234C67.2875 75.9287 66.9568 76.2594 66.4661 76.5154C65.9861 76.7714 65.4368 76.8994 64.8181 76.8994ZM65.4421 75.4274C66.0501 75.4274 66.5301 75.2567 66.8821 74.9154C67.2448 74.5741 67.4261 74.0994 67.4261 73.4914V73.0754L65.7781 73.2034C65.1701 73.2567 64.7381 73.3847 64.4821 73.5874C64.2261 73.7794 64.0981 74.0354 64.0981 74.3554C64.0981 74.7074 64.2155 74.9741 64.4501 75.1554C64.6848 75.3367 65.0155 75.4274 65.4421 75.4274ZM74.9598 76.8994C74.1918 76.8994 73.5304 76.7287 72.9758 76.3874C72.4318 76.0354 72.0051 75.5501 71.6958 74.9314C71.3971 74.3127 71.2478 73.5927 71.2478 72.7714C71.2478 71.9501 71.3971 71.2247 71.6958 70.5954C72.0051 69.9554 72.4478 69.4541 73.0238 69.0914C73.5998 68.7287 74.2824 68.5474 75.0718 68.5474C75.6264 68.5474 76.1331 68.6594 76.5918 68.8834C77.0504 69.0967 77.4024 69.4007 77.6478 69.7954V64.7874H79.5838V76.6914H77.7918L77.6638 75.4594C77.4291 75.9074 77.0664 76.2594 76.5758 76.5154C76.0958 76.7714 75.5571 76.8994 74.9598 76.8994ZM75.3918 75.1074C75.8504 75.1074 76.2451 75.0114 76.5758 74.8194C76.9064 74.6167 77.1624 74.3341 77.3438 73.9714C77.5358 73.5981 77.6318 73.1767 77.6318 72.7074C77.6318 72.2274 77.5358 71.8114 77.3438 71.4594C77.1624 71.0967 76.9064 70.8141 76.5758 70.6114C76.2451 70.3981 75.8504 70.2914 75.3918 70.2914C74.9438 70.2914 74.5544 70.3981 74.2238 70.6114C73.8931 70.8141 73.6371 71.0967 73.4558 71.4594C73.2851 71.8221 73.1998 72.2381 73.1998 72.7074C73.1998 73.1767 73.2851 73.5927 73.4558 73.9554C73.6371 74.3181 73.8931 74.6007 74.2238 74.8034C74.5544 75.0061 74.9438 75.1074 75.3918 75.1074ZM83.266 68.7874L85.842 76.0834L84.786 78.0834L81.202 68.7874H83.266ZM81.41 80.3554V78.7394H82.578C82.834 78.7394 83.058 78.7074 83.25 78.6434C83.442 78.5901 83.6127 78.4834 83.762 78.3234C83.922 78.1634 84.0553 77.9287 84.162 77.6194L87.442 68.7874H89.458L85.586 78.4514C85.298 79.1767 84.9353 79.7047 84.498 80.0354C84.0607 80.3661 83.5167 80.5314 82.866 80.5314C82.5887 80.5314 82.3273 80.5154 82.082 80.4834C81.8473 80.4621 81.6233 80.4194 81.41 80.3554ZM97.8073 76.6914H95.8713V64.7874H97.8073V72.0994L100.879 68.7874H103.327L100.319 71.9234L103.263 76.6914H101.023L98.9593 73.3634L97.8073 74.5634V76.6914ZM106.881 76.6914H104.929V68.7874H106.737L106.897 69.8114C107.142 69.4167 107.489 69.1074 107.937 68.8834C108.395 68.6594 108.891 68.5474 109.425 68.5474C110.417 68.5474 111.163 68.8407 111.665 69.4274C112.177 70.0141 112.433 70.8141 112.433 71.8274V76.6914H110.481V72.2914C110.481 71.6301 110.331 71.1394 110.033 70.8194C109.734 70.4887 109.329 70.3234 108.817 70.3234C108.209 70.3234 107.734 70.5154 107.393 70.8994C107.051 71.2834 106.881 71.7954 106.881 72.4354V76.6914ZM114.367 72.7234C114.367 71.9021 114.548 71.1821 114.911 70.5634C115.273 69.9341 115.775 69.4434 116.415 69.0914C117.055 68.7394 117.78 68.5634 118.591 68.5634C119.412 68.5634 120.137 68.7394 120.767 69.0914C121.407 69.4434 121.908 69.9341 122.271 70.5634C122.633 71.1821 122.815 71.9021 122.815 72.7234C122.815 73.5447 122.633 74.2701 122.271 74.8994C121.908 75.5181 121.407 76.0034 120.767 76.3554C120.137 76.7074 119.412 76.8834 118.591 76.8834C117.78 76.8834 117.055 76.7074 116.415 76.3554C115.775 76.0034 115.273 75.5181 114.911 74.8994C114.548 74.2701 114.367 73.5447 114.367 72.7234ZM116.319 72.7234C116.319 73.2034 116.415 73.6247 116.607 73.9874C116.809 74.3501 117.076 74.6327 117.407 74.8354C117.748 75.0381 118.143 75.1394 118.591 75.1394C119.039 75.1394 119.433 75.0381 119.775 74.8354C120.116 74.6327 120.383 74.3501 120.575 73.9874C120.767 73.6247 120.863 73.2034 120.863 72.7234C120.863 72.2327 120.767 71.8114 120.575 71.4594C120.383 71.0967 120.116 70.8141 119.775 70.6114C119.433 70.4087 119.039 70.3074 118.591 70.3074C118.143 70.3074 117.748 70.4087 117.407 70.6114C117.076 70.8141 116.809 71.0967 116.607 71.4594C116.415 71.8114 116.319 72.2327 116.319 72.7234ZM126.211 76.6914L123.651 68.7874H125.683L126.723 72.1794C126.808 72.4887 126.893 72.8141 126.979 73.1554C127.064 73.4967 127.139 73.8541 127.203 74.2274C127.256 73.9714 127.304 73.7367 127.347 73.5234C127.4 73.3101 127.459 73.1021 127.523 72.8994C127.587 72.6861 127.661 72.4461 127.747 72.1794L128.835 68.7874H130.819L131.875 72.1794C131.896 72.2541 131.928 72.3821 131.971 72.5634C132.024 72.7341 132.077 72.9207 132.131 73.1234C132.184 73.3261 132.232 73.5287 132.275 73.7314C132.328 73.9234 132.365 74.0887 132.387 74.2274C132.429 74.0247 132.483 73.7954 132.547 73.5394C132.611 73.2834 132.675 73.0381 132.739 72.8034C132.813 72.5581 132.872 72.3501 132.915 72.1794L133.971 68.7874H136.035L133.299 76.6914H131.475L130.387 73.2674C130.227 72.7447 130.099 72.3021 130.003 71.9394C129.907 71.5661 129.843 71.2781 129.811 71.0754C129.779 71.2674 129.72 71.5234 129.635 71.8434C129.549 72.1634 129.405 72.6487 129.203 73.2994L128.115 76.6914H126.211ZM144.233 76.6914L141.673 68.7874H143.705L144.745 72.1794C144.831 72.4887 144.916 72.8141 145.001 73.1554C145.087 73.4967 145.161 73.8541 145.225 74.2274C145.279 73.9714 145.327 73.7367 145.369 73.5234C145.423 73.3101 145.481 73.1021 145.545 72.8994C145.609 72.6861 145.684 72.4461 145.769 72.1794L146.857 68.7874H148.841L149.897 72.1794C149.919 72.2541 149.951 72.3821 149.993 72.5634C150.047 72.7341 150.1 72.9207 150.153 73.1234C150.207 73.3261 150.255 73.5287 150.297 73.7314C150.351 73.9234 150.388 74.0887 150.409 74.2274C150.452 74.0247 150.505 73.7954 150.569 73.5394C150.633 73.2834 150.697 73.0381 150.761 72.8034C150.836 72.5581 150.895 72.3501 150.937 72.1794L151.993 68.7874H154.057L151.321 76.6914H149.497L148.409 73.2674C148.249 72.7447 148.121 72.3021 148.025 71.9394C147.929 71.5661 147.865 71.2781 147.833 71.0754C147.801 71.2674 147.743 71.5234 147.657 71.8434C147.572 72.1634 147.428 72.6487 147.225 73.2994L146.137 76.6914H144.233ZM157.671 76.6914H155.719V64.7874H157.687V69.8114C157.933 69.4274 158.274 69.1234 158.711 68.8994C159.159 68.6647 159.671 68.5474 160.247 68.5474C161.218 68.5474 161.954 68.8407 162.455 69.4274C162.967 70.0141 163.223 70.8141 163.223 71.8274V76.6914H161.271V72.2914C161.271 71.8434 161.202 71.4754 161.063 71.1874C160.925 70.8994 160.733 70.6861 160.487 70.5474C160.242 70.3981 159.954 70.3234 159.623 70.3234C159.218 70.3234 158.866 70.4141 158.567 70.5954C158.279 70.7661 158.055 71.0061 157.895 71.3154C157.746 71.6247 157.671 71.9767 157.671 72.3714V76.6914ZM167.973 76.8994C167.141 76.8994 166.48 76.6754 165.989 76.2274C165.509 75.7687 165.269 75.1714 165.269 74.4354C165.269 73.7101 165.52 73.1341 166.021 72.7074C166.533 72.2701 167.258 72.0141 168.197 71.9394L170.565 71.7474V71.5714C170.565 71.2087 170.496 70.9207 170.357 70.7074C170.229 70.4834 170.042 70.3234 169.797 70.2274C169.552 70.1207 169.264 70.0674 168.933 70.0674C168.357 70.0674 167.914 70.1847 167.605 70.4194C167.296 70.6434 167.141 70.9634 167.141 71.3794H165.477C165.477 70.8034 165.621 70.3074 165.909 69.8914C166.208 69.4647 166.624 69.1341 167.157 68.8994C167.701 68.6647 168.325 68.5474 169.029 68.5474C169.744 68.5474 170.357 68.6754 170.869 68.9314C171.381 69.1767 171.776 69.5501 172.053 70.0514C172.33 70.5421 172.469 71.1554 172.469 71.8914V76.6914H170.757L170.613 75.5234C170.442 75.9287 170.112 76.2594 169.621 76.5154C169.141 76.7714 168.592 76.8994 167.973 76.8994ZM168.597 75.4274C169.205 75.4274 169.685 75.2567 170.037 74.9154C170.4 74.5741 170.581 74.0994 170.581 73.4914V73.0754L168.933 73.2034C168.325 73.2567 167.893 73.3847 167.637 73.5874C167.381 73.7794 167.253 74.0354 167.253 74.3554C167.253 74.7074 167.37 74.9741 167.605 75.1554C167.84 75.3367 168.17 75.4274 168.597 75.4274ZM173.973 68.7874H178.965V70.4194H173.973V68.7874ZM177.445 76.6914H175.493V66.3234H177.445V76.6914ZM25.344 86.9954V98.6914H23.296V86.9954H25.344ZM29.6166 88.9154L29.7926 88.8674C29.7073 88.9314 29.6166 88.9847 29.5206 89.0274C29.4246 89.0594 29.302 89.0754 29.1526 89.0754C28.8753 89.0754 28.6353 88.9794 28.4326 88.7874C28.23 88.5954 28.1286 88.3234 28.1286 87.9714C28.1286 87.6194 28.2353 87.3314 28.4486 87.1074C28.6726 86.8834 28.9606 86.7714 29.3126 86.7714C29.686 86.7714 29.9953 86.9154 30.2406 87.2034C30.486 87.4807 30.6086 87.8594 30.6086 88.3394C30.6086 89.0114 30.406 89.5821 30.0006 90.0514C29.5953 90.5207 29.0726 90.7981 28.4326 90.8834V90.1154C28.774 90.0407 29.0566 89.9021 29.2806 89.6994C29.5046 89.4967 29.6166 89.2354 29.6166 88.9154ZM35.0606 98.6914H33.1086V90.7874H34.9006L35.1406 92.1954L34.9166 92.0034C35.0766 91.6194 35.37 91.2834 35.7966 90.9954C36.2233 90.6967 36.7566 90.5474 37.3966 90.5474C38.09 90.5474 38.6553 90.7287 39.0926 91.0914C39.5406 91.4541 39.85 91.9341 40.0206 92.5314H39.7006C39.818 91.9341 40.1166 91.4541 40.5966 91.0914C41.0873 90.7287 41.6793 90.5474 42.3726 90.5474C43.3326 90.5474 44.0686 90.8194 44.5806 91.3634C45.0926 91.8967 45.3486 92.6167 45.3486 93.5234V98.6914H43.4126V94.0354C43.4126 93.4701 43.2686 93.0434 42.9806 92.7554C42.7033 92.4567 42.33 92.3074 41.8606 92.3074C41.562 92.3074 41.2846 92.3767 41.0286 92.5154C40.7833 92.6541 40.586 92.8621 40.4366 93.1394C40.2873 93.4167 40.2126 93.7741 40.2126 94.2114V98.6914H38.2606V94.0194C38.2606 93.4647 38.122 93.0434 37.8446 92.7554C37.5673 92.4674 37.1993 92.3234 36.7406 92.3234C36.4313 92.3234 36.1486 92.3927 35.8926 92.5314C35.6366 92.6594 35.434 92.8674 35.2846 93.1554C35.1353 93.4327 35.0606 93.7847 35.0606 94.2114V98.6914ZM55.7854 98.8994C55.0174 98.8994 54.356 98.7287 53.8014 98.3874C53.2574 98.0354 52.8307 97.5501 52.5214 96.9314C52.2227 96.3127 52.0734 95.5927 52.0734 94.7714C52.0734 93.9501 52.2227 93.2247 52.5214 92.5954C52.8307 91.9554 53.2734 91.4541 53.8494 91.0914C54.4254 90.7287 55.108 90.5474 55.8974 90.5474C56.452 90.5474 56.9587 90.6594 57.4174 90.8834C57.876 91.0967 58.228 91.4007 58.4734 91.7954V86.7874H60.4094V98.6914H58.6174L58.4894 97.4594C58.2547 97.9074 57.892 98.2594 57.4014 98.5154C56.9214 98.7714 56.3827 98.8994 55.7854 98.8994ZM56.2174 97.1074C56.676 97.1074 57.0707 97.0114 57.4014 96.8194C57.732 96.6167 57.988 96.3341 58.1694 95.9714C58.3614 95.5981 58.4574 95.1767 58.4574 94.7074C58.4574 94.2274 58.3614 93.8114 58.1694 93.4594C57.988 93.0967 57.732 92.8141 57.4014 92.6114C57.0707 92.3981 56.676 92.2914 56.2174 92.2914C55.7694 92.2914 55.38 92.3981 55.0494 92.6114C54.7187 92.8141 54.4627 93.0967 54.2814 93.4594C54.1107 93.8221 54.0254 94.2381 54.0254 94.7074C54.0254 95.1767 54.1107 95.5927 54.2814 95.9554C54.4627 96.3181 54.7187 96.6007 55.0494 96.8034C55.38 97.0061 55.7694 97.1074 56.2174 97.1074ZM62.4596 94.7234C62.4596 93.9021 62.641 93.1821 63.0036 92.5634C63.3663 91.9341 63.8676 91.4434 64.5076 91.0914C65.1476 90.7394 65.873 90.5634 66.6836 90.5634C67.505 90.5634 68.2303 90.7394 68.8596 91.0914C69.4996 91.4434 70.001 91.9341 70.3636 92.5634C70.7263 93.1821 70.9076 93.9021 70.9076 94.7234C70.9076 95.5447 70.7263 96.2701 70.3636 96.8994C70.001 97.5181 69.4996 98.0034 68.8596 98.3554C68.2303 98.7074 67.505 98.8834 66.6836 98.8834C65.873 98.8834 65.1476 98.7074 64.5076 98.3554C63.8676 98.0034 63.3663 97.5181 63.0036 96.8994C62.641 96.2701 62.4596 95.5447 62.4596 94.7234ZM64.4116 94.7234C64.4116 95.2034 64.5076 95.6247 64.6996 95.9874C64.9023 96.3501 65.169 96.6327 65.4996 96.8354C65.841 97.0381 66.2356 97.1394 66.6836 97.1394C67.1316 97.1394 67.5263 97.0381 67.8676 96.8354C68.209 96.6327 68.4756 96.3501 68.6676 95.9874C68.8596 95.6247 68.9556 95.2034 68.9556 94.7234C68.9556 94.2327 68.8596 93.8114 68.6676 93.4594C68.4756 93.0967 68.209 92.8141 67.8676 92.6114C67.5263 92.4087 67.1316 92.3074 66.6836 92.3074C66.2356 92.3074 65.841 92.4087 65.4996 92.6114C65.169 92.8141 64.9023 93.0967 64.6996 93.4594C64.5076 93.8114 64.4116 94.2327 64.4116 94.7234ZM72.9349 98.6914V90.7874H74.8869V98.6914H72.9349ZM73.8949 89.2034C73.5642 89.2034 73.2815 89.0914 73.0469 88.8674C72.8229 88.6327 72.7109 88.3501 72.7109 88.0194C72.7109 87.6887 72.8229 87.4114 73.0469 87.1874C73.2815 86.9634 73.5642 86.8514 73.8949 86.8514C74.2255 86.8514 74.5029 86.9634 74.7269 87.1874C74.9615 87.4114 75.0789 87.6887 75.0789 88.0194C75.0789 88.3501 74.9615 88.6327 74.7269 88.8674C74.5029 89.0914 74.2255 89.2034 73.8949 89.2034ZM79.3356 98.6914H77.3836V90.7874H79.1916L79.3516 91.8114C79.597 91.4167 79.9436 91.1074 80.3916 90.8834C80.8503 90.6594 81.3463 90.5474 81.8796 90.5474C82.8716 90.5474 83.6183 90.8407 84.1196 91.4274C84.6316 92.0141 84.8876 92.8141 84.8876 93.8274V98.6914H82.9356V94.2914C82.9356 93.6301 82.7863 93.1394 82.4876 92.8194C82.189 92.4887 81.7836 92.3234 81.2716 92.3234C80.6636 92.3234 80.189 92.5154 79.8476 92.8994C79.5063 93.2834 79.3356 93.7954 79.3356 94.4354V98.6914ZM86.8375 94.5634C86.8375 93.7954 86.9922 93.1127 87.3015 92.5154C87.6215 91.9074 88.0642 91.4274 88.6295 91.0754C89.1948 90.7234 89.8508 90.5474 90.5975 90.5474C91.2695 90.5474 91.8455 90.6967 92.3255 90.9954C92.8055 91.2834 93.1415 91.6887 93.3335 92.2114L93.1255 92.3874L93.2855 90.7874H95.0935V98.2914C95.0935 99.1661 94.9228 99.9234 94.5815 100.563C94.2508 101.214 93.7762 101.71 93.1575 102.051C92.5495 102.403 91.8135 102.579 90.9495 102.579C89.8188 102.579 88.8908 102.275 88.1655 101.667C87.4402 101.059 87.0135 100.227 86.8855 99.1714H88.8375C88.9015 99.6834 89.1148 100.083 89.4775 100.371C89.8508 100.659 90.3415 100.803 90.9495 100.803C91.6215 100.803 92.1548 100.606 92.5495 100.211C92.9548 99.8274 93.1575 99.3047 93.1575 98.6434V96.6754L93.3815 96.8834C93.1895 97.3847 92.8375 97.7847 92.3255 98.0834C91.8135 98.3821 91.2215 98.5314 90.5495 98.5314C89.8028 98.5314 89.1522 98.3607 88.5975 98.0194C88.0428 97.6781 87.6108 97.2087 87.3015 96.6114C86.9922 96.0141 86.8375 95.3314 86.8375 94.5634ZM88.8055 94.5154C88.8055 94.9634 88.8908 95.3634 89.0615 95.7154C89.2428 96.0567 89.4935 96.3287 89.8135 96.5314C90.1335 96.7341 90.5068 96.8354 90.9335 96.8354C91.3815 96.8354 91.7655 96.7394 92.0855 96.5474C92.4162 96.3447 92.6668 96.0727 92.8375 95.7314C93.0188 95.3794 93.1095 94.9741 93.1095 94.5154C93.1095 94.0567 93.0242 93.6621 92.8535 93.3314C92.6828 92.9901 92.4322 92.7234 92.1015 92.5314C91.7815 92.3394 91.3922 92.2434 90.9335 92.2434C90.4962 92.2434 90.1175 92.3447 89.7975 92.5474C89.4775 92.7394 89.2322 93.0061 89.0615 93.3474C88.8908 93.6887 88.8055 94.0781 88.8055 94.5154ZM98.9056 98.8834C98.5536 98.8834 98.2496 98.7607 97.9936 98.5154C97.7376 98.2701 97.6096 97.9714 97.6096 97.6194C97.6096 97.2674 97.7376 96.9687 97.9936 96.7234C98.2496 96.4674 98.5536 96.3394 98.9056 96.3394C99.2576 96.3394 99.5616 96.4674 99.8176 96.7234C100.074 96.9687 100.202 97.2674 100.202 97.6194C100.202 97.9714 100.074 98.2701 99.8176 98.5154C99.5616 98.7607 99.2576 98.8834 98.9056 98.8834ZM109.858 86.9954V98.6914H107.81V86.9954H109.858ZM120.683 98.8994C119.915 98.8994 119.254 98.7287 118.699 98.3874C118.155 98.0354 117.729 97.5501 117.419 96.9314C117.121 96.3127 116.971 95.5927 116.971 94.7714C116.971 93.9501 117.121 93.2247 117.419 92.5954C117.729 91.9554 118.171 91.4541 118.747 91.0914C119.323 90.7287 120.006 90.5474 120.795 90.5474C121.35 90.5474 121.857 90.6594 122.315 90.8834C122.774 91.0967 123.126 91.4007 123.371 91.7954V86.7874H125.307V98.6914H123.515L123.387 97.4594C123.153 97.9074 122.79 98.2594 122.299 98.5154C121.819 98.7714 121.281 98.8994 120.683 98.8994ZM121.115 97.1074C121.574 97.1074 121.969 97.0114 122.299 96.8194C122.63 96.6167 122.886 96.3341 123.067 95.9714C123.259 95.5981 123.355 95.1767 123.355 94.7074C123.355 94.2274 123.259 93.8114 123.067 93.4594C122.886 93.0967 122.63 92.8141 122.299 92.6114C121.969 92.3981 121.574 92.2914 121.115 92.2914C120.667 92.2914 120.278 92.3981 119.947 92.6114C119.617 92.8141 119.361 93.0967 119.179 93.4594C119.009 93.8221 118.923 94.2381 118.923 94.7074C118.923 95.1767 119.009 95.5927 119.179 95.9554C119.361 96.3181 119.617 96.6007 119.947 96.8034C120.278 97.0061 120.667 97.1074 121.115 97.1074ZM127.358 94.7234C127.358 93.9021 127.539 93.1821 127.902 92.5634C128.264 91.9341 128.766 91.4434 129.406 91.0914C130.046 90.7394 130.771 90.5634 131.582 90.5634C132.403 90.5634 133.128 90.7394 133.758 91.0914C134.398 91.4434 134.899 91.9341 135.262 92.5634C135.624 93.1821 135.806 93.9021 135.806 94.7234C135.806 95.5447 135.624 96.2701 135.262 96.8994C134.899 97.5181 134.398 98.0034 133.758 98.3554C133.128 98.7074 132.403 98.8834 131.582 98.8834C130.771 98.8834 130.046 98.7074 129.406 98.3554C128.766 98.0034 128.264 97.5181 127.902 96.8994C127.539 96.2701 127.358 95.5447 127.358 94.7234ZM129.31 94.7234C129.31 95.2034 129.406 95.6247 129.598 95.9874C129.8 96.3501 130.067 96.6327 130.398 96.8354C130.739 97.0381 131.134 97.1394 131.582 97.1394C132.03 97.1394 132.424 97.0381 132.766 96.8354C133.107 96.6327 133.374 96.3501 133.566 95.9874C133.758 95.6247 133.854 95.2034 133.854 94.7234C133.854 94.2327 133.758 93.8114 133.566 93.4594C133.374 93.0967 133.107 92.8141 132.766 92.6114C132.424 92.4087 132.03 92.3074 131.582 92.3074C131.134 92.3074 130.739 92.4087 130.398 92.6114C130.067 92.8141 129.8 93.0967 129.598 93.4594C129.406 93.8114 129.31 94.2327 129.31 94.7234ZM139.785 98.6914H137.833V90.7874H139.641L139.801 91.8114C140.046 91.4167 140.393 91.1074 140.841 90.8834C141.3 90.6594 141.796 90.5474 142.329 90.5474C143.321 90.5474 144.068 90.8407 144.569 91.4274C145.081 92.0141 145.337 92.8141 145.337 93.8274V98.6914H143.385V94.2914C143.385 93.6301 143.236 93.1394 142.937 92.8194C142.638 92.4887 142.233 92.3234 141.721 92.3234C141.113 92.3234 140.638 92.5154 140.297 92.8994C139.956 93.2834 139.785 93.7954 139.785 94.4354V98.6914ZM148.91 88.9154L149.086 88.8674C149.001 88.9314 148.91 88.9847 148.814 89.0274C148.718 89.0594 148.596 89.0754 148.446 89.0754C148.169 89.0754 147.929 88.9794 147.726 88.7874C147.524 88.5954 147.422 88.3234 147.422 87.9714C147.422 87.6194 147.529 87.3314 147.742 87.1074C147.966 86.8834 148.254 86.7714 148.606 86.7714C148.98 86.7714 149.289 86.9154 149.534 87.2034C149.78 87.4807 149.902 87.8594 149.902 88.3394C149.902 89.0114 149.7 89.5821 149.294 90.0514C148.889 90.5207 148.366 90.7981 147.726 90.8834V90.1154C148.068 90.0407 148.35 89.9021 148.574 89.6994C148.798 89.4967 148.91 89.2354 148.91 88.9154ZM151.618 90.7874H156.61V92.4194H151.618V90.7874ZM155.09 98.6914H153.138V88.3234H155.09V98.6914ZM159.147 98.8834C158.795 98.8834 158.491 98.7607 158.235 98.5154C157.979 98.2701 157.851 97.9714 157.851 97.6194C157.851 97.2674 157.979 96.9687 158.235 96.7234C158.491 96.4674 158.795 96.3394 159.147 96.3394C159.499 96.3394 159.803 96.4674 160.059 96.7234C160.315 96.9687 160.443 97.2674 160.443 97.6194C160.443 97.9714 160.315 98.2701 160.059 98.5154C159.803 98.7607 159.499 98.8834 159.147 98.8834Z" fill="#F7F7F7"/>
</svg>
