<svg width="155" height="148" viewBox="0 0 155 148" fill="none" xmlns="http://www.w3.org/2000/svg">
<path d="M71.72 5.45588C74.9755 2.76025 79.6878 2.76025 82.9433 5.45588L94.026 14.6325C95.7978 16.0996 98.0737 16.8145 100.366 16.624L114.964 15.4111C119.284 15.0522 123.221 17.893 124.243 22.1057L127.382 35.0454C127.952 37.3935 129.462 39.404 131.558 40.6054L143.47 47.432C147.386 49.6762 148.968 54.5195 147.133 58.6432L141.892 70.4233C140.878 72.7004 140.878 75.3004 141.892 77.5775L147.133 89.3577C148.968 93.4813 147.386 98.3246 143.47 100.569L131.558 107.395C129.462 108.597 127.952 110.607 127.382 112.955L124.243 125.895C123.221 130.108 119.284 132.949 114.964 132.59L100.366 131.377C98.0737 131.186 95.7978 131.901 94.0259 133.368L82.9433 142.545C79.6878 145.241 74.9755 145.241 71.72 142.545L60.6374 133.368C58.8656 131.901 56.5896 131.186 54.2972 131.377L39.6997 132.59C35.3798 132.949 31.442 130.108 30.4201 125.895L27.2814 112.955C26.7118 110.607 25.2018 108.597 23.1055 107.395L11.1938 100.569C7.27782 98.3246 5.69499 93.4813 7.52988 89.3577L12.7717 77.5775C13.7849 75.3004 13.7849 72.7004 12.7717 70.4233L7.52988 58.6432C5.69499 54.5195 7.27782 49.6762 11.1938 47.432L23.1055 40.6054C25.2018 39.404 26.7118 37.3935 27.2814 35.0454L30.4201 22.1057C31.442 17.893 35.3797 15.0522 39.6997 15.4111L54.2972 16.624C56.5896 16.8145 58.8656 16.0996 60.6374 14.6325L71.72 5.45588Z" fill="#ADC178"/>
<path d="M71.7581 9.94459C74.7959 7.42929 79.1929 7.4293 82.2306 9.9446L92.5719 18.5073C94.2252 19.8763 96.3488 20.5433 98.488 20.3656L112.109 19.2339C116.14 18.8989 119.814 21.5497 120.768 25.4806L123.696 37.5547C124.228 39.7457 125.637 41.6217 127.593 42.7427L138.708 49.1126C142.362 51.2067 143.839 55.726 142.127 59.5738L137.236 70.5659C136.29 72.6907 136.29 75.1167 137.236 77.2415L142.127 88.2336C143.839 92.0814 142.362 96.6007 138.708 98.6948L127.593 105.065C125.637 106.186 124.228 108.062 123.696 110.253L120.768 122.327C119.814 126.258 116.14 128.908 112.109 128.574L98.488 127.442C96.3488 127.264 94.2252 127.931 92.5719 129.3L82.2306 137.863C79.1929 140.378 74.7959 140.378 71.7581 137.863L61.4169 129.3C59.7636 127.931 57.64 127.264 55.5008 127.442L41.8799 128.574C37.8489 128.908 34.1746 126.258 33.2211 122.327L30.2923 110.253C29.7609 108.062 28.3519 106.186 26.3958 105.065L15.2809 98.6948C11.6269 96.6007 10.15 92.0814 11.8622 88.2336L16.7533 77.2415C17.6987 75.1167 17.6987 72.6907 16.7533 70.5659L11.8622 59.5738C10.15 55.726 11.627 51.2067 15.281 49.1126L26.3958 42.7427C28.3519 41.6217 29.7609 39.7457 30.2923 37.5547L33.2211 25.4805C34.1746 21.5497 37.8489 18.8989 41.8799 19.2339L55.5008 20.3656C57.64 20.5433 59.7636 19.8763 61.4169 18.5073L71.7581 9.94459Z" fill="#437338"/>
<path d="M42.2683 78.6634C40.6581 78.6634 39.3559 78.4302 38.3616 77.9638C37.3673 77.4975 36.6414 76.8464 36.1839 76.0105C35.7351 75.1658 35.5107 74.1891 35.5107 73.0804C35.5107 71.9454 35.7307 70.9775 36.1707 70.1768C36.6106 69.3761 37.2177 68.7646 37.992 68.3422C38.7751 67.9199 39.6726 67.7087 40.6845 67.7087C41.3796 67.7087 41.9736 67.7791 42.4663 67.9199C42.959 68.0606 43.3374 68.3026 43.6014 68.6458C43.8741 68.9889 44.0149 69.4641 44.0237 70.0712C44.1469 69.7368 44.1909 69.3981 44.1557 69.0549C44.1293 68.703 44.0985 68.351 44.0633 67.9991C44.4856 67.9903 44.9652 67.9815 45.5019 67.9727C46.0387 67.9551 46.5622 67.9375 47.0725 67.9199C47.5829 67.9023 48.014 67.8935 48.366 67.8935C48.4276 68.1662 48.476 68.5094 48.5112 68.9229C48.5464 69.3277 48.564 69.7632 48.564 70.2296C48.5727 70.6959 48.5639 71.1535 48.5376 71.6022C48.5112 72.051 48.4672 72.4513 48.4056 72.8033C48.1328 72.8473 47.7896 72.8825 47.3761 72.9089C46.9625 72.9353 46.5138 72.9529 46.0299 72.9617C45.5547 72.9617 45.0796 72.9617 44.6044 72.9617C44.1381 72.9529 43.7069 72.9353 43.311 72.9089C42.915 72.8825 42.5895 72.8473 42.3343 72.8033L42.3211 72.2621H41.6216V73.9647H42.3211V73.3444C43.3418 73.2916 44.3449 73.2652 45.3303 73.2652C46.3246 73.2652 47.3805 73.2916 48.498 73.3444C48.454 74.5499 48.212 75.5485 47.772 76.3404C47.3409 77.1235 46.6766 77.7087 45.7791 78.0958C44.8816 78.4742 43.7113 78.6634 42.2683 78.6634ZM52.6395 78.505C51.8828 78.505 51.2668 78.4038 50.7917 78.2014C50.3166 77.999 49.9778 77.5855 49.7754 76.9608C49.661 76.5912 49.6038 76.2305 49.6038 75.8785C49.6126 75.5265 49.639 75.1746 49.683 74.8226C49.727 74.4707 49.749 74.1143 49.749 73.7536C49.749 73.3048 49.7006 72.9573 49.6038 72.7109C49.5158 72.4557 49.4147 72.2753 49.3003 72.1697C49.1859 72.0642 49.0847 72.007 48.9967 71.9982C48.9087 71.7078 48.8471 71.3646 48.8119 70.9687C48.7855 70.5639 48.7899 70.1636 48.8251 69.7676C48.8691 69.3717 48.9439 69.0461 49.0495 68.791C49.4631 68.8438 49.9294 68.8877 50.4485 68.9229C50.9677 68.9493 51.5 68.9625 52.0455 68.9625C52.6967 68.9625 53.295 68.9405 53.8405 68.8965C54.3949 68.8526 54.8348 68.813 55.1604 68.7778V73.8591H55.6355V72.0378C55.5827 71.7298 55.5475 71.3646 55.5299 70.9423C55.5211 70.52 55.5299 70.1108 55.5563 69.7148C55.5827 69.3189 55.6267 69.0065 55.6883 68.7778C55.8995 68.7954 56.1282 68.8218 56.3746 68.857C56.621 68.8921 56.9245 68.9229 57.2853 68.9493C57.6461 68.9669 58.0948 68.9757 58.6315 68.9757C59.2915 68.9757 59.859 68.9537 60.3341 68.9097C60.8093 68.8658 61.1304 68.8262 61.2976 68.791C61.3768 69.0373 61.4296 69.2749 61.456 69.5037C61.4824 69.7236 61.4956 69.9436 61.4956 70.1636C61.4956 70.5771 61.4516 70.9775 61.3636 71.3646C61.2844 71.743 61.2008 72.1214 61.1128 72.4997C61.0336 72.8693 60.9941 73.252 60.9941 73.648C60.9941 74.0263 61.0336 74.3299 61.1128 74.5587C61.2008 74.7874 61.3064 74.959 61.4296 75.0734C61.5616 75.179 61.6892 75.2582 61.8124 75.311C61.8739 75.4869 61.9135 75.7157 61.9311 75.9973C61.9575 76.2701 61.9663 76.5604 61.9575 76.8684C61.9575 77.1763 61.9355 77.4711 61.8915 77.7527C61.8475 78.0254 61.7904 78.2498 61.72 78.4258C61.368 78.3818 60.9897 78.3378 60.5849 78.2938C60.1802 78.2586 59.7446 78.241 59.2783 78.241C58.6535 78.241 58.1388 78.2454 57.7341 78.2542C57.3293 78.263 56.9949 78.2718 56.731 78.2806C56.467 78.2982 56.2294 78.3158 56.0183 78.3334C56.1942 78.1222 56.3394 77.8231 56.4538 77.4359C56.5682 77.0488 56.6078 76.6484 56.5726 76.2349C56.4846 76.6484 56.2822 77.0312 55.9655 77.3831C55.6575 77.7263 55.2264 77.999 54.672 78.2014C54.1265 78.4038 53.449 78.505 52.6395 78.505ZM62.4151 78.4258C62.3272 78.1442 62.2612 77.8099 62.2172 77.4227C62.182 77.0356 62.1732 76.6484 62.1908 76.2613C62.2084 75.8741 62.2524 75.5529 62.3228 75.2978C62.5251 75.245 62.7099 75.1086 62.8771 74.8886C63.0443 74.6598 63.1279 74.2815 63.1279 73.7536C63.1279 73.3048 63.0795 72.9573 62.9827 72.7109C62.8947 72.4557 62.7935 72.2753 62.6791 72.1697C62.5647 72.0642 62.4635 72.007 62.3756 71.9982C62.2876 71.7078 62.226 71.3646 62.1908 70.9687C62.1644 70.5639 62.1688 70.1636 62.204 69.7676C62.248 69.3717 62.3228 69.0461 62.4283 68.791C62.8419 68.8438 63.3082 68.8877 63.8274 68.9229C64.3465 68.9493 64.8788 68.9625 65.4244 68.9625C65.9699 68.9625 66.5066 68.9581 67.0346 68.9493C67.5625 68.9317 67.9981 68.9141 68.3412 68.8965C68.2532 68.9933 68.1608 69.1385 68.0641 69.3321C67.9673 69.5169 67.8793 69.7192 67.8001 69.9392C67.7297 70.1592 67.6769 70.3704 67.6417 70.5727C67.6065 70.7663 67.6021 70.9159 67.6285 71.0215C67.7781 70.5991 68.0113 70.2032 68.328 69.8336C68.6448 69.4641 69.0539 69.1649 69.5555 68.9361C70.0658 68.6986 70.6685 68.5798 71.3637 68.5798C72.2611 68.5798 72.9739 68.8306 73.5018 69.3321C74.0297 69.8336 74.2937 70.6211 74.2937 71.6946C74.2937 72.7329 73.9901 73.5468 73.383 74.1363C72.7847 74.7258 71.9752 75.0206 70.9545 75.0206C70.3122 75.0206 69.7974 74.8666 69.4103 74.5587C69.0319 74.2419 68.8472 73.7932 68.856 73.2124H68.4732C68.4644 73.7052 68.5524 74.1143 68.7372 74.4399C68.9308 74.7654 69.2167 75.0426 69.5951 75.2714C69.6567 75.4561 69.6963 75.6893 69.7139 75.9709C69.7403 76.2525 69.7491 76.5516 69.7403 76.8684C69.7315 77.1763 69.7051 77.4711 69.6611 77.7527C69.6171 78.0254 69.5599 78.2498 69.4895 78.4258C69.1991 78.3994 68.8296 78.3686 68.3808 78.3334C67.9321 78.307 67.4569 78.2806 66.9554 78.2542C66.4539 78.2366 65.9743 78.2278 65.5168 78.2278C64.8569 78.2278 64.2629 78.2498 63.735 78.2938C63.2158 78.3378 62.7759 78.3818 62.4151 78.4258ZM74.8163 78.4258C74.7459 78.2498 74.6887 78.0254 74.6447 77.7527C74.6007 77.4711 74.5743 77.1763 74.5655 76.8684C74.5655 76.5604 74.5743 76.2701 74.5919 75.9973C74.6183 75.7157 74.6623 75.4869 74.7239 75.311C74.8559 75.2582 74.9835 75.1746 75.1066 75.0602C75.2298 74.9458 75.331 74.7742 75.4102 74.5455C75.4982 74.3167 75.5422 74.0043 75.5422 73.6084C75.5422 73.2212 75.4894 72.9221 75.3838 72.7109C75.287 72.4909 75.1726 72.3325 75.0406 72.2357C74.9175 72.1302 74.8119 72.0554 74.7239 72.0114C74.6447 71.8618 74.5875 71.6506 74.5523 71.3778C74.5171 71.0963 74.4995 70.7927 74.4995 70.4672C74.5083 70.1416 74.5347 69.8292 74.5787 69.5301C74.6227 69.2309 74.6887 68.9845 74.7767 68.791C74.8735 68.7998 74.9571 68.813 75.0275 68.8306C75.0978 68.8394 75.177 68.8482 75.265 68.857C75.2298 69.4025 75.3398 69.8732 75.595 70.2692C75.8502 70.6563 76.1977 70.9335 76.6377 71.1007C77.0864 71.2679 77.5615 71.3031 78.0631 71.2063C77.6407 71.1887 77.2492 71.0787 76.8884 70.8763C76.5365 70.6651 76.2505 70.388 76.0305 70.0448C75.8194 69.6929 75.7138 69.3013 75.7138 68.8702C75.7138 68.5094 75.7974 68.1618 75.9645 67.8275C76.1405 67.4843 76.4309 67.2028 76.8356 66.9828C77.2404 66.754 77.7859 66.6396 78.4722 66.6396C79.5721 66.6396 80.3728 66.9168 80.8743 67.4711C81.3847 68.0167 81.6398 68.8262 81.6398 69.8996C81.6398 70.4012 81.5959 70.8631 81.5079 71.2855C81.4287 71.699 81.3451 72.0994 81.2571 72.4865C81.1779 72.8649 81.1383 73.252 81.1383 73.648C81.1383 74.0263 81.1779 74.3299 81.2571 74.5587C81.3451 74.7874 81.4507 74.959 81.5739 75.0734C81.7058 75.179 81.8334 75.2582 81.9566 75.311C82.0182 75.4869 82.0578 75.7157 82.0754 75.9973C82.1018 76.2701 82.1106 76.5604 82.1018 76.8684C82.1018 77.1763 82.0798 77.4711 82.0358 77.7527C81.9918 78.0254 81.9346 78.2498 81.8642 78.4258C81.6179 78.3994 81.2967 78.3686 80.9007 78.3334C80.5136 78.307 80.0912 78.2806 79.6337 78.2542C79.1761 78.2366 78.7186 78.2278 78.2611 78.2278C77.8387 78.2278 77.4076 78.2366 76.9676 78.2542C76.5365 78.2806 76.1317 78.307 75.7534 78.3334C75.375 78.3686 75.0626 78.3994 74.8163 78.4258ZM88.175 78.6634C84.1539 78.6634 82.1433 77.0268 82.1433 73.7536C82.1433 71.9674 82.6493 70.6563 83.6612 69.8204C84.6818 68.9845 86.2084 68.5666 88.241 68.5666C90.3967 68.5666 91.9629 68.9801 92.9396 69.8072C93.9251 70.6255 94.4179 71.8354 94.4179 73.4368C94.4179 75.2406 93.8987 76.5648 92.8604 77.4095C91.8222 78.2454 90.2604 78.6634 88.175 78.6634ZM87.9242 74.3343H88.637V72.8957H87.9242V74.3343ZM98.2925 78.505C97.5358 78.505 96.9199 78.4038 96.4447 78.2014C95.9696 77.999 95.6308 77.5855 95.4285 76.9608C95.3141 76.5912 95.2569 76.2305 95.2569 75.8785C95.2657 75.5265 95.2921 75.1746 95.3361 74.8226C95.3801 74.4707 95.4021 74.1143 95.4021 73.7536C95.4021 73.3048 95.3537 72.9573 95.2569 72.7109C95.1689 72.4557 95.0677 72.2753 94.9533 72.1697C94.8389 72.0642 94.7377 72.007 94.6498 71.9982C94.5618 71.7078 94.5002 71.3646 94.465 70.9687C94.4386 70.5639 94.443 70.1636 94.4782 69.7676C94.5222 69.3717 94.597 69.0461 94.7025 68.791C95.1161 68.8438 95.5824 68.8877 96.1016 68.9229C96.6207 68.9493 97.153 68.9625 97.6986 68.9625C98.3497 68.9625 98.948 68.9405 99.4936 68.8965C100.048 68.8526 100.488 68.813 100.813 68.7778V73.8591H101.289V72.0378C101.236 71.7298 101.201 71.3646 101.183 70.9423C101.174 70.52 101.183 70.1108 101.209 69.7148C101.236 69.3189 101.28 69.0065 101.341 68.7778C101.553 68.7954 101.781 68.8218 102.028 68.857C102.274 68.8921 102.578 68.9229 102.938 68.9493C103.299 68.9669 103.748 68.9757 104.285 68.9757C104.944 68.9757 105.512 68.9537 105.987 68.9097C106.462 68.8658 106.783 68.8262 106.951 68.791C107.03 69.0373 107.083 69.2749 107.109 69.5037C107.135 69.7236 107.149 69.9436 107.149 70.1636C107.149 70.5771 107.105 70.9775 107.017 71.3646C106.937 71.743 106.854 72.1214 106.766 72.4997C106.687 72.8693 106.647 73.252 106.647 73.648C106.647 74.0263 106.687 74.3299 106.766 74.5587C106.854 74.7874 106.959 74.959 107.083 75.0734C107.215 75.179 107.342 75.2582 107.465 75.311C107.527 75.4869 107.567 75.7157 107.584 75.9973C107.611 76.2701 107.619 76.5604 107.611 76.8684C107.611 77.1763 107.589 77.4711 107.545 77.7527C107.501 78.0254 107.443 78.2498 107.373 78.4258C107.021 78.3818 106.643 78.3378 106.238 78.2938C105.833 78.2586 105.398 78.241 104.931 78.241C104.307 78.241 103.792 78.2454 103.387 78.2542C102.982 78.263 102.648 78.2718 102.384 78.2806C102.12 78.2982 101.882 78.3158 101.671 78.3334C101.847 78.1222 101.992 77.8231 102.107 77.4359C102.221 77.0488 102.261 76.6484 102.226 76.2349C102.138 76.6484 101.935 77.0312 101.619 77.3831C101.311 77.7263 100.879 77.999 100.325 78.2014C99.7795 78.4038 99.102 78.505 98.2925 78.505ZM115.604 78.6238C114.478 78.6238 113.616 78.483 113.018 78.2014C112.428 77.9199 112.124 77.4227 112.107 76.71C112.001 77.0092 111.966 77.2907 112.001 77.5547C112.045 77.8099 112.111 78.065 112.199 78.3202C111.328 78.3466 110.536 78.373 109.824 78.3994C109.111 78.4258 108.521 78.4346 108.055 78.4258C107.941 77.7747 107.875 77.1279 107.857 76.4856C107.848 75.8433 107.897 75.1658 108.002 74.4531C108.645 74.4531 109.26 74.5323 109.85 74.6906C110.448 74.8402 110.976 75.0822 111.434 75.4166L111.685 75.113C111.429 74.9282 111.161 74.7786 110.879 74.6642C110.607 74.5411 110.316 74.4311 110.008 74.3343C109.595 74.1935 109.216 74.0087 108.873 73.78C108.539 73.5512 108.275 73.2608 108.081 72.9089C107.888 72.5569 107.791 72.1258 107.791 71.6154C107.791 71.0699 107.914 70.5683 108.161 70.1108C108.416 69.6533 108.816 69.2881 109.362 69.0153C109.907 68.7338 110.611 68.593 111.473 68.593C112.591 68.593 113.449 68.7426 114.047 69.0417C114.654 69.3321 114.967 69.8556 114.984 70.6123C115.099 70.3044 115.138 70.0184 115.103 69.7544C115.077 69.4817 115.011 69.1957 114.905 68.8965C115.53 68.8877 116.066 68.879 116.515 68.8702C116.973 68.8526 117.386 68.8394 117.756 68.8306C118.125 68.813 118.482 68.8042 118.825 68.8042C118.948 69.3849 119.014 70.014 119.023 70.6915C119.032 71.369 118.988 72.0598 118.891 72.7637C118.249 72.7549 117.707 72.6889 117.267 72.5657C116.828 72.4425 116.401 72.2533 115.987 71.9982L115.763 72.3149C115.983 72.4557 116.185 72.5701 116.37 72.6581C116.555 72.7373 116.722 72.8077 116.872 72.8693C117.408 73.0892 117.848 73.3268 118.191 73.582C118.535 73.8283 118.79 74.1319 118.957 74.4927C119.124 74.8446 119.208 75.2846 119.208 75.8125C119.208 76.4548 119.093 76.9652 118.864 77.3435C118.636 77.7219 118.337 78.0034 117.967 78.1882C117.606 78.3642 117.215 78.4786 116.792 78.5314C116.379 78.593 115.983 78.6238 115.604 78.6238ZM35.193 91.3918C35.1333 91.2425 35.0848 91.0521 35.0475 90.8207C35.0101 90.5818 34.9877 90.3317 34.9803 90.0704C34.9803 89.8091 34.9877 89.5627 35.0027 89.3312C35.0251 89.0923 35.0624 88.8982 35.1146 88.7489C35.2266 88.7041 35.3349 88.6332 35.4394 88.5361C35.5439 88.4391 35.6298 88.2935 35.697 88.0994C35.7716 87.9053 35.809 87.6402 35.809 87.3043C35.809 86.9758 35.7642 86.722 35.6746 86.5428C35.5925 86.3561 35.4954 86.2218 35.3834 86.1396C35.2789 86.05 35.1893 85.9866 35.1146 85.9493C35.0475 85.8223 34.9989 85.6432 34.9691 85.4117C34.9392 85.1728 34.9243 84.9152 34.9243 84.639C34.9317 84.3628 34.9541 84.0977 34.9915 83.8439C35.0288 83.5901 35.0848 83.381 35.1594 83.2168C35.2416 83.2243 35.3125 83.2355 35.3722 83.2504C35.4319 83.2578 35.4991 83.2653 35.5738 83.2728C35.5439 83.7357 35.6373 84.1351 35.8538 84.471C36.0703 84.7995 36.3652 85.0347 36.7385 85.1765C37.1192 85.3184 37.5224 85.3483 37.9479 85.2661C37.5895 85.2512 37.2573 85.1579 36.9512 84.9862C36.6526 84.807 36.41 84.5718 36.2233 84.2807C36.0441 83.982 35.9545 83.6498 35.9545 83.284C35.9545 82.9779 36.0255 82.683 36.1673 82.3993C36.3166 82.1081 36.563 81.8692 36.9064 81.6826C37.2499 81.4885 37.7127 81.3914 38.2951 81.3914C39.2283 81.3914 39.9077 81.6266 40.3332 82.0969C40.7662 82.5598 40.9827 83.2467 40.9827 84.1575C40.9827 84.583 40.9454 84.975 40.8707 85.3333C40.8036 85.6842 40.7326 86.0239 40.658 86.3524C40.5908 86.6734 40.5572 87.0019 40.5572 87.3379C40.5572 87.6589 40.5908 87.9165 40.658 88.1106C40.7326 88.3047 40.8222 88.4503 40.9267 88.5473C41.0387 88.6369 41.147 88.7041 41.2515 88.7489C41.3038 88.8982 41.3374 89.0923 41.3523 89.3312C41.3747 89.5627 41.3822 89.8091 41.3747 90.0704C41.3747 90.3317 41.356 90.5818 41.3187 90.8207C41.2814 91.0521 41.2328 91.2425 41.1731 91.3918C40.9641 91.3694 40.6916 91.3433 40.3556 91.3134C40.0271 91.291 39.6688 91.2686 39.2805 91.2462C38.8923 91.2313 38.5041 91.2238 38.1159 91.2238C37.7575 91.2238 37.3917 91.2313 37.0184 91.2462C36.6526 91.2686 36.3092 91.291 35.9881 91.3134C35.6671 91.3433 35.4021 91.3694 35.193 91.3918ZM48.1585 91.5598C47.2029 91.5598 46.4713 91.4403 45.9636 91.2014C45.4634 90.9625 45.2058 90.5407 45.1909 89.936C45.1013 90.1898 45.0714 90.4287 45.1013 90.6527C45.1386 90.8692 45.1946 91.0857 45.2693 91.3022C44.5302 91.3246 43.8582 91.347 43.2535 91.3694C42.6488 91.3918 42.1486 91.3993 41.7529 91.3918C41.6558 90.8393 41.5999 90.2906 41.5849 89.7456C41.5775 89.2006 41.6185 88.6257 41.7081 88.021C42.2531 88.021 42.7757 88.0882 43.2759 88.2226C43.7836 88.3495 44.2315 88.5548 44.6198 88.8385L44.8325 88.5809C44.616 88.4242 44.3883 88.2972 44.1494 88.2002C43.918 88.0957 43.6716 88.0023 43.4103 87.9202C43.0594 87.8008 42.7384 87.644 42.4472 87.4499C42.1635 87.2558 41.9395 87.0094 41.7753 86.7108C41.6111 86.4121 41.5289 86.0463 41.5289 85.6133C41.5289 85.1504 41.6335 84.7249 41.8425 84.3367C42.059 83.9484 42.3987 83.6386 42.8616 83.4072C43.3244 83.1683 43.9217 83.0488 44.6533 83.0488C45.6015 83.0488 46.3294 83.1757 46.8371 83.4296C47.3522 83.6759 47.6173 84.1201 47.6322 84.7622C47.7292 84.5009 47.7628 84.2583 47.733 84.0343C47.7106 83.8028 47.6546 83.5602 47.565 83.3064C48.0951 83.2989 48.5505 83.2914 48.9312 83.284C49.3194 83.269 49.6703 83.2578 49.9839 83.2504C50.2975 83.2355 50.5998 83.228 50.891 83.228C50.9955 83.7207 51.0515 84.2545 51.059 84.8294C51.0664 85.4043 51.0291 85.9903 50.947 86.5876C50.402 86.5801 49.9428 86.5241 49.5696 86.4196C49.1963 86.3151 48.8342 86.1546 48.4833 85.9381L48.2929 86.2068C48.4796 86.3263 48.6513 86.4233 48.808 86.498C48.9648 86.5652 49.1067 86.6249 49.2336 86.6772C49.689 86.8638 50.0623 87.0654 50.3535 87.2819C50.6446 87.4909 50.8611 87.7485 51.003 88.0546C51.1448 88.3532 51.2158 88.7265 51.2158 89.1745C51.2158 89.7195 51.1187 90.1525 50.9246 90.4735C50.7305 90.7945 50.4766 91.0334 50.1631 91.1902C49.857 91.3395 49.5248 91.4366 49.1664 91.4814C48.8155 91.5336 48.4796 91.5598 48.1585 91.5598ZM59.0515 91.5822C57.8346 91.5822 56.8416 91.4142 56.0726 91.0782C55.3111 90.7348 54.7512 90.2458 54.3928 89.6112C54.0345 88.9766 53.8553 88.2114 53.8553 87.3155C53.8553 86.2852 54.0457 85.4565 54.4264 84.8294C54.8147 84.2023 55.4156 83.7469 56.2294 83.4632C57.0432 83.172 58.0921 83.0264 59.3762 83.0264C60.3319 83.0264 61.1829 83.1272 61.9295 83.3288C62.6836 83.5303 63.2771 83.829 63.7101 84.2247C64.1431 84.6129 64.3596 85.0944 64.3596 85.6693C64.3596 85.8783 64.326 86.0911 64.2588 86.3076C64.1991 86.5167 64.0722 86.707 63.8781 86.8787C63.684 87.0505 63.3928 87.1886 63.0046 87.2931C62.6164 87.3976 62.0975 87.4499 61.448 87.4499C61.015 87.4499 60.623 87.4461 60.2721 87.4387C59.9287 87.4237 59.6114 87.4013 59.3202 87.3715H58.7603V88.2002H59.309V87.7522C60.8918 87.6776 62.5641 87.6776 64.326 87.7522C64.326 88.5809 64.1469 89.279 63.7885 89.8464C63.4301 90.4138 62.8665 90.8468 62.0975 91.1454C61.3285 91.4366 60.3132 91.5822 59.0515 91.5822ZM58.7603 86.7892H59.309V86.1396H58.7603V86.7892ZM64.7738 91.3918C64.6991 91.1529 64.6432 90.8692 64.6058 90.5407C64.576 90.2122 64.5685 89.8837 64.5834 89.5552C64.5984 89.2267 64.6357 88.9542 64.6954 88.7377C64.8671 88.6929 65.0239 88.5772 65.1658 88.3906C65.3076 88.1964 65.3785 87.8754 65.3785 87.4275C65.3785 87.0467 65.3375 86.7518 65.2553 86.5428C65.1807 86.3263 65.0948 86.1732 64.9978 86.0836C64.9007 85.994 64.8149 85.9455 64.7402 85.9381C64.6655 85.6917 64.6133 85.4005 64.5834 85.0646C64.561 84.7211 64.5648 84.3814 64.5946 84.0455C64.632 83.7095 64.6954 83.4333 64.785 83.2168C65.1359 83.2616 65.5316 83.2989 65.9721 83.3288C66.4125 83.3512 66.8642 83.3624 67.3271 83.3624C67.79 83.3624 68.2454 83.3586 68.6933 83.3512C69.1413 83.3362 69.5108 83.3213 69.802 83.3064C69.7049 83.4109 69.6004 83.5901 69.4884 83.8439C69.3839 84.0903 69.2981 84.3516 69.2309 84.6278C69.1711 84.904 69.1525 85.1467 69.1749 85.3557C69.3764 84.6913 69.7609 84.1575 70.3283 83.7543C70.8957 83.3437 71.6684 83.1384 72.6464 83.1384C73.072 83.1384 73.4341 83.1757 73.7327 83.2504C74.0388 83.3176 74.2889 83.4445 74.483 83.6311C74.6846 83.8178 74.8414 84.0903 74.9534 84.4486C75.0579 84.7547 75.1064 85.0683 75.0989 85.3893C75.0915 85.7029 75.0691 86.0202 75.0318 86.3412C74.9944 86.6548 74.9758 86.9683 74.9758 87.2819C74.9758 87.6253 75.0094 87.8978 75.0765 88.0994C75.1437 88.2935 75.2296 88.4391 75.3341 88.5361C75.4461 88.6332 75.5544 88.7004 75.6589 88.7377C75.7261 88.9542 75.7634 89.2267 75.7709 89.5552C75.7858 89.8837 75.7783 90.2122 75.7485 90.5407C75.7186 90.8692 75.6663 91.1529 75.5917 91.3918C75.308 91.3619 74.9646 91.3246 74.5614 91.2798C74.1583 91.2425 73.6506 91.2238 73.0384 91.2238C72.4859 91.2238 71.9708 91.2425 71.493 91.2798C71.0226 91.3246 70.6531 91.3619 70.3843 91.3918C70.347 91.1902 70.3171 90.9252 70.2947 90.5967C70.2723 90.2607 70.2649 89.9136 70.2723 89.5552C70.2873 89.1969 70.3171 88.887 70.3619 88.6257V87.0803H69.9476V88.6257C69.9998 88.887 70.0297 89.1969 70.0372 89.5552C70.0521 89.9136 70.0484 90.2607 70.026 90.5967C70.0036 90.9252 69.9662 91.1902 69.914 91.3918C69.7348 91.3694 69.537 91.3433 69.3204 91.3134C69.1114 91.291 68.8538 91.2686 68.5477 91.2462C68.2416 91.2313 67.8609 91.2238 67.4055 91.2238C66.8455 91.2238 66.3416 91.2425 65.8937 91.2798C65.4532 91.3171 65.0799 91.3545 64.7738 91.3918ZM80.9001 91.5934C77.4882 91.5934 75.7823 90.2047 75.7823 87.4275C75.7823 85.9119 76.2116 84.7995 77.0702 84.0903C77.9362 83.381 79.2315 83.0264 80.9561 83.0264C82.7852 83.0264 84.1141 83.3773 84.9428 84.0791C85.779 84.7734 86.1971 85.7999 86.1971 87.1587C86.1971 88.6892 85.7566 89.8128 84.8756 90.5295C83.9947 91.2387 82.6695 91.5934 80.9001 91.5934ZM80.6873 87.9202H81.2921V86.6996H80.6873V87.9202ZM89.4846 91.459C88.8426 91.459 88.32 91.3731 87.9168 91.2014C87.5137 91.0297 87.2263 90.6788 87.0545 90.1487C86.9575 89.8352 86.909 89.5291 86.909 89.2305C86.9164 88.9318 86.9388 88.6332 86.9762 88.3346C87.0135 88.0359 87.0321 87.7336 87.0321 87.4275C87.0321 87.0467 86.9911 86.7518 86.909 86.5428C86.8343 86.3263 86.7484 86.1732 86.6514 86.0836C86.5543 85.994 86.4685 85.9455 86.3938 85.9381C86.3192 85.6917 86.2669 85.4005 86.237 85.0646C86.2146 84.7211 86.2184 84.3814 86.2482 84.0455C86.2856 83.7095 86.349 83.4333 86.4386 83.2168C86.7895 83.2616 87.1852 83.2989 87.6257 83.3288C88.0662 83.3512 88.5178 83.3624 88.9807 83.3624C89.5332 83.3624 90.0408 83.3437 90.5037 83.3064C90.9741 83.269 91.3474 83.2355 91.6236 83.2056V87.5171H92.0267V85.9717C91.9819 85.7104 91.9521 85.4005 91.9371 85.0422C91.9297 84.6838 91.9371 84.3367 91.9595 84.0007C91.9819 83.6647 92.0193 83.3997 92.0715 83.2056C92.2507 83.2205 92.4448 83.2429 92.6539 83.2728C92.8629 83.3026 93.1205 83.3288 93.4266 83.3512C93.7327 83.3661 94.1134 83.3736 94.5688 83.3736C95.1288 83.3736 95.6103 83.3549 96.0135 83.3176C96.4166 83.2802 96.6891 83.2467 96.831 83.2168C96.8981 83.4258 96.9429 83.6274 96.9653 83.8215C96.9877 84.0082 96.9989 84.1948 96.9989 84.3814C96.9989 84.7323 96.9616 85.072 96.8869 85.4005C96.8198 85.7215 96.7488 86.0426 96.6742 86.3636C96.607 86.6772 96.5734 87.0019 96.5734 87.3379C96.5734 87.6589 96.607 87.9165 96.6742 88.1106C96.7488 88.3047 96.8384 88.4503 96.9429 88.5473C97.0549 88.6369 97.1632 88.7041 97.2677 88.7489C97.32 88.8982 97.3536 89.0923 97.3685 89.3312C97.3909 89.5627 97.3983 89.8091 97.3909 90.0704C97.3909 90.3317 97.3722 90.5818 97.3349 90.8207C97.2976 91.0521 97.249 91.2425 97.1893 91.3918C96.8907 91.3545 96.5697 91.3171 96.2262 91.2798C95.8828 91.2499 95.5132 91.235 95.1176 91.235C94.5875 91.235 94.1507 91.2387 93.8073 91.2462C93.4639 91.2537 93.1802 91.2611 92.9562 91.2686C92.7323 91.2835 92.5307 91.2985 92.3515 91.3134C92.5008 91.1342 92.624 90.8804 92.7211 90.5519C92.8181 90.2234 92.8517 89.8837 92.8218 89.5328C92.7472 89.8837 92.5755 90.2085 92.3067 90.5071C92.0454 90.7983 91.6796 91.0297 91.2092 91.2014C90.7464 91.3731 90.1715 91.459 89.4846 91.459ZM100.769 93.1388C99.7613 93.1388 98.9811 92.9447 98.4287 92.5565C97.8762 92.1682 97.6 91.5262 97.6 90.6303C97.6 90.257 97.6709 89.8837 97.8128 89.5104C97.9621 89.1371 98.1823 88.8124 98.4735 88.5361C98.8542 88.8049 99.3395 89.0139 99.9293 89.1633L100.019 88.8497C99.3768 88.6855 98.8804 88.4615 98.5295 88.1778C98.1786 87.8941 97.9359 87.5693 97.8016 87.2035C97.6672 86.8377 97.6 86.4569 97.6 86.0612C97.6 85.5237 97.7306 85.031 97.9919 84.583C98.2532 84.1276 98.6526 83.7618 99.1902 83.4856C99.7277 83.2093 100.411 83.0712 101.24 83.0712C101.68 83.0712 102.042 83.1197 102.326 83.2168C102.61 83.3138 102.837 83.437 103.009 83.5863C103.181 83.7282 103.304 83.8812 103.378 84.0455C103.453 83.4408 103.621 82.9443 103.882 82.5561C104.151 82.1678 104.483 81.8804 104.879 81.6938C105.275 81.4997 105.704 81.4026 106.167 81.4026C106.555 81.4026 106.906 81.4885 107.22 81.6602C107.533 81.8244 107.78 82.0633 107.959 82.3769C108.145 82.6905 108.239 83.0712 108.239 83.5192C108.239 83.9596 108.157 84.3255 107.992 84.6166C107.836 84.9078 107.623 85.128 107.354 85.2773C107.085 85.4192 106.787 85.4901 106.458 85.4901C106.159 85.4901 105.891 85.4677 105.652 85.4229C105.413 85.3707 105.204 85.3035 105.025 85.2213L104.868 85.5013C105.002 85.576 105.159 85.6357 105.338 85.6805C105.622 85.7626 105.906 85.8149 106.189 85.8373C106.473 85.8597 106.738 85.8783 106.984 85.8933C107.231 85.9007 107.447 85.9343 107.634 85.994C107.828 86.0538 107.977 86.162 108.082 86.3188C108.194 86.4756 108.25 86.7108 108.25 87.0243C108.25 87.5021 108.06 87.9016 107.679 88.2226C107.305 88.5361 106.794 88.775 106.145 88.9393C105.495 89.0961 104.756 89.1931 103.927 89.2305L103.938 89.5552C104.483 89.5478 104.98 89.5515 105.428 89.5664C105.883 89.5813 106.286 89.6411 106.637 89.7456C106.988 89.8501 107.283 90.0256 107.522 90.2719C107.761 90.5183 107.94 90.8617 108.06 91.3022C108.186 91.7501 108.25 92.3213 108.25 93.0156C107.839 93.1127 107.399 93.1612 106.928 93.1612C106.466 93.1686 106.018 93.1276 105.585 93.038C105.428 92.926 105.208 92.8663 104.924 92.8588C104.648 92.8513 104.308 92.87 103.905 92.9148C103.502 92.9671 103.039 93.0156 102.516 93.0604C101.994 93.1127 101.411 93.1388 100.769 93.1388ZM102.628 86.3188H103.222V85.4565H102.628V86.3188ZM108.727 91.3918C108.653 91.1902 108.597 90.9326 108.559 90.6191C108.529 90.2981 108.522 89.9696 108.537 89.6336C108.552 89.2902 108.589 88.9916 108.649 88.7377C108.761 88.7004 108.869 88.6295 108.974 88.5249C109.078 88.4204 109.164 88.2375 109.231 87.9762C109.298 87.7074 109.332 87.3267 109.332 86.8339C109.332 86.4159 109.306 86.0836 109.254 85.8373C109.209 85.5834 109.149 85.3893 109.074 85.2549C109.007 85.1131 108.933 85.0123 108.851 84.9526C108.776 84.8929 108.709 84.8481 108.649 84.8182C108.574 84.5718 108.522 84.2881 108.492 83.9671C108.47 83.6461 108.473 83.3288 108.503 83.0152C108.541 82.6942 108.604 82.4254 108.694 82.2089C109.067 82.2537 109.485 82.291 109.948 82.3209C110.411 82.3433 110.926 82.3545 111.493 82.3545C112.046 82.3545 112.565 82.3396 113.05 82.3097C113.535 82.2724 113.935 82.2388 114.248 82.2089C114.323 82.418 114.379 82.6643 114.416 82.948C114.461 83.2317 114.454 83.4706 114.394 83.6647C114.222 83.7991 114.035 83.9746 113.834 84.1911C113.64 84.4076 113.457 84.6651 113.285 84.9638L113.565 85.1094C113.797 84.7137 114.073 84.3702 114.394 84.0791C114.722 83.7805 115.073 83.549 115.446 83.3848C115.827 83.2205 116.208 83.1384 116.589 83.1384C117.022 83.1384 117.388 83.1757 117.686 83.2504C117.985 83.3176 118.235 83.4445 118.437 83.6311C118.638 83.8178 118.795 84.0903 118.907 84.4486C119.011 84.7547 119.06 85.0683 119.052 85.3893C119.045 85.7029 119.023 86.0202 118.985 86.3412C118.948 86.6548 118.929 86.9683 118.929 87.2819C118.929 87.6253 118.963 87.8978 119.03 88.0994C119.097 88.2935 119.183 88.4391 119.288 88.5361C119.4 88.6332 119.508 88.7004 119.612 88.7377C119.68 88.9916 119.717 89.2902 119.724 89.6336C119.739 89.9696 119.732 90.2981 119.702 90.6191C119.672 90.9326 119.62 91.1902 119.545 91.3918C119.262 91.3619 118.918 91.3246 118.515 91.2798C118.112 91.2425 117.604 91.2238 116.992 91.2238C116.439 91.2238 115.924 91.2425 115.446 91.2798C114.976 91.3246 114.607 91.3619 114.338 91.3918C114.301 91.1902 114.271 90.9252 114.248 90.5967C114.226 90.2607 114.218 89.9136 114.226 89.5552C114.241 89.1969 114.271 88.887 114.315 88.6257V87.0803H113.901V88.6257C113.953 88.887 113.983 89.1969 113.991 89.5552C114.006 89.9136 114.002 90.2607 113.979 90.5967C113.957 90.9252 113.92 91.1902 113.867 91.3918C113.688 91.3694 113.49 91.3433 113.274 91.3134C113.065 91.291 112.807 91.2686 112.501 91.2462C112.195 91.2313 111.814 91.2238 111.359 91.2238C110.799 91.2238 110.295 91.2425 109.847 91.2798C109.407 91.3171 109.033 91.3545 108.727 91.3918Z" fill="#F0EAD2"/>
</svg>
