<svg width="353" height="108" viewBox="0 0 353 108" fill="none" xmlns="http://www.w3.org/2000/svg">
<path d="M350 22.6914C350 12.198 341.493 3.69141 331 3.69141H22C11.5066 3.69141 3 12.198 3 22.6914V65.552C3 76.0454 11.5066 84.552 22 84.552H218.868C219.761 84.552 220.616 84.7789 221.393 85.218C227.564 88.7041 257.023 104.691 278.306 104.691C281.912 104.691 279.625 97.8652 277.085 92.1611C275.534 88.6782 277.994 84.552 281.807 84.552H331C341.493 84.552 350 76.0454 350 65.552V22.6914Z" fill="#ADC178" stroke="#437338" stroke-width="6"/>
<path d="M26.28 37.6914H24.296V25.9954H26.28L30.056 35.3074L33.832 25.9954H35.848V37.6914H33.864V34.0914C33.864 33.5047 33.864 33.0141 33.864 32.6194C33.864 32.2141 33.8693 31.8727 33.88 31.5954C33.8907 31.3181 33.9013 31.0727 33.912 30.8594C33.9227 30.6461 33.944 30.4327 33.976 30.2194L31 37.6914H29.112L26.152 30.2354C26.2053 30.5874 26.2373 31.0354 26.248 31.5794C26.2693 32.1234 26.28 32.7634 26.28 33.4994V37.6914ZM39.7966 29.7874L42.3726 37.0834L41.3166 39.0834L37.7326 29.7874H39.7966ZM37.9406 41.3554V39.7394H39.1086C39.3646 39.7394 39.5886 39.7074 39.7806 39.6434C39.9726 39.5901 40.1433 39.4834 40.2926 39.3234C40.4526 39.1634 40.586 38.9287 40.6926 38.6194L43.9726 29.7874H45.9886L42.1166 39.4514C41.8286 40.1767 41.466 40.7047 41.0286 41.0354C40.5913 41.3661 40.0473 41.5314 39.3966 41.5314C39.1193 41.5314 38.858 41.5154 38.6126 41.4834C38.378 41.4621 38.154 41.4194 37.9406 41.3554ZM51.5859 29.7874H56.5459V31.4194H51.5859V29.7874ZM56.5619 25.8674V27.5314C56.4552 27.5314 56.3432 27.5314 56.2259 27.5314C56.1192 27.5314 56.0072 27.5314 55.8899 27.5314C55.3992 27.5314 55.0685 27.6487 54.8979 27.8834C54.7379 28.1181 54.6579 28.4327 54.6579 28.8274V37.6914H52.7219V28.8274C52.7219 28.1021 52.8392 27.5207 53.0739 27.0834C53.3085 26.6354 53.6392 26.3101 54.0659 26.1074C54.4925 25.8941 54.9885 25.7874 55.5539 25.7874C55.7139 25.7874 55.8792 25.7927 56.0499 25.8034C56.2312 25.8141 56.4019 25.8354 56.5619 25.8674ZM63.2317 29.7554V31.5634H62.5117C61.7971 31.5634 61.2371 31.7554 60.8317 32.1394C60.4264 32.5127 60.2237 33.0834 60.2237 33.8514V37.6914H58.2717V29.8034H60.1117L60.2717 31.4354H60.0797C60.1864 30.9127 60.4371 30.4861 60.8317 30.1554C61.2264 29.8247 61.7384 29.6594 62.3677 29.6594C62.5064 29.6594 62.6451 29.6647 62.7837 29.6754C62.9224 29.6861 63.0717 29.7127 63.2317 29.7554ZM65.033 37.6914V29.7874H66.985V37.6914H65.033ZM65.993 28.2034C65.6623 28.2034 65.3797 28.0914 65.145 27.8674C64.921 27.6327 64.809 27.3501 64.809 27.0194C64.809 26.6887 64.921 26.4114 65.145 26.1874C65.3797 25.9634 65.6623 25.8514 65.993 25.8514C66.3237 25.8514 66.601 25.9634 66.825 26.1874C67.0597 26.4114 67.177 26.6887 67.177 27.0194C67.177 27.3501 67.0597 27.6327 66.825 27.8674C66.601 28.0914 66.3237 28.2034 65.993 28.2034ZM73.0178 37.8994C72.2391 37.8994 71.5458 37.7234 70.9378 37.3714C70.3404 37.0087 69.8711 36.5181 69.5298 35.8994C69.1884 35.2701 69.0178 34.5501 69.0178 33.7394C69.0178 32.9181 69.1831 32.1927 69.5138 31.5634C69.8444 30.9341 70.3084 30.4434 70.9058 30.0914C71.5031 29.7287 72.1858 29.5474 72.9538 29.5474C73.7538 29.5474 74.4418 29.7181 75.0178 30.0594C75.5938 30.3901 76.0364 30.8541 76.3458 31.4514C76.6658 32.0487 76.8258 32.7634 76.8258 33.5954V34.1874L70.0418 34.2034L70.0738 32.9554H74.8898C74.8898 32.4114 74.7138 31.9741 74.3618 31.6434C74.0204 31.3127 73.5564 31.1474 72.9698 31.1474C72.5111 31.1474 72.1218 31.2434 71.8018 31.4354C71.4924 31.6274 71.2578 31.9154 71.0978 32.2994C70.9378 32.6834 70.8578 33.1527 70.8578 33.7074C70.8578 34.5607 71.0391 35.2061 71.4018 35.6434C71.7751 36.0807 72.3244 36.2994 73.0498 36.2994C73.5831 36.2994 74.0204 36.1981 74.3618 35.9954C74.7138 35.7927 74.9431 35.5047 75.0498 35.1314H76.8578C76.6871 35.9954 76.2604 36.6727 75.5778 37.1634C74.9058 37.6541 74.0524 37.8994 73.0178 37.8994ZM80.82 37.6914H78.868V29.7874H80.676L80.836 30.8114C81.0813 30.4167 81.428 30.1074 81.876 29.8834C82.3347 29.6594 82.8307 29.5474 83.364 29.5474C84.356 29.5474 85.1027 29.8407 85.604 30.4274C86.116 31.0141 86.372 31.8141 86.372 32.8274V37.6914H84.42V33.2914C84.42 32.6301 84.2707 32.1394 83.972 31.8194C83.6733 31.4887 83.268 31.3234 82.756 31.3234C82.148 31.3234 81.6733 31.5154 81.332 31.8994C80.9907 32.2834 80.82 32.7954 80.82 33.4354V37.6914ZM92.0179 37.8994C91.2499 37.8994 90.5885 37.7287 90.0339 37.3874C89.4899 37.0354 89.0632 36.5501 88.7539 35.9314C88.4552 35.3127 88.3059 34.5927 88.3059 33.7714C88.3059 32.9501 88.4552 32.2247 88.7539 31.5954C89.0632 30.9554 89.5059 30.4541 90.0819 30.0914C90.6579 29.7287 91.3405 29.5474 92.1299 29.5474C92.6845 29.5474 93.1912 29.6594 93.6499 29.8834C94.1085 30.0967 94.4605 30.4007 94.7059 30.7954V25.7874H96.6419V37.6914H94.8499L94.7219 36.4594C94.4872 36.9074 94.1245 37.2594 93.6339 37.5154C93.1539 37.7714 92.6152 37.8994 92.0179 37.8994ZM92.4499 36.1074C92.9085 36.1074 93.3032 36.0114 93.6339 35.8194C93.9645 35.6167 94.2205 35.3341 94.4019 34.9714C94.5939 34.5981 94.6899 34.1767 94.6899 33.7074C94.6899 33.2274 94.5939 32.8114 94.4019 32.4594C94.2205 32.0967 93.9645 31.8141 93.6339 31.6114C93.3032 31.3981 92.9085 31.2914 92.4499 31.2914C92.0019 31.2914 91.6125 31.3981 91.2819 31.6114C90.9512 31.8141 90.6952 32.0967 90.5139 32.4594C90.3432 32.8221 90.2579 33.2381 90.2579 33.7074C90.2579 34.1767 90.3432 34.5927 90.5139 34.9554C90.6952 35.3181 90.9512 35.6007 91.2819 35.8034C91.6125 36.0061 92.0019 36.1074 92.4499 36.1074ZM98.5481 35.2914H100.404C100.415 35.6327 100.543 35.9047 100.788 36.1074C101.033 36.3101 101.375 36.4114 101.812 36.4114C102.281 36.4114 102.633 36.3261 102.868 36.1554C103.113 35.9847 103.236 35.7554 103.236 35.4674C103.236 35.2754 103.172 35.1047 103.044 34.9554C102.916 34.8061 102.676 34.6941 102.324 34.6194L100.9 34.2834C100.185 34.1234 99.6521 33.8674 99.3001 33.5154C98.9588 33.1527 98.7881 32.6567 98.7881 32.0274C98.7881 31.5154 98.9215 31.0727 99.1881 30.6994C99.4655 30.3261 99.8388 30.0434 100.308 29.8514C100.777 29.6487 101.316 29.5474 101.924 29.5474C102.511 29.5474 103.028 29.6541 103.476 29.8674C103.924 30.0807 104.271 30.3794 104.516 30.7634C104.772 31.1474 104.905 31.5954 104.916 32.1074H103.06C103.06 31.7661 102.953 31.4994 102.74 31.3074C102.527 31.1047 102.228 31.0034 101.844 31.0034C101.46 31.0034 101.161 31.0887 100.948 31.2594C100.735 31.4301 100.628 31.6594 100.628 31.9474C100.628 32.3847 100.969 32.6834 101.652 32.8434L103.076 33.1794C103.737 33.3287 104.233 33.5687 104.564 33.8994C104.905 34.2301 105.076 34.6994 105.076 35.3074C105.076 35.8407 104.937 36.3047 104.66 36.6994C104.383 37.0834 103.993 37.3821 103.492 37.5954C102.991 37.7981 102.415 37.8994 101.764 37.8994C100.783 37.8994 99.9988 37.6594 99.4121 37.1794C98.8361 36.6994 98.5481 36.0701 98.5481 35.2914ZM114.187 37.8994C113.355 37.8994 112.694 37.6754 112.203 37.2274C111.723 36.7687 111.483 36.1714 111.483 35.4354C111.483 34.7101 111.734 34.1341 112.235 33.7074C112.747 33.2701 113.472 33.0141 114.411 32.9394L116.779 32.7474V32.5714C116.779 32.2087 116.71 31.9207 116.571 31.7074C116.443 31.4834 116.256 31.3234 116.011 31.2274C115.766 31.1207 115.478 31.0674 115.147 31.0674C114.571 31.0674 114.128 31.1847 113.819 31.4194C113.51 31.6434 113.355 31.9634 113.355 32.3794H111.691C111.691 31.8034 111.835 31.3074 112.123 30.8914C112.422 30.4647 112.838 30.1341 113.371 29.8994C113.915 29.6647 114.539 29.5474 115.243 29.5474C115.958 29.5474 116.571 29.6754 117.083 29.9314C117.595 30.1767 117.99 30.5501 118.267 31.0514C118.544 31.5421 118.683 32.1554 118.683 32.8914V37.6914H116.971L116.827 36.5234C116.656 36.9287 116.326 37.2594 115.835 37.5154C115.355 37.7714 114.806 37.8994 114.187 37.8994ZM114.811 36.4274C115.419 36.4274 115.899 36.2567 116.251 35.9154C116.614 35.5741 116.795 35.0994 116.795 34.4914V34.0754L115.147 34.2034C114.539 34.2567 114.107 34.3847 113.851 34.5874C113.595 34.7794 113.467 35.0354 113.467 35.3554C113.467 35.7074 113.584 35.9741 113.819 36.1554C114.054 36.3367 114.384 36.4274 114.811 36.4274ZM126.041 29.7554V31.5634H125.321C124.606 31.5634 124.046 31.7554 123.641 32.1394C123.235 32.5127 123.033 33.0834 123.033 33.8514V37.6914H121.081V29.8034H122.921L123.081 31.4354H122.889C122.995 30.9127 123.246 30.4861 123.641 30.1554C124.035 29.8247 124.547 29.6594 125.177 29.6594C125.315 29.6594 125.454 29.6647 125.593 29.6754C125.731 29.6861 125.881 29.7127 126.041 29.7554ZM131.112 37.8994C130.333 37.8994 129.64 37.7234 129.032 37.3714C128.435 37.0087 127.965 36.5181 127.624 35.8994C127.283 35.2701 127.112 34.5501 127.112 33.7394C127.112 32.9181 127.277 32.1927 127.608 31.5634C127.939 30.9341 128.403 30.4434 129 30.0914C129.597 29.7287 130.28 29.5474 131.048 29.5474C131.848 29.5474 132.536 29.7181 133.112 30.0594C133.688 30.3901 134.131 30.8541 134.44 31.4514C134.76 32.0487 134.92 32.7634 134.92 33.5954V34.1874L128.136 34.2034L128.168 32.9554H132.984C132.984 32.4114 132.808 31.9741 132.456 31.6434C132.115 31.3127 131.651 31.1474 131.064 31.1474C130.605 31.1474 130.216 31.2434 129.896 31.4354C129.587 31.6274 129.352 31.9154 129.192 32.2994C129.032 32.6834 128.952 33.1527 128.952 33.7074C128.952 34.5607 129.133 35.2061 129.496 35.6434C129.869 36.0807 130.419 36.2994 131.144 36.2994C131.677 36.2994 132.115 36.1981 132.456 35.9954C132.808 35.7927 133.037 35.5047 133.144 35.1314H134.952C134.781 35.9954 134.355 36.6727 133.672 37.1634C133 37.6541 132.147 37.8994 131.112 37.8994ZM141.755 37.6914V29.7874H143.707V37.6914H141.755ZM142.715 28.2034C142.384 28.2034 142.102 28.0914 141.867 27.8674C141.643 27.6327 141.531 27.3501 141.531 27.0194C141.531 26.6887 141.643 26.4114 141.867 26.1874C142.102 25.9634 142.384 25.8514 142.715 25.8514C143.046 25.8514 143.323 25.9634 143.547 26.1874C143.782 26.4114 143.899 26.6887 143.899 27.0194C143.899 27.3501 143.782 27.6327 143.547 27.8674C143.323 28.0914 143.046 28.2034 142.715 28.2034ZM148.156 37.6914H146.204V29.7874H148.012L148.172 30.8114C148.417 30.4167 148.764 30.1074 149.212 29.8834C149.67 29.6594 150.166 29.5474 150.7 29.5474C151.692 29.5474 152.438 29.8407 152.94 30.4274C153.452 31.0141 153.708 31.8141 153.708 32.8274V37.6914H151.756V33.2914C151.756 32.6301 151.606 32.1394 151.308 31.8194C151.009 31.4887 150.604 31.3234 150.092 31.3234C149.484 31.3234 149.009 31.5154 148.668 31.8994C148.326 32.2834 148.156 32.7954 148.156 33.4354V37.6914ZM155.322 29.7874H160.314V31.4194H155.322V29.7874ZM158.794 37.6914H156.842V27.3234H158.794V37.6914ZM161.481 33.7234C161.481 32.9021 161.662 32.1821 162.025 31.5634C162.388 30.9341 162.889 30.4434 163.529 30.0914C164.169 29.7394 164.894 29.5634 165.705 29.5634C166.526 29.5634 167.252 29.7394 167.881 30.0914C168.521 30.4434 169.022 30.9341 169.385 31.5634C169.748 32.1821 169.929 32.9021 169.929 33.7234C169.929 34.5447 169.748 35.2701 169.385 35.8994C169.022 36.5181 168.521 37.0034 167.881 37.3554C167.252 37.7074 166.526 37.8834 165.705 37.8834C164.894 37.8834 164.169 37.7074 163.529 37.3554C162.889 37.0034 162.388 36.5181 162.025 35.8994C161.662 35.2701 161.481 34.5447 161.481 33.7234ZM163.433 33.7234C163.433 34.2034 163.529 34.6247 163.721 34.9874C163.924 35.3501 164.19 35.6327 164.521 35.8354C164.862 36.0381 165.257 36.1394 165.705 36.1394C166.153 36.1394 166.548 36.0381 166.889 35.8354C167.23 35.6327 167.497 35.3501 167.689 34.9874C167.881 34.6247 167.977 34.2034 167.977 33.7234C167.977 33.2327 167.881 32.8114 167.689 32.4594C167.497 32.0967 167.23 31.8141 166.889 31.6114C166.548 31.4087 166.153 31.3074 165.705 31.3074C165.257 31.3074 164.862 31.4087 164.521 31.6114C164.19 31.8141 163.924 32.0967 163.721 32.4594C163.529 32.8114 163.433 33.2327 163.433 33.7234ZM176.285 33.7234C176.285 32.9127 176.45 32.1927 176.781 31.5634C177.122 30.9341 177.586 30.4434 178.173 30.0914C178.77 29.7287 179.458 29.5474 180.237 29.5474C181.314 29.5474 182.194 29.8301 182.877 30.3954C183.57 30.9501 183.97 31.7021 184.077 32.6514H182.125C182.007 32.2034 181.789 31.8674 181.469 31.6434C181.159 31.4087 180.77 31.2914 180.301 31.2914C179.895 31.2914 179.533 31.3927 179.213 31.5954C178.903 31.7874 178.663 32.0647 178.493 32.4274C178.322 32.7901 178.237 33.2221 178.237 33.7234C178.237 34.2247 178.317 34.6567 178.477 35.0194C178.637 35.3821 178.866 35.6647 179.165 35.8674C179.474 36.0594 179.837 36.1554 180.253 36.1554C180.743 36.1554 181.149 36.0381 181.469 35.8034C181.799 35.5687 182.018 35.2327 182.125 34.7954H184.093C184.007 35.4141 183.789 35.9581 183.437 36.4274C183.095 36.8861 182.653 37.2487 182.109 37.5154C181.565 37.7714 180.946 37.8994 180.253 37.8994C179.453 37.8994 178.754 37.7287 178.157 37.3874C177.559 37.0354 177.095 36.5501 176.765 35.9314C176.445 35.3021 176.285 34.5661 176.285 33.7234ZM190.986 29.7554V31.5634H190.266C189.551 31.5634 188.991 31.7554 188.586 32.1394C188.18 32.5127 187.978 33.0834 187.978 33.8514V37.6914H186.026V29.8034H187.866L188.026 31.4354H187.834C187.94 30.9127 188.191 30.4861 188.586 30.1554C188.98 29.8247 189.492 29.6594 190.122 29.6594C190.26 29.6594 190.399 29.6647 190.538 29.6754C190.676 29.6861 190.826 29.7127 190.986 29.7554ZM194.189 29.7874L196.765 37.0834L195.709 39.0834L192.125 29.7874H194.189ZM192.333 41.3554V39.7394H193.501C193.757 39.7394 193.981 39.7074 194.173 39.6434C194.365 39.5901 194.536 39.4834 194.685 39.3234C194.845 39.1634 194.978 38.9287 195.085 38.6194L198.365 29.7874H200.381L196.509 39.4514C196.221 40.1767 195.858 40.7047 195.421 41.0354C194.984 41.3661 194.44 41.5314 193.789 41.5314C193.512 41.5314 193.25 41.5154 193.005 41.4834C192.77 41.4621 192.546 41.4194 192.333 41.3554ZM201.97 41.3554V29.7874H203.778L203.906 30.9874C204.141 30.5287 204.503 30.1767 204.994 29.9314C205.485 29.6754 206.023 29.5474 206.61 29.5474C207.367 29.5474 208.018 29.7181 208.562 30.0594C209.117 30.4007 209.549 30.8754 209.858 31.4834C210.167 32.0914 210.322 32.8114 210.322 33.6434C210.322 34.4647 210.178 35.1954 209.89 35.8354C209.602 36.4754 209.181 36.9821 208.626 37.3554C208.082 37.7181 207.415 37.8994 206.626 37.8994C206.039 37.8994 205.501 37.7874 205.01 37.5634C204.53 37.3394 204.167 37.0301 203.922 36.6354V41.3554H201.97ZM203.938 33.7394C203.938 34.2087 204.029 34.6247 204.21 34.9874C204.391 35.3501 204.647 35.6381 204.978 35.8514C205.319 36.0541 205.714 36.1554 206.162 36.1554C206.621 36.1554 207.015 36.0541 207.346 35.8514C207.677 35.6381 207.927 35.3501 208.098 34.9874C208.269 34.6247 208.354 34.2087 208.354 33.7394C208.354 33.2701 208.269 32.8541 208.098 32.4914C207.927 32.1287 207.677 31.8461 207.346 31.6434C207.015 31.4301 206.621 31.3234 206.162 31.3234C205.714 31.3234 205.319 31.4247 204.978 31.6274C204.647 31.8301 204.391 32.1127 204.21 32.4754C204.029 32.8381 203.938 33.2594 203.938 33.7394ZM211.494 29.7874H216.486V31.4194H211.494V29.7874ZM214.966 37.6914H213.014V27.3234H214.966V37.6914ZM217.653 33.7234C217.653 32.9021 217.835 32.1821 218.197 31.5634C218.56 30.9341 219.061 30.4434 219.701 30.0914C220.341 29.7394 221.067 29.5634 221.877 29.5634C222.699 29.5634 223.424 29.7394 224.053 30.0914C224.693 30.4434 225.195 30.9341 225.557 31.5634C225.92 32.1821 226.101 32.9021 226.101 33.7234C226.101 34.5447 225.92 35.2701 225.557 35.8994C225.195 36.5181 224.693 37.0034 224.053 37.3554C223.424 37.7074 222.699 37.8834 221.877 37.8834C221.067 37.8834 220.341 37.7074 219.701 37.3554C219.061 37.0034 218.56 36.5181 218.197 35.8994C217.835 35.2701 217.653 34.5447 217.653 33.7234ZM219.605 33.7234C219.605 34.2034 219.701 34.6247 219.893 34.9874C220.096 35.3501 220.363 35.6327 220.693 35.8354C221.035 36.0381 221.429 36.1394 221.877 36.1394C222.325 36.1394 222.72 36.0381 223.061 35.8354C223.403 35.6327 223.669 35.3501 223.861 34.9874C224.053 34.6247 224.149 34.2034 224.149 33.7234C224.149 33.2327 224.053 32.8114 223.861 32.4594C223.669 32.0967 223.403 31.8141 223.061 31.6114C222.72 31.4087 222.325 31.3074 221.877 31.3074C221.429 31.3074 221.035 31.4087 220.693 31.6114C220.363 31.8141 220.096 32.0967 219.893 32.4594C219.701 32.8114 219.605 33.2327 219.605 33.7234ZM229.244 37.5474L229.436 37.4994C229.351 37.5741 229.255 37.6327 229.148 37.6754C229.052 37.7074 228.935 37.7234 228.796 37.7234C228.487 37.7234 228.22 37.6221 227.996 37.4194C227.772 37.2061 227.66 36.9394 227.66 36.6194C227.66 36.2354 227.772 35.9261 227.996 35.6914C228.22 35.4567 228.514 35.3394 228.876 35.3394C229.282 35.3394 229.612 35.4887 229.868 35.7874C230.124 36.0861 230.252 36.4861 230.252 36.9874C230.252 37.4247 230.156 37.8247 229.964 38.1874C229.772 38.5607 229.506 38.8647 229.164 39.0994C228.823 39.3341 228.434 39.4781 227.996 39.5314V38.7474C228.359 38.6834 228.658 38.5447 228.892 38.3314C229.127 38.1287 229.244 37.8674 229.244 37.5474ZM239.381 37.6914H237.573V25.7874H239.525V30.9394C239.781 30.4914 240.154 30.1501 240.645 29.9154C241.136 29.6701 241.685 29.5474 242.293 29.5474C243.05 29.5474 243.696 29.7287 244.229 30.0914C244.773 30.4434 245.189 30.9394 245.477 31.5794C245.776 32.2194 245.925 32.9607 245.925 33.8034C245.925 34.6034 245.77 35.3127 245.461 35.9314C245.152 36.5501 244.714 37.0354 244.149 37.3874C243.584 37.7287 242.922 37.8994 242.165 37.8994C241.578 37.8994 241.045 37.7714 240.565 37.5154C240.096 37.2594 239.744 36.9074 239.509 36.4594L239.381 37.6914ZM239.541 33.7074C239.541 34.1767 239.632 34.5981 239.813 34.9714C239.994 35.3341 240.25 35.6167 240.581 35.8194C240.922 36.0114 241.317 36.1074 241.765 36.1074C242.224 36.1074 242.618 36.0061 242.949 35.8034C243.28 35.6007 243.53 35.3181 243.701 34.9554C243.872 34.5927 243.957 34.1767 243.957 33.7074C243.957 33.2381 243.872 32.8221 243.701 32.4594C243.53 32.0967 243.28 31.8141 242.949 31.6114C242.618 31.3981 242.224 31.2914 241.765 31.2914C241.317 31.2914 240.922 31.3981 240.581 31.6114C240.25 31.8141 239.994 32.0967 239.813 32.4594C239.632 32.8114 239.541 33.2274 239.541 33.7074ZM253.132 29.7874H255.084V37.6914H253.276L253.132 36.6354C252.897 37.0087 252.545 37.3127 252.076 37.5474C251.606 37.7821 251.105 37.8994 250.572 37.8994C249.665 37.8994 248.956 37.6114 248.444 37.0354C247.932 36.4594 247.676 35.6914 247.676 34.7314V29.7874H249.628V34.0434C249.628 34.7901 249.772 35.3287 250.06 35.6594C250.348 35.9901 250.764 36.1554 251.308 36.1554C251.926 36.1554 252.385 35.9741 252.684 35.6114C252.982 35.2381 253.132 34.6781 253.132 33.9314V29.7874ZM256.796 29.7874H261.788V31.4194H256.796V29.7874ZM260.268 37.6914H258.316V27.3234H260.268V37.6914ZM267.506 29.7874H272.498V31.4194H267.506V29.7874ZM270.978 37.6914H269.026V27.3234H270.978V37.6914ZM276.159 37.6914H274.207V25.7874H276.175V30.8114C276.421 30.4274 276.762 30.1234 277.199 29.8994C277.647 29.6647 278.159 29.5474 278.735 29.5474C279.706 29.5474 280.442 29.8407 280.943 30.4274C281.455 31.0141 281.711 31.8141 281.711 32.8274V37.6914H279.759V33.2914C279.759 32.8434 279.69 32.4754 279.551 32.1874C279.413 31.8994 279.221 31.6861 278.975 31.5474C278.73 31.3981 278.442 31.3234 278.111 31.3234C277.706 31.3234 277.354 31.4141 277.055 31.5954C276.767 31.7661 276.543 32.0061 276.383 32.3154C276.234 32.6247 276.159 32.9767 276.159 33.3714V37.6914ZM287.645 37.8994C286.867 37.8994 286.173 37.7234 285.565 37.3714C284.968 37.0087 284.499 36.5181 284.157 35.8994C283.816 35.2701 283.645 34.5501 283.645 33.7394C283.645 32.9181 283.811 32.1927 284.141 31.5634C284.472 30.9341 284.936 30.4434 285.533 30.0914C286.131 29.7287 286.813 29.5474 287.581 29.5474C288.381 29.5474 289.069 29.7181 289.645 30.0594C290.221 30.3901 290.664 30.8541 290.973 31.4514C291.293 32.0487 291.453 32.7634 291.453 33.5954V34.1874L284.669 34.2034L284.701 32.9554H289.517C289.517 32.4114 289.341 31.9741 288.989 31.6434C288.648 31.3127 288.184 31.1474 287.597 31.1474C287.139 31.1474 286.749 31.2434 286.429 31.4354C286.12 31.6274 285.885 31.9154 285.725 32.2994C285.565 32.6834 285.485 33.1527 285.485 33.7074C285.485 34.5607 285.667 35.2061 286.029 35.6434C286.403 36.0807 286.952 36.2994 287.677 36.2994C288.211 36.2994 288.648 36.1981 288.989 35.9954C289.341 35.7927 289.571 35.5047 289.677 35.1314H291.485C291.315 35.9954 290.888 36.6727 290.205 37.1634C289.533 37.6541 288.68 37.8994 287.645 37.8994ZM294.398 29.7874L296.974 37.0834L295.918 39.0834L292.334 29.7874H294.398ZM292.542 41.3554V39.7394H293.71C293.966 39.7394 294.19 39.7074 294.382 39.6434C294.574 39.5901 294.745 39.4834 294.894 39.3234C295.054 39.1634 295.187 38.9287 295.294 38.6194L298.574 29.7874H300.59L296.718 39.4514C296.43 40.1767 296.067 40.7047 295.63 41.0354C295.193 41.3661 294.649 41.5314 293.998 41.5314C293.721 41.5314 293.459 41.5154 293.214 41.4834C292.979 41.4621 292.755 41.4194 292.542 41.3554ZM23.224 51.7874H28.216V53.4194H23.224V51.7874ZM26.696 59.6914H24.744V49.3234H26.696V59.6914ZM31.8775 59.6914H29.9255V47.7874H31.8935V52.8114C32.1388 52.4274 32.4802 52.1234 32.9175 51.8994C33.3655 51.6647 33.8775 51.5474 34.4535 51.5474C35.4242 51.5474 36.1602 51.8407 36.6615 52.4274C37.1735 53.0141 37.4295 53.8141 37.4295 54.8274V59.6914H35.4775V55.2914C35.4775 54.8434 35.4082 54.4754 35.2695 54.1874C35.1308 53.8994 34.9388 53.6861 34.6935 53.5474C34.4482 53.3981 34.1602 53.3234 33.8295 53.3234C33.4242 53.3234 33.0722 53.4141 32.7735 53.5954C32.4855 53.7661 32.2615 54.0061 32.1015 54.3154C31.9522 54.6247 31.8775 54.9767 31.8775 55.3714V59.6914ZM44.7874 51.7554V53.5634H44.0674C43.3527 53.5634 42.7927 53.7554 42.3874 54.1394C41.982 54.5127 41.7794 55.0834 41.7794 55.8514V59.6914H39.8274V51.8034H41.6674L41.8274 53.4354H41.6354C41.742 52.9127 41.9927 52.4861 42.3874 52.1554C42.782 51.8247 43.294 51.6594 43.9234 51.6594C44.062 51.6594 44.2007 51.6647 44.3394 51.6754C44.478 51.6861 44.6274 51.7127 44.7874 51.7554ZM45.859 55.7234C45.859 54.9021 46.0403 54.1821 46.403 53.5634C46.7657 52.9341 47.267 52.4434 47.907 52.0914C48.547 51.7394 49.2723 51.5634 50.083 51.5634C50.9043 51.5634 51.6297 51.7394 52.259 52.0914C52.899 52.4434 53.4003 52.9341 53.763 53.5634C54.1257 54.1821 54.307 54.9021 54.307 55.7234C54.307 56.5447 54.1257 57.2701 53.763 57.8994C53.4003 58.5181 52.899 59.0034 52.259 59.3554C51.6297 59.7074 50.9043 59.8834 50.083 59.8834C49.2723 59.8834 48.547 59.7074 47.907 59.3554C47.267 59.0034 46.7657 58.5181 46.403 57.8994C46.0403 57.2701 45.859 56.5447 45.859 55.7234ZM47.811 55.7234C47.811 56.2034 47.907 56.6247 48.099 56.9874C48.3017 57.3501 48.5683 57.6327 48.899 57.8354C49.2403 58.0381 49.635 58.1394 50.083 58.1394C50.531 58.1394 50.9257 58.0381 51.267 57.8354C51.6083 57.6327 51.875 57.3501 52.067 56.9874C52.259 56.6247 52.355 56.2034 52.355 55.7234C52.355 55.2327 52.259 54.8114 52.067 54.4594C51.875 54.0967 51.6083 53.8141 51.267 53.6114C50.9257 53.4087 50.531 53.3074 50.083 53.3074C49.635 53.3074 49.2403 53.4087 48.899 53.6114C48.5683 53.8141 48.3017 54.0967 48.099 54.4594C47.907 54.8114 47.811 55.2327 47.811 55.7234ZM57.7033 59.6914L55.1433 51.7874H57.1753L58.2153 55.1794C58.3006 55.4887 58.3859 55.8141 58.4713 56.1554C58.5566 56.4967 58.6313 56.8541 58.6953 57.2274C58.7486 56.9714 58.7966 56.7367 58.8393 56.5234C58.8926 56.3101 58.9513 56.1021 59.0153 55.8994C59.0793 55.6861 59.1539 55.4461 59.2393 55.1794L60.3273 51.7874H62.3113L63.3673 55.1794C63.3886 55.2541 63.4206 55.3821 63.4633 55.5634C63.5166 55.7341 63.5699 55.9207 63.6233 56.1234C63.6766 56.3261 63.7246 56.5287 63.7673 56.7314C63.8206 56.9234 63.8579 57.0887 63.8793 57.2274C63.9219 57.0247 63.9753 56.7954 64.0393 56.5394C64.1033 56.2834 64.1673 56.0381 64.2313 55.8034C64.3059 55.5581 64.3646 55.3501 64.4073 55.1794L65.4633 51.7874H67.5273L64.7913 59.6914H62.9673L61.8793 56.2674C61.7193 55.7447 61.5913 55.3021 61.4953 54.9394C61.3993 54.5661 61.3353 54.2781 61.3033 54.0754C61.2713 54.2674 61.2126 54.5234 61.1273 54.8434C61.0419 55.1634 60.8979 55.6487 60.6953 56.2994L59.6073 59.6914H57.7033ZM75.9338 59.6914H73.9818V51.7874H75.7738L76.0138 53.1954L75.7898 53.0034C75.9498 52.6194 76.2431 52.2834 76.6698 51.9954C77.0964 51.6967 77.6298 51.5474 78.2698 51.5474C78.9631 51.5474 79.5284 51.7287 79.9658 52.0914C80.4138 52.4541 80.7231 52.9341 80.8938 53.5314H80.5738C80.6911 52.9341 80.9898 52.4541 81.4698 52.0914C81.9604 51.7287 82.5524 51.5474 83.2458 51.5474C84.2058 51.5474 84.9418 51.8194 85.4538 52.3634C85.9658 52.8967 86.2218 53.6167 86.2218 54.5234V59.6914H84.2858V55.0354C84.2858 54.4701 84.1418 54.0434 83.8538 53.7554C83.5764 53.4567 83.2031 53.3074 82.7338 53.3074C82.4351 53.3074 82.1578 53.3767 81.9018 53.5154C81.6564 53.6541 81.4591 53.8621 81.3098 54.1394C81.1604 54.4167 81.0858 54.7741 81.0858 55.2114V59.6914H79.1338V55.0194C79.1338 54.4647 78.9951 54.0434 78.7178 53.7554C78.4404 53.4674 78.0724 53.3234 77.6138 53.3234C77.3044 53.3234 77.0218 53.3927 76.7658 53.5314C76.5098 53.6594 76.3071 53.8674 76.1578 54.1554C76.0084 54.4327 75.9338 54.7847 75.9338 55.2114V59.6914ZM92.154 59.8994C91.3753 59.8994 90.682 59.7234 90.074 59.3714C89.4767 59.0087 89.0073 58.5181 88.666 57.8994C88.3247 57.2701 88.154 56.5501 88.154 55.7394C88.154 54.9181 88.3193 54.1927 88.65 53.5634C88.9807 52.9341 89.4447 52.4434 90.042 52.0914C90.6393 51.7287 91.322 51.5474 92.09 51.5474C92.89 51.5474 93.578 51.7181 94.154 52.0594C94.73 52.3901 95.1727 52.8541 95.482 53.4514C95.802 54.0487 95.962 54.7634 95.962 55.5954V56.1874L89.178 56.2034L89.21 54.9554H94.026C94.026 54.4114 93.85 53.9741 93.498 53.6434C93.1567 53.3127 92.6927 53.1474 92.106 53.1474C91.6473 53.1474 91.258 53.2434 90.938 53.4354C90.6287 53.6274 90.394 53.9154 90.234 54.2994C90.074 54.6834 89.994 55.1527 89.994 55.7074C89.994 56.5607 90.1753 57.2061 90.538 57.6434C90.9113 58.0807 91.4607 58.2994 92.186 58.2994C92.7193 58.2994 93.1567 58.1981 93.498 57.9954C93.85 57.7927 94.0793 57.5047 94.186 57.1314H95.994C95.8233 57.9954 95.3967 58.6727 94.714 59.1634C94.042 59.6541 93.1887 59.8994 92.154 59.8994ZM102.797 59.6914V51.7874H104.749V59.6914H102.797ZM103.757 50.2034C103.426 50.2034 103.143 50.0914 102.909 49.8674C102.685 49.6327 102.573 49.3501 102.573 49.0194C102.573 48.6887 102.685 48.4114 102.909 48.1874C103.143 47.9634 103.426 47.8514 103.757 47.8514C104.087 47.8514 104.365 47.9634 104.589 48.1874C104.823 48.4114 104.941 48.6887 104.941 49.0194C104.941 49.3501 104.823 49.6327 104.589 49.8674C104.365 50.0914 104.087 50.2034 103.757 50.2034ZM109.198 59.6914H107.246V51.7874H109.054L109.214 52.8114C109.459 52.4167 109.806 52.1074 110.254 51.8834C110.712 51.6594 111.208 51.5474 111.742 51.5474C112.734 51.5474 113.48 51.8407 113.982 52.4274C114.494 53.0141 114.75 53.8141 114.75 54.8274V59.6914H112.798V55.2914C112.798 54.6301 112.648 54.1394 112.35 53.8194C112.051 53.4887 111.646 53.3234 111.134 53.3234C110.526 53.3234 110.051 53.5154 109.71 53.8994C109.368 54.2834 109.198 54.7954 109.198 55.4354V59.6914ZM116.363 51.7874H121.355V53.4194H116.363V51.7874ZM119.835 59.6914H117.883V49.3234H119.835V59.6914ZM122.523 55.7234C122.523 54.9021 122.704 54.1821 123.067 53.5634C123.429 52.9341 123.931 52.4434 124.571 52.0914C125.211 51.7394 125.936 51.5634 126.747 51.5634C127.568 51.5634 128.293 51.7394 128.923 52.0914C129.563 52.4434 130.064 52.9341 130.427 53.5634C130.789 54.1821 130.971 54.9021 130.971 55.7234C130.971 56.5447 130.789 57.2701 130.427 57.8994C130.064 58.5181 129.563 59.0034 128.923 59.3554C128.293 59.7074 127.568 59.8834 126.747 59.8834C125.936 59.8834 125.211 59.7074 124.571 59.3554C123.931 59.0034 123.429 58.5181 123.067 57.8994C122.704 57.2701 122.523 56.5447 122.523 55.7234ZM124.475 55.7234C124.475 56.2034 124.571 56.6247 124.763 56.9874C124.965 57.3501 125.232 57.6327 125.563 57.8354C125.904 58.0381 126.299 58.1394 126.747 58.1394C127.195 58.1394 127.589 58.0381 127.931 57.8354C128.272 57.6327 128.539 57.3501 128.731 56.9874C128.923 56.6247 129.019 56.2034 129.019 55.7234C129.019 55.2327 128.923 54.8114 128.731 54.4594C128.539 54.0967 128.272 53.8141 127.931 53.6114C127.589 53.4087 127.195 53.3074 126.747 53.3074C126.299 53.3074 125.904 53.4087 125.563 53.6114C125.232 53.8141 124.965 54.0967 124.763 54.4594C124.571 54.8114 124.475 55.2327 124.475 55.7234ZM137.183 57.2914H139.039C139.049 57.6327 139.177 57.9047 139.423 58.1074C139.668 58.3101 140.009 58.4114 140.447 58.4114C140.916 58.4114 141.268 58.3261 141.503 58.1554C141.748 57.9847 141.871 57.7554 141.871 57.4674C141.871 57.2754 141.807 57.1047 141.679 56.9554C141.551 56.8061 141.311 56.6941 140.959 56.6194L139.535 56.2834C138.82 56.1234 138.287 55.8674 137.935 55.5154C137.593 55.1527 137.423 54.6567 137.423 54.0274C137.423 53.5154 137.556 53.0727 137.823 52.6994C138.1 52.3261 138.473 52.0434 138.943 51.8514C139.412 51.6487 139.951 51.5474 140.559 51.5474C141.145 51.5474 141.663 51.6541 142.111 51.8674C142.559 52.0807 142.905 52.3794 143.151 52.7634C143.407 53.1474 143.54 53.5954 143.551 54.1074H141.695C141.695 53.7661 141.588 53.4994 141.375 53.3074C141.161 53.1047 140.863 53.0034 140.479 53.0034C140.095 53.0034 139.796 53.0887 139.583 53.2594C139.369 53.4301 139.263 53.6594 139.263 53.9474C139.263 54.3847 139.604 54.6834 140.287 54.8434L141.711 55.1794C142.372 55.3287 142.868 55.5687 143.199 55.8994C143.54 56.2301 143.711 56.6994 143.711 57.3074C143.711 57.8407 143.572 58.3047 143.295 58.6994C143.017 59.0834 142.628 59.3821 142.127 59.5954C141.625 59.7981 141.049 59.8994 140.399 59.8994C139.417 59.8994 138.633 59.6594 138.047 59.1794C137.471 58.6994 137.183 58.0701 137.183 57.2914ZM144.893 51.7874H149.885V53.4194H144.893V51.7874ZM148.365 59.6914H146.413V49.3234H148.365V59.6914ZM156.954 51.7874H158.906V59.6914H157.098L156.954 58.6354C156.72 59.0087 156.368 59.3127 155.898 59.5474C155.429 59.7821 154.928 59.8994 154.394 59.8994C153.488 59.8994 152.778 59.6114 152.266 59.0354C151.754 58.4594 151.498 57.6914 151.498 56.7314V51.7874H153.45V56.0434C153.45 56.7901 153.594 57.3287 153.882 57.6594C154.17 57.9901 154.586 58.1554 155.13 58.1554C155.749 58.1554 156.208 57.9741 156.506 57.6114C156.805 57.2381 156.954 56.6781 156.954 55.9314V51.7874ZM160.618 51.7874H165.962V53.4194H160.618V51.7874ZM165.594 47.8674V49.5314C165.477 49.5314 165.36 49.5314 165.242 49.5314C165.136 49.5314 165.024 49.5314 164.906 49.5314C164.416 49.5314 164.09 49.6487 163.93 49.8834C163.77 50.1181 163.69 50.4327 163.69 50.8274V59.6914H161.754V50.8274C161.754 50.1021 161.872 49.5207 162.106 49.0834C162.341 48.6354 162.672 48.3101 163.098 48.1074C163.525 47.8941 164.021 47.7874 164.586 47.7874C164.746 47.7874 164.912 47.7927 165.082 47.8034C165.253 47.8141 165.424 47.8354 165.594 47.8674ZM165.85 51.7874H170.746V53.4194H165.85V51.7874ZM170.762 47.8674V49.5314C170.645 49.5314 170.528 49.5314 170.41 49.5314C170.304 49.5314 170.197 49.5314 170.09 49.5314C169.589 49.5314 169.258 49.6487 169.098 49.8834C168.938 50.1181 168.858 50.4327 168.858 50.8274V59.6914H166.922V50.8274C166.922 50.1021 167.04 49.5207 167.274 49.0834C167.509 48.6354 167.84 48.3101 168.266 48.1074C168.693 47.8941 169.189 47.7874 169.754 47.7874C169.914 47.7874 170.08 47.7927 170.25 47.8034C170.421 47.8141 170.592 47.8354 170.762 47.8674ZM179.605 47.9954V59.6914H177.557V47.9954H179.605ZM188.99 59.6914H187.182V47.7874H189.134V52.9394C189.39 52.4914 189.763 52.1501 190.254 51.9154C190.744 51.6701 191.294 51.5474 191.902 51.5474C192.659 51.5474 193.304 51.7287 193.838 52.0914C194.382 52.4434 194.798 52.9394 195.086 53.5794C195.384 54.2194 195.534 54.9607 195.534 55.8034C195.534 56.6034 195.379 57.3127 195.07 57.9314C194.76 58.5501 194.323 59.0354 193.758 59.3874C193.192 59.7287 192.531 59.8994 191.774 59.8994C191.187 59.8994 190.654 59.7714 190.174 59.5154C189.704 59.2594 189.352 58.9074 189.118 58.4594L188.99 59.6914ZM189.15 55.7074C189.15 56.1767 189.24 56.5981 189.422 56.9714C189.603 57.3341 189.859 57.6167 190.19 57.8194C190.531 58.0114 190.926 58.1074 191.374 58.1074C191.832 58.1074 192.227 58.0061 192.558 57.8034C192.888 57.6007 193.139 57.3181 193.31 56.9554C193.48 56.5927 193.566 56.1767 193.566 55.7074C193.566 55.2381 193.48 54.8221 193.31 54.4594C193.139 54.0967 192.888 53.8141 192.558 53.6114C192.227 53.3981 191.832 53.2914 191.374 53.2914C190.926 53.2914 190.531 53.3981 190.19 53.6114C189.859 53.8141 189.603 54.0967 189.422 54.4594C189.24 54.8114 189.15 55.2274 189.15 55.7074ZM199.92 59.8994C199.088 59.8994 198.427 59.6754 197.936 59.2274C197.456 58.7687 197.216 58.1714 197.216 57.4354C197.216 56.7101 197.467 56.1341 197.968 55.7074C198.48 55.2701 199.205 55.0141 200.144 54.9394L202.512 54.7474V54.5714C202.512 54.2087 202.443 53.9207 202.304 53.7074C202.176 53.4834 201.989 53.3234 201.744 53.2274C201.499 53.1207 201.211 53.0674 200.88 53.0674C200.304 53.0674 199.861 53.1847 199.552 53.4194C199.243 53.6434 199.088 53.9634 199.088 54.3794H197.424C197.424 53.8034 197.568 53.3074 197.856 52.8914C198.155 52.4647 198.571 52.1341 199.104 51.8994C199.648 51.6647 200.272 51.5474 200.976 51.5474C201.691 51.5474 202.304 51.6754 202.816 51.9314C203.328 52.1767 203.723 52.5501 204 53.0514C204.277 53.5421 204.416 54.1554 204.416 54.8914V59.6914H202.704L202.56 58.5234C202.389 58.9287 202.059 59.2594 201.568 59.5154C201.088 59.7714 200.539 59.8994 199.92 59.8994ZM200.544 58.4274C201.152 58.4274 201.632 58.2567 201.984 57.9154C202.347 57.5741 202.528 57.0994 202.528 56.4914V56.0754L200.88 56.2034C200.272 56.2567 199.84 56.3847 199.584 56.5874C199.328 56.7794 199.2 57.0354 199.2 57.3554C199.2 57.7074 199.317 57.9741 199.552 58.1554C199.787 58.3367 200.117 58.4274 200.544 58.4274ZM211.774 51.7554V53.5634H211.054C210.339 53.5634 209.779 53.7554 209.374 54.1394C208.968 54.5127 208.766 55.0834 208.766 55.8514V59.6914H206.814V51.8034H208.654L208.814 53.4354H208.622C208.728 52.9127 208.979 52.4861 209.374 52.1554C209.768 51.8247 210.28 51.6594 210.91 51.6594C211.048 51.6594 211.187 51.6647 211.326 51.6754C211.464 51.6861 211.614 51.7127 211.774 51.7554ZM216.845 59.8994C216.067 59.8994 215.373 59.7234 214.765 59.3714C214.168 59.0087 213.699 58.5181 213.357 57.8994C213.016 57.2701 212.845 56.5501 212.845 55.7394C212.845 54.9181 213.011 54.1927 213.341 53.5634C213.672 52.9341 214.136 52.4434 214.733 52.0914C215.331 51.7287 216.013 51.5474 216.781 51.5474C217.581 51.5474 218.269 51.7181 218.845 52.0594C219.421 52.3901 219.864 52.8541 220.173 53.4514C220.493 54.0487 220.653 54.7634 220.653 55.5954V56.1874L213.869 56.2034L213.901 54.9554H218.717C218.717 54.4114 218.541 53.9741 218.189 53.6434C217.848 53.3127 217.384 53.1474 216.797 53.1474C216.339 53.1474 215.949 53.2434 215.629 53.4354C215.32 53.6274 215.085 53.9154 214.925 54.2994C214.765 54.6834 214.685 55.1527 214.685 55.7074C214.685 56.5607 214.867 57.2061 215.229 57.6434C215.603 58.0807 216.152 58.2994 216.877 58.2994C217.411 58.2994 217.848 58.1981 218.189 57.9954C218.541 57.7927 218.771 57.5047 218.877 57.1314H220.685C220.515 57.9954 220.088 58.6727 219.405 59.1634C218.733 59.6541 217.88 59.8994 216.845 59.8994ZM224.664 59.6914H222.728V47.7874H224.664V59.6914ZM228.359 51.7874L230.935 59.0834L229.879 61.0834L226.295 51.7874H228.359ZM226.503 63.3554V61.7394H227.671C227.927 61.7394 228.151 61.7074 228.343 61.6434C228.535 61.5901 228.706 61.4834 228.855 61.3234C229.015 61.1634 229.148 60.9287 229.255 60.6194L232.535 51.7874H234.551L230.679 61.4514C230.391 62.1767 230.028 62.7047 229.591 63.0354C229.154 63.3661 228.61 63.5314 227.959 63.5314C227.682 63.5314 227.42 63.5154 227.175 63.4834C226.94 63.4621 226.716 63.4194 226.503 63.3554ZM246.292 51.7874H248.244V59.6914H246.436L246.292 58.6354C246.058 59.0087 245.706 59.3127 245.236 59.5474C244.767 59.7821 244.266 59.8994 243.732 59.8994C242.826 59.8994 242.116 59.6114 241.604 59.0354C241.092 58.4594 240.836 57.6914 240.836 56.7314V51.7874H242.788V56.0434C242.788 56.7901 242.932 57.3287 243.22 57.6594C243.508 57.9901 243.924 58.1554 244.468 58.1554C245.087 58.1554 245.546 57.9741 245.844 57.6114C246.143 57.2381 246.292 56.6781 246.292 55.9314V51.7874ZM252.692 59.6914H250.74V51.7874H252.548L252.708 52.8114C252.954 52.4167 253.3 52.1074 253.748 51.8834C254.207 51.6594 254.703 51.5474 255.236 51.5474C256.228 51.5474 256.975 51.8407 257.476 52.4274C257.988 53.0141 258.244 53.8141 258.244 54.8274V59.6914H256.292V55.2914C256.292 54.6301 256.143 54.1394 255.844 53.8194C255.546 53.4887 255.14 53.3234 254.628 53.3234C254.02 53.3234 253.546 53.5154 253.204 53.8994C252.863 54.2834 252.692 54.7954 252.692 55.4354V59.6914ZM263.89 59.8994C263.122 59.8994 262.461 59.7287 261.906 59.3874C261.362 59.0354 260.936 58.5501 260.626 57.9314C260.328 57.3127 260.178 56.5927 260.178 55.7714C260.178 54.9501 260.328 54.2247 260.626 53.5954C260.936 52.9554 261.378 52.4541 261.954 52.0914C262.53 51.7287 263.213 51.5474 264.002 51.5474C264.557 51.5474 265.064 51.6594 265.522 51.8834C265.981 52.0967 266.333 52.4007 266.578 52.7954V47.7874H268.514V59.6914H266.722L266.594 58.4594C266.36 58.9074 265.997 59.2594 265.506 59.5154C265.026 59.7714 264.488 59.8994 263.89 59.8994ZM264.322 58.1074C264.781 58.1074 265.176 58.0114 265.506 57.8194C265.837 57.6167 266.093 57.3341 266.274 56.9714C266.466 56.5981 266.562 56.1767 266.562 55.7074C266.562 55.2274 266.466 54.8114 266.274 54.4594C266.093 54.0967 265.837 53.8141 265.506 53.6114C265.176 53.3981 264.781 53.2914 264.322 53.2914C263.874 53.2914 263.485 53.3981 263.154 53.6114C262.824 53.8141 262.568 54.0967 262.386 54.4594C262.216 54.8221 262.13 55.2381 262.13 55.7074C262.13 56.1767 262.216 56.5927 262.386 56.9554C262.568 57.3181 262.824 57.6007 263.154 57.8034C263.485 58.0061 263.874 58.1074 264.322 58.1074ZM274.565 59.8994C273.786 59.8994 273.093 59.7234 272.485 59.3714C271.887 59.0087 271.418 58.5181 271.077 57.8994C270.735 57.2701 270.565 56.5501 270.565 55.7394C270.565 54.9181 270.73 54.1927 271.061 53.5634C271.391 52.9341 271.855 52.4434 272.453 52.0914C273.05 51.7287 273.733 51.5474 274.501 51.5474C275.301 51.5474 275.989 51.7181 276.565 52.0594C277.141 52.3901 277.583 52.8541 277.893 53.4514C278.213 54.0487 278.373 54.7634 278.373 55.5954V56.1874L271.589 56.2034L271.621 54.9554H276.437C276.437 54.4114 276.261 53.9741 275.909 53.6434C275.567 53.3127 275.103 53.1474 274.517 53.1474C274.058 53.1474 273.669 53.2434 273.349 53.4354C273.039 53.6274 272.805 53.9154 272.645 54.2994C272.485 54.6834 272.405 55.1527 272.405 55.7074C272.405 56.5607 272.586 57.2061 272.949 57.6434C273.322 58.0807 273.871 58.2994 274.597 58.2994C275.13 58.2994 275.567 58.1981 275.909 57.9954C276.261 57.7927 276.49 57.5047 276.597 57.1314H278.405C278.234 57.9954 277.807 58.6727 277.125 59.1634C276.453 59.6541 275.599 59.8994 274.565 59.8994ZM285.375 51.7554V53.5634H284.655C283.94 53.5634 283.38 53.7554 282.975 54.1394C282.57 54.5127 282.367 55.0834 282.367 55.8514V59.6914H280.415V51.8034H282.255L282.415 53.4354H282.223C282.33 52.9127 282.58 52.4861 282.975 52.1554C283.37 51.8247 283.882 51.6594 284.511 51.6594C284.65 51.6594 284.788 51.6647 284.927 51.6754C285.066 51.6861 285.215 51.7127 285.375 51.7554ZM286.568 57.2914H288.424C288.435 57.6327 288.563 57.9047 288.808 58.1074C289.053 58.3101 289.395 58.4114 289.832 58.4114C290.301 58.4114 290.653 58.3261 290.888 58.1554C291.133 57.9847 291.256 57.7554 291.256 57.4674C291.256 57.2754 291.192 57.1047 291.064 56.9554C290.936 56.8061 290.696 56.6941 290.344 56.6194L288.92 56.2834C288.205 56.1234 287.672 55.8674 287.32 55.5154C286.979 55.1527 286.808 54.6567 286.808 54.0274C286.808 53.5154 286.941 53.0727 287.208 52.6994C287.485 52.3261 287.859 52.0434 288.328 51.8514C288.797 51.6487 289.336 51.5474 289.944 51.5474C290.531 51.5474 291.048 51.6541 291.496 51.8674C291.944 52.0807 292.291 52.3794 292.536 52.7634C292.792 53.1474 292.925 53.5954 292.936 54.1074H291.08C291.08 53.7661 290.973 53.4994 290.76 53.3074C290.547 53.1047 290.248 53.0034 289.864 53.0034C289.48 53.0034 289.181 53.0887 288.968 53.2594C288.755 53.4301 288.648 53.6594 288.648 53.9474C288.648 54.3847 288.989 54.6834 289.672 54.8434L291.096 55.1794C291.757 55.3287 292.253 55.5687 292.584 55.8994C292.925 56.2301 293.096 56.6994 293.096 57.3074C293.096 57.8407 292.957 58.3047 292.68 58.6994C292.403 59.0834 292.013 59.3821 291.512 59.5954C291.011 59.7981 290.435 59.8994 289.784 59.8994C288.803 59.8994 288.019 59.6594 287.432 59.1794C286.856 58.6994 286.568 58.0701 286.568 57.2914ZM294.278 51.7874H299.27V53.4194H294.278V51.7874ZM297.75 59.6914H295.798V49.3234H297.75V59.6914ZM303.285 59.8994C302.453 59.8994 301.792 59.6754 301.301 59.2274C300.821 58.7687 300.581 58.1714 300.581 57.4354C300.581 56.7101 300.832 56.1341 301.333 55.7074C301.845 55.2701 302.57 55.0141 303.509 54.9394L305.877 54.7474V54.5714C305.877 54.2087 305.808 53.9207 305.669 53.7074C305.541 53.4834 305.354 53.3234 305.109 53.2274C304.864 53.1207 304.576 53.0674 304.245 53.0674C303.669 53.0674 303.226 53.1847 302.917 53.4194C302.608 53.6434 302.453 53.9634 302.453 54.3794H300.789C300.789 53.8034 300.933 53.3074 301.221 52.8914C301.52 52.4647 301.936 52.1341 302.469 51.8994C303.013 51.6647 303.637 51.5474 304.341 51.5474C305.056 51.5474 305.669 51.6754 306.181 51.9314C306.693 52.1767 307.088 52.5501 307.365 53.0514C307.642 53.5421 307.781 54.1554 307.781 54.8914V59.6914H306.069L305.925 58.5234C305.754 58.9287 305.424 59.2594 304.933 59.5154C304.453 59.7714 303.904 59.8994 303.285 59.8994ZM303.909 58.4274C304.517 58.4274 304.997 58.2567 305.349 57.9154C305.712 57.5741 305.893 57.0994 305.893 56.4914V56.0754L304.245 56.2034C303.637 56.2567 303.205 56.3847 302.949 56.5874C302.693 56.7794 302.565 57.0354 302.565 57.3554C302.565 57.7074 302.682 57.9741 302.917 58.1554C303.152 58.3367 303.482 58.4274 303.909 58.4274ZM312.131 59.6914H310.179V51.7874H311.987L312.147 52.8114C312.392 52.4167 312.739 52.1074 313.187 51.8834C313.645 51.6594 314.141 51.5474 314.675 51.5474C315.667 51.5474 316.413 51.8407 316.915 52.4274C317.427 53.0141 317.683 53.8141 317.683 54.8274V59.6914H315.731V55.2914C315.731 54.6301 315.581 54.1394 315.283 53.8194C314.984 53.4887 314.579 53.3234 314.067 53.3234C313.459 53.3234 312.984 53.5154 312.643 53.8994C312.301 54.2834 312.131 54.7954 312.131 55.4354V59.6914ZM323.329 59.8994C322.561 59.8994 321.899 59.7287 321.345 59.3874C320.801 59.0354 320.374 58.5501 320.065 57.9314C319.766 57.3127 319.617 56.5927 319.617 55.7714C319.617 54.9501 319.766 54.2247 320.065 53.5954C320.374 52.9554 320.817 52.4541 321.393 52.0914C321.969 51.7287 322.651 51.5474 323.441 51.5474C323.995 51.5474 324.502 51.6594 324.961 51.8834C325.419 52.0967 325.771 52.4007 326.017 52.7954V47.7874H327.953V59.6914H326.161L326.033 58.4594C325.798 58.9074 325.435 59.2594 324.945 59.5154C324.465 59.7714 323.926 59.8994 323.329 59.8994ZM323.761 58.1074C324.219 58.1074 324.614 58.0114 324.945 57.8194C325.275 57.6167 325.531 57.3341 325.713 56.9714C325.905 56.5981 326.001 56.1767 326.001 55.7074C326.001 55.2274 325.905 54.8114 325.713 54.4594C325.531 54.0967 325.275 53.8141 324.945 53.6114C324.614 53.3981 324.219 53.2914 323.761 53.2914C323.313 53.2914 322.923 53.3981 322.593 53.6114C322.262 53.8141 322.006 54.0967 321.825 54.4594C321.654 54.8221 321.569 55.2381 321.569 55.7074C321.569 56.1767 321.654 56.5927 321.825 56.9554C322.006 57.3181 322.262 57.6007 322.593 57.8034C322.923 58.0061 323.313 58.1074 323.761 58.1074ZM331.779 59.8834C331.427 59.8834 331.123 59.7607 330.867 59.5154C330.611 59.2701 330.483 58.9714 330.483 58.6194C330.483 58.2674 330.611 57.9687 330.867 57.7234C331.123 57.4674 331.427 57.3394 331.779 57.3394C332.131 57.3394 332.435 57.4674 332.691 57.7234C332.947 57.9687 333.075 58.2674 333.075 58.6194C333.075 58.9714 332.947 59.2701 332.691 59.5154C332.435 59.7607 332.131 59.8834 331.779 59.8834Z" fill="#F7F7F7"/>
</svg>
