<svg width="248" height="124" viewBox="0 0 248 124" fill="none" xmlns="http://www.w3.org/2000/svg">
<path d="M3 22.6914C3 12.198 11.5066 3.69141 22 3.69141H226C236.493 3.69141 245 12.198 245 22.6914V78.3616C245 88.855 236.493 97.3616 226 97.3616H95.5617C94.242 97.3616 92.9846 97.8752 92.0197 98.7756C86.6053 103.828 67.4531 120.691 53 120.691C48.5798 120.691 51.1317 111.389 53.6131 104.532C54.8474 101.121 52.3838 97.3616 48.7565 97.3616H22C11.5066 97.3616 3 88.855 3 78.3616V22.6914Z" fill="#ADC178" stroke="#437338" stroke-width="6"/>
<path d="M28.344 21.9954V33.6914H26.296V21.9954H28.344ZM35.1371 25.7874H40.1291V27.4194H35.1371V25.7874ZM38.6091 33.6914H36.6571V23.3234H38.6091V33.6914ZM46.7986 25.7554V27.5634H46.0786C45.364 27.5634 44.804 27.7554 44.3986 28.1394C43.9933 28.5127 43.7906 29.0834 43.7906 29.8514V33.6914H41.8386V25.8034H43.6786L43.8386 27.4354H43.6466C43.7533 26.9127 44.004 26.4861 44.3986 26.1554C44.7933 25.8247 45.3053 25.6594 45.9346 25.6594C46.0733 25.6594 46.212 25.6647 46.3506 25.6754C46.4893 25.6861 46.6386 25.7127 46.7986 25.7554ZM48.5999 33.6914V25.7874H50.5519V33.6914H48.5999ZM49.5599 24.2034C49.2292 24.2034 48.9465 24.0914 48.7119 23.8674C48.4879 23.6327 48.3759 23.3501 48.3759 23.0194C48.3759 22.6887 48.4879 22.4114 48.7119 22.1874C48.9465 21.9634 49.2292 21.8514 49.5599 21.8514C49.8905 21.8514 50.1679 21.9634 50.3919 22.1874C50.6265 22.4114 50.7439 22.6887 50.7439 23.0194C50.7439 23.3501 50.6265 23.6327 50.3919 23.8674C50.1679 24.0914 49.8905 24.2034 49.5599 24.2034ZM56.5846 33.8994C55.806 33.8994 55.1126 33.7234 54.5046 33.3714C53.9073 33.0087 53.438 32.5181 53.0966 31.8994C52.7553 31.2701 52.5846 30.5501 52.5846 29.7394C52.5846 28.9181 52.75 28.1927 53.0806 27.5634C53.4113 26.9341 53.8753 26.4434 54.4726 26.0914C55.07 25.7287 55.7526 25.5474 56.5206 25.5474C57.3206 25.5474 58.0086 25.7181 58.5846 26.0594C59.1606 26.3901 59.6033 26.8541 59.9126 27.4514C60.2326 28.0487 60.3926 28.7634 60.3926 29.5954V30.1874L53.6086 30.2034L53.6406 28.9554H58.4566C58.4566 28.4114 58.2806 27.9741 57.9286 27.6434C57.5873 27.3127 57.1233 27.1474 56.5366 27.1474C56.078 27.1474 55.6886 27.2434 55.3686 27.4354C55.0593 27.6274 54.8246 27.9154 54.6646 28.2994C54.5046 28.6834 54.4246 29.1527 54.4246 29.7074C54.4246 30.5607 54.606 31.2061 54.9686 31.6434C55.342 32.0807 55.8913 32.2994 56.6166 32.2994C57.15 32.2994 57.5873 32.1981 57.9286 31.9954C58.2806 31.7927 58.51 31.5047 58.6166 31.1314H60.4246C60.254 31.9954 59.8273 32.6727 59.1446 33.1634C58.4726 33.6541 57.6193 33.8994 56.5846 33.8994ZM65.6829 33.8994C64.9149 33.8994 64.2535 33.7287 63.6989 33.3874C63.1549 33.0354 62.7282 32.5501 62.4189 31.9314C62.1202 31.3127 61.9709 30.5927 61.9709 29.7714C61.9709 28.9501 62.1202 28.2247 62.4189 27.5954C62.7282 26.9554 63.1709 26.4541 63.7469 26.0914C64.3229 25.7287 65.0055 25.5474 65.7949 25.5474C66.3495 25.5474 66.8562 25.6594 67.3149 25.8834C67.7735 26.0967 68.1255 26.4007 68.3709 26.7954V21.7874H70.3069V33.6914H68.5149L68.3869 32.4594C68.1522 32.9074 67.7895 33.2594 67.2989 33.5154C66.8189 33.7714 66.2802 33.8994 65.6829 33.8994ZM66.1149 32.1074C66.5735 32.1074 66.9682 32.0114 67.2989 31.8194C67.6295 31.6167 67.8855 31.3341 68.0669 30.9714C68.2589 30.5981 68.3549 30.1767 68.3549 29.7074C68.3549 29.2274 68.2589 28.8114 68.0669 28.4594C67.8855 28.0967 67.6295 27.8141 67.2989 27.6114C66.9682 27.3981 66.5735 27.2914 66.1149 27.2914C65.6669 27.2914 65.2775 27.3981 64.9469 27.6114C64.6162 27.8141 64.3602 28.0967 64.1789 28.4594C64.0082 28.8221 63.9229 29.2381 63.9229 29.7074C63.9229 30.1767 64.0082 30.5927 64.1789 30.9554C64.3602 31.3181 64.6162 31.6007 64.9469 31.8034C65.2775 32.0061 65.6669 32.1074 66.1149 32.1074ZM79.5816 33.6914H77.6456V21.7874H79.5816V33.6914ZM85.6452 33.8994C84.8666 33.8994 84.1732 33.7234 83.5652 33.3714C82.9679 33.0087 82.4986 32.5181 82.1572 31.8994C81.8159 31.2701 81.6452 30.5501 81.6452 29.7394C81.6452 28.9181 81.8106 28.1927 82.1412 27.5634C82.4719 26.9341 82.9359 26.4434 83.5332 26.0914C84.1306 25.7287 84.8132 25.5474 85.5812 25.5474C86.3812 25.5474 87.0692 25.7181 87.6452 26.0594C88.2213 26.3901 88.6639 26.8541 88.9732 27.4514C89.2932 28.0487 89.4532 28.7634 89.4532 29.5954V30.1874L82.6692 30.2034L82.7012 28.9554H87.5173C87.5173 28.4114 87.3413 27.9741 86.9893 27.6434C86.6479 27.3127 86.1839 27.1474 85.5972 27.1474C85.1386 27.1474 84.7492 27.2434 84.4292 27.4354C84.1199 27.6274 83.8852 27.9154 83.7252 28.2994C83.5652 28.6834 83.4852 29.1527 83.4852 29.7074C83.4852 30.5607 83.6666 31.2061 84.0292 31.6434C84.4026 32.0807 84.9519 32.2994 85.6772 32.2994C86.2106 32.2994 86.6479 32.1981 86.9893 31.9954C87.3413 31.7927 87.5706 31.5047 87.6772 31.1314H89.4853C89.3146 31.9954 88.8879 32.6727 88.2053 33.1634C87.5333 33.6541 86.6799 33.8994 85.6452 33.8994ZM93.7694 33.8994C92.9374 33.8994 92.276 33.6754 91.7854 33.2274C91.3054 32.7687 91.0654 32.1714 91.0654 31.4354C91.0654 30.7101 91.316 30.1341 91.8174 29.7074C92.3294 29.2701 93.0547 29.0141 93.9934 28.9394L96.3614 28.7474V28.5714C96.3614 28.2087 96.292 27.9207 96.1534 27.7074C96.0254 27.4834 95.8387 27.3234 95.5934 27.2274C95.348 27.1207 95.06 27.0674 94.7294 27.0674C94.1534 27.0674 93.7107 27.1847 93.4014 27.4194C93.092 27.6434 92.9374 27.9634 92.9374 28.3794H91.2734C91.2734 27.8034 91.4174 27.3074 91.7054 26.8914C92.004 26.4647 92.42 26.1341 92.9534 25.8994C93.4974 25.6647 94.1214 25.5474 94.8254 25.5474C95.54 25.5474 96.1534 25.6754 96.6654 25.9314C97.1774 26.1767 97.572 26.5501 97.8494 27.0514C98.1267 27.5421 98.2654 28.1554 98.2654 28.8914V33.6914H96.5534L96.4094 32.5234C96.2387 32.9287 95.908 33.2594 95.4174 33.5154C94.9374 33.7714 94.388 33.8994 93.7694 33.8994ZM94.3934 32.4274C95.0014 32.4274 95.4814 32.2567 95.8334 31.9154C96.196 31.5741 96.3774 31.0994 96.3774 30.4914V30.0754L94.7294 30.2034C94.1214 30.2567 93.6894 30.3847 93.4334 30.5874C93.1774 30.7794 93.0494 31.0354 93.0494 31.3554C93.0494 31.7074 93.1667 31.9741 93.4014 32.1554C93.636 32.3367 93.9667 32.4274 94.3934 32.4274ZM105.623 25.7554V27.5634H104.903C104.188 27.5634 103.628 27.7554 103.223 28.1394C102.818 28.5127 102.615 29.0834 102.615 29.8514V33.6914H100.663V25.8034H102.503L102.663 27.4354H102.471C102.578 26.9127 102.828 26.4861 103.223 26.1554C103.618 25.8247 104.13 25.6594 104.759 25.6594C104.898 25.6594 105.036 25.6647 105.175 25.6754C105.314 25.6861 105.463 25.7127 105.623 25.7554ZM109.376 33.6914H107.424V25.7874H109.232L109.392 26.8114C109.638 26.4167 109.984 26.1074 110.432 25.8834C110.891 25.6594 111.387 25.5474 111.92 25.5474C112.912 25.5474 113.659 25.8407 114.16 26.4274C114.672 27.0141 114.928 27.8141 114.928 28.8274V33.6914H112.976V29.2914C112.976 28.6301 112.827 28.1394 112.528 27.8194C112.23 27.4887 111.824 27.3234 111.312 27.3234C110.704 27.3234 110.23 27.5154 109.888 27.8994C109.547 28.2834 109.376 28.7954 109.376 29.4354V33.6914ZM117.326 33.6914V25.7874H119.278V33.6914H117.326ZM118.286 24.2034C117.955 24.2034 117.673 24.0914 117.438 23.8674C117.214 23.6327 117.102 23.3501 117.102 23.0194C117.102 22.6887 117.214 22.4114 117.438 22.1874C117.673 21.9634 117.955 21.8514 118.286 21.8514C118.617 21.8514 118.894 21.9634 119.118 22.1874C119.353 22.4114 119.47 22.6887 119.47 23.0194C119.47 23.3501 119.353 23.6327 119.118 23.8674C118.894 24.0914 118.617 24.2034 118.286 24.2034ZM123.727 33.6914H121.775V25.7874H123.583L123.743 26.8114C123.988 26.4167 124.335 26.1074 124.783 25.8834C125.242 25.6594 125.738 25.5474 126.271 25.5474C127.263 25.5474 128.01 25.8407 128.511 26.4274C129.023 27.0141 129.279 27.8141 129.279 28.8274V33.6914H127.327V29.2914C127.327 28.6301 127.178 28.1394 126.879 27.8194C126.58 27.4887 126.175 27.3234 125.663 27.3234C125.055 27.3234 124.58 27.5154 124.239 27.8994C123.898 28.2834 123.727 28.7954 123.727 29.4354V33.6914ZM131.229 29.5634C131.229 28.7954 131.383 28.1127 131.693 27.5154C132.013 26.9074 132.455 26.4274 133.021 26.0754C133.586 25.7234 134.242 25.5474 134.989 25.5474C135.661 25.5474 136.237 25.6967 136.717 25.9954C137.197 26.2834 137.533 26.6887 137.725 27.2114L137.517 27.3874L137.677 25.7874H139.485V33.2914C139.485 34.1661 139.314 34.9234 138.973 35.5634C138.642 36.2141 138.167 36.7101 137.549 37.0514C136.941 37.4034 136.205 37.5794 135.341 37.5794C134.21 37.5794 133.282 37.2754 132.557 36.6674C131.831 36.0594 131.405 35.2274 131.277 34.1714H133.229C133.293 34.6834 133.506 35.0834 133.869 35.3714C134.242 35.6594 134.733 35.8034 135.341 35.8034C136.013 35.8034 136.546 35.6061 136.941 35.2114C137.346 34.8274 137.549 34.3047 137.549 33.6434V31.6754L137.773 31.8834C137.581 32.3847 137.229 32.7847 136.717 33.0834C136.205 33.3821 135.613 33.5314 134.941 33.5314C134.194 33.5314 133.543 33.3607 132.989 33.0194C132.434 32.6781 132.002 32.2087 131.693 31.6114C131.383 31.0141 131.229 30.3314 131.229 29.5634ZM133.197 29.5154C133.197 29.9634 133.282 30.3634 133.453 30.7154C133.634 31.0567 133.885 31.3287 134.205 31.5314C134.525 31.7341 134.898 31.8354 135.325 31.8354C135.773 31.8354 136.157 31.7394 136.477 31.5474C136.807 31.3447 137.058 31.0727 137.229 30.7314C137.41 30.3794 137.501 29.9741 137.501 29.5154C137.501 29.0567 137.415 28.6621 137.245 28.3314C137.074 27.9901 136.823 27.7234 136.493 27.5314C136.173 27.3394 135.783 27.2434 135.325 27.2434C134.887 27.2434 134.509 27.3447 134.189 27.5474C133.869 27.7394 133.623 28.0061 133.453 28.3474C133.282 28.6887 133.197 29.0781 133.197 29.5154ZM143.585 33.5474L143.777 33.4994C143.692 33.5741 143.596 33.6327 143.489 33.6754C143.393 33.7074 143.276 33.7234 143.137 33.7234C142.828 33.7234 142.561 33.6221 142.337 33.4194C142.113 33.2061 142.001 32.9394 142.001 32.6194C142.001 32.2354 142.113 31.9261 142.337 31.6914C142.561 31.4567 142.854 31.3394 143.217 31.3394C143.622 31.3394 143.953 31.4887 144.209 31.7874C144.465 32.0861 144.593 32.4861 144.593 32.9874C144.593 33.4247 144.497 33.8247 144.305 34.1874C144.113 34.5607 143.846 34.8647 143.505 35.0994C143.164 35.3341 142.774 35.4781 142.337 35.5314V34.7474C142.7 34.6834 142.998 34.5447 143.233 34.3314C143.468 34.1287 143.585 33.8674 143.585 33.5474ZM153.722 33.6914H151.914V21.7874H153.866V26.9394C154.122 26.4914 154.495 26.1501 154.986 25.9154C155.476 25.6701 156.026 25.5474 156.634 25.5474C157.391 25.5474 158.036 25.7287 158.57 26.0914C159.114 26.4434 159.53 26.9394 159.818 27.5794C160.116 28.2194 160.266 28.9607 160.266 29.8034C160.266 30.6034 160.111 31.3127 159.802 31.9314C159.492 32.5501 159.055 33.0354 158.49 33.3874C157.924 33.7287 157.263 33.8994 156.506 33.8994C155.919 33.8994 155.386 33.7714 154.906 33.5154C154.436 33.2594 154.084 32.9074 153.85 32.4594L153.722 33.6914ZM153.882 29.7074C153.882 30.1767 153.972 30.5981 154.154 30.9714C154.335 31.3341 154.591 31.6167 154.922 31.8194C155.263 32.0114 155.658 32.1074 156.106 32.1074C156.564 32.1074 156.959 32.0061 157.29 31.8034C157.62 31.6007 157.871 31.3181 158.042 30.9554C158.212 30.5927 158.298 30.1767 158.298 29.7074C158.298 29.2381 158.212 28.8221 158.042 28.4594C157.871 28.0967 157.62 27.8141 157.29 27.6114C156.959 27.3981 156.564 27.2914 156.106 27.2914C155.658 27.2914 155.263 27.3981 154.922 27.6114C154.591 27.8141 154.335 28.0967 154.154 28.4594C153.972 28.8114 153.882 29.2274 153.882 29.7074ZM167.472 25.7874H169.424V33.6914H167.616L167.472 32.6354C167.238 33.0087 166.886 33.3127 166.416 33.5474C165.947 33.7821 165.446 33.8994 164.912 33.8994C164.006 33.8994 163.296 33.6114 162.784 33.0354C162.272 32.4594 162.016 31.6914 162.016 30.7314V25.7874H163.968V30.0434C163.968 30.7901 164.112 31.3287 164.4 31.6594C164.688 31.9901 165.104 32.1554 165.648 32.1554C166.267 32.1554 166.726 31.9741 167.024 31.6114C167.323 31.2381 167.472 30.6781 167.472 29.9314V25.7874ZM171.137 25.7874H176.129V27.4194H171.137V25.7874ZM174.609 33.6914H172.657V23.3234H174.609V33.6914ZM184.982 33.8994C184.15 33.8994 183.489 33.6754 182.998 33.2274C182.518 32.7687 182.278 32.1714 182.278 31.4354C182.278 30.7101 182.529 30.1341 183.03 29.7074C183.542 29.2701 184.268 29.0141 185.206 28.9394L187.574 28.7474V28.5714C187.574 28.2087 187.505 27.9207 187.366 27.7074C187.238 27.4834 187.052 27.3234 186.806 27.2274C186.561 27.1207 186.273 27.0674 185.942 27.0674C185.366 27.0674 184.924 27.1847 184.614 27.4194C184.305 27.6434 184.15 27.9634 184.15 28.3794H182.486C182.486 27.8034 182.63 27.3074 182.918 26.8914C183.217 26.4647 183.633 26.1341 184.166 25.8994C184.71 25.6647 185.334 25.5474 186.038 25.5474C186.753 25.5474 187.366 25.6754 187.878 25.9314C188.39 26.1767 188.785 26.5501 189.062 27.0514C189.34 27.5421 189.478 28.1554 189.478 28.8914V33.6914H187.766L187.622 32.5234C187.452 32.9287 187.121 33.2594 186.63 33.5154C186.15 33.7714 185.601 33.8994 184.982 33.8994ZM185.606 32.4274C186.214 32.4274 186.694 32.2567 187.046 31.9154C187.409 31.5741 187.59 31.0994 187.59 30.4914V30.0754L185.942 30.2034C185.334 30.2567 184.902 30.3847 184.646 30.5874C184.39 30.7794 184.262 31.0354 184.262 31.3554C184.262 31.7074 184.38 31.9741 184.614 32.1554C184.849 32.3367 185.18 32.4274 185.606 32.4274ZM193.844 33.6914H191.908V21.7874H193.844V33.6914ZM198.34 33.6914H196.404V21.7874H198.34V33.6914ZM25.224 47.7874H30.216V49.4194H25.224V47.7874ZM28.696 55.6914H26.744V45.3234H28.696V55.6914ZM33.8775 55.6914H31.9255V43.7874H33.8935V48.8114C34.1388 48.4274 34.4802 48.1234 34.9175 47.8994C35.3655 47.6647 35.8775 47.5474 36.4535 47.5474C37.4242 47.5474 38.1602 47.8407 38.6615 48.4274C39.1735 49.0141 39.4295 49.8141 39.4295 50.8274V55.6914H37.4775V51.2914C37.4775 50.8434 37.4082 50.4754 37.2695 50.1874C37.1308 49.8994 36.9388 49.6861 36.6935 49.5474C36.4482 49.3981 36.1602 49.3234 35.8295 49.3234C35.4242 49.3234 35.0722 49.4141 34.7735 49.5954C34.4855 49.7661 34.2615 50.0061 34.1015 50.3154C33.9522 50.6247 33.8775 50.9767 33.8775 51.3714V55.6914ZM45.3634 55.8994C44.5847 55.8994 43.8914 55.7234 43.2834 55.3714C42.686 55.0087 42.2167 54.5181 41.8754 53.8994C41.534 53.2701 41.3634 52.5501 41.3634 51.7394C41.3634 50.9181 41.5287 50.1927 41.8594 49.5634C42.19 48.9341 42.654 48.4434 43.2514 48.0914C43.8487 47.7287 44.5314 47.5474 45.2994 47.5474C46.0994 47.5474 46.7874 47.7181 47.3634 48.0594C47.9394 48.3901 48.382 48.8541 48.6914 49.4514C49.0114 50.0487 49.1714 50.7634 49.1714 51.5954V52.1874L42.3874 52.2034L42.4194 50.9554H47.2354C47.2354 50.4114 47.0594 49.9741 46.7074 49.6434C46.366 49.3127 45.902 49.1474 45.3154 49.1474C44.8567 49.1474 44.4674 49.2434 44.1474 49.4354C43.838 49.6274 43.6034 49.9154 43.4434 50.2994C43.2834 50.6834 43.2034 51.1527 43.2034 51.7074C43.2034 52.5607 43.3847 53.2061 43.7474 53.6434C44.1207 54.0807 44.67 54.2994 45.3954 54.2994C45.9287 54.2994 46.366 54.1981 46.7074 53.9954C47.0594 53.7927 47.2887 53.5047 47.3954 53.1314H49.2034C49.0327 53.9954 48.606 54.6727 47.9234 55.1634C47.2514 55.6541 46.398 55.8994 45.3634 55.8994ZM54.1181 59.4034L54.4381 57.6754C54.5768 57.7181 54.6941 57.7447 54.7901 57.7554C54.8861 57.7661 54.9928 57.7714 55.1101 57.7714C55.4515 57.7714 55.6861 57.6754 55.8141 57.4834C55.9421 57.2914 56.0061 56.9981 56.0061 56.6034V47.7874H57.9581V56.8274C57.9581 57.6594 57.7235 58.3261 57.2541 58.8274C56.7955 59.3287 56.1395 59.5794 55.2861 59.5794C55.1048 59.5794 54.9288 59.5687 54.7581 59.5474C54.5875 59.5261 54.3741 59.4781 54.1181 59.4034ZM56.9821 46.2034C56.6515 46.2034 56.3688 46.0914 56.1341 45.8674C55.9101 45.6327 55.7981 45.3501 55.7981 45.0194C55.7981 44.6887 55.9101 44.4114 56.1341 44.1874C56.3688 43.9634 56.6515 43.8514 56.9821 43.8514C57.3021 43.8514 57.5795 43.9634 57.8141 44.1874C58.0488 44.4114 58.1661 44.6887 58.1661 45.0194C58.1661 45.3501 58.0488 45.6327 57.8141 45.8674C57.5795 46.0914 57.3021 46.2034 56.9821 46.2034ZM62.8069 55.8994C61.9749 55.8994 61.3135 55.6754 60.8229 55.2274C60.3429 54.7687 60.1029 54.1714 60.1029 53.4354C60.1029 52.7101 60.3535 52.1341 60.8549 51.7074C61.3669 51.2701 62.0922 51.0141 63.0309 50.9394L65.3989 50.7474V50.5714C65.3989 50.2087 65.3295 49.9207 65.1909 49.7074C65.0629 49.4834 64.8762 49.3234 64.6309 49.2274C64.3855 49.1207 64.0975 49.0674 63.7669 49.0674C63.1909 49.0674 62.7482 49.1847 62.4389 49.4194C62.1295 49.6434 61.9749 49.9634 61.9749 50.3794H60.3109C60.3109 49.8034 60.4549 49.3074 60.7429 48.8914C61.0415 48.4647 61.4575 48.1341 61.9909 47.8994C62.5349 47.6647 63.1589 47.5474 63.8629 47.5474C64.5775 47.5474 65.1909 47.6754 65.7029 47.9314C66.2149 48.1767 66.6095 48.5501 66.8869 49.0514C67.1642 49.5421 67.3029 50.1554 67.3029 50.8914V55.6914H65.5909L65.4469 54.5234C65.2762 54.9287 64.9455 55.2594 64.4549 55.5154C63.9749 55.7714 63.4255 55.8994 62.8069 55.8994ZM63.4309 54.4274C64.0389 54.4274 64.5189 54.2567 64.8709 53.9154C65.2335 53.5741 65.4149 53.0994 65.4149 52.4914V52.0754L63.7669 52.2034C63.1589 52.2567 62.7269 52.3847 62.4709 52.5874C62.2149 52.7794 62.0869 53.0354 62.0869 53.3554C62.0869 53.7074 62.2042 53.9741 62.4389 54.1554C62.6735 54.3367 63.0042 54.4274 63.4309 54.4274ZM74.6605 47.7554V49.5634H73.9405C73.2258 49.5634 72.6658 49.7554 72.2605 50.1394C71.8552 50.5127 71.6525 51.0834 71.6525 51.8514V55.6914H69.7005V47.8034H71.5405L71.7005 49.4354H71.5085C71.6152 48.9127 71.8658 48.4861 72.2605 48.1554C72.6552 47.8247 73.1672 47.6594 73.7965 47.6594C73.9352 47.6594 74.0738 47.6647 74.2125 47.6754C74.3512 47.6861 74.5005 47.7127 74.6605 47.7554ZM75.8106 51.5634C75.8106 50.7954 75.9653 50.1127 76.2746 49.5154C76.5946 48.9074 77.0373 48.4274 77.6026 48.0754C78.168 47.7234 78.824 47.5474 79.5706 47.5474C80.2426 47.5474 80.8186 47.6967 81.2986 47.9954C81.7786 48.2834 82.1146 48.6887 82.3066 49.2114L82.0986 49.3874L82.2586 47.7874H84.0666V55.2914C84.0666 56.1661 83.896 56.9234 83.5546 57.5634C83.224 58.2141 82.7493 58.7101 82.1306 59.0514C81.5226 59.4034 80.7866 59.5794 79.9226 59.5794C78.792 59.5794 77.864 59.2754 77.1386 58.6674C76.4133 58.0594 75.9866 57.2274 75.8586 56.1714H77.8106C77.8746 56.6834 78.088 57.0834 78.4506 57.3714C78.824 57.6594 79.3146 57.8034 79.9226 57.8034C80.5946 57.8034 81.128 57.6061 81.5226 57.2114C81.928 56.8274 82.1306 56.3047 82.1306 55.6434V53.6754L82.3546 53.8834C82.1626 54.3847 81.8106 54.7847 81.2986 55.0834C80.7866 55.3821 80.1946 55.5314 79.5226 55.5314C78.776 55.5314 78.1253 55.3607 77.5706 55.0194C77.016 54.6781 76.584 54.2087 76.2746 53.6114C75.9653 53.0141 75.8106 52.3314 75.8106 51.5634ZM77.7786 51.5154C77.7786 51.9634 77.864 52.3634 78.0346 52.7154C78.216 53.0567 78.4666 53.3287 78.7866 53.5314C79.1066 53.7341 79.48 53.8354 79.9066 53.8354C80.3546 53.8354 80.7386 53.7394 81.0586 53.5474C81.3893 53.3447 81.64 53.0727 81.8106 52.7314C81.992 52.3794 82.0826 51.9741 82.0826 51.5154C82.0826 51.0567 81.9973 50.6621 81.8266 50.3314C81.656 49.9901 81.4053 49.7234 81.0746 49.5314C80.7546 49.3394 80.3653 49.2434 79.9066 49.2434C79.4693 49.2434 79.0906 49.3447 78.7706 49.5474C78.4506 49.7394 78.2053 50.0061 78.0346 50.3474C77.864 50.6887 77.7786 51.0781 77.7786 51.5154ZM86.1028 51.7234C86.1028 50.9021 86.2841 50.1821 86.6468 49.5634C87.0094 48.9341 87.5108 48.4434 88.1508 48.0914C88.7908 47.7394 89.5161 47.5634 90.3268 47.5634C91.1481 47.5634 91.8734 47.7394 92.5028 48.0914C93.1428 48.4434 93.6441 48.9341 94.0068 49.5634C94.3694 50.1821 94.5508 50.9021 94.5508 51.7234C94.5508 52.5447 94.3694 53.2701 94.0068 53.8994C93.6441 54.5181 93.1428 55.0034 92.5028 55.3554C91.8734 55.7074 91.1481 55.8834 90.3268 55.8834C89.5161 55.8834 88.7908 55.7074 88.1508 55.3554C87.5108 55.0034 87.0094 54.5181 86.6468 53.8994C86.2841 53.2701 86.1028 52.5447 86.1028 51.7234ZM88.0548 51.7234C88.0548 52.2034 88.1508 52.6247 88.3428 52.9874C88.5454 53.3501 88.8121 53.6327 89.1428 53.8354C89.4841 54.0381 89.8788 54.1394 90.3268 54.1394C90.7748 54.1394 91.1694 54.0381 91.5108 53.8354C91.8521 53.6327 92.1188 53.3501 92.3108 52.9874C92.5028 52.6247 92.5988 52.2034 92.5988 51.7234C92.5988 51.2327 92.5028 50.8114 92.3108 50.4594C92.1188 50.0967 91.8521 49.8141 91.5108 49.6114C91.1694 49.4087 90.7748 49.3074 90.3268 49.3074C89.8788 49.3074 89.4841 49.4087 89.1428 49.6114C88.8121 49.8141 88.5454 50.0967 88.3428 50.4594C88.1508 50.8114 88.0548 51.2327 88.0548 51.7234ZM98.53 55.6914H96.578V47.7874H98.386L98.546 48.8114C98.7913 48.4167 99.138 48.1074 99.586 47.8834C100.045 47.6594 100.541 47.5474 101.074 47.5474C102.066 47.5474 102.813 47.8407 103.314 48.4274C103.826 49.0141 104.082 49.8141 104.082 50.8274V55.6914H102.13V51.2914C102.13 50.6301 101.981 50.1394 101.682 49.8194C101.383 49.4887 100.978 49.3234 100.466 49.3234C99.858 49.3234 99.3833 49.5154 99.042 49.8994C98.7007 50.2834 98.53 50.7954 98.53 51.4354V55.6914ZM113.224 55.6914H111.272V47.7874H113.064L113.304 49.1954L113.08 49.0034C113.24 48.6194 113.534 48.2834 113.96 47.9954C114.387 47.6967 114.92 47.5474 115.56 47.5474C116.254 47.5474 116.819 47.7287 117.256 48.0914C117.704 48.4541 118.014 48.9341 118.184 49.5314H117.864C117.982 48.9341 118.28 48.4541 118.76 48.0914C119.251 47.7287 119.843 47.5474 120.536 47.5474C121.496 47.5474 122.232 47.8194 122.744 48.3634C123.256 48.8967 123.512 49.6167 123.512 50.5234V55.6914H121.576V51.0354C121.576 50.4701 121.432 50.0434 121.144 49.7554C120.867 49.4567 120.494 49.3074 120.024 49.3074C119.726 49.3074 119.448 49.3767 119.192 49.5154C118.947 49.6541 118.75 49.8621 118.6 50.1394C118.451 50.4167 118.376 50.7741 118.376 51.2114V55.6914H116.424V51.0194C116.424 50.4647 116.286 50.0434 116.008 49.7554C115.731 49.4674 115.363 49.3234 114.904 49.3234C114.595 49.3234 114.312 49.3927 114.056 49.5314C113.8 49.6594 113.598 49.8674 113.448 50.1554C113.299 50.4327 113.224 50.7847 113.224 51.2114V55.6914ZM128.261 55.8994C127.429 55.8994 126.767 55.6754 126.277 55.2274C125.797 54.7687 125.557 54.1714 125.557 53.4354C125.557 52.7101 125.807 52.1341 126.309 51.7074C126.821 51.2701 127.546 51.0141 128.485 50.9394L130.853 50.7474V50.5714C130.853 50.2087 130.783 49.9207 130.645 49.7074C130.517 49.4834 130.33 49.3234 130.085 49.2274C129.839 49.1207 129.551 49.0674 129.221 49.0674C128.645 49.0674 128.202 49.1847 127.893 49.4194C127.583 49.6434 127.429 49.9634 127.429 50.3794H125.765C125.765 49.8034 125.909 49.3074 126.197 48.8914C126.495 48.4647 126.911 48.1341 127.445 47.8994C127.989 47.6647 128.613 47.5474 129.317 47.5474C130.031 47.5474 130.645 47.6754 131.157 47.9314C131.669 48.1767 132.063 48.5501 132.341 49.0514C132.618 49.5421 132.757 50.1554 132.757 50.8914V55.6914H131.045L130.901 54.5234C130.73 54.9287 130.399 55.2594 129.909 55.5154C129.429 55.7714 128.879 55.8994 128.261 55.8994ZM128.885 54.4274C129.493 54.4274 129.973 54.2567 130.325 53.9154C130.687 53.5741 130.869 53.0994 130.869 52.4914V52.0754L129.221 52.2034C128.613 52.2567 128.181 52.3847 127.925 52.5874C127.669 52.7794 127.541 53.0354 127.541 53.3554C127.541 53.7074 127.658 53.9741 127.893 54.1554C128.127 54.3367 128.458 54.4274 128.885 54.4274ZM138.402 55.8994C137.634 55.8994 136.973 55.7287 136.418 55.3874C135.874 55.0354 135.448 54.5501 135.138 53.9314C134.84 53.3127 134.69 52.5927 134.69 51.7714C134.69 50.9501 134.84 50.2247 135.138 49.5954C135.448 48.9554 135.89 48.4541 136.466 48.0914C137.042 47.7287 137.725 47.5474 138.514 47.5474C139.069 47.5474 139.576 47.6594 140.034 47.8834C140.493 48.0967 140.845 48.4007 141.09 48.7954V43.7874H143.026V55.6914H141.234L141.106 54.4594C140.872 54.9074 140.509 55.2594 140.018 55.5154C139.538 55.7714 139 55.8994 138.402 55.8994ZM138.834 54.1074C139.293 54.1074 139.688 54.0114 140.018 53.8194C140.349 53.6167 140.605 53.3341 140.786 52.9714C140.978 52.5981 141.074 52.1767 141.074 51.7074C141.074 51.2274 140.978 50.8114 140.786 50.4594C140.605 50.0967 140.349 49.8141 140.018 49.6114C139.688 49.3981 139.293 49.2914 138.834 49.2914C138.386 49.2914 137.997 49.3981 137.666 49.6114C137.336 49.8141 137.08 50.0967 136.898 50.4594C136.728 50.8221 136.642 51.2381 136.642 51.7074C136.642 52.1767 136.728 52.5927 136.898 52.9554C137.08 53.3181 137.336 53.6007 137.666 53.8034C137.997 54.0061 138.386 54.1074 138.834 54.1074ZM149.077 55.8994C148.298 55.8994 147.605 55.7234 146.997 55.3714C146.399 55.0087 145.93 54.5181 145.589 53.8994C145.247 53.2701 145.077 52.5501 145.077 51.7394C145.077 50.9181 145.242 50.1927 145.573 49.5634C145.903 48.9341 146.367 48.4434 146.965 48.0914C147.562 47.7287 148.245 47.5474 149.013 47.5474C149.813 47.5474 150.501 47.7181 151.077 48.0594C151.653 48.3901 152.095 48.8541 152.405 49.4514C152.725 50.0487 152.885 50.7634 152.885 51.5954V52.1874L146.101 52.2034L146.133 50.9554H150.949C150.949 50.4114 150.773 49.9741 150.421 49.6434C150.079 49.3127 149.615 49.1474 149.029 49.1474C148.57 49.1474 148.181 49.2434 147.861 49.4354C147.551 49.6274 147.317 49.9154 147.157 50.2994C146.997 50.6834 146.917 51.1527 146.917 51.7074C146.917 52.5607 147.098 53.2061 147.461 53.6434C147.834 54.0807 148.383 54.2994 149.109 54.2994C149.642 54.2994 150.079 54.1981 150.421 53.9954C150.773 53.7927 151.002 53.5047 151.109 53.1314H152.917C152.746 53.9954 152.319 54.6727 151.637 55.1634C150.965 55.6541 150.111 55.8994 149.077 55.8994ZM159.719 55.6914V47.7874H161.671V55.6914H159.719ZM160.679 46.2034C160.349 46.2034 160.066 46.0914 159.831 45.8674C159.607 45.6327 159.495 45.3501 159.495 45.0194C159.495 44.6887 159.607 44.4114 159.831 44.1874C160.066 43.9634 160.349 43.8514 160.679 43.8514C161.01 43.8514 161.287 43.9634 161.511 44.1874C161.746 44.4114 161.863 44.6887 161.863 45.0194C161.863 45.3501 161.746 45.6327 161.511 45.8674C161.287 46.0914 161.01 46.2034 160.679 46.2034ZM163.384 47.7874H168.376V49.4194H163.384V47.7874ZM166.856 55.6914H164.904V45.3234H166.856V55.6914ZM174.27 53.2914H176.126C176.137 53.6327 176.265 53.9047 176.51 54.1074C176.755 54.3101 177.097 54.4114 177.534 54.4114C178.003 54.4114 178.355 54.3261 178.59 54.1554C178.835 53.9847 178.958 53.7554 178.958 53.4674C178.958 53.2754 178.894 53.1047 178.766 52.9554C178.638 52.8061 178.398 52.6941 178.046 52.6194L176.622 52.2834C175.907 52.1234 175.374 51.8674 175.022 51.5154C174.681 51.1527 174.51 50.6567 174.51 50.0274C174.51 49.5154 174.643 49.0727 174.91 48.6994C175.187 48.3261 175.561 48.0434 176.03 47.8514C176.499 47.6487 177.038 47.5474 177.646 47.5474C178.233 47.5474 178.75 47.6541 179.198 47.8674C179.646 48.0807 179.993 48.3794 180.238 48.7634C180.494 49.1474 180.627 49.5954 180.638 50.1074H178.782C178.782 49.7661 178.675 49.4994 178.462 49.3074C178.249 49.1047 177.95 49.0034 177.566 49.0034C177.182 49.0034 176.883 49.0887 176.67 49.2594C176.457 49.4301 176.35 49.6594 176.35 49.9474C176.35 50.3847 176.691 50.6834 177.374 50.8434L178.798 51.1794C179.459 51.3287 179.955 51.5687 180.286 51.8994C180.627 52.2301 180.798 52.6994 180.798 53.3074C180.798 53.8407 180.659 54.3047 180.382 54.6994C180.105 55.0834 179.715 55.3821 179.214 55.5954C178.713 55.7981 178.137 55.8994 177.486 55.8994C176.505 55.8994 175.721 55.6594 175.134 55.1794C174.558 54.6994 174.27 54.0701 174.27 53.2914ZM182.3 51.7234C182.3 50.9021 182.482 50.1821 182.844 49.5634C183.207 48.9341 183.708 48.4434 184.348 48.0914C184.988 47.7394 185.714 47.5634 186.524 47.5634C187.346 47.5634 188.071 47.7394 188.7 48.0914C189.34 48.4434 189.842 48.9341 190.204 49.5634C190.567 50.1821 190.748 50.9021 190.748 51.7234C190.748 52.5447 190.567 53.2701 190.204 53.8994C189.842 54.5181 189.34 55.0034 188.7 55.3554C188.071 55.7074 187.346 55.8834 186.524 55.8834C185.714 55.8834 184.988 55.7074 184.348 55.3554C183.708 55.0034 183.207 54.5181 182.844 53.8994C182.482 53.2701 182.3 52.5447 182.3 51.7234ZM184.252 51.7234C184.252 52.2034 184.348 52.6247 184.54 52.9874C184.743 53.3501 185.01 53.6327 185.34 53.8354C185.682 54.0381 186.076 54.1394 186.524 54.1394C186.972 54.1394 187.367 54.0381 187.708 53.8354C188.05 53.6327 188.316 53.3501 188.508 52.9874C188.7 52.6247 188.796 52.2034 188.796 51.7234C188.796 51.2327 188.7 50.8114 188.508 50.4594C188.316 50.0967 188.05 49.8141 187.708 49.6114C187.367 49.4087 186.972 49.3074 186.524 49.3074C186.076 49.3074 185.682 49.4087 185.34 49.6114C185.01 49.8141 184.743 50.0967 184.54 50.4594C184.348 50.8114 184.252 51.2327 184.252 51.7234ZM197.948 47.7874H199.9V55.6914H198.092L197.948 54.6354C197.713 55.0087 197.361 55.3127 196.892 55.5474C196.423 55.7821 195.921 55.8994 195.388 55.8994C194.481 55.8994 193.772 55.6114 193.26 55.0354C192.748 54.4594 192.492 53.6914 192.492 52.7314V47.7874H194.444V52.0434C194.444 52.7901 194.588 53.3287 194.876 53.6594C195.164 53.9901 195.58 54.1554 196.124 54.1554C196.743 54.1554 197.201 53.9741 197.5 53.6114C197.799 53.2381 197.948 52.6781 197.948 51.9314V47.7874ZM204.348 55.6914H202.396V47.7874H204.204L204.364 48.8114C204.609 48.4167 204.956 48.1074 205.404 47.8834C205.863 47.6594 206.359 47.5474 206.892 47.5474C207.884 47.5474 208.631 47.8407 209.132 48.4274C209.644 49.0141 209.9 49.8141 209.9 50.8274V55.6914H207.948V51.2914C207.948 50.6301 207.799 50.1394 207.5 49.8194C207.201 49.4887 206.796 49.3234 206.284 49.3234C205.676 49.3234 205.201 49.5154 204.86 49.8994C204.519 50.2834 204.348 50.7954 204.348 51.4354V55.6914ZM215.546 55.8994C214.778 55.8994 214.117 55.7287 213.562 55.3874C213.018 55.0354 212.591 54.5501 212.282 53.9314C211.983 53.3127 211.834 52.5927 211.834 51.7714C211.834 50.9501 211.983 50.2247 212.282 49.5954C212.591 48.9554 213.034 48.4541 213.61 48.0914C214.186 47.7287 214.869 47.5474 215.658 47.5474C216.213 47.5474 216.719 47.6594 217.178 47.8834C217.637 48.0967 217.989 48.4007 218.234 48.7954V43.7874H220.17V55.6914H218.378L218.25 54.4594C218.015 54.9074 217.653 55.2594 217.162 55.5154C216.682 55.7714 216.143 55.8994 215.546 55.8994ZM215.978 54.1074C216.437 54.1074 216.831 54.0114 217.162 53.8194C217.493 53.6167 217.749 53.3341 217.93 52.9714C218.122 52.5981 218.218 52.1767 218.218 51.7074C218.218 51.2274 218.122 50.8114 217.93 50.4594C217.749 50.0967 217.493 49.8141 217.162 49.6114C216.831 49.3981 216.437 49.2914 215.978 49.2914C215.53 49.2914 215.141 49.3981 214.81 49.6114C214.479 49.8141 214.223 50.0967 214.042 50.4594C213.871 50.8221 213.786 51.2381 213.786 51.7074C213.786 52.1767 213.871 52.5927 214.042 52.9554C214.223 53.3181 214.479 53.6007 214.81 53.8034C215.141 54.0061 215.53 54.1074 215.978 54.1074ZM27.752 77.6914L25.192 69.7874H27.224L28.264 73.1794C28.3493 73.4887 28.4347 73.8141 28.52 74.1554C28.6053 74.4967 28.68 74.8541 28.744 75.2274C28.7973 74.9714 28.8453 74.7367 28.888 74.5234C28.9413 74.3101 29 74.1021 29.064 73.8994C29.128 73.6861 29.2027 73.4461 29.288 73.1794L30.376 69.7874H32.36L33.416 73.1794C33.4373 73.2541 33.4693 73.3821 33.512 73.5634C33.5653 73.7341 33.6187 73.9207 33.672 74.1234C33.7253 74.3261 33.7733 74.5287 33.816 74.7314C33.8693 74.9234 33.9067 75.0887 33.928 75.2274C33.9707 75.0247 34.024 74.7954 34.088 74.5394C34.152 74.2834 34.216 74.0381 34.28 73.8034C34.3547 73.5581 34.4133 73.3501 34.456 73.1794L35.512 69.7874H37.576L34.84 77.6914H33.016L31.928 74.2674C31.768 73.7447 31.64 73.3021 31.544 72.9394C31.448 72.5661 31.384 72.2781 31.352 72.0754C31.32 72.2674 31.2613 72.5234 31.176 72.8434C31.0907 73.1634 30.9467 73.6487 30.744 74.2994L29.656 77.6914H27.752ZM41.215 77.8994C40.383 77.8994 39.7217 77.6754 39.231 77.2274C38.751 76.7687 38.511 76.1714 38.511 75.4354C38.511 74.7101 38.7617 74.1341 39.263 73.7074C39.775 73.2701 40.5003 73.0141 41.439 72.9394L43.807 72.7474V72.5714C43.807 72.2087 43.7377 71.9207 43.599 71.7074C43.471 71.4834 43.2843 71.3234 43.039 71.2274C42.7937 71.1207 42.5057 71.0674 42.175 71.0674C41.599 71.0674 41.1563 71.1847 40.847 71.4194C40.5377 71.6434 40.383 71.9634 40.383 72.3794H38.719C38.719 71.8034 38.863 71.3074 39.151 70.8914C39.4497 70.4647 39.8657 70.1341 40.399 69.8994C40.943 69.6647 41.567 69.5474 42.271 69.5474C42.9857 69.5474 43.599 69.6754 44.111 69.9314C44.623 70.1767 45.0177 70.5501 45.295 71.0514C45.5723 71.5421 45.711 72.1554 45.711 72.8914V77.6914H43.999L43.855 76.5234C43.6843 76.9287 43.3537 77.2594 42.863 77.5154C42.383 77.7714 41.8337 77.8994 41.215 77.8994ZM41.839 76.4274C42.447 76.4274 42.927 76.2567 43.279 75.9154C43.6417 75.5741 43.823 75.0994 43.823 74.4914V74.0754L42.175 74.2034C41.567 74.2567 41.135 74.3847 40.879 74.5874C40.623 74.7794 40.495 75.0354 40.495 75.3554C40.495 75.7074 40.6123 75.9741 40.847 76.1554C41.0817 76.3367 41.4123 76.4274 41.839 76.4274ZM49.0735 69.7874L51.6495 77.0834L50.5935 79.0834L47.0095 69.7874H49.0735ZM47.2175 81.3554V79.7394H48.3855C48.6415 79.7394 48.8655 79.7074 49.0575 79.6434C49.2495 79.5901 49.4202 79.4834 49.5695 79.3234C49.7295 79.1634 49.8628 78.9287 49.9695 78.6194L53.2495 69.7874H55.2655L51.3935 79.4514C51.1055 80.1767 50.7428 80.7047 50.3055 81.0354C49.8682 81.3661 49.3242 81.5314 48.6735 81.5314C48.3962 81.5314 48.1348 81.5154 47.8895 81.4834C47.6548 81.4621 47.4308 81.4194 47.2175 81.3554ZM60.8627 69.7874H65.8547V71.4194H60.8627V69.7874ZM64.3347 77.6914H62.3827V67.3234H64.3347V77.6914ZM67.0221 73.7234C67.0221 72.9021 67.2035 72.1821 67.5661 71.5634C67.9288 70.9341 68.4301 70.4434 69.0701 70.0914C69.7101 69.7394 70.4355 69.5634 71.2461 69.5634C72.0675 69.5634 72.7928 69.7394 73.4221 70.0914C74.0621 70.4434 74.5635 70.9341 74.9261 71.5634C75.2888 72.1821 75.4701 72.9021 75.4701 73.7234C75.4701 74.5447 75.2888 75.2701 74.9261 75.8994C74.5635 76.5181 74.0621 77.0034 73.4221 77.3554C72.7928 77.7074 72.0675 77.8834 71.2461 77.8834C70.4355 77.8834 69.7101 77.7074 69.0701 77.3554C68.4301 77.0034 67.9288 76.5181 67.5661 75.8994C67.2035 75.2701 67.0221 74.5447 67.0221 73.7234ZM68.9741 73.7234C68.9741 74.2034 69.0701 74.6247 69.2621 74.9874C69.4648 75.3501 69.7315 75.6327 70.0621 75.8354C70.4035 76.0381 70.7981 76.1394 71.2461 76.1394C71.6941 76.1394 72.0888 76.0381 72.4301 75.8354C72.7715 75.6327 73.0381 75.3501 73.2301 74.9874C73.4221 74.6247 73.5181 74.2034 73.5181 73.7234C73.5181 73.2327 73.4221 72.8114 73.2301 72.4594C73.0381 72.0967 72.7715 71.8141 72.4301 71.6114C72.0888 71.4087 71.6941 71.3074 71.2461 71.3074C70.7981 71.3074 70.4035 71.4087 70.0621 71.6114C69.7315 71.8141 69.4648 72.0967 69.2621 72.4594C69.0701 72.8114 68.9741 73.2327 68.9741 73.7234ZM77.0334 73.7234C77.0334 72.9021 77.2147 72.1821 77.5774 71.5634C77.94 70.9341 78.4414 70.4434 79.0814 70.0914C79.7214 69.7394 80.4467 69.5634 81.2574 69.5634C82.0787 69.5634 82.804 69.7394 83.4334 70.0914C84.0734 70.4434 84.5747 70.9341 84.9374 71.5634C85.3 72.1821 85.4814 72.9021 85.4814 73.7234C85.4814 74.5447 85.3 75.2701 84.9374 75.8994C84.5747 76.5181 84.0734 77.0034 83.4334 77.3554C82.804 77.7074 82.0787 77.8834 81.2574 77.8834C80.4467 77.8834 79.7214 77.7074 79.0814 77.3554C78.4414 77.0034 77.94 76.5181 77.5774 75.8994C77.2147 75.2701 77.0334 74.5447 77.0334 73.7234ZM78.9854 73.7234C78.9854 74.2034 79.0814 74.6247 79.2734 74.9874C79.476 75.3501 79.7427 75.6327 80.0734 75.8354C80.4147 76.0381 80.8094 76.1394 81.2574 76.1394C81.7054 76.1394 82.1 76.0381 82.4414 75.8354C82.7827 75.6327 83.0494 75.3501 83.2414 74.9874C83.4334 74.6247 83.5294 74.2034 83.5294 73.7234C83.5294 73.2327 83.4334 72.8114 83.2414 72.4594C83.0494 72.0967 82.7827 71.8141 82.4414 71.6114C82.1 71.4087 81.7054 71.3074 81.2574 71.3074C80.8094 71.3074 80.4147 71.4087 80.0734 71.6114C79.7427 71.8141 79.476 72.0967 79.2734 72.4594C79.0814 72.8114 78.9854 73.2327 78.9854 73.7234ZM91.8371 73.7234C91.8371 72.9127 92.0025 72.1927 92.3331 71.5634C92.6745 70.9341 93.1385 70.4434 93.7251 70.0914C94.3225 69.7287 95.0105 69.5474 95.7891 69.5474C96.8665 69.5474 97.7465 69.8301 98.4291 70.3954C99.1225 70.9501 99.5225 71.7021 99.6291 72.6514H97.6771C97.5598 72.2034 97.3411 71.8674 97.0211 71.6434C96.7118 71.4087 96.3225 71.2914 95.8531 71.2914C95.4478 71.2914 95.0851 71.3927 94.7651 71.5954C94.4558 71.7874 94.2158 72.0647 94.0451 72.4274C93.8745 72.7901 93.7891 73.2221 93.7891 73.7234C93.7891 74.2247 93.8691 74.6567 94.0291 75.0194C94.1891 75.3821 94.4185 75.6647 94.7171 75.8674C95.0265 76.0594 95.3891 76.1554 95.8051 76.1554C96.2958 76.1554 96.7011 76.0381 97.0211 75.8034C97.3518 75.5687 97.5705 75.2327 97.6771 74.7954H99.6451C99.5598 75.4141 99.3411 75.9581 98.9891 76.4274C98.6478 76.8861 98.2051 77.2487 97.6611 77.5154C97.1171 77.7714 96.4985 77.8994 95.8051 77.8994C95.0051 77.8994 94.3065 77.7287 93.7091 77.3874C93.1118 77.0354 92.6478 76.5501 92.3171 75.9314C91.9971 75.3021 91.8371 74.5661 91.8371 73.7234ZM101.114 73.7234C101.114 72.9021 101.295 72.1821 101.658 71.5634C102.021 70.9341 102.522 70.4434 103.162 70.0914C103.802 69.7394 104.527 69.5634 105.338 69.5634C106.159 69.5634 106.885 69.7394 107.514 70.0914C108.154 70.4434 108.655 70.9341 109.018 71.5634C109.381 72.1821 109.562 72.9021 109.562 73.7234C109.562 74.5447 109.381 75.2701 109.018 75.8994C108.655 76.5181 108.154 77.0034 107.514 77.3554C106.885 77.7074 106.159 77.8834 105.338 77.8834C104.527 77.8834 103.802 77.7074 103.162 77.3554C102.522 77.0034 102.021 76.5181 101.658 75.8994C101.295 75.2701 101.114 74.5447 101.114 73.7234ZM103.066 73.7234C103.066 74.2034 103.162 74.6247 103.354 74.9874C103.557 75.3501 103.823 75.6327 104.154 75.8354C104.495 76.0381 104.89 76.1394 105.338 76.1394C105.786 76.1394 106.181 76.0381 106.522 75.8354C106.863 75.6327 107.13 75.3501 107.322 74.9874C107.514 74.6247 107.61 74.2034 107.61 73.7234C107.61 73.2327 107.514 72.8114 107.322 72.4594C107.13 72.0967 106.863 71.8141 106.522 71.6114C106.181 71.4087 105.786 71.3074 105.338 71.3074C104.89 71.3074 104.495 71.4087 104.154 71.6114C103.823 71.8141 103.557 72.0967 103.354 72.4594C103.162 72.8114 103.066 73.2327 103.066 73.7234ZM113.541 77.6914H111.589V69.7874H113.381L113.621 71.1954L113.397 71.0034C113.557 70.6194 113.851 70.2834 114.277 69.9954C114.704 69.6967 115.237 69.5474 115.877 69.5474C116.571 69.5474 117.136 69.7287 117.573 70.0914C118.021 70.4541 118.331 70.9341 118.501 71.5314H118.181C118.299 70.9341 118.597 70.4541 119.077 70.0914C119.568 69.7287 120.16 69.5474 120.853 69.5474C121.813 69.5474 122.549 69.8194 123.061 70.3634C123.573 70.8967 123.829 71.6167 123.829 72.5234V77.6914H121.893V73.0354C121.893 72.4701 121.749 72.0434 121.461 71.7554C121.184 71.4567 120.811 71.3074 120.341 71.3074C120.043 71.3074 119.765 71.3767 119.509 71.5154C119.264 71.6541 119.067 71.8621 118.917 72.1394C118.768 72.4167 118.693 72.7741 118.693 73.2114V77.6914H116.741V73.0194C116.741 72.4647 116.603 72.0434 116.325 71.7554C116.048 71.4674 115.68 71.3234 115.221 71.3234C114.912 71.3234 114.629 71.3927 114.373 71.5314C114.117 71.6594 113.915 71.8674 113.765 72.1554C113.616 72.4327 113.541 72.7847 113.541 73.2114V77.6914ZM126.225 81.3554V69.7874H128.033L128.161 70.9874C128.396 70.5287 128.759 70.1767 129.249 69.9314C129.74 69.6754 130.279 69.5474 130.865 69.5474C131.623 69.5474 132.273 69.7181 132.817 70.0594C133.372 70.4007 133.804 70.8754 134.113 71.4834C134.423 72.0914 134.577 72.8114 134.577 73.6434C134.577 74.4647 134.433 75.1954 134.145 75.8354C133.857 76.4754 133.436 76.9821 132.881 77.3554C132.337 77.7181 131.671 77.8994 130.881 77.8994C130.295 77.8994 129.756 77.7874 129.265 77.5634C128.785 77.3394 128.423 77.0301 128.177 76.6354V81.3554H126.225ZM128.193 73.7394C128.193 74.2087 128.284 74.6247 128.465 74.9874C128.647 75.3501 128.903 75.6381 129.233 75.8514C129.575 76.0541 129.969 76.1554 130.417 76.1554C130.876 76.1554 131.271 76.0541 131.601 75.8514C131.932 75.6381 132.183 75.3501 132.353 74.9874C132.524 74.6247 132.609 74.2087 132.609 73.7394C132.609 73.2701 132.524 72.8541 132.353 72.4914C132.183 72.1287 131.932 71.8461 131.601 71.6434C131.271 71.4301 130.876 71.3234 130.417 71.3234C129.969 71.3234 129.575 71.4247 129.233 71.6274C128.903 71.8301 128.647 72.1127 128.465 72.4754C128.284 72.8381 128.193 73.2594 128.193 73.7394ZM138.58 77.6914H136.644V65.7874H138.58V77.6914ZM141.107 77.6914V69.7874H143.059V77.6914H141.107ZM142.067 68.2034C141.737 68.2034 141.454 68.0914 141.219 67.8674C140.995 67.6327 140.883 67.3501 140.883 67.0194C140.883 66.6887 140.995 66.4114 141.219 66.1874C141.454 65.9634 141.737 65.8514 142.067 65.8514C142.398 65.8514 142.675 65.9634 142.899 66.1874C143.134 66.4114 143.251 66.6887 143.251 67.0194C143.251 67.3501 143.134 67.6327 142.899 67.8674C142.675 68.0914 142.398 68.2034 142.067 68.2034ZM145.092 73.7234C145.092 72.9127 145.257 72.1927 145.588 71.5634C145.929 70.9341 146.393 70.4434 146.98 70.0914C147.577 69.7287 148.265 69.5474 149.044 69.5474C150.121 69.5474 151.001 69.8301 151.684 70.3954C152.377 70.9501 152.777 71.7021 152.884 72.6514H150.932C150.815 72.2034 150.596 71.8674 150.276 71.6434C149.967 71.4087 149.577 71.2914 149.108 71.2914C148.703 71.2914 148.34 71.3927 148.02 71.5954C147.711 71.7874 147.471 72.0647 147.3 72.4274C147.129 72.7901 147.044 73.2221 147.044 73.7234C147.044 74.2247 147.124 74.6567 147.284 75.0194C147.444 75.3821 147.673 75.6647 147.972 75.8674C148.281 76.0594 148.644 76.1554 149.06 76.1554C149.551 76.1554 149.956 76.0381 150.276 75.8034C150.607 75.5687 150.825 75.2327 150.932 74.7954H152.9C152.815 75.4141 152.596 75.9581 152.244 76.4274C151.903 76.8861 151.46 77.2487 150.916 77.5154C150.372 77.7714 149.753 77.8994 149.06 77.8994C148.26 77.8994 147.561 77.7287 146.964 77.3874C146.367 77.0354 145.903 76.5501 145.572 75.9314C145.252 75.3021 145.092 74.5661 145.092 73.7234ZM157.185 77.8994C156.353 77.8994 155.692 77.6754 155.201 77.2274C154.721 76.7687 154.481 76.1714 154.481 75.4354C154.481 74.7101 154.732 74.1341 155.233 73.7074C155.745 73.2701 156.47 73.0141 157.409 72.9394L159.777 72.7474V72.5714C159.777 72.2087 159.708 71.9207 159.569 71.7074C159.441 71.4834 159.254 71.3234 159.009 71.2274C158.764 71.1207 158.476 71.0674 158.145 71.0674C157.569 71.0674 157.126 71.1847 156.817 71.4194C156.508 71.6434 156.353 71.9634 156.353 72.3794H154.689C154.689 71.8034 154.833 71.3074 155.121 70.8914C155.42 70.4647 155.836 70.1341 156.369 69.8994C156.913 69.6647 157.537 69.5474 158.241 69.5474C158.956 69.5474 159.569 69.6754 160.081 69.9314C160.593 70.1767 160.988 70.5501 161.265 71.0514C161.542 71.5421 161.681 72.1554 161.681 72.8914V77.6914H159.969L159.825 76.5234C159.654 76.9287 159.324 77.2594 158.833 77.5154C158.353 77.7714 157.804 77.8994 157.185 77.8994ZM157.809 76.4274C158.417 76.4274 158.897 76.2567 159.249 75.9154C159.612 75.5741 159.793 75.0994 159.793 74.4914V74.0754L158.145 74.2034C157.537 74.2567 157.105 74.3847 156.849 74.5874C156.593 74.7794 156.465 75.0354 156.465 75.3554C156.465 75.7074 156.582 75.9741 156.817 76.1554C157.052 76.3367 157.382 76.4274 157.809 76.4274ZM163.185 69.7874H168.177V71.4194H163.185V69.7874ZM166.657 77.6914H164.705V67.3234H166.657V77.6914ZM173.345 77.8994C172.566 77.8994 171.873 77.7234 171.265 77.3714C170.667 77.0087 170.198 76.5181 169.857 75.8994C169.515 75.2701 169.345 74.5501 169.345 73.7394C169.345 72.9181 169.51 72.1927 169.841 71.5634C170.171 70.9341 170.635 70.4434 171.233 70.0914C171.83 69.7287 172.513 69.5474 173.281 69.5474C174.081 69.5474 174.769 69.7181 175.345 70.0594C175.921 70.3901 176.363 70.8541 176.673 71.4514C176.993 72.0487 177.153 72.7634 177.153 73.5954V74.1874L170.369 74.2034L170.401 72.9554H175.217C175.217 72.4114 175.041 71.9741 174.689 71.6434C174.347 71.3127 173.883 71.1474 173.297 71.1474C172.838 71.1474 172.449 71.2434 172.129 71.4354C171.819 71.6274 171.585 71.9154 171.425 72.2994C171.265 72.6834 171.185 73.1527 171.185 73.7074C171.185 74.5607 171.366 75.2061 171.729 75.6434C172.102 76.0807 172.651 76.2994 173.377 76.2994C173.91 76.2994 174.347 76.1981 174.689 75.9954C175.041 75.7927 175.27 75.5047 175.377 75.1314H177.185C177.014 75.9954 176.587 76.6727 175.905 77.1634C175.233 77.6541 174.379 77.8994 173.345 77.8994ZM182.443 77.8994C181.675 77.8994 181.014 77.7287 180.459 77.3874C179.915 77.0354 179.488 76.5501 179.179 75.9314C178.88 75.3127 178.731 74.5927 178.731 73.7714C178.731 72.9501 178.88 72.2247 179.179 71.5954C179.488 70.9554 179.931 70.4541 180.507 70.0914C181.083 69.7287 181.766 69.5474 182.555 69.5474C183.11 69.5474 183.616 69.6594 184.075 69.8834C184.534 70.0967 184.886 70.4007 185.131 70.7954V65.7874H187.067V77.6914H185.275L185.147 76.4594C184.912 76.9074 184.55 77.2594 184.059 77.5154C183.579 77.7714 183.04 77.8994 182.443 77.8994ZM182.875 76.1074C183.334 76.1074 183.728 76.0114 184.059 75.8194C184.39 75.6167 184.646 75.3341 184.827 74.9714C185.019 74.5981 185.115 74.1767 185.115 73.7074C185.115 73.2274 185.019 72.8114 184.827 72.4594C184.646 72.0967 184.39 71.8141 184.059 71.6114C183.728 71.3981 183.334 71.2914 182.875 71.2914C182.427 71.2914 182.038 71.3981 181.707 71.6114C181.376 71.8141 181.12 72.0967 180.939 72.4594C180.768 72.8221 180.683 73.2381 180.683 73.7074C180.683 74.1767 180.768 74.5927 180.939 74.9554C181.12 75.3181 181.376 75.6007 181.707 75.8034C182.038 76.0061 182.427 76.1074 182.875 76.1074ZM190.893 77.8834C190.541 77.8834 190.237 77.7607 189.981 77.5154C189.725 77.2701 189.597 76.9714 189.597 76.6194C189.597 76.2674 189.725 75.9687 189.981 75.7234C190.237 75.4674 190.541 75.3394 190.893 75.3394C191.245 75.3394 191.549 75.4674 191.805 75.7234C192.061 75.9687 192.189 76.2674 192.189 76.6194C192.189 76.9714 192.061 77.2701 191.805 77.5154C191.549 77.7607 191.245 77.8834 190.893 77.8834Z" fill="#F7F7F7"/>
</svg>
