<svg width="238" height="128" viewBox="0 0 238 128" fill="none" xmlns="http://www.w3.org/2000/svg">
<g filter="url(#filter0_d_223_2820)">
<rect x="6.83008" y="122.921" width="116" height="227" rx="5" transform="rotate(-89.3306 6.83008 122.921)" fill="#FAFAFA"/>
<path d="M45.8679 26.826L45.7327 38.3932L44.1648 38.3749L44.3 26.8077L45.8679 26.826ZM48.7087 34.2997L45.429 34.2614L45.4454 32.8535L48.3892 32.8879C49.1678 32.897 49.7675 32.696 50.1884 32.2849C50.6093 31.8631 50.824 31.2949 50.8323 30.5803C50.8408 29.855 50.6394 29.2926 50.228 28.8931C49.8168 28.4829 49.2432 28.2735 48.5072 28.2649L45.1475 28.2257L45.1639 26.8178L48.7957 26.8602C49.5529 26.8691 50.2071 27.0314 50.7581 27.3472C51.3091 27.663 51.736 28.1 52.0389 28.6582C52.3417 29.2165 52.4888 29.8689 52.48 30.6155C52.4717 31.3301 52.3096 31.9683 51.9936 32.53C51.6777 33.0916 51.2406 33.5292 50.6822 33.8427C50.1238 34.1562 49.466 34.3086 48.7087 34.2997ZM57.4023 38.7216C56.645 38.7127 55.9751 38.5342 55.3924 38.1861C54.8099 37.8272 54.3569 37.3419 54.0333 36.7301C53.7099 36.1076 53.5529 35.391 53.5624 34.5804C53.572 33.7592 53.7404 33.0411 54.0676 32.4262C54.4055 31.8114 54.8591 31.3314 55.4285 30.986C56.0086 30.6407 56.6773 30.4725 57.4346 30.4814C58.1812 30.4901 58.8246 30.6576 59.3648 30.984C59.9157 31.3104 60.3371 31.7634 60.629 32.3428C60.9316 32.9224 61.0784 33.6015 61.0693 34.3801L61.0627 34.9401L54.359 34.8778L54.4028 33.8702L59.5704 33.9306C59.578 33.28 59.3868 32.755 58.9968 32.3558C58.6068 31.9565 58.0811 31.753 57.4198 31.7453C56.9185 31.7395 56.4852 31.8464 56.12 32.0661C55.7655 32.2754 55.4898 32.5922 55.2928 33.0165C55.1066 33.4304 55.0101 33.9306 55.0033 34.5173C54.9923 35.4559 55.1971 36.1836 55.6178 36.7006C56.0386 37.2069 56.6489 37.4647 57.4489 37.474C58.0355 37.4809 58.5168 37.3692 58.8929 37.1389C59.2689 36.9086 59.5236 36.5702 59.6568 36.1237L61.0647 36.1402C60.863 36.9699 60.4448 37.6104 59.8102 38.0617C59.1755 38.513 58.3729 38.7329 57.4023 38.7216ZM62.7139 34.6714C62.7232 33.8714 62.9075 33.1642 63.2667 32.5497C63.6259 31.9352 64.1115 31.4555 64.7236 31.1106C65.3463 30.7659 66.0523 30.5981 66.8416 30.6073C67.6309 30.6165 68.3275 30.8007 68.9313 31.1598C69.5352 31.5188 70.0094 32.0098 70.3542 32.6325C70.6989 33.2552 70.8666 33.9666 70.8573 34.7665C70.8479 35.5665 70.6637 36.2737 70.3045 36.8882C69.9453 37.5027 69.4596 37.9824 68.8476 38.3273C68.2355 38.6722 67.5348 38.84 66.7455 38.8308C65.9563 38.8215 65.2544 38.6373 64.6398 38.2781C64.036 37.919 63.5617 37.4281 63.217 36.8054C62.8722 36.1827 62.7045 35.4713 62.7139 34.6714ZM64.2337 34.6891C64.2274 35.2331 64.3284 35.7143 64.5369 36.1328C64.756 36.5514 65.0562 36.8802 65.4374 37.1194C65.8187 37.3585 66.2599 37.481 66.7612 37.4868C67.2625 37.4927 67.7065 37.3805 68.0933 37.1504C68.48 36.9202 68.7824 36.5984 69.0006 36.1849C69.2294 35.7716 69.347 35.2929 69.3534 34.7489C69.3599 34.1943 69.2535 33.713 69.0342 33.3051C68.8258 32.8867 68.5309 32.5579 68.1497 32.3187C67.7685 32.0796 67.3272 31.9571 66.8259 31.9512C66.3246 31.9454 65.8806 32.0575 65.4939 32.2877C65.1072 32.5178 64.7994 32.8396 64.5706 33.253C64.3525 33.6558 64.2402 34.1345 64.2337 34.6891ZM72.9153 42.2151L73.0476 30.8878L74.4075 30.9037L74.5031 32.3129C74.7654 31.772 75.1488 31.3711 75.6532 31.1103C76.1684 30.839 76.7353 30.7069 77.354 30.7141C78.1006 30.7229 78.7438 30.9064 79.2837 31.2647C79.8236 31.6124 80.234 32.0972 80.5148 32.7192C80.8063 33.3307 80.9474 34.0364 80.938 34.8363C80.9287 35.6362 80.7764 36.3492 80.481 36.9751C80.1964 37.6012 79.7799 38.0923 79.2317 38.4486C78.6942 38.805 78.0361 38.9787 77.2575 38.9696C76.6282 38.9622 76.0697 38.8277 75.5821 38.566C75.0945 38.3043 74.7255 37.9319 74.4751 37.449L74.4192 42.2326L72.9153 42.2151ZM74.5217 34.8253C74.5156 35.348 74.6061 35.8237 74.7931 36.2526C74.9909 36.6709 75.2697 36.9996 75.6296 37.2384C76.0002 37.4775 76.4414 37.6 76.9534 37.6059C77.4654 37.6119 77.9041 37.4997 78.2694 37.2693C78.6349 37.0282 78.9161 36.7008 79.113 36.2871C79.3205 35.8735 79.4273 35.4054 79.4334 34.8827C79.4398 34.3388 79.344 33.8576 79.1462 33.4393C78.9591 33.0211 78.6856 32.6925 78.3257 32.4536C77.9658 32.2147 77.5299 32.0923 77.0179 32.0863C76.5059 32.0803 76.0619 32.1925 75.6859 32.4228C75.3205 32.6532 75.0341 32.9752 74.8265 33.3888C74.6297 33.8025 74.5281 34.2814 74.5217 34.8253ZM84.5652 38.847L83.0613 38.8294L83.1989 27.0542L84.7028 27.0718L84.5652 38.847ZM90.6325 39.1099C89.8752 39.101 89.2053 38.9225 88.6226 38.5743C88.0401 38.2155 87.5871 37.7302 87.2636 37.1184C86.9401 36.4959 86.7832 35.7793 86.7926 34.9687C86.8022 34.1474 86.9706 33.4294 87.2979 32.8145C87.6357 32.1997 88.0894 31.7196 88.6588 31.3743C89.2388 31.029 89.9075 30.8608 90.6648 30.8697C91.4114 30.8784 92.0548 31.0459 92.5951 31.3723C93.146 31.6987 93.5674 32.1517 93.8593 32.7311C94.1619 33.3107 94.3086 33.9898 94.2995 34.7684L94.293 35.3284L87.5892 35.266L87.633 34.2585L92.8007 34.3189C92.8083 33.6682 92.617 33.1433 92.227 32.7441C91.837 32.3448 91.3113 32.1413 90.65 32.1336C90.1487 32.1277 89.7155 32.2347 89.3502 32.4544C88.9957 32.6636 88.72 32.9804 88.523 33.4048C88.3369 33.8187 88.2403 34.3189 88.2335 34.9055C88.2225 35.8441 88.4274 36.5719 88.848 37.0889C89.2688 37.5952 89.8792 37.853 90.6791 37.8623C91.2657 37.8692 91.7471 37.7575 92.1231 37.5272C92.4992 37.2969 92.7538 36.9585 92.887 36.512L94.2949 36.5285C94.0932 37.3582 93.6751 37.9987 93.0404 38.45C92.4058 38.9012 91.6031 39.1212 90.6325 39.1099ZM99.2396 42.5707L99.5114 41.2137C99.6603 41.2582 99.7879 41.2863 99.8945 41.2982C100.001 41.3208 100.113 41.3328 100.23 41.3342C100.593 41.3384 100.85 41.2347 101.002 41.0231C101.164 40.8117 101.248 40.4873 101.253 40.05L101.356 31.2186L102.86 31.2362L102.755 40.2116C102.746 40.9902 102.531 41.6064 102.11 42.0602C101.688 42.5139 101.099 42.7364 100.342 42.7276C100.15 42.7253 99.9739 42.7126 99.8142 42.6894C99.6545 42.6662 99.4629 42.6266 99.2396 42.5707ZM102.13 29.3715C101.853 29.3683 101.619 29.2696 101.429 29.0753C101.24 28.8704 101.147 28.6347 101.15 28.368C101.153 28.0907 101.252 27.8572 101.446 27.6674C101.64 27.4777 101.876 27.3844 102.153 27.3877C102.42 27.3908 102.648 27.4895 102.838 27.6837C103.038 27.878 103.137 28.1139 103.133 28.3912C103.13 28.6578 103.026 28.8913 102.821 29.0916C102.627 29.2813 102.397 29.3746 102.13 29.3715ZM110.931 31.3305L112.419 31.3479L112.328 39.1713L110.984 39.1556L110.838 37.9699C110.609 38.3725 110.253 38.6991 109.77 38.9495C109.287 39.1998 108.758 39.3216 108.182 39.3149C107.275 39.3043 106.574 39.0135 106.08 38.4423C105.596 37.8606 105.36 37.0898 105.371 36.1299L105.428 31.2662L106.931 31.2838L106.88 35.6515C106.871 36.4834 107.029 37.0826 107.355 37.4491C107.693 37.8051 108.149 37.9864 108.725 37.9932C109.418 38.0013 109.949 37.7941 110.317 37.3717C110.684 36.9387 110.873 36.3008 110.883 35.4582L110.931 31.3305ZM114.22 36.9213L115.66 36.9381C115.655 37.3328 115.796 37.6491 116.081 37.8871C116.366 38.1145 116.754 38.231 117.245 38.2367C117.778 38.243 118.19 38.1464 118.48 37.9472C118.771 37.7372 118.918 37.4562 118.922 37.1043C118.925 36.8483 118.848 36.634 118.69 36.4615C118.542 36.2891 118.267 36.1472 117.863 36.0358L116.49 35.6997C115.799 35.521 115.285 35.2536 114.948 34.8977C114.621 34.5418 114.461 34.0759 114.468 33.5C114.474 33.02 114.601 32.6055 114.851 32.2564C115.111 31.9074 115.46 31.6394 115.9 31.4526C116.35 31.2658 116.863 31.1758 117.439 31.1825C118.015 31.1893 118.51 31.2964 118.924 31.5039C119.348 31.7115 119.675 31.998 119.906 32.3634C120.147 32.7289 120.27 33.1624 120.274 33.6638L118.835 33.647C118.829 33.2416 118.699 32.9254 118.446 32.6984C118.192 32.4714 117.836 32.3552 117.378 32.3499C116.908 32.3444 116.544 32.4415 116.286 32.6412C116.028 32.8408 115.897 33.1166 115.892 33.4686C115.886 33.9912 116.266 34.353 117.032 34.554L118.404 34.906C119.063 35.0631 119.556 35.3142 119.883 35.6594C120.21 35.9939 120.37 36.4491 120.363 37.0251C120.357 37.5157 120.219 37.9461 119.948 38.3163C119.677 38.6759 119.306 38.9542 118.834 39.1514C118.373 39.338 117.828 39.4276 117.199 39.4203C116.282 39.4096 115.554 39.177 115.015 38.7227C114.476 38.2684 114.211 37.6679 114.22 36.9213ZM121.744 31.4568L126.32 31.5103L126.305 32.7742L121.729 32.7208L121.744 31.4568ZM124.693 39.3158L123.189 39.2983L123.309 29.027L124.813 29.0445L124.693 39.3158ZM134.593 39.4315L132.124 31.5781L133.676 31.5963L134.925 35.6751C135.017 35.9642 135.099 36.2639 135.17 36.5741C135.241 36.8736 135.312 37.1944 135.383 37.5366C135.428 37.3025 135.479 37.079 135.535 36.8663C135.601 36.6431 135.668 36.4359 135.734 36.2446C135.8 36.0427 135.861 35.8567 135.916 35.6867L137.276 31.6383L138.812 31.6563L140.06 35.7351C140.102 35.8316 140.138 35.9601 140.168 36.1204C140.209 36.2702 140.255 36.4308 140.306 36.6021C140.357 36.7733 140.403 36.9446 140.444 37.1157C140.485 37.2869 140.52 37.4473 140.55 37.597C140.596 37.3842 140.641 37.182 140.686 36.9905C140.741 36.7885 140.797 36.5918 140.852 36.4004C140.919 36.1985 140.991 35.9807 141.068 35.7469L142.428 31.6985L143.995 31.7168L141.232 39.5091L139.808 39.4924L138.497 35.2848C138.374 34.8887 138.271 34.5408 138.19 34.2412C138.118 33.931 138.063 33.669 138.023 33.4552C137.978 33.6467 137.911 33.8859 137.822 34.1729C137.744 34.4493 137.633 34.8214 137.489 35.2891L136.081 39.4489L134.593 39.4315ZM147.599 39.7755C146.767 39.7658 146.114 39.5395 145.639 39.0965C145.175 38.6538 144.947 38.0804 144.955 37.3764C144.964 36.6618 145.226 36.0942 145.743 35.6735C146.26 35.2422 146.978 34.9946 147.896 34.9306L150.362 34.7674L150.365 34.5434C150.37 34.1061 150.294 33.7586 150.137 33.5007C149.98 33.2322 149.764 33.043 149.487 32.9331C149.212 32.8125 148.898 32.7502 148.546 32.7461C147.916 32.7387 147.424 32.8663 147.069 33.1288C146.725 33.3808 146.55 33.7468 146.544 34.2268L145.232 34.2115C145.239 33.6675 145.383 33.1945 145.665 32.7924C145.947 32.3904 146.34 32.0803 146.844 31.8621C147.358 31.6441 147.952 31.539 148.624 31.5469C149.274 31.5545 149.838 31.6784 150.315 31.9187C150.803 32.1484 151.178 32.4995 151.439 32.9719C151.711 33.4338 151.843 34.0167 151.835 34.7206L151.777 39.6323L150.497 39.6173L150.352 38.3516C150.144 38.7972 149.788 39.1504 149.284 39.4112C148.79 39.6614 148.229 39.7828 147.599 39.7755ZM148.045 38.6126C148.76 38.621 149.322 38.4142 149.732 37.9923C150.143 37.5597 150.352 36.9755 150.361 36.2395L150.366 35.8235L148.364 35.9602C147.702 36.0164 147.22 36.1655 146.919 36.4073C146.628 36.6493 146.48 36.9622 146.476 37.3462C146.471 37.7622 146.606 38.0784 146.881 38.295C147.166 38.501 147.554 38.6069 148.045 38.6126ZM155.844 39.6798L154.34 39.6622L154.431 31.8388L155.791 31.8547L155.937 33.0565C156.188 32.6114 156.544 32.2688 157.005 32.0289C157.478 31.7784 157.991 31.6564 158.546 31.6628C159.57 31.6748 160.324 31.977 160.807 32.5693C161.291 33.1617 161.527 33.9592 161.515 34.9618L161.46 39.7454L159.956 39.7279L160.008 35.2802C160.017 34.4909 159.853 33.9236 159.515 33.5783C159.178 33.2223 158.722 33.041 158.146 33.0343C157.442 33.026 156.89 33.2489 156.49 33.703C156.1 34.1571 155.901 34.7682 155.892 35.5361L155.844 39.6798ZM163.282 31.9422L167.858 31.9957L167.843 33.2596L163.267 33.2061L163.282 31.9422ZM166.23 39.8012L164.726 39.7836L164.846 29.5123L166.35 29.5299L166.23 39.8012ZM45.9374 60.5891C45.1054 60.5794 44.452 60.3531 43.9772 59.9102C43.513 59.4674 43.285 58.894 43.2932 58.1901C43.3016 57.4754 43.5642 56.9078 44.0812 56.4872C44.5983 56.0558 45.3159 55.8082 46.234 55.7443L48.7001 55.5811L48.7027 55.3571C48.7078 54.9198 48.6319 54.5722 48.4749 54.3143C48.318 54.0458 48.1015 53.8566 47.8255 53.7467C47.5495 53.6261 47.2356 53.5638 46.8836 53.5597C46.2543 53.5523 45.7621 53.6799 45.407 53.9425C45.0627 54.1945 44.8878 54.5604 44.8821 55.0404L43.5702 55.0251C43.5766 54.4811 43.7208 54.0081 44.0028 53.606C44.2849 53.204 44.6779 52.8939 45.1818 52.6758C45.6964 52.4577 46.2896 52.3527 46.9616 52.3605C47.6122 52.3681 48.1761 52.4921 48.6534 52.7323C49.1414 52.962 49.516 53.3131 49.7771 53.7855C50.0491 54.2474 50.181 54.8303 50.1727 55.5343L50.1153 60.4459L48.8354 60.431L48.6902 59.1652C48.4823 59.6108 48.1262 59.964 47.6218 60.2248C47.1281 60.475 46.5667 60.5965 45.9374 60.5891ZM46.383 59.4262C47.0976 59.4346 47.6601 59.2278 48.0704 58.8059C48.4808 58.3734 48.6903 57.7891 48.6989 57.0531L48.7038 56.6372L46.702 56.7738C46.04 56.8301 45.5582 56.9791 45.2567 57.2209C44.9659 57.4629 44.8182 57.7759 44.8137 58.1598C44.8088 58.5758 44.9438 58.8921 45.2186 59.1086C45.5043 59.3146 45.8924 59.4205 46.383 59.4262ZM56.9193 58.2533L58.3592 58.2701C58.3546 58.6647 58.4949 58.9811 58.7801 59.2191C59.0655 59.4464 59.4535 59.563 59.9441 59.5687C60.4774 59.5749 60.8893 59.4784 61.1796 59.2791C61.4701 59.0692 61.6174 58.7882 61.6215 58.4362C61.6245 58.1802 61.547 57.966 61.389 57.7935C61.2417 57.6211 60.966 57.4792 60.5619 57.3678L59.1897 57.0317C58.4984 56.853 57.9842 56.5856 57.647 56.2296C57.3205 55.8738 57.1606 55.4079 57.1673 54.8319C57.1729 54.352 57.3004 53.9374 57.5499 53.5883C57.8099 53.2393 58.1598 52.9714 58.5993 52.7845C59.0495 52.5978 59.5626 52.5078 60.1386 52.5145C60.7145 52.5212 61.2093 52.6283 61.6229 52.8359C62.0472 53.0435 62.3745 53.33 62.6049 53.6954C62.846 54.0609 62.969 54.4944 62.9738 54.9958L61.5339 54.979C61.5279 54.5735 61.3983 54.2573 61.1449 54.0304C60.8916 53.8034 60.5356 53.6872 60.0769 53.6819C59.6076 53.6764 59.2438 53.7735 58.9855 53.9731C58.7271 54.1728 58.5959 54.4486 58.5918 54.8006C58.5857 55.3232 58.9655 55.685 59.7312 55.886L61.1031 56.238C61.7627 56.3951 62.2558 56.6462 62.5824 56.9914C62.9092 57.3259 63.0692 57.7811 63.0625 58.3571C63.0568 58.8477 62.9184 59.2781 62.6474 59.6483C62.3765 60.0078 62.0052 60.2862 61.5336 60.4833C61.0727 60.67 60.5276 60.7596 59.8983 60.7522C58.981 60.7415 58.253 60.509 57.7143 60.0547C57.1756 59.6004 56.9106 58.9999 56.9193 58.2533ZM65.1841 60.622L65.2755 52.7985L66.7794 52.8161L66.688 60.6396L65.1841 60.622ZM66.0331 50.9513C65.7665 50.9481 65.5329 50.8494 65.3325 50.6551C65.1429 50.4502 65.0497 50.2144 65.0528 49.9477C65.056 49.6704 65.1548 49.4369 65.349 49.2471C65.5539 49.0575 65.7897 48.9643 66.0563 48.9674C66.3336 48.9706 66.5671 49.0694 66.7569 49.2636C66.9466 49.4578 67.0399 49.6936 67.0366 49.9709C67.0335 50.2376 66.9348 50.4711 66.7404 50.6715C66.5462 50.8612 66.3104 50.9545 66.0331 50.9513ZM70.8552 60.6883L69.3513 60.6707L69.4427 52.8472L70.7866 52.8629L70.9778 54.3053L70.7873 54.175C70.9524 53.7396 71.2499 53.3804 71.6799 53.0974C72.1207 52.8038 72.6504 52.6607 73.2691 52.6679C73.9623 52.676 74.5361 52.8694 74.9904 53.2481C75.4447 53.6267 75.7375 54.1262 75.8689 54.7464L75.597 54.7433C75.7109 54.1259 76.01 53.6333 76.4943 53.2656C76.9786 52.8979 77.5728 52.7182 78.2767 52.7264C79.1727 52.7369 79.8736 53.0064 80.3794 53.5351C80.8853 54.0637 81.1329 54.7813 81.1223 55.6879L81.0625 60.8075L79.5906 60.7903L79.6461 56.0387C79.6533 55.42 79.4989 54.9435 79.1828 54.6091C78.8775 54.2642 78.4581 54.0886 77.9248 54.0824C77.5515 54.078 77.2199 54.1595 76.9299 54.3268C76.6507 54.4836 76.4293 54.7156 76.2657 55.0231C76.1021 55.3305 76.0179 55.6922 76.013 56.1082L75.9588 60.7479L74.4709 60.7305L74.5266 55.9628C74.5339 55.3442 74.3847 54.8731 74.0791 54.5495C73.7737 54.2153 73.3543 54.045 72.821 54.0388C72.4477 54.0344 72.1161 54.1159 71.8261 54.2832C71.5469 54.4399 71.3255 54.672 71.1619 54.9795C70.9984 55.2762 70.9143 55.6326 70.9094 56.0486L70.8552 60.6883ZM83.5862 64.3413L83.7186 53.014L85.0785 53.0299L85.1741 54.4391C85.4364 53.8982 85.8198 53.4973 86.3242 53.2365C86.8394 52.9652 87.4063 52.8331 88.0249 52.8403C88.7715 52.8491 89.4148 53.0326 89.9546 53.3909C90.4946 53.7386 90.905 54.2234 91.1857 54.8454C91.4773 55.4568 91.6184 56.1625 91.609 56.9625C91.5997 57.7624 91.4473 58.4754 91.152 59.1013C90.8673 59.7273 90.4509 60.2185 89.9027 60.5748C89.3652 60.9312 88.7071 61.1049 87.9285 61.0958C87.2992 61.0884 86.7407 60.9539 86.2531 60.6922C85.7654 60.4305 85.3964 60.0581 85.146 59.5752L85.0901 64.3588L83.5862 64.3413ZM85.1927 56.9515C85.1866 57.4742 85.277 57.9499 85.464 58.3788C85.6618 58.7971 85.9407 59.1257 86.3006 59.3646C86.6711 59.6036 87.1124 59.7261 87.6244 59.7321C88.1363 59.7381 88.575 59.6259 88.9404 59.3955C89.3059 59.1544 89.5871 58.827 89.7839 58.4133C89.9914 57.9997 90.0983 57.5315 90.1044 57.0089C90.1107 56.465 90.015 55.9838 89.8172 55.5655C89.6301 55.1472 89.3566 54.8187 88.9967 54.5798C88.6368 54.3409 88.2008 54.2185 87.6889 54.2125C87.1769 54.2065 86.7329 54.3187 86.3568 54.549C85.9915 54.7794 85.705 55.1014 85.4975 55.515C85.3007 55.9287 85.1991 56.4076 85.1927 56.9515ZM95.2361 60.9731L93.7322 60.9556L93.8698 49.1804L95.3737 49.1979L95.2361 60.9731ZM101.303 61.2361C100.546 61.2272 99.8762 61.0487 99.2936 60.7005C98.7111 60.3417 98.2581 59.8564 97.9345 59.2446C97.6111 58.6221 97.4541 57.9055 97.4636 57.0949C97.4732 56.2736 97.6416 55.5555 97.9688 54.9407C98.3067 54.3259 98.7603 53.8458 99.3297 53.5005C99.9098 53.1552 100.578 52.987 101.336 52.9959C102.082 53.0046 102.726 53.1721 103.266 53.4985C103.817 53.8249 104.238 54.2779 104.53 54.8573C104.833 55.4369 104.98 56.116 104.97 56.8946L104.964 57.4546L98.2602 57.3922L98.304 56.3847L103.472 56.4451C103.479 55.7944 103.288 55.2695 102.898 54.8702C102.508 54.471 101.982 54.2675 101.321 54.2598C100.82 54.2539 100.386 54.3609 100.021 54.5806C99.6667 54.7898 99.391 55.1066 99.194 55.531C99.0078 55.9449 98.9113 56.4451 98.9044 57.0317C98.8935 57.9703 99.0983 58.6981 99.519 59.2151C99.9398 59.7213 100.55 59.9792 101.35 59.9885C101.937 59.9954 102.418 59.8836 102.794 59.6534C103.17 59.4231 103.425 59.0847 103.558 58.6382L104.966 58.6547C104.764 59.4844 104.346 60.1249 103.711 60.5761C103.077 61.0274 102.274 61.2474 101.303 61.2361ZM107.974 60.978L108.103 60.9475C108.038 61.0107 107.958 61.0578 107.861 61.0887C107.775 61.1197 107.669 61.1344 107.541 61.1329C107.285 61.1299 107.056 61.0419 106.856 60.8689C106.666 60.6853 106.573 60.4442 106.576 60.1456C106.58 59.8256 106.679 59.5654 106.873 59.365C107.078 59.154 107.341 59.0504 107.661 59.0542C108.002 59.0582 108.289 59.1895 108.52 59.4482C108.752 59.707 108.865 60.0603 108.86 60.5083C108.856 60.8923 108.761 61.2432 108.576 61.561C108.401 61.8897 108.163 62.1536 107.862 62.3528C107.561 62.5626 107.218 62.6919 106.834 62.7408L106.842 62.0688C107.162 62.0086 107.431 61.8783 107.646 61.6782C107.862 61.4887 107.971 61.2553 107.974 60.978ZM117.857 61.2215L116.353 61.2039L116.491 49.4447L117.995 49.4623L117.934 54.6139C118.185 54.1901 118.541 53.8529 119.002 53.6023C119.464 53.341 119.999 53.2139 120.607 53.221C121.599 53.2326 122.337 53.5346 122.82 54.127C123.304 54.7193 123.54 55.5168 123.528 56.5194L123.473 61.3031L121.969 61.2855L122.021 56.8378C122.027 56.3045 121.952 55.8769 121.796 55.5551C121.65 55.2227 121.434 54.9802 121.148 54.8275C120.873 54.6749 120.548 54.5964 120.175 54.5921C119.695 54.5865 119.283 54.6883 118.939 54.8977C118.606 55.1071 118.352 55.3922 118.177 55.7528C118.002 56.1135 117.912 56.5178 117.907 56.9657L117.857 61.2215ZM125.569 57.4073C125.579 56.6074 125.763 55.9001 126.122 55.2856C126.481 54.6711 126.967 54.1914 127.579 53.8465C128.202 53.5018 128.908 53.334 129.697 53.3433C130.486 53.3525 131.183 53.5366 131.787 53.8957C132.391 54.2548 132.865 54.7457 133.21 55.3684C133.554 55.9912 133.722 56.7025 133.713 57.5025C133.703 58.3024 133.519 59.0096 133.16 59.6241C132.801 60.2387 132.315 60.7183 131.703 61.0632C131.091 61.4081 130.39 61.5759 129.601 61.5667C128.812 61.5575 128.11 61.3733 127.495 61.0141C126.892 60.655 126.417 60.1641 126.072 59.5413C125.728 58.9186 125.56 58.2073 125.569 57.4073ZM127.089 57.4251C127.083 57.969 127.184 58.4502 127.392 58.8687C127.612 59.2873 127.912 59.6162 128.293 59.8553C128.674 60.0944 129.115 60.2169 129.617 60.2228C130.118 60.2286 130.562 60.1165 130.949 59.8863C131.335 59.6562 131.638 59.3343 131.856 58.9209C132.085 58.5075 132.203 58.0288 132.209 57.4849C132.215 56.9303 132.109 56.449 131.89 56.0411C131.681 55.6226 131.386 55.2938 131.005 55.0547C130.624 54.8155 130.183 54.693 129.681 54.6872C129.18 54.6813 128.736 54.7935 128.349 55.0236C127.963 55.2538 127.655 55.5755 127.426 55.9889C127.208 56.3917 127.096 56.8704 127.089 57.4251ZM137.316 61.4648L135.812 61.4473L135.903 53.6238L137.263 53.6397L137.409 54.8415C137.66 54.3964 138.016 54.0538 138.477 53.8139C138.949 53.5634 139.463 53.4414 140.018 53.4478C141.041 53.4598 141.795 53.762 142.279 54.3543C142.763 54.9467 142.999 55.7442 142.987 56.7468L142.931 61.5304L141.427 61.5129L141.479 57.0652C141.489 56.2759 141.325 55.7086 140.987 55.3633C140.65 55.0073 140.193 54.826 139.617 54.8193C138.913 54.811 138.362 55.0339 137.962 55.488C137.572 55.9421 137.373 56.5532 137.364 57.3211L137.316 61.4648ZM148.868 61.7918C148.11 61.783 147.44 61.6045 146.858 61.2563C146.275 60.8975 145.822 60.4121 145.499 59.8003C145.175 59.1778 145.018 58.4613 145.028 57.6507C145.037 56.8294 145.206 56.1113 145.533 55.4964C145.871 54.8817 146.325 54.4016 146.894 54.0562C147.474 53.711 148.143 53.5428 148.9 53.5516C149.647 53.5604 150.29 53.7279 150.83 54.0542C151.381 54.3807 151.803 54.8336 152.094 55.4131C152.397 55.9927 152.544 56.6718 152.535 57.4504L152.528 58.0103L145.824 57.948L145.868 56.9404L151.036 57.0008C151.043 56.3502 150.852 55.8253 150.462 55.426C150.072 55.0268 149.547 54.8233 148.885 54.8155C148.384 54.8097 147.951 54.9166 147.585 55.1364C147.231 55.3456 146.955 55.6624 146.758 56.0868C146.572 56.5006 146.476 57.0009 146.469 57.5875C146.458 58.5261 146.663 59.2539 147.083 59.7708C147.504 60.2771 148.114 60.5349 148.914 60.5443C149.501 60.5511 149.982 60.4394 150.358 60.2091C150.734 59.9788 150.989 59.6405 151.122 59.194L152.53 59.2104C152.328 60.0401 151.91 60.6806 151.276 61.1319C150.641 61.5832 149.838 61.8032 148.868 61.7918ZM154.032 59.388L155.472 59.4048C155.467 59.7995 155.608 60.1158 155.893 60.3538C156.178 60.5812 156.566 60.6977 157.057 60.7034C157.59 60.7097 158.002 60.6131 158.292 60.4138C158.583 60.2039 158.73 59.9229 158.734 59.5709C158.737 59.315 158.66 59.1007 158.502 58.9282C158.354 58.7558 158.079 58.6139 157.675 58.5025L156.302 58.1664C155.611 57.9877 155.097 57.7203 154.76 57.3644C154.433 57.0085 154.273 56.5426 154.28 55.9667C154.286 55.4867 154.413 55.0722 154.663 54.723C154.923 54.3741 155.273 54.1061 155.712 53.9192C156.162 53.7325 156.675 53.6425 157.251 53.6492C157.827 53.6559 158.322 53.7631 158.736 53.9706C159.16 54.1782 159.487 54.4647 159.718 54.8301C159.959 55.1956 160.082 55.6291 160.087 56.1305L158.647 56.1137C158.641 55.7083 158.511 55.3921 158.258 55.1651C158.004 54.9381 157.648 54.8219 157.19 54.8166C156.72 54.8111 156.357 54.9082 156.098 55.1078C155.84 55.3075 155.709 55.5833 155.705 55.9353C155.698 56.4579 156.078 56.8197 156.844 57.0207L158.216 57.3727C158.875 57.5298 159.369 57.7809 159.695 58.1261C160.022 58.4606 160.182 58.9158 160.175 59.4918C160.17 59.9824 160.031 60.4128 159.76 60.783C159.489 61.1425 159.118 61.4209 158.646 61.6181C158.185 61.8047 157.64 61.8943 157.011 61.887C156.094 61.8763 155.366 61.6437 154.827 61.1894C154.288 60.7351 154.023 60.1346 154.032 59.388ZM161.556 53.9235L166.132 53.977L166.117 55.2409L161.542 55.1874L161.556 53.9235ZM164.505 61.7825L163.001 61.7649L163.121 51.4936L164.625 51.5112L164.505 61.7825ZM46.7683 82.6003C46.011 82.5915 45.341 82.413 44.7584 82.0648C44.1759 81.706 43.7229 81.2207 43.3993 80.6088C43.0759 79.9863 42.9189 79.2698 42.9284 78.4592C42.938 77.6379 43.1064 76.9198 43.4336 76.3049C43.7715 75.6902 44.2251 75.2101 44.7945 74.8647C45.3746 74.5195 46.0433 74.3513 46.8006 74.3601C47.5472 74.3689 48.1906 74.5364 48.7308 74.8627C49.2817 75.1892 49.7031 75.6421 49.995 76.2216C50.2976 76.8012 50.4443 77.4803 50.4352 78.2589L50.4287 78.8188L43.725 78.7565L43.7688 77.749L48.9364 77.8093C48.944 77.1587 48.7528 76.6338 48.3628 76.2345C47.9727 75.8353 47.4471 75.6318 46.7858 75.6241C46.2845 75.6182 45.8512 75.7251 45.4859 75.9449C45.1315 76.1541 44.8558 76.4709 44.6588 76.8953C44.4726 77.3091 44.3761 77.8094 44.3692 78.396C44.3583 79.3346 44.5631 80.0624 44.9838 80.5793C45.4045 81.0856 46.0149 81.3434 46.8149 81.3528C47.4015 81.3596 47.8828 81.2479 48.2589 81.0176C48.6349 80.7874 48.8896 80.449 49.0228 80.0025L50.4307 80.0189C50.229 80.8486 49.8108 81.4891 49.1761 81.9404C48.5415 82.3917 47.7389 82.6117 46.7683 82.6003ZM53.0335 82.4815L51.3056 82.4613L54.0866 78.6216L51.413 74.6381L53.1569 74.6584L55.1067 77.5934L57.0766 74.7042L58.7885 74.7242L56.0225 78.6442L58.6491 82.5471L56.9052 82.5268L54.9868 79.6402L53.0335 82.4815ZM60.3908 86.0717L60.5231 74.7445L61.883 74.7604L61.9786 76.1696C62.2409 75.6286 62.6243 75.2278 63.1287 74.967C63.6439 74.6956 64.2108 74.5636 64.8294 74.5708C65.5761 74.5795 66.2193 74.7631 66.7591 75.1214C67.2991 75.4691 67.7095 75.9539 67.9902 76.5759C68.2818 77.1873 68.4229 77.893 68.4135 78.693C68.4042 79.4929 68.2518 80.2058 67.9565 80.8318C67.6718 81.4578 67.2554 81.949 66.7072 82.3053C66.1697 82.6617 65.5116 82.8353 64.733 82.8262C64.1037 82.8189 63.5452 82.6844 63.0576 82.4226C62.5699 82.1609 62.2009 81.7886 61.9506 81.3056L61.8947 86.0893L60.3908 86.0717ZM61.9972 78.682C61.9911 79.2046 62.0816 79.6804 62.2686 80.1093C62.4664 80.5276 62.7452 80.8562 63.1051 81.0951C63.4757 81.3341 63.9169 81.4566 64.4289 81.4626C64.9409 81.4686 65.3795 81.3564 65.7449 81.126C66.1104 80.8849 66.3916 80.5575 66.5885 80.1437C66.796 79.7301 66.9028 79.262 66.9089 78.7394C66.9152 78.1954 66.8195 77.7143 66.6217 77.2959C66.4346 76.8777 66.1611 76.5492 65.8012 76.3103C65.4413 76.0714 65.0054 75.949 64.4934 75.943C63.9814 75.937 63.5374 76.0491 63.1614 76.2794C62.796 76.5098 62.5095 76.8319 62.302 77.2455C62.1052 77.6592 62.0036 78.138 61.9972 78.682ZM72.0407 82.7036L70.5368 82.686L70.6744 70.9108L72.1783 70.9284L72.0407 82.7036ZM77.0201 82.9538C76.1881 82.9441 75.5347 82.7178 75.0599 82.2749C74.5957 81.8321 74.3677 81.2587 74.3759 80.5548C74.3843 79.8401 74.6469 79.2725 75.1639 78.8518C75.681 78.4205 76.3986 78.1729 77.3167 78.1089L79.7828 77.9457L79.7854 77.7218C79.7905 77.2845 79.7146 76.9369 79.5576 76.679C79.4007 76.4105 79.1842 76.2213 78.9082 76.1114C78.6322 75.9908 78.3183 75.9285 77.9663 75.9244C77.337 75.917 76.8448 76.0446 76.4897 76.3072C76.1454 76.5592 75.9704 76.9251 75.9648 77.4051L74.6529 77.3898C74.6593 76.8458 74.8035 76.3728 75.0855 75.9707C75.3676 75.5687 75.7606 75.2586 76.2645 75.0404C76.7791 74.8224 77.3723 74.7174 78.0443 74.7252C78.6949 74.7328 79.2588 74.8567 79.7361 75.097C80.2241 75.3267 80.5987 75.6778 80.8598 76.1502C81.1318 76.6121 81.2637 77.195 81.2554 77.899L81.198 82.8106L79.9181 82.7957L79.7729 81.5299C79.565 81.9755 79.2089 82.3287 78.7045 82.5895C78.2108 82.8397 77.6494 82.9612 77.0201 82.9538ZM77.4657 81.7909C78.1803 81.7993 78.7428 81.5925 79.1531 81.1706C79.5635 80.738 79.773 80.1538 79.7816 79.4178L79.7864 79.0019L77.7847 79.1385C77.1227 79.1948 76.6409 79.3438 76.3394 79.5856C76.0485 79.8276 75.9009 80.1405 75.8964 80.5245C75.8915 80.9405 76.0265 81.2568 76.3013 81.4733C76.5869 81.6793 76.9751 81.7852 77.4657 81.7909ZM85.2646 82.8581L83.7607 82.8406L83.8522 75.0171L85.2121 75.033L85.358 76.2348C85.6086 75.7897 85.9646 75.4471 86.4261 75.2072C86.8984 74.9567 87.4119 74.8347 87.9665 74.8412C88.9904 74.8531 89.7443 75.1553 90.2281 75.7476C90.7118 76.34 90.9479 77.1375 90.9362 78.1401L90.8803 82.9237L89.3764 82.9062L89.4283 78.4585C89.4376 77.6692 89.2735 77.1019 88.9362 76.7566C88.599 76.4006 88.1424 76.2193 87.5664 76.2126C86.8625 76.2043 86.3105 76.4272 85.9105 76.8813C85.5212 77.3354 85.322 77.9465 85.3131 78.7144L85.2646 82.8581ZM95.7288 83.1724C94.8969 83.1627 94.2435 82.9364 93.7686 82.4935C93.3044 82.0507 93.0764 81.4773 93.0847 80.7734C93.093 80.0587 93.3557 79.4911 93.8726 79.0704C94.3897 78.6391 95.1073 78.3915 96.0254 78.3275L98.4915 78.1644L98.4941 77.9404C98.4992 77.5031 98.4233 77.1555 98.2663 76.8976C98.1094 76.6291 97.8929 76.4399 97.6169 76.33C97.3409 76.2094 97.027 76.1471 96.675 76.143C96.0457 76.1356 95.5535 76.2632 95.1984 76.5258C94.8541 76.7778 94.6792 77.1437 94.6736 77.6237L93.3617 77.6084C93.368 77.0644 93.5122 76.5914 93.7943 76.1893C94.0763 75.7873 94.4693 75.4772 94.9732 75.259C95.4878 75.041 96.0811 74.936 96.753 74.9438C97.4036 74.9514 97.9676 75.0754 98.4448 75.3156C98.9328 75.5453 99.3074 75.8964 99.5686 76.3688C99.8405 76.8307 99.9724 77.4136 99.9642 78.1176L99.9068 83.0292L98.6269 83.0143L98.4816 81.7485C98.2737 82.1941 97.9176 82.5473 97.4132 82.8081C96.9196 83.0583 96.3581 83.1798 95.7288 83.1724ZM96.1744 82.0095C96.889 82.0179 97.4515 81.8111 97.8618 81.3892C98.2722 80.9566 98.4817 80.3724 98.4903 79.6364L98.4952 79.2205L96.4934 79.3571C95.8314 79.4134 95.3496 79.5624 95.0481 79.8042C94.7573 80.0462 94.6096 80.3591 94.6051 80.7431C94.6003 81.1591 94.7352 81.4754 95.0101 81.6919C95.2957 81.8979 95.6838 82.0038 96.1744 82.0095ZM101.604 75.2245L106.18 75.278L106.165 76.5419L101.589 76.4884L101.604 75.2245ZM104.552 83.0835L103.048 83.0659L103.168 72.7946L104.672 72.8122L104.552 83.0835ZM107.918 83.1228L108.009 75.2994L109.513 75.3169L109.422 83.1404L107.918 83.1228ZM108.767 73.4521C108.5 73.449 108.267 73.3502 108.066 73.1559C107.877 72.951 107.783 72.7152 107.787 72.4486C107.79 72.1712 107.889 71.9377 108.083 71.748C108.288 71.5584 108.523 71.4651 108.79 71.4682C109.067 71.4715 109.301 71.5702 109.491 71.7644C109.68 71.9587 109.774 72.1944 109.77 72.4717C109.767 72.7384 109.669 72.9719 109.474 73.1723C109.28 73.3621 109.044 73.4553 108.767 73.4521ZM111.619 79.2458C111.628 78.4459 111.813 77.7386 112.172 77.1241C112.531 76.5096 113.017 76.0299 113.629 75.685C114.251 75.3403 114.957 75.1725 115.747 75.1818C116.536 75.191 117.233 75.3751 117.836 75.7342C118.44 76.0933 118.914 76.5842 119.259 77.2069C119.604 77.8297 119.772 78.541 119.762 79.341C119.753 80.1409 119.569 80.8481 119.21 81.4626C118.85 82.0772 118.365 82.5568 117.753 82.9017C117.141 83.2466 116.44 83.4144 115.651 83.4052C114.861 83.396 114.159 83.2118 113.545 82.8526C112.941 82.4935 112.467 82.0026 112.122 81.3798C111.777 80.7571 111.61 80.0457 111.619 79.2458ZM113.139 79.2636C113.132 79.8075 113.233 80.2887 113.442 80.7072C113.661 81.1258 113.961 81.4547 114.342 81.6938C114.724 81.9329 115.165 82.0554 115.666 82.0613C116.168 82.0671 116.612 81.955 116.998 81.7248C117.385 81.4947 117.687 81.1728 117.906 80.7594C118.134 80.346 118.252 79.8673 118.258 79.3234C118.265 78.7688 118.159 78.2875 117.939 77.8796C117.731 77.4611 117.436 77.1323 117.055 76.8932C116.674 76.654 116.232 76.5315 115.731 76.5257C115.23 76.5198 114.786 76.632 114.399 76.8621C114.012 77.0923 113.704 77.414 113.476 77.8274C113.258 78.2302 113.145 78.7089 113.139 79.2636ZM123.365 83.3033L121.861 83.2857L121.953 75.4623L123.313 75.4782L123.459 76.68C123.709 76.2349 124.065 75.8923 124.527 75.6524C124.999 75.4019 125.512 75.2799 126.067 75.2863C127.091 75.2983 127.845 75.6005 128.329 76.1928C128.812 76.7852 129.048 77.5827 129.037 78.5853L128.981 83.3689L127.477 83.3514L127.529 78.9037C127.538 78.1144 127.374 77.5471 127.037 77.2018C126.7 76.8458 126.243 76.6645 125.667 76.6578C124.963 76.6495 124.411 76.8724 124.011 77.3265C123.622 77.7806 123.423 78.3917 123.414 79.1596L123.365 83.3033ZM132.661 83.604C132.352 83.6003 132.081 83.4905 131.849 83.2744C131.628 83.0478 131.519 82.7799 131.523 82.4706C131.526 82.1506 131.641 81.8853 131.868 81.6746C132.105 81.4533 132.378 81.3445 132.688 81.3481C132.997 81.3517 133.262 81.4668 133.484 81.6934C133.705 81.9094 133.814 82.1773 133.81 82.4973C133.807 82.8066 133.692 83.072 133.465 83.2933C133.239 83.504 132.971 83.6076 132.661 83.604ZM145.618 72.7146L145.492 83.5619L143.924 83.5435L144.051 72.6963L145.618 72.7146ZM140.554 73.3755L140.571 71.9356L149.099 72.0352L149.082 73.4751L140.554 73.3755ZM152.268 83.625L150.764 83.6075L150.901 71.8483L152.405 71.8658L152.345 77.0175C152.595 76.5937 152.951 76.2565 153.413 76.0059C153.875 75.7446 154.409 75.6175 155.017 75.6246C156.009 75.6362 156.747 75.9382 157.231 76.5305C157.715 77.1229 157.951 77.9204 157.939 78.923L157.883 83.7066L156.379 83.6891L156.431 79.2414C156.437 78.7081 156.362 78.2805 156.206 77.9587C156.061 77.6263 155.845 77.3837 155.559 77.231C155.283 77.0785 154.959 77 154.585 76.9957C154.105 76.9901 153.694 77.0919 153.35 77.3012C153.017 77.5107 152.763 77.7958 152.588 78.1564C152.413 78.517 152.323 78.9214 152.317 79.3693L152.268 83.625ZM163.82 83.968C163.062 83.9592 162.392 83.7807 161.81 83.4325C161.227 83.0737 160.774 82.5884 160.451 81.9765C160.127 81.354 159.97 80.6375 159.98 79.8269C159.989 79.0056 160.158 78.2875 160.485 77.6726C160.823 77.0579 161.276 76.5778 161.846 76.2324C162.426 75.8872 163.095 75.719 163.852 75.7278C164.599 75.7366 165.242 75.9041 165.782 76.2304C166.333 76.5569 166.754 77.0098 167.046 77.5893C167.349 78.1689 167.496 78.848 167.487 79.6266L167.48 80.1865L160.776 80.1242L160.82 79.1167L165.988 79.177C165.995 78.5264 165.804 78.0015 165.414 77.6022C165.024 77.203 164.498 76.9995 163.837 76.9918C163.336 76.9859 162.903 77.0928 162.537 77.3126C162.183 77.5218 161.907 77.8386 161.71 78.263C161.524 78.6768 161.427 79.1771 161.421 79.7637C161.41 80.7023 161.614 81.4301 162.035 81.947C162.456 82.4533 163.066 82.7111 163.866 82.7205C164.453 82.7273 164.934 82.6156 165.31 82.3853C165.686 82.155 165.941 81.8167 166.074 81.3702L167.482 81.3866C167.28 82.2163 166.862 82.8568 166.228 83.3081C165.593 83.7594 164.79 83.9794 163.82 83.968ZM170.094 76.0248L172.757 83.6724L171.814 84.9415L168.51 76.0063L170.094 76.0248ZM168.586 87.3359L168.6 86.104L169.608 86.1158C169.853 86.1187 170.078 86.0946 170.281 86.0437C170.484 86.0034 170.672 85.9042 170.844 85.7462C171.017 85.5989 171.164 85.3606 171.285 85.0313L174.686 76.0784L176.238 76.0966L172.43 85.6367C172.155 86.3056 171.814 86.787 171.405 87.0809C170.996 87.3748 170.493 87.5182 169.896 87.5113C169.65 87.5084 169.421 87.4897 169.208 87.4552C168.995 87.4314 168.788 87.3916 168.586 87.3359ZM185.815 84.225C185.058 84.2162 184.409 84.0379 183.869 83.6903C183.329 83.3319 182.914 82.8417 182.622 82.2196C182.341 81.5976 182.206 80.892 182.215 80.1027C182.224 79.3027 182.382 78.5952 182.688 77.9801C182.994 77.3543 183.426 76.8633 183.985 76.5071C184.544 76.151 185.207 75.9774 185.975 75.9863C186.583 75.9934 187.12 76.1277 187.587 76.3892C188.064 76.6401 188.433 77.0125 188.694 77.5062L188.755 72.2906L190.243 72.308L190.105 84.0831L188.761 84.0674L188.65 82.642C188.388 83.1617 188.004 83.5572 187.5 83.8287C187.006 84.1003 186.444 84.2324 185.815 84.225ZM186.135 82.8687C186.647 82.8747 187.086 82.7624 187.451 82.532C187.827 82.3017 188.119 81.9798 188.326 81.5662C188.534 81.1526 188.641 80.6738 188.647 80.1298C188.653 79.5859 188.558 79.1101 188.36 78.7024C188.162 78.284 187.878 77.9554 187.507 77.7164C187.147 77.4775 186.711 77.355 186.199 77.3491C185.687 77.3431 185.249 77.4606 184.883 77.7017C184.518 77.9321 184.237 78.2542 184.04 78.6679C183.843 79.071 183.742 79.5392 183.735 80.0725C183.729 80.6164 183.819 81.0975 184.007 81.5157C184.194 81.9339 184.467 82.2625 184.827 82.5014C185.187 82.7403 185.623 82.8627 186.135 82.8687ZM192.288 80.1884C192.298 79.3884 192.482 78.6812 192.841 78.0667C193.2 77.4522 193.686 76.9725 194.298 76.6276C194.921 76.2829 195.627 76.1151 196.416 76.1243C197.205 76.1336 197.902 76.3177 198.506 76.6768C199.11 77.0359 199.584 77.5268 199.929 78.1495C200.273 78.7723 200.441 79.4836 200.432 80.2835C200.422 81.0835 200.238 81.7907 199.879 82.4052C199.52 83.0197 199.034 83.4994 198.422 83.8443C197.81 84.1892 197.109 84.357 196.32 84.3478C195.531 84.3386 194.829 84.1543 194.214 83.7951C193.611 83.4361 193.136 82.9452 192.791 82.3224C192.447 81.6997 192.279 80.9883 192.288 80.1884ZM193.808 80.2062C193.802 80.7501 193.903 81.2313 194.111 81.6498C194.331 82.0684 194.631 82.3972 195.012 82.6364C195.393 82.8755 195.834 82.998 196.336 83.0039C196.837 83.0097 197.281 82.8976 197.668 82.6674C198.055 82.4372 198.357 82.1154 198.575 81.7019C198.804 81.2886 198.922 80.8099 198.928 80.266C198.934 79.7113 198.828 79.2301 198.609 78.8221C198.4 78.4037 198.105 78.0749 197.724 77.8357C197.343 77.5966 196.902 77.4741 196.4 77.4683C195.899 77.4624 195.455 77.5745 195.068 77.8047C194.682 78.0349 194.374 78.3566 194.145 78.77C193.927 79.1728 193.815 79.6515 193.808 80.2062ZM44.6416 104.385L43.1377 104.367L43.2291 96.5439L44.589 96.5598L44.735 97.7616C44.9855 97.3165 45.3416 96.974 45.8031 96.734C46.2754 96.4835 46.7888 96.3615 47.3435 96.368C48.3674 96.38 49.1212 96.6821 49.605 97.2745C50.0888 97.8668 50.3248 98.6643 50.3131 99.6669L50.2572 104.451L48.7533 104.433L48.8053 99.9853C48.8145 99.196 48.6505 98.6288 48.3131 98.2835C47.9759 97.9275 47.5194 97.7461 46.9434 97.7394C46.2395 97.7312 45.6875 97.9541 45.2875 98.4081C44.8981 98.8623 44.699 99.4733 44.69 100.241L44.6416 104.385ZM52.354 100.555C52.3633 99.7549 52.5476 99.0476 52.9068 98.4331C53.266 97.8186 53.7517 97.3389 54.3637 96.9941C54.9865 96.6493 55.6925 96.4815 56.4818 96.4908C57.271 96.5 57.9676 96.6841 58.5715 97.0432C59.1753 97.4023 59.6496 97.8932 59.9943 98.5159C60.3391 99.1387 60.5068 99.85 60.4974 100.65C60.4881 101.45 60.3038 102.157 59.9446 102.772C59.5854 103.386 59.0998 103.866 58.4877 104.211C57.8756 104.556 57.175 104.723 56.3857 104.714C55.5964 104.705 54.8945 104.521 54.28 104.162C53.6761 103.802 53.2019 103.312 52.8571 102.689C52.5124 102.066 52.3447 101.355 52.354 100.555ZM53.8739 100.573C53.8675 101.117 53.9686 101.598 54.1771 102.016C54.3962 102.435 54.6964 102.764 55.0776 103.003C55.4588 103.242 55.9001 103.364 56.4014 103.37C56.9027 103.376 57.3467 103.264 57.7334 103.034C58.1201 102.804 58.4226 102.482 58.6407 102.068C58.8696 101.655 58.9872 101.176 58.9935 100.632C59 100.078 58.8936 99.5965 58.6744 99.1886C58.4659 98.7701 58.1711 98.4413 57.7899 98.2022C57.4086 97.963 56.9674 97.8405 56.4661 97.8347C55.9648 97.8288 55.5208 97.941 55.134 98.1711C54.7473 98.4013 54.4395 98.7231 54.2107 99.1364C53.9926 99.5392 53.8804 100.018 53.8739 100.573ZM61.7777 96.7607L66.3534 96.8141L66.3386 98.078L61.763 98.0246L61.7777 96.7607ZM64.7261 104.62L63.2222 104.602L63.3422 94.3308L64.8461 94.3484L64.7261 104.62ZM74.4822 104.734L72.9783 104.716L73.1159 92.9409L74.6198 92.9584L74.5306 100.59L78.0454 96.9507L79.9332 96.9728L76.905 100.058L79.8258 104.796L78.0979 104.776L75.8523 101.133L74.5082 102.51L74.4822 104.734ZM83.0546 104.834L81.5507 104.816L81.6421 96.9928L83.002 97.0087L83.148 98.2104C83.3985 97.7653 83.7546 97.4228 84.2161 97.1829C84.6884 96.9324 85.2018 96.8104 85.7565 96.8168C86.7804 96.8288 87.5342 97.131 88.018 97.7233C88.5018 98.3157 88.7378 99.1132 88.7261 100.116L88.6702 104.899L87.1663 104.882L87.2183 100.434C87.2275 99.6449 87.0635 99.0776 86.7261 98.7323C86.3889 98.3763 85.9324 98.195 85.3564 98.1883C84.6525 98.18 84.1005 98.4029 83.7005 98.8569C83.3111 99.3111 83.112 99.9221 83.103 100.69L83.0546 104.834ZM90.767 101.004C90.7764 100.204 90.9606 99.4965 91.3198 98.882C91.679 98.2675 92.1647 97.7878 92.7767 97.4429C93.3995 97.0981 94.1055 96.9304 94.8948 96.9396C95.6841 96.9488 96.3806 97.133 96.9845 97.4921C97.5883 97.8511 98.0626 98.3421 98.4074 98.9648C98.7521 99.5875 98.9198 100.299 98.9105 101.099C98.9011 101.899 98.7168 102.606 98.3576 103.22C97.9984 103.835 97.5128 104.315 96.9007 104.66C96.2886 105.004 95.588 105.172 94.7987 105.163C94.0094 105.154 93.3075 104.97 92.693 104.61C92.0892 104.251 91.6149 103.76 91.2701 103.138C90.9254 102.515 90.7577 101.804 90.767 101.004ZM92.2869 101.021C92.2805 101.565 92.3816 102.047 92.5901 102.465C92.8092 102.884 93.1094 103.213 93.4906 103.452C93.8718 103.691 94.3131 103.813 94.8144 103.819C95.3157 103.825 95.7597 103.713 96.1464 103.483C96.5331 103.253 96.8356 102.931 97.0538 102.517C97.2826 102.104 97.4002 101.625 97.4066 101.081C97.413 100.527 97.3067 100.045 97.0874 99.6374C96.8789 99.2189 96.5841 98.8901 96.2029 98.651C95.8216 98.4119 95.3804 98.2894 94.8791 98.2835C94.3778 98.2777 93.9338 98.3898 93.547 98.62C93.1603 98.8501 92.8526 99.1719 92.6237 99.5853C92.4057 99.9881 92.2934 100.467 92.2869 101.021ZM102.33 105.059L99.8615 97.2057L101.413 97.2238L102.662 101.303C102.754 101.592 102.836 101.891 102.907 102.202C102.979 102.501 103.049 102.822 103.12 103.164C103.166 102.93 103.216 102.707 103.272 102.494C103.339 102.271 103.405 102.063 103.471 101.872C103.538 101.67 103.598 101.484 103.654 101.314L105.013 97.2659L106.549 97.2838L107.797 101.363C107.839 101.459 107.875 101.588 107.905 101.748C107.946 101.898 107.992 102.058 108.043 102.23C108.095 102.401 108.141 102.572 108.181 102.743C108.222 102.914 108.258 103.075 108.288 103.225C108.333 103.012 108.378 102.81 108.423 102.618C108.479 102.416 108.534 102.219 108.59 102.028C108.656 101.826 108.728 101.608 108.805 101.374L110.165 97.326L111.733 97.3444L108.969 105.137L107.546 105.12L106.235 100.912C106.111 100.516 106.009 100.168 105.927 99.8687C105.856 99.5585 105.8 99.2965 105.76 99.0827C105.715 99.2742 105.648 99.5134 105.56 99.8004C105.482 100.077 105.371 100.449 105.227 100.917L103.818 105.076L102.33 105.059ZM119.945 105.265L117.477 97.4115L119.028 97.4296L120.277 101.508C120.37 101.798 120.451 102.097 120.522 102.407C120.594 102.707 120.664 103.028 120.735 103.37C120.781 103.136 120.831 102.912 120.887 102.7C120.954 102.476 121.02 102.269 121.086 102.078C121.153 101.876 121.213 101.69 121.269 101.52L122.628 97.4717L124.164 97.4896L125.413 101.568C125.454 101.665 125.49 101.793 125.52 101.954C125.561 102.104 125.607 102.264 125.658 102.435C125.71 102.607 125.756 102.778 125.796 102.949C125.837 103.12 125.873 103.281 125.903 103.43C125.948 103.218 125.993 103.015 126.038 102.824C126.094 102.622 126.149 102.425 126.205 102.234C126.271 102.032 126.343 101.814 126.42 101.58L127.78 97.5319L129.348 97.5502L126.585 105.342L125.161 105.326L123.85 101.118C123.726 100.722 123.624 100.374 123.542 100.075C123.471 99.7643 123.415 99.5023 123.375 99.2885C123.33 99.48 123.263 99.7193 123.175 100.006C123.097 100.283 122.986 100.655 122.842 101.122L121.433 105.282L119.945 105.265ZM132.53 105.396L131.026 105.378L131.163 93.6191L132.667 93.6367L132.607 98.7884C132.857 98.3646 133.213 98.0274 133.675 97.7768C134.136 97.5155 134.671 97.3884 135.279 97.3955C136.271 97.4071 137.009 97.709 137.493 98.3014C137.977 98.8938 138.213 99.6912 138.201 100.694L138.145 105.478L136.641 105.46L136.693 101.012C136.699 100.479 136.624 100.051 136.468 99.7295C136.323 99.3971 136.107 99.1546 135.82 99.0019C135.545 98.8494 135.22 98.7709 134.847 98.7665C134.367 98.7609 133.955 98.8628 133.612 99.0721C133.278 99.2816 133.024 99.5666 132.849 99.9273C132.675 100.288 132.585 100.692 132.579 101.14L132.53 105.396ZM140.242 101.582C140.251 100.782 140.435 100.075 140.795 99.4601C141.154 98.8456 141.639 98.3659 142.251 98.021C142.874 97.6762 143.58 97.5085 144.37 97.5177C145.159 97.5269 145.855 97.7111 146.459 98.0702C147.063 98.4292 147.537 98.9201 147.882 99.5429C148.227 100.166 148.395 100.877 148.385 101.677C148.376 102.477 148.192 103.184 147.832 103.799C147.473 104.413 146.988 104.893 146.375 105.238C145.763 105.583 145.063 105.75 144.273 105.741C143.484 105.732 142.782 105.548 142.168 105.189C141.564 104.829 141.09 104.339 140.745 103.716C140.4 103.093 140.232 102.382 140.242 101.582ZM141.762 101.6C141.755 102.143 141.856 102.625 142.065 103.043C142.284 103.462 142.584 103.791 142.965 104.03C143.347 104.269 143.788 104.391 144.289 104.397C144.79 104.403 145.234 104.291 145.621 104.061C146.008 103.831 146.31 103.509 146.528 103.095C146.757 102.682 146.875 102.203 146.881 101.659C146.888 101.105 146.781 100.623 146.562 100.216C146.354 99.797 146.059 99.4682 145.678 99.2291C145.296 98.99 144.855 98.8675 144.354 98.8616C143.853 98.8558 143.409 98.9679 143.022 99.1981C142.635 99.4282 142.327 99.75 142.098 100.163C141.88 100.566 141.768 101.045 141.762 101.6ZM154.598 97.8452L159.174 97.8987L159.159 99.1626L154.583 99.1091L154.598 97.8452ZM157.547 105.704L156.043 105.687L156.163 95.4153L157.667 95.4329L157.547 105.704ZM160.368 101.817C160.377 101.017 160.562 100.31 160.921 99.6952C161.28 99.0807 161.766 98.601 162.378 98.2562C163 97.9114 163.706 97.7436 164.496 97.7529C165.285 97.7621 165.981 97.9462 166.585 98.3053C167.189 98.6644 167.663 99.1553 168.008 99.778C168.353 100.401 168.521 101.112 168.511 101.912C168.502 102.712 168.318 103.419 167.958 104.034C167.599 104.648 167.114 105.128 166.502 105.473C165.89 105.818 165.189 105.986 164.4 105.976C163.61 105.967 162.908 105.783 162.294 105.424C161.69 105.065 161.216 104.574 160.871 103.951C160.526 103.328 160.359 102.617 160.368 101.817ZM161.888 101.835C161.881 102.379 161.982 102.86 162.191 103.278C162.41 103.697 162.71 104.026 163.091 104.265C163.473 104.504 163.914 104.627 164.415 104.632C164.917 104.638 165.361 104.526 165.747 104.296C166.134 104.066 166.436 103.744 166.655 103.33C166.883 102.917 167.001 102.438 167.007 101.894C167.014 101.34 166.908 100.859 166.688 100.451C166.48 100.032 166.185 99.7034 165.804 99.4643C165.423 99.2251 164.981 99.1026 164.48 99.0968C163.979 99.0909 163.535 99.2031 163.148 99.4332C162.761 99.6634 162.453 99.9852 162.225 100.399C162.007 100.801 161.894 101.28 161.888 101.835ZM174.724 98.0804L179.3 98.1339L179.285 99.3978L174.71 99.3443L174.724 98.0804ZM177.673 105.939L176.169 105.922L176.289 95.6505L177.793 95.6681L177.673 105.939ZM185.61 98.1436L185.594 99.5195L184.922 99.5116C184.208 99.5033 183.64 99.7047 183.219 100.116C182.809 100.516 182.599 101.095 182.591 101.853L182.542 105.996L181.038 105.979L181.13 98.1712L182.537 98.1877L182.647 99.7571L182.503 99.7554C182.616 99.2447 182.877 98.8317 183.286 98.5165C183.695 98.1905 184.203 98.0311 184.811 98.0383C184.95 98.0399 185.078 98.052 185.195 98.0747C185.323 98.0869 185.461 98.1098 185.61 98.1436ZM192.908 98.2929L194.395 98.3102L194.304 106.134L192.96 106.118L192.814 104.932C192.585 105.335 192.229 105.661 191.746 105.912C191.263 106.162 190.734 106.284 190.158 106.277C189.251 106.267 188.551 105.976 188.056 105.405C187.572 104.823 187.336 104.052 187.347 103.092L187.404 98.2286L188.908 98.2461L188.857 102.614C188.847 103.446 189.005 104.045 189.332 104.412C189.669 104.767 190.126 104.949 190.702 104.956C191.395 104.964 191.925 104.756 192.293 104.334C192.661 103.901 192.849 103.263 192.859 102.421L192.908 98.2929ZM196.196 103.884L197.636 103.9C197.632 104.295 197.772 104.611 198.057 104.849C198.343 105.077 198.731 105.193 199.221 105.199C199.754 105.205 200.166 105.109 200.457 104.91C200.747 104.7 200.894 104.419 200.898 104.067C200.901 103.811 200.824 103.596 200.666 103.424C200.519 103.251 200.243 103.11 199.839 102.998L198.467 102.662C197.775 102.483 197.261 102.216 196.924 101.86C196.597 101.504 196.438 101.038 196.444 100.462C196.45 99.9824 196.577 99.5678 196.827 99.2187C197.087 98.8697 197.437 98.6018 197.876 98.4149C198.327 98.2282 198.84 98.1382 199.416 98.1449C199.992 98.1516 200.486 98.2587 200.9 98.4663C201.324 98.6739 201.652 98.9604 201.882 99.3258C202.123 99.6913 202.246 100.125 202.251 100.626L200.811 100.609C200.805 100.204 200.675 99.8877 200.422 99.6608C200.169 99.4338 199.813 99.3176 199.354 99.3122C198.885 99.3068 198.521 99.4039 198.262 99.6035C198.004 99.8032 197.873 100.079 197.869 100.431C197.863 100.954 198.242 101.315 199.008 101.516L200.38 101.868C201.04 102.025 201.533 102.277 201.859 102.622C202.186 102.956 202.346 103.411 202.34 103.987C202.334 104.478 202.195 104.908 201.924 105.279C201.654 105.638 201.282 105.917 200.811 106.114C200.35 106.3 199.805 106.39 199.175 106.383C198.258 106.372 197.53 106.139 196.991 105.685C196.453 105.231 196.188 104.63 196.196 103.884ZM203.721 98.4192L208.296 98.4727L208.281 99.7366L203.706 99.6831L203.721 98.4192ZM206.669 106.278L205.165 106.261L205.285 95.9893L206.789 96.0069L206.669 106.278ZM210.668 106.517C210.358 106.513 210.088 106.403 209.856 106.187C209.634 105.961 209.525 105.693 209.529 105.384C209.533 105.064 209.648 104.798 209.874 104.588C210.112 104.366 210.385 104.257 210.694 104.261C211.003 104.265 211.269 104.38 211.49 104.606C211.712 104.822 211.821 105.09 211.817 105.41C211.813 105.72 211.698 105.985 211.471 106.206C211.245 106.417 210.977 106.521 210.668 106.517Z" fill="#6C584C"/>
<ellipse cx="19.4395" cy="101.598" rx="5.076" ry="5.35909" transform="rotate(-89.3306 19.4395 101.598)" fill="#BF9264"/>
<ellipse cx="19.7217" cy="77.4479" rx="5.076" ry="5.35909" transform="rotate(-89.3306 19.7217 77.4479)" fill="#BF9264"/>
<ellipse cx="20.004" cy="53.298" rx="5.076" ry="5.35909" transform="rotate(-89.3306 20.004 53.298)" fill="#BF9264"/>
<ellipse cx="20.2862" cy="29.1476" rx="5.076" ry="5.35909" transform="rotate(-89.3306 20.2862 29.1476)" fill="#BF9264"/>
</g>
<defs>
<filter id="filter0_d_223_2820" x="0.887695" y="0.986816" width="236.225" height="126.528" filterUnits="userSpaceOnUse" color-interpolation-filters="sRGB">
<feFlood flood-opacity="0" result="BackgroundImageFix"/>
<feColorMatrix in="SourceAlpha" type="matrix" values="0 0 0 0 0 0 0 0 0 0 0 0 0 0 0 0 0 0 127 0" result="hardAlpha"/>
<feOffset dx="-2" dy="-2"/>
<feGaussianBlur stdDeviation="2"/>
<feComposite in2="hardAlpha" operator="out"/>
<feColorMatrix type="matrix" values="0 0 0 0 0.74902 0 0 0 0 0.572549 0 0 0 0 0.392157 0 0 0 0.11 0"/>
<feBlend mode="normal" in2="BackgroundImageFix" result="effect1_dropShadow_223_2820"/>
<feBlend mode="normal" in="SourceGraphic" in2="effect1_dropShadow_223_2820" result="shape"/>
</filter>
</defs>
</svg>
