<svg width="394" height="195" viewBox="0 0 394 195" fill="none" xmlns="http://www.w3.org/2000/svg">
<mask id="path-1-inside-1_223_2812" fill="white">
<rect y="14.1914" width="394" height="180" rx="5"/>
</mask>
<rect y="14.1914" width="394" height="180" rx="5" fill="#F5F3F3" stroke="#BF9264" stroke-width="16" mask="url(#path-1-inside-1_223_2812)"/>
<path d="M40.975 79.1914H36.925V60.6914H44.075C46.325 60.6914 48.0583 61.2164 49.275 62.2664C50.5083 63.2997 51.125 64.7747 51.125 66.6914C51.125 67.8914 50.8667 68.9164 50.35 69.7664C49.85 70.6164 49.0833 71.3081 48.05 71.8414L51.3 79.1914H46.875L44.1 72.7164H40.975V79.1914ZM40.975 64.2914V69.1664H44.05C44.9333 69.1664 45.6167 68.9497 46.1 68.5164C46.6 68.0831 46.85 67.4747 46.85 66.6914C46.85 65.9081 46.6083 65.3164 46.125 64.9164C45.6583 64.4997 44.975 64.2914 44.075 64.2914H40.975ZM59.333 79.5164C58.083 79.5164 56.9663 79.2331 55.983 78.6664C55.0163 78.0997 54.2497 77.3247 53.683 76.3414C53.133 75.3414 52.858 74.1997 52.858 72.9164C52.858 71.6164 53.1247 70.4747 53.658 69.4914C54.208 68.4914 54.9663 67.7081 55.933 67.1414C56.8997 66.5747 58.008 66.2914 59.258 66.2914C60.5747 66.2914 61.708 66.5664 62.658 67.1164C63.608 67.6497 64.3413 68.4164 64.858 69.4164C65.3747 70.3997 65.633 71.5747 65.633 72.9414V73.9164L54.883 73.9664L54.933 71.5914H61.808C61.808 70.9247 61.583 70.3997 61.133 70.0164C60.683 69.6164 60.0663 69.4164 59.283 69.4164C58.633 69.4164 58.0997 69.5414 57.683 69.7914C57.283 70.0414 56.983 70.4331 56.783 70.9664C56.583 71.4831 56.483 72.1497 56.483 72.9664C56.483 74.1331 56.7163 74.9997 57.183 75.5664C57.6663 76.1164 58.408 76.3914 59.408 76.3914C60.1413 76.3914 60.7497 76.2664 61.233 76.0164C61.7163 75.7664 62.0247 75.4164 62.158 74.9664H65.683C65.4663 76.3497 64.783 77.4581 63.633 78.2914C62.483 79.1081 61.0497 79.5164 59.333 79.5164ZM67.7629 75.2414H71.4129C71.4462 75.6747 71.6212 76.0164 71.9379 76.2664C72.2546 76.5164 72.7046 76.6414 73.2879 76.6414C73.8879 76.6414 74.3296 76.5414 74.6129 76.3414C74.8962 76.1414 75.0379 75.8831 75.0379 75.5664C75.0379 75.3831 74.9629 75.1997 74.8129 75.0164C74.6796 74.8331 74.3796 74.6914 73.9129 74.5914L71.6129 74.0914C70.4629 73.8414 69.6046 73.4414 69.0379 72.8914C68.4712 72.3247 68.1879 71.4914 68.1879 70.3914C68.1879 69.5247 68.4129 68.7914 68.8629 68.1914C69.3296 67.5747 69.9546 67.1081 70.7379 66.7914C71.5212 66.4581 72.4129 66.2914 73.4129 66.2914C74.3796 66.2914 75.2296 66.4664 75.9629 66.8164C76.7129 67.1664 77.2962 67.6581 77.7129 68.2914C78.1296 68.9247 78.3379 69.6664 78.3379 70.5164H74.6879C74.6879 70.0831 74.5629 69.7414 74.3129 69.4914C74.0629 69.2247 73.7046 69.0914 73.2379 69.0914C72.8046 69.0914 72.4546 69.1997 72.1879 69.4164C71.9379 69.6164 71.8129 69.8831 71.8129 70.2164C71.8129 70.7497 72.2629 71.1164 73.1629 71.3164L75.4879 71.8164C76.5212 72.0331 77.3046 72.4081 77.8379 72.9414C78.3879 73.4581 78.6629 74.2164 78.6629 75.2164C78.6629 76.0997 78.4296 76.8664 77.9629 77.5164C77.4962 78.1664 76.8462 78.6664 76.0129 79.0164C75.1796 79.3497 74.2212 79.5164 73.1379 79.5164C71.4879 79.5164 70.1796 79.1247 69.2129 78.3414C68.2462 77.5414 67.7629 76.5081 67.7629 75.2414ZM89.7246 66.6914H93.5746V79.1914H89.9496L89.6996 77.7914C89.3163 78.3081 88.7663 78.7247 88.0496 79.0414C87.3496 79.3581 86.6246 79.5164 85.8746 79.5164C84.4579 79.5164 83.3329 79.0747 82.4996 78.1914C81.6829 77.2914 81.2746 76.0747 81.2746 74.5414V66.6914H85.1246V73.1414C85.1246 74.1581 85.3079 74.9081 85.6746 75.3914C86.0413 75.8581 86.6163 76.0914 87.3996 76.0914C88.2329 76.0914 88.8246 75.8664 89.1746 75.4164C89.5413 74.9497 89.7246 74.2081 89.7246 73.1914V66.6914ZM101.064 79.1914H97.2137V60.3414H101.064V79.1914ZM103.527 66.6914H112.127V69.8914H103.527V66.6914ZM109.752 79.1914H105.902V62.8164H109.752V79.1914ZM117.257 79.5164C116.624 79.5164 116.082 79.2997 115.632 78.8664C115.182 78.4164 114.957 77.8831 114.957 77.2664C114.957 76.6331 115.182 76.0997 115.632 75.6664C116.082 75.2164 116.624 74.9914 117.257 74.9914C117.874 74.9914 118.407 75.2164 118.857 75.6664C119.324 76.0997 119.557 76.6331 119.557 77.2664C119.557 77.8831 119.324 78.4164 118.857 78.8664C118.407 79.2997 117.874 79.5164 117.257 79.5164ZM117.257 70.7164C116.624 70.7164 116.082 70.4997 115.632 70.0664C115.182 69.6164 114.957 69.0831 114.957 68.4664C114.957 67.8331 115.182 67.2997 115.632 66.8664C116.082 66.4164 116.624 66.1914 117.257 66.1914C117.874 66.1914 118.407 66.4164 118.857 66.8664C119.324 67.2997 119.557 67.8331 119.557 68.4664C119.557 69.0831 119.324 69.6164 118.857 70.0664C118.407 70.4997 117.874 70.7164 117.257 70.7164Z" fill="#95654D"/>
<path d="M39.88 110.191H38.344V98.6234H39.88L43.864 108.351L47.848 98.6234H49.416V110.191H47.88V105.615C47.88 105.071 47.88 104.607 47.88 104.223C47.88 103.839 47.8853 103.509 47.896 103.231C47.9067 102.954 47.9173 102.709 47.928 102.495C47.9387 102.271 47.9547 102.058 47.976 101.855L44.6 110.191H43.128L39.768 101.887C39.8107 102.165 39.8373 102.591 39.848 103.167C39.8693 103.743 39.88 104.437 39.88 105.247V110.191ZM51.8216 106.271C51.8216 105.471 51.9976 104.762 52.3496 104.143C52.7016 103.525 53.1816 103.039 53.7896 102.687C54.4083 102.335 55.1123 102.159 55.9016 102.159C56.691 102.159 57.3896 102.335 57.9976 102.687C58.6056 103.039 59.0856 103.525 59.4376 104.143C59.7896 104.762 59.9656 105.471 59.9656 106.271C59.9656 107.071 59.7896 107.781 59.4376 108.399C59.0856 109.018 58.6056 109.503 57.9976 109.855C57.3896 110.207 56.691 110.383 55.9016 110.383C55.1123 110.383 54.4083 110.207 53.7896 109.855C53.1816 109.503 52.7016 109.018 52.3496 108.399C51.9976 107.781 51.8216 107.071 51.8216 106.271ZM53.3416 106.271C53.3416 106.815 53.4483 107.295 53.6616 107.711C53.8856 108.127 54.1896 108.453 54.5736 108.687C54.9576 108.922 55.4003 109.039 55.9016 109.039C56.403 109.039 56.8456 108.922 57.2296 108.687C57.6136 108.453 57.9123 108.127 58.1256 107.711C58.3496 107.295 58.4616 106.815 58.4616 106.271C58.4616 105.717 58.3496 105.237 58.1256 104.831C57.9123 104.415 57.6136 104.09 57.2296 103.855C56.8456 103.621 56.403 103.503 55.9016 103.503C55.4003 103.503 54.9576 103.621 54.5736 103.855C54.1896 104.09 53.8856 104.415 53.6616 104.831C53.4483 105.237 53.3416 105.717 53.3416 106.271ZM61.4705 107.919H62.9105C62.9105 108.314 63.0545 108.629 63.3425 108.863C63.6305 109.087 64.0198 109.199 64.5105 109.199C65.0438 109.199 65.4545 109.098 65.7425 108.895C66.0305 108.682 66.1745 108.399 66.1745 108.047C66.1745 107.791 66.0945 107.578 65.9345 107.407C65.7852 107.237 65.5078 107.098 65.1025 106.991L63.7265 106.671C63.0332 106.501 62.5158 106.239 62.1745 105.887C61.8438 105.535 61.6785 105.071 61.6785 104.495C61.6785 104.015 61.8012 103.599 62.0465 103.247C62.3025 102.895 62.6492 102.623 63.0865 102.431C63.5345 102.239 64.0465 102.143 64.6225 102.143C65.1985 102.143 65.6945 102.245 66.1105 102.447C66.5372 102.65 66.8678 102.933 67.1025 103.295C67.3478 103.658 67.4758 104.09 67.4865 104.591H66.0465C66.0358 104.186 65.9025 103.871 65.6465 103.647C65.3905 103.423 65.0332 103.311 64.5745 103.311C64.1052 103.311 63.7425 103.413 63.4865 103.615C63.2305 103.818 63.1025 104.095 63.1025 104.447C63.1025 104.97 63.4865 105.327 64.2545 105.519L65.6305 105.855C66.2918 106.005 66.7878 106.25 67.1185 106.591C67.4492 106.922 67.6145 107.375 67.6145 107.951C67.6145 108.442 67.4812 108.874 67.2145 109.247C66.9478 109.61 66.5798 109.893 66.1105 110.095C65.6518 110.287 65.1078 110.383 64.4785 110.383C63.5612 110.383 62.8305 110.159 62.2865 109.711C61.7425 109.263 61.4705 108.666 61.4705 107.919ZM68.9304 102.367H73.5064V103.631H68.9304V102.367ZM71.9704 110.191H70.4664V99.9194H71.9704V110.191ZM81.6951 110.191H80.1911V102.367H81.5511L81.7111 103.567C81.9565 103.119 82.3085 102.773 82.7671 102.527C83.2365 102.271 83.7485 102.143 84.3031 102.143C85.3271 102.143 86.0845 102.437 86.5751 103.023C87.0658 103.61 87.3111 104.405 87.3111 105.407V110.191H85.8071V105.743C85.8071 104.954 85.6365 104.389 85.2951 104.047C84.9538 103.695 84.4951 103.519 83.9191 103.519C83.2151 103.519 82.6658 103.749 82.2711 104.207C81.8871 104.666 81.6951 105.279 81.6951 106.047V110.191ZM93.2503 110.383C92.4929 110.383 91.8209 110.213 91.2343 109.871C90.6476 109.519 90.1889 109.039 89.8583 108.431C89.5276 107.813 89.3623 107.098 89.3623 106.287C89.3623 105.466 89.5223 104.746 89.8423 104.127C90.1729 103.509 90.6209 103.023 91.1863 102.671C91.7623 102.319 92.4289 102.143 93.1863 102.143C93.9329 102.143 94.5783 102.303 95.1223 102.623C95.6769 102.943 96.1036 103.391 96.4023 103.967C96.7116 104.543 96.8663 105.221 96.8663 105.999V106.559L90.1623 106.575L90.1943 105.567H95.3623C95.3623 104.917 95.1649 104.394 94.7703 103.999C94.3756 103.605 93.8476 103.407 93.1863 103.407C92.6849 103.407 92.2529 103.519 91.8903 103.743C91.5383 103.957 91.2663 104.277 91.0743 104.703C90.8929 105.119 90.8023 105.621 90.8023 106.207C90.8023 107.146 91.0156 107.871 91.4423 108.383C91.8689 108.885 92.4823 109.135 93.2823 109.135C93.8689 109.135 94.3489 109.018 94.7223 108.783C95.0956 108.549 95.3463 108.207 95.4743 107.759H96.8823C96.6903 108.591 96.2796 109.237 95.6503 109.695C95.0209 110.154 94.2209 110.383 93.2503 110.383ZM100.441 110.191L97.8805 102.367H99.4325L100.729 106.431C100.825 106.719 100.91 107.018 100.985 107.327C101.059 107.626 101.134 107.946 101.209 108.287C101.251 108.053 101.299 107.829 101.353 107.615C101.417 107.391 101.481 107.183 101.545 106.991C101.609 106.789 101.667 106.602 101.721 106.431L103.033 102.367H104.569L105.865 106.431C105.907 106.527 105.945 106.655 105.977 106.815C106.019 106.965 106.067 107.125 106.121 107.295C106.174 107.466 106.222 107.637 106.265 107.807C106.307 107.978 106.345 108.138 106.377 108.287C106.419 108.074 106.462 107.871 106.505 107.679C106.558 107.477 106.611 107.279 106.665 107.087C106.729 106.885 106.798 106.666 106.873 106.431L108.185 102.367H109.753L107.081 110.191H105.657L104.297 105.999C104.169 105.605 104.062 105.258 103.977 104.959C103.902 104.65 103.843 104.389 103.801 104.175C103.758 104.367 103.694 104.607 103.609 104.895C103.534 105.173 103.427 105.546 103.289 106.015L101.929 110.191H100.441ZM110.65 106.287C110.65 105.466 110.81 104.746 111.13 104.127C111.461 103.509 111.914 103.023 112.49 102.671C113.066 102.319 113.733 102.143 114.49 102.143C115.472 102.143 116.288 102.405 116.938 102.927C117.589 103.45 117.978 104.143 118.106 105.007H116.602C116.474 104.506 116.224 104.127 115.85 103.871C115.477 103.615 115.04 103.487 114.538 103.487C114.069 103.487 113.653 103.605 113.29 103.839C112.928 104.063 112.645 104.383 112.442 104.799C112.24 105.215 112.138 105.706 112.138 106.271C112.138 106.837 112.234 107.327 112.426 107.743C112.618 108.149 112.89 108.469 113.242 108.703C113.594 108.927 114.005 109.039 114.474 109.039C115.008 109.039 115.466 108.906 115.85 108.639C116.234 108.373 116.49 108.01 116.618 107.551H118.122C118.026 108.117 117.808 108.613 117.466 109.039C117.136 109.455 116.709 109.786 116.186 110.031C115.674 110.266 115.104 110.383 114.474 110.383C113.706 110.383 113.034 110.213 112.458 109.871C111.893 109.53 111.45 109.055 111.13 108.447C110.81 107.829 110.65 107.109 110.65 106.287ZM119.677 106.271C119.677 105.471 119.853 104.762 120.205 104.143C120.557 103.525 121.037 103.039 121.645 102.687C122.264 102.335 122.968 102.159 123.757 102.159C124.547 102.159 125.245 102.335 125.853 102.687C126.461 103.039 126.941 103.525 127.293 104.143C127.645 104.762 127.821 105.471 127.821 106.271C127.821 107.071 127.645 107.781 127.293 108.399C126.941 109.018 126.461 109.503 125.853 109.855C125.245 110.207 124.547 110.383 123.757 110.383C122.968 110.383 122.264 110.207 121.645 109.855C121.037 109.503 120.557 109.018 120.205 108.399C119.853 107.781 119.677 107.071 119.677 106.271ZM121.197 106.271C121.197 106.815 121.304 107.295 121.517 107.711C121.741 108.127 122.045 108.453 122.429 108.687C122.813 108.922 123.256 109.039 123.757 109.039C124.259 109.039 124.701 108.922 125.085 108.687C125.469 108.453 125.768 108.127 125.981 107.711C126.205 107.295 126.317 106.815 126.317 106.271C126.317 105.717 126.205 105.237 125.981 104.831C125.768 104.415 125.469 104.09 125.085 103.855C124.701 103.621 124.259 103.503 123.757 103.503C123.256 103.503 122.813 103.621 122.429 103.855C122.045 104.09 121.741 104.415 121.517 104.831C121.304 105.237 121.197 105.717 121.197 106.271ZM131.47 110.191H129.966V102.367H131.31L131.518 103.807L131.326 103.679C131.486 103.242 131.779 102.879 132.206 102.591C132.643 102.293 133.171 102.143 133.79 102.143C134.483 102.143 135.059 102.33 135.518 102.703C135.977 103.077 136.275 103.573 136.414 104.191H136.142C136.249 103.573 136.542 103.077 137.022 102.703C137.502 102.33 138.094 102.143 138.798 102.143C139.694 102.143 140.398 102.405 140.91 102.927C141.422 103.45 141.678 104.165 141.678 105.071V110.191H140.206V105.439C140.206 104.821 140.046 104.346 139.726 104.015C139.417 103.674 138.995 103.503 138.462 103.503C138.089 103.503 137.758 103.589 137.47 103.759C137.193 103.919 136.974 104.154 136.814 104.463C136.654 104.773 136.574 105.135 136.574 105.551V110.191H135.086V105.423C135.086 104.805 134.931 104.335 134.622 104.015C134.313 103.685 133.891 103.519 133.358 103.519C132.985 103.519 132.654 103.605 132.366 103.775C132.089 103.935 131.87 104.17 131.71 104.479C131.55 104.778 131.47 105.135 131.47 105.551V110.191ZM147.619 110.383C146.862 110.383 146.19 110.213 145.603 109.871C145.016 109.519 144.558 109.039 144.227 108.431C143.896 107.813 143.731 107.098 143.731 106.287C143.731 105.466 143.891 104.746 144.211 104.127C144.542 103.509 144.99 103.023 145.555 102.671C146.131 102.319 146.798 102.143 147.555 102.143C148.302 102.143 148.947 102.303 149.491 102.623C150.046 102.943 150.472 103.391 150.771 103.967C151.08 104.543 151.235 105.221 151.235 105.999V106.559L144.531 106.575L144.563 105.567H149.731C149.731 104.917 149.534 104.394 149.139 103.999C148.744 103.605 148.216 103.407 147.555 103.407C147.054 103.407 146.622 103.519 146.259 103.743C145.907 103.957 145.635 104.277 145.443 104.703C145.262 105.119 145.171 105.621 145.171 106.207C145.171 107.146 145.384 107.871 145.811 108.383C146.238 108.885 146.851 109.135 147.651 109.135C148.238 109.135 148.718 109.018 149.091 108.783C149.464 108.549 149.715 108.207 149.843 107.759H151.251C151.059 108.591 150.648 109.237 150.019 109.695C149.39 110.154 148.59 110.383 147.619 110.383ZM157.875 102.303V103.679H157.203C156.488 103.679 155.923 103.887 155.507 104.303C155.102 104.709 154.899 105.29 154.899 106.047V110.191H153.395V102.383H154.803L154.931 103.951H154.787C154.894 103.439 155.15 103.023 155.555 102.703C155.96 102.373 156.467 102.207 157.075 102.207C157.214 102.207 157.342 102.218 157.459 102.239C157.587 102.25 157.726 102.271 157.875 102.303ZM159.125 107.919H160.565C160.565 108.314 160.709 108.629 160.997 108.863C161.285 109.087 161.675 109.199 162.165 109.199C162.699 109.199 163.109 109.098 163.397 108.895C163.685 108.682 163.829 108.399 163.829 108.047C163.829 107.791 163.749 107.578 163.589 107.407C163.44 107.237 163.163 107.098 162.757 106.991L161.381 106.671C160.688 106.501 160.171 106.239 159.829 105.887C159.499 105.535 159.333 105.071 159.333 104.495C159.333 104.015 159.456 103.599 159.701 103.247C159.957 102.895 160.304 102.623 160.741 102.431C161.189 102.239 161.701 102.143 162.277 102.143C162.853 102.143 163.349 102.245 163.765 102.447C164.192 102.65 164.523 102.933 164.757 103.295C165.003 103.658 165.131 104.09 165.141 104.591H163.701C163.691 104.186 163.557 103.871 163.301 103.647C163.045 103.423 162.688 103.311 162.229 103.311C161.76 103.311 161.397 103.413 161.141 103.615C160.885 103.818 160.757 104.095 160.757 104.447C160.757 104.97 161.141 105.327 161.909 105.519L163.285 105.855C163.947 106.005 164.443 106.25 164.773 106.591C165.104 106.922 165.269 107.375 165.269 107.951C165.269 108.442 165.136 108.874 164.869 109.247C164.603 109.61 164.235 109.893 163.765 110.095C163.307 110.287 162.763 110.383 162.133 110.383C161.216 110.383 160.485 110.159 159.941 109.711C159.397 109.263 159.125 108.666 159.125 107.919ZM173.808 110.191H172.304V98.4154H173.808V110.191ZM175.99 106.271C175.99 105.471 176.166 104.762 176.518 104.143C176.87 103.525 177.35 103.039 177.958 102.687C178.577 102.335 179.281 102.159 180.07 102.159C180.86 102.159 181.558 102.335 182.166 102.687C182.774 103.039 183.254 103.525 183.606 104.143C183.958 104.762 184.134 105.471 184.134 106.271C184.134 107.071 183.958 107.781 183.606 108.399C183.254 109.018 182.774 109.503 182.166 109.855C181.558 110.207 180.86 110.383 180.07 110.383C179.281 110.383 178.577 110.207 177.958 109.855C177.35 109.503 176.87 109.018 176.518 108.399C176.166 107.781 175.99 107.071 175.99 106.271ZM177.51 106.271C177.51 106.815 177.617 107.295 177.83 107.711C178.054 108.127 178.358 108.453 178.742 108.687C179.126 108.922 179.569 109.039 180.07 109.039C180.572 109.039 181.014 108.922 181.398 108.687C181.782 108.453 182.081 108.127 182.294 107.711C182.518 107.295 182.63 106.815 182.63 106.271C182.63 105.717 182.518 105.237 182.294 104.831C182.081 104.415 181.782 104.09 181.398 103.855C181.014 103.621 180.572 103.503 180.07 103.503C179.569 103.503 179.126 103.621 178.742 103.855C178.358 104.09 178.054 104.415 177.83 104.831C177.617 105.237 177.51 105.717 177.51 106.271ZM185.639 107.919H187.079C187.079 108.314 187.223 108.629 187.511 108.863C187.799 109.087 188.189 109.199 188.679 109.199C189.213 109.199 189.623 109.098 189.911 108.895C190.199 108.682 190.343 108.399 190.343 108.047C190.343 107.791 190.263 107.578 190.103 107.407C189.954 107.237 189.677 107.098 189.271 106.991L187.895 106.671C187.202 106.501 186.685 106.239 186.343 105.887C186.013 105.535 185.847 105.071 185.847 104.495C185.847 104.015 185.97 103.599 186.215 103.247C186.471 102.895 186.818 102.623 187.255 102.431C187.703 102.239 188.215 102.143 188.791 102.143C189.367 102.143 189.863 102.245 190.279 102.447C190.706 102.65 191.037 102.933 191.271 103.295C191.517 103.658 191.645 104.09 191.655 104.591H190.215C190.205 104.186 190.071 103.871 189.815 103.647C189.559 103.423 189.202 103.311 188.743 103.311C188.274 103.311 187.911 103.413 187.655 103.615C187.399 103.818 187.271 104.095 187.271 104.447C187.271 104.97 187.655 105.327 188.423 105.519L189.799 105.855C190.461 106.005 190.957 106.25 191.287 106.591C191.618 106.922 191.783 107.375 191.783 107.951C191.783 108.442 191.65 108.874 191.383 109.247C191.117 109.61 190.749 109.893 190.279 110.095C189.821 110.287 189.277 110.383 188.647 110.383C187.73 110.383 186.999 110.159 186.455 109.711C185.911 109.263 185.639 108.666 185.639 107.919ZM197.307 110.383C196.55 110.383 195.878 110.213 195.291 109.871C194.704 109.519 194.246 109.039 193.915 108.431C193.584 107.813 193.419 107.098 193.419 106.287C193.419 105.466 193.579 104.746 193.899 104.127C194.23 103.509 194.678 103.023 195.243 102.671C195.819 102.319 196.486 102.143 197.243 102.143C197.99 102.143 198.635 102.303 199.179 102.623C199.734 102.943 200.16 103.391 200.459 103.967C200.768 104.543 200.923 105.221 200.923 105.999V106.559L194.219 106.575L194.251 105.567H199.419C199.419 104.917 199.222 104.394 198.827 103.999C198.432 103.605 197.904 103.407 197.243 103.407C196.742 103.407 196.31 103.519 195.947 103.743C195.595 103.957 195.323 104.277 195.131 104.703C194.95 105.119 194.859 105.621 194.859 106.207C194.859 107.146 195.072 107.871 195.499 108.383C195.926 108.885 196.539 109.135 197.339 109.135C197.926 109.135 198.406 109.018 198.779 108.783C199.152 108.549 199.403 108.207 199.531 107.759H200.939C200.747 108.591 200.336 109.237 199.707 109.695C199.078 110.154 198.278 110.383 197.307 110.383ZM209.442 110.191H207.938V102.367H209.282L209.49 103.807L209.298 103.679C209.458 103.242 209.751 102.879 210.178 102.591C210.615 102.293 211.143 102.143 211.762 102.143C212.455 102.143 213.031 102.33 213.49 102.703C213.949 103.077 214.247 103.573 214.386 104.191H214.114C214.221 103.573 214.514 103.077 214.994 102.703C215.474 102.33 216.066 102.143 216.77 102.143C217.666 102.143 218.37 102.405 218.882 102.927C219.394 103.45 219.65 104.165 219.65 105.071V110.191H218.178V105.439C218.178 104.821 218.018 104.346 217.698 104.015C217.389 103.674 216.967 103.503 216.434 103.503C216.061 103.503 215.73 103.589 215.442 103.759C215.165 103.919 214.946 104.154 214.786 104.463C214.626 104.773 214.546 105.135 214.546 105.551V110.191H213.058V105.423C213.058 104.805 212.903 104.335 212.594 104.015C212.285 103.685 211.863 103.519 211.33 103.519C210.957 103.519 210.626 103.605 210.338 103.775C210.061 103.935 209.842 104.17 209.682 104.479C209.522 104.778 209.442 105.135 209.442 105.551V110.191ZM221.703 106.271C221.703 105.471 221.879 104.762 222.231 104.143C222.583 103.525 223.063 103.039 223.671 102.687C224.29 102.335 224.994 102.159 225.783 102.159C226.572 102.159 227.271 102.335 227.879 102.687C228.487 103.039 228.967 103.525 229.319 104.143C229.671 104.762 229.847 105.471 229.847 106.271C229.847 107.071 229.671 107.781 229.319 108.399C228.967 109.018 228.487 109.503 227.879 109.855C227.271 110.207 226.572 110.383 225.783 110.383C224.994 110.383 224.29 110.207 223.671 109.855C223.063 109.503 222.583 109.018 222.231 108.399C221.879 107.781 221.703 107.071 221.703 106.271ZM223.223 106.271C223.223 106.815 223.33 107.295 223.543 107.711C223.767 108.127 224.071 108.453 224.455 108.687C224.839 108.922 225.282 109.039 225.783 109.039C226.284 109.039 226.727 108.922 227.111 108.687C227.495 108.453 227.794 108.127 228.007 107.711C228.231 107.295 228.343 106.815 228.343 106.271C228.343 105.717 228.231 105.237 228.007 104.831C227.794 104.415 227.495 104.09 227.111 103.855C226.727 103.621 226.284 103.503 225.783 103.503C225.282 103.503 224.839 103.621 224.455 103.855C224.071 104.09 223.767 104.415 223.543 104.831C223.33 105.237 223.223 105.717 223.223 106.271ZM233.496 110.191H231.992V102.367H233.352L233.512 103.567C233.757 103.119 234.109 102.773 234.568 102.527C235.037 102.271 235.549 102.143 236.104 102.143C237.128 102.143 237.885 102.437 238.376 103.023C238.866 103.61 239.112 104.405 239.112 105.407V110.191H237.608V105.743C237.608 104.954 237.437 104.389 237.096 104.047C236.754 103.695 236.296 103.519 235.72 103.519C235.016 103.519 234.466 103.749 234.072 104.207C233.688 104.666 233.496 105.279 233.496 106.047V110.191ZM245.051 110.383C244.294 110.383 243.622 110.213 243.035 109.871C242.448 109.519 241.99 109.039 241.659 108.431C241.328 107.813 241.163 107.098 241.163 106.287C241.163 105.466 241.323 104.746 241.643 104.127C241.974 103.509 242.422 103.023 242.987 102.671C243.563 102.319 244.23 102.143 244.987 102.143C245.734 102.143 246.379 102.303 246.923 102.623C247.478 102.943 247.904 103.391 248.203 103.967C248.512 104.543 248.667 105.221 248.667 105.999V106.559L241.963 106.575L241.995 105.567H247.163C247.163 104.917 246.966 104.394 246.571 103.999C246.176 103.605 245.648 103.407 244.987 103.407C244.486 103.407 244.054 103.519 243.691 103.743C243.339 103.957 243.067 104.277 242.875 104.703C242.694 105.119 242.603 105.621 242.603 106.207C242.603 107.146 242.816 107.871 243.243 108.383C243.67 108.885 244.283 109.135 245.083 109.135C245.67 109.135 246.15 109.018 246.523 108.783C246.896 108.549 247.147 108.207 247.275 107.759H248.683C248.491 108.591 248.08 109.237 247.451 109.695C246.822 110.154 246.022 110.383 245.051 110.383ZM251.232 102.367L253.984 109.983L253.056 111.263L249.648 102.367H251.232ZM249.856 113.695V112.463H250.864C251.109 112.463 251.333 112.437 251.536 112.383C251.739 112.341 251.925 112.239 252.096 112.079C252.267 111.93 252.411 111.69 252.528 111.359L255.824 102.367H257.376L253.68 111.951C253.413 112.623 253.077 113.109 252.672 113.407C252.267 113.706 251.765 113.855 251.168 113.855C250.923 113.855 250.693 113.839 250.48 113.807C250.267 113.786 250.059 113.749 249.856 113.695ZM263.4 106.271C263.4 105.471 263.576 104.762 263.928 104.143C264.28 103.525 264.76 103.039 265.368 102.687C265.986 102.335 266.69 102.159 267.48 102.159C268.269 102.159 268.968 102.335 269.576 102.687C270.184 103.039 270.664 103.525 271.016 104.143C271.368 104.762 271.544 105.471 271.544 106.271C271.544 107.071 271.368 107.781 271.016 108.399C270.664 109.018 270.184 109.503 269.576 109.855C268.968 110.207 268.269 110.383 267.48 110.383C266.69 110.383 265.986 110.207 265.368 109.855C264.76 109.503 264.28 109.018 263.928 108.399C263.576 107.781 263.4 107.071 263.4 106.271ZM264.92 106.271C264.92 106.815 265.026 107.295 265.24 107.711C265.464 108.127 265.768 108.453 266.152 108.687C266.536 108.922 266.978 109.039 267.48 109.039C267.981 109.039 268.424 108.922 268.808 108.687C269.192 108.453 269.49 108.127 269.704 107.711C269.928 107.295 270.04 106.815 270.04 106.271C270.04 105.717 269.928 105.237 269.704 104.831C269.49 104.415 269.192 104.09 268.808 103.855C268.424 103.621 267.981 103.503 267.48 103.503C266.978 103.503 266.536 103.621 266.152 103.855C265.768 104.09 265.464 104.415 265.24 104.831C265.026 105.237 264.92 105.717 264.92 106.271ZM278.169 102.303V103.679H277.497C276.782 103.679 276.217 103.887 275.801 104.303C275.395 104.709 275.193 105.29 275.193 106.047V110.191H273.689V102.383H275.097L275.225 103.951H275.081C275.187 103.439 275.443 103.023 275.849 102.703C276.254 102.373 276.761 102.207 277.369 102.207C277.507 102.207 277.635 102.218 277.753 102.239C277.881 102.25 278.019 102.271 278.169 102.303ZM284.418 106.079C284.418 105.343 284.568 104.682 284.866 104.095C285.165 103.498 285.592 103.023 286.146 102.671C286.701 102.319 287.357 102.143 288.114 102.143C288.818 102.143 289.421 102.314 289.922 102.655C290.424 102.986 290.781 103.45 290.994 104.047L290.802 104.255L290.962 102.367H292.306V109.871C292.306 110.693 292.146 111.402 291.826 111.999C291.506 112.607 291.053 113.077 290.466 113.407C289.88 113.738 289.186 113.903 288.386 113.903C287.32 113.903 286.445 113.621 285.762 113.055C285.08 112.49 284.664 111.711 284.514 110.719H286.018C286.114 111.295 286.37 111.743 286.786 112.063C287.202 112.383 287.736 112.543 288.386 112.543C289.122 112.543 289.709 112.319 290.146 111.871C290.594 111.434 290.818 110.842 290.818 110.095V107.887L291.01 108.095C290.808 108.682 290.44 109.146 289.906 109.487C289.373 109.818 288.754 109.983 288.05 109.983C287.304 109.983 286.658 109.813 286.114 109.471C285.57 109.119 285.149 108.65 284.85 108.063C284.562 107.477 284.418 106.815 284.418 106.079ZM285.922 106.047C285.922 106.538 286.018 106.981 286.21 107.375C286.413 107.77 286.69 108.085 287.042 108.319C287.405 108.554 287.826 108.671 288.306 108.671C288.818 108.671 289.256 108.559 289.618 108.335C289.981 108.111 290.258 107.802 290.45 107.407C290.653 107.013 290.754 106.559 290.754 106.047C290.754 105.535 290.658 105.087 290.466 104.703C290.274 104.319 289.997 104.015 289.634 103.791C289.272 103.567 288.834 103.455 288.322 103.455C287.821 103.455 287.389 103.573 287.026 103.807C286.674 104.042 286.402 104.357 286.21 104.751C286.018 105.135 285.922 105.567 285.922 106.047ZM294.957 110.191V102.367H296.461V110.191H294.957ZM295.693 100.511C295.426 100.511 295.191 100.415 294.989 100.223C294.797 100.021 294.701 99.7861 294.701 99.5194C294.701 99.2421 294.797 99.0074 294.989 98.8154C295.191 98.6234 295.426 98.5274 295.693 98.5274C295.97 98.5274 296.205 98.6234 296.397 98.8154C296.589 99.0074 296.685 99.2421 296.685 99.5194C296.685 99.7861 296.589 100.021 296.397 100.223C296.205 100.415 295.97 100.511 295.693 100.511ZM301.316 110.191L298.164 102.367H299.764L301.476 106.735C301.615 107.098 301.738 107.445 301.844 107.775C301.951 108.095 302.036 108.373 302.1 108.607C302.175 108.341 302.266 108.047 302.372 107.727C302.49 107.407 302.618 107.077 302.756 106.735L304.5 102.367H306.068L302.804 110.191H301.316ZM310.761 110.383C310.004 110.383 309.332 110.213 308.745 109.871C308.159 109.519 307.7 109.039 307.369 108.431C307.039 107.813 306.873 107.098 306.873 106.287C306.873 105.466 307.033 104.746 307.353 104.127C307.684 103.509 308.132 103.023 308.697 102.671C309.273 102.319 309.94 102.143 310.697 102.143C311.444 102.143 312.089 102.303 312.633 102.623C313.188 102.943 313.615 103.391 313.913 103.967C314.223 104.543 314.377 105.221 314.377 105.999V106.559L307.673 106.575L307.705 105.567H312.873C312.873 104.917 312.676 104.394 312.281 103.999C311.887 103.605 311.359 103.407 310.697 103.407C310.196 103.407 309.764 103.519 309.401 103.743C309.049 103.957 308.777 104.277 308.585 104.703C308.404 105.119 308.313 105.621 308.313 106.207C308.313 107.146 308.527 107.871 308.953 108.383C309.38 108.885 309.993 109.135 310.793 109.135C311.38 109.135 311.86 109.018 312.233 108.783C312.607 108.549 312.857 108.207 312.985 107.759H314.393C314.201 108.591 313.791 109.237 313.161 109.695C312.532 110.154 311.732 110.383 310.761 110.383ZM326.8 102.367H328.288V110.191H326.944L326.784 109.007C326.56 109.413 326.208 109.743 325.728 109.999C325.248 110.255 324.72 110.383 324.144 110.383C323.238 110.383 322.534 110.101 322.032 109.535C321.542 108.959 321.296 108.191 321.296 107.231V102.367H322.8V106.735C322.8 107.567 322.966 108.165 323.296 108.527C323.638 108.879 324.096 109.055 324.672 109.055C325.366 109.055 325.894 108.842 326.256 108.415C326.619 107.978 326.8 107.338 326.8 106.495V102.367ZM330.95 113.695V102.367H332.31L332.422 103.775C332.678 103.231 333.057 102.826 333.558 102.559C334.07 102.282 334.636 102.143 335.254 102.143C336.001 102.143 336.646 102.319 337.19 102.671C337.734 103.013 338.15 103.493 338.438 104.111C338.737 104.719 338.886 105.423 338.886 106.223C338.886 107.023 338.742 107.738 338.454 108.367C338.177 108.997 337.766 109.493 337.222 109.855C336.689 110.218 336.033 110.399 335.254 110.399C334.625 110.399 334.065 110.271 333.574 110.015C333.084 109.759 332.71 109.391 332.454 108.911V113.695H330.95ZM332.47 106.287C332.47 106.81 332.566 107.285 332.758 107.711C332.961 108.127 333.244 108.453 333.606 108.687C333.98 108.922 334.422 109.039 334.934 109.039C335.446 109.039 335.884 108.922 336.246 108.687C336.609 108.442 336.886 108.111 337.078 107.695C337.281 107.279 337.382 106.81 337.382 106.287C337.382 105.743 337.281 105.263 337.078 104.847C336.886 104.431 336.609 104.106 336.246 103.871C335.884 103.637 335.446 103.519 334.934 103.519C334.422 103.519 333.98 103.637 333.606 103.871C333.244 104.106 332.961 104.431 332.758 104.847C332.566 105.263 332.47 105.743 332.47 106.287ZM39.768 132.191L37.208 124.367H38.76L40.056 128.431C40.152 128.719 40.2373 129.018 40.312 129.327C40.3867 129.626 40.4613 129.946 40.536 130.287C40.5787 130.053 40.6267 129.829 40.68 129.615C40.744 129.391 40.808 129.183 40.872 128.991C40.936 128.789 40.9947 128.602 41.048 128.431L42.36 124.367H43.896L45.192 128.431C45.2347 128.527 45.272 128.655 45.304 128.815C45.3467 128.965 45.3947 129.125 45.448 129.295C45.5013 129.466 45.5493 129.637 45.592 129.807C45.6347 129.978 45.672 130.138 45.704 130.287C45.7467 130.074 45.7893 129.871 45.832 129.679C45.8853 129.477 45.9387 129.279 45.992 129.087C46.056 128.885 46.1253 128.666 46.2 128.431L47.512 124.367H49.08L46.408 132.191H44.984L43.624 127.999C43.496 127.605 43.3893 127.258 43.304 126.959C43.2293 126.65 43.1707 126.389 43.128 126.175C43.0853 126.367 43.0213 126.607 42.936 126.895C42.8613 127.173 42.7547 127.546 42.616 128.015L41.256 132.191H39.768ZM50.8492 132.191V124.367H52.3532V132.191H50.8492ZM51.5852 122.511C51.3186 122.511 51.0839 122.415 50.8812 122.223C50.6892 122.021 50.5932 121.786 50.5932 121.519C50.5932 121.242 50.6892 121.007 50.8812 120.815C51.0839 120.623 51.3186 120.527 51.5852 120.527C51.8626 120.527 52.0972 120.623 52.2892 120.815C52.4812 121.007 52.5772 121.242 52.5772 121.519C52.5772 121.786 52.4812 122.021 52.2892 122.223C52.0972 122.415 51.8626 122.511 51.5852 122.511ZM54.1847 124.367H58.7607V125.631H54.1847V124.367ZM57.2247 132.191H55.7207V121.919H57.2247V132.191ZM62.0945 132.175H60.5905V120.415H62.0945V125.567C62.3398 125.141 62.6918 124.799 63.1505 124.543C63.6092 124.277 64.1425 124.143 64.7505 124.143C65.7425 124.143 66.4838 124.437 66.9745 125.023C67.4652 125.61 67.7105 126.405 67.7105 127.407V132.191H66.2065V127.743C66.2065 127.21 66.1265 126.783 65.9665 126.463C65.8172 126.133 65.5985 125.893 65.3105 125.743C65.0332 125.594 64.7078 125.519 64.3345 125.519C63.8545 125.519 63.4438 125.626 63.1025 125.839C62.7718 126.053 62.5212 126.341 62.3505 126.703C62.1798 127.066 62.0945 127.471 62.0945 127.919V132.175ZM70.2736 132.191V124.367H71.7776V132.191H70.2736ZM71.0096 122.511C70.743 122.511 70.5083 122.415 70.3056 122.223C70.1136 122.021 70.0176 121.786 70.0176 121.519C70.0176 121.242 70.1136 121.007 70.3056 120.815C70.5083 120.623 70.743 120.527 71.0096 120.527C71.287 120.527 71.5216 120.623 71.7136 120.815C71.9056 121.007 72.0016 121.242 72.0016 121.519C72.0016 121.786 71.9056 122.021 71.7136 122.223C71.5216 122.415 71.287 122.511 71.0096 122.511ZM75.9451 132.191H74.4411V124.367H75.8011L75.9611 125.567C76.2065 125.119 76.5585 124.773 77.0171 124.527C77.4865 124.271 77.9985 124.143 78.5531 124.143C79.5771 124.143 80.3345 124.437 80.8251 125.023C81.3158 125.61 81.5611 126.405 81.5611 127.407V132.191H80.0571V127.743C80.0571 126.954 79.8865 126.389 79.5451 126.047C79.2038 125.695 78.7451 125.519 78.1691 125.519C77.4651 125.519 76.9158 125.749 76.5211 126.207C76.1371 126.666 75.9451 127.279 75.9451 128.047V132.191ZM90.6593 132.191L88.0993 124.367H89.6513L90.9473 128.431C91.0433 128.719 91.1286 129.018 91.2033 129.327C91.2779 129.626 91.3526 129.946 91.4273 130.287C91.4699 130.053 91.5179 129.829 91.5713 129.615C91.6353 129.391 91.6993 129.183 91.7633 128.991C91.8273 128.789 91.8859 128.602 91.9393 128.431L93.2513 124.367H94.7873L96.0833 128.431C96.1259 128.527 96.1633 128.655 96.1953 128.815C96.2379 128.965 96.2859 129.125 96.3393 129.295C96.3926 129.466 96.4406 129.637 96.4833 129.807C96.5259 129.978 96.5633 130.138 96.5953 130.287C96.6379 130.074 96.6806 129.871 96.7233 129.679C96.7766 129.477 96.8299 129.279 96.8833 129.087C96.9473 128.885 97.0166 128.666 97.0913 128.431L98.4033 124.367H99.9713L97.2993 132.191H95.8753L94.5153 127.999C94.3873 127.605 94.2806 127.258 94.1953 126.959C94.1206 126.65 94.0619 126.389 94.0193 126.175C93.9766 126.367 93.9126 126.607 93.8273 126.895C93.7526 127.173 93.6459 127.546 93.5073 128.015L92.1473 132.191H90.6593ZM104.757 132.383C104 132.383 103.328 132.213 102.741 131.871C102.154 131.519 101.696 131.039 101.365 130.431C101.034 129.813 100.869 129.098 100.869 128.287C100.869 127.466 101.029 126.746 101.349 126.127C101.68 125.509 102.128 125.023 102.693 124.671C103.269 124.319 103.936 124.143 104.693 124.143C105.44 124.143 106.085 124.303 106.629 124.623C107.184 124.943 107.61 125.391 107.909 125.967C108.218 126.543 108.373 127.221 108.373 127.999V128.559L101.669 128.575L101.701 127.567H106.869C106.869 126.917 106.672 126.394 106.277 125.999C105.882 125.605 105.354 125.407 104.693 125.407C104.192 125.407 103.76 125.519 103.397 125.743C103.045 125.957 102.773 126.277 102.581 126.703C102.4 127.119 102.309 127.621 102.309 128.207C102.309 129.146 102.522 129.871 102.949 130.383C103.376 130.885 103.989 131.135 104.789 131.135C105.376 131.135 105.856 131.018 106.229 130.783C106.602 130.549 106.853 130.207 106.981 129.759H108.389C108.197 130.591 107.786 131.237 107.157 131.695C106.528 132.154 105.728 132.383 104.757 132.383ZM113.909 132.383C113.152 132.383 112.48 132.213 111.893 131.871C111.306 131.519 110.848 131.039 110.517 130.431C110.186 129.813 110.021 129.098 110.021 128.287C110.021 127.466 110.181 126.746 110.501 126.127C110.832 125.509 111.28 125.023 111.845 124.671C112.421 124.319 113.088 124.143 113.845 124.143C114.592 124.143 115.237 124.303 115.781 124.623C116.336 124.943 116.762 125.391 117.061 125.967C117.37 126.543 117.525 127.221 117.525 127.999V128.559L110.821 128.575L110.853 127.567H116.021C116.021 126.917 115.824 126.394 115.429 125.999C115.034 125.605 114.506 125.407 113.845 125.407C113.344 125.407 112.912 125.519 112.549 125.743C112.197 125.957 111.925 126.277 111.733 126.703C111.552 127.119 111.461 127.621 111.461 128.207C111.461 129.146 111.674 129.871 112.101 130.383C112.528 130.885 113.141 131.135 113.941 131.135C114.528 131.135 115.008 131.018 115.381 130.783C115.754 130.549 116.005 130.207 116.133 129.759H117.541C117.349 130.591 116.938 131.237 116.309 131.695C115.68 132.154 114.88 132.383 113.909 132.383ZM121.221 132.191H119.717V120.415H121.221V128.047L124.693 124.367H126.581L123.589 127.487L126.565 132.191H124.837L122.549 128.575L121.221 129.967V132.191ZM127.712 129.919H129.152C129.152 130.314 129.296 130.629 129.584 130.863C129.872 131.087 130.262 131.199 130.752 131.199C131.286 131.199 131.696 131.098 131.984 130.895C132.272 130.682 132.416 130.399 132.416 130.047C132.416 129.791 132.336 129.578 132.176 129.407C132.027 129.237 131.75 129.098 131.344 128.991L129.968 128.671C129.275 128.501 128.758 128.239 128.416 127.887C128.086 127.535 127.92 127.071 127.92 126.495C127.92 126.015 128.043 125.599 128.288 125.247C128.544 124.895 128.891 124.623 129.328 124.431C129.776 124.239 130.288 124.143 130.864 124.143C131.44 124.143 131.936 124.245 132.352 124.447C132.779 124.65 133.11 124.933 133.344 125.295C133.59 125.658 133.718 126.09 133.728 126.591H132.288C132.278 126.186 132.144 125.871 131.888 125.647C131.632 125.423 131.275 125.311 130.816 125.311C130.347 125.311 129.984 125.413 129.728 125.615C129.472 125.818 129.344 126.095 129.344 126.447C129.344 126.97 129.728 127.327 130.496 127.519L131.872 127.855C132.534 128.005 133.03 128.25 133.36 128.591C133.691 128.922 133.856 129.375 133.856 129.951C133.856 130.442 133.723 130.874 133.456 131.247C133.19 131.61 132.822 131.893 132.352 132.095C131.894 132.287 131.35 132.383 130.72 132.383C129.803 132.383 129.072 132.159 128.528 131.711C127.984 131.263 127.712 130.666 127.712 129.919ZM137.287 132.047L137.415 132.015C137.351 132.079 137.271 132.127 137.175 132.159C137.089 132.191 136.983 132.207 136.855 132.207C136.599 132.207 136.369 132.122 136.167 131.951C135.975 131.77 135.879 131.53 135.879 131.231C135.879 130.911 135.975 130.65 136.167 130.447C136.369 130.234 136.631 130.127 136.951 130.127C137.292 130.127 137.58 130.255 137.815 130.511C138.049 130.767 138.167 131.119 138.167 131.567C138.167 131.951 138.076 132.303 137.895 132.623C137.724 132.954 137.489 133.221 137.191 133.423C136.892 133.637 136.551 133.77 136.167 133.823V133.151C136.487 133.087 136.753 132.954 136.967 132.751C137.18 132.559 137.287 132.325 137.287 132.047ZM147.171 132.191H145.667V124.367H147.011L147.219 125.807L147.027 125.679C147.187 125.242 147.481 124.879 147.907 124.591C148.345 124.293 148.873 124.143 149.491 124.143C150.185 124.143 150.761 124.33 151.219 124.703C151.678 125.077 151.977 125.573 152.115 126.191H151.843C151.95 125.573 152.243 125.077 152.723 124.703C153.203 124.33 153.795 124.143 154.499 124.143C155.395 124.143 156.099 124.405 156.611 124.927C157.123 125.45 157.379 126.165 157.379 127.071V132.191H155.907V127.439C155.907 126.821 155.747 126.346 155.427 126.015C155.118 125.674 154.697 125.503 154.163 125.503C153.79 125.503 153.459 125.589 153.171 125.759C152.894 125.919 152.675 126.154 152.515 126.463C152.355 126.773 152.275 127.135 152.275 127.551V132.191H150.787V127.423C150.787 126.805 150.633 126.335 150.323 126.015C150.014 125.685 149.593 125.519 149.059 125.519C148.686 125.519 148.355 125.605 148.067 125.775C147.79 125.935 147.571 126.17 147.411 126.479C147.251 126.778 147.171 127.135 147.171 127.551V132.191ZM159.944 132.191V124.367H161.448V132.191H159.944ZM160.68 122.511C160.414 122.511 160.179 122.415 159.976 122.223C159.784 122.021 159.688 121.786 159.688 121.519C159.688 121.242 159.784 121.007 159.976 120.815C160.179 120.623 160.414 120.527 160.68 120.527C160.958 120.527 161.192 120.623 161.384 120.815C161.576 121.007 161.672 121.242 161.672 121.519C161.672 121.786 161.576 122.021 161.384 122.223C161.192 122.415 160.958 122.511 160.68 122.511ZM163.472 129.919H164.912C164.912 130.314 165.056 130.629 165.344 130.863C165.632 131.087 166.021 131.199 166.512 131.199C167.045 131.199 167.456 131.098 167.744 130.895C168.032 130.682 168.176 130.399 168.176 130.047C168.176 129.791 168.096 129.578 167.936 129.407C167.786 129.237 167.509 129.098 167.104 128.991L165.728 128.671C165.034 128.501 164.517 128.239 164.176 127.887C163.845 127.535 163.68 127.071 163.68 126.495C163.68 126.015 163.802 125.599 164.048 125.247C164.304 124.895 164.65 124.623 165.088 124.431C165.536 124.239 166.048 124.143 166.624 124.143C167.2 124.143 167.696 124.245 168.112 124.447C168.538 124.65 168.869 124.933 169.104 125.295C169.349 125.658 169.477 126.09 169.488 126.591H168.048C168.037 126.186 167.904 125.871 167.648 125.647C167.392 125.423 167.034 125.311 166.576 125.311C166.106 125.311 165.744 125.413 165.488 125.615C165.232 125.818 165.104 126.095 165.104 126.447C165.104 126.97 165.488 127.327 166.256 127.519L167.632 127.855C168.293 128.005 168.789 128.25 169.12 128.591C169.45 128.922 169.616 129.375 169.616 129.951C169.616 130.442 169.482 130.874 169.216 131.247C168.949 131.61 168.581 131.893 168.112 132.095C167.653 132.287 167.109 132.383 166.48 132.383C165.562 132.383 164.832 132.159 164.288 131.711C163.744 131.263 163.472 130.666 163.472 129.919ZM171.124 129.919H172.564C172.564 130.314 172.708 130.629 172.996 130.863C173.284 131.087 173.673 131.199 174.164 131.199C174.697 131.199 175.108 131.098 175.396 130.895C175.684 130.682 175.828 130.399 175.828 130.047C175.828 129.791 175.748 129.578 175.588 129.407C175.438 129.237 175.161 129.098 174.756 128.991L173.38 128.671C172.686 128.501 172.169 128.239 171.828 127.887C171.497 127.535 171.332 127.071 171.332 126.495C171.332 126.015 171.454 125.599 171.7 125.247C171.956 124.895 172.302 124.623 172.74 124.431C173.188 124.239 173.7 124.143 174.276 124.143C174.852 124.143 175.348 124.245 175.764 124.447C176.19 124.65 176.521 124.933 176.756 125.295C177.001 125.658 177.129 126.09 177.14 126.591H175.7C175.689 126.186 175.556 125.871 175.3 125.647C175.044 125.423 174.686 125.311 174.228 125.311C173.758 125.311 173.396 125.413 173.14 125.615C172.884 125.818 172.756 126.095 172.756 126.447C172.756 126.97 173.14 127.327 173.908 127.519L175.284 127.855C175.945 128.005 176.441 128.25 176.772 128.591C177.102 128.922 177.268 129.375 177.268 129.951C177.268 130.442 177.134 130.874 176.868 131.247C176.601 131.61 176.233 131.893 175.764 132.095C175.305 132.287 174.761 132.383 174.132 132.383C173.214 132.383 172.484 132.159 171.94 131.711C171.396 131.263 171.124 130.666 171.124 129.919ZM179.415 132.191V124.367H180.919V132.191H179.415ZM180.151 122.511C179.885 122.511 179.65 122.415 179.447 122.223C179.255 122.021 179.159 121.786 179.159 121.519C179.159 121.242 179.255 121.007 179.447 120.815C179.65 120.623 179.885 120.527 180.151 120.527C180.429 120.527 180.663 120.623 180.855 120.815C181.047 121.007 181.143 121.242 181.143 121.519C181.143 121.786 181.047 122.021 180.855 122.223C180.663 122.415 180.429 122.511 180.151 122.511ZM185.087 132.191H183.583V124.367H184.943L185.103 125.567C185.348 125.119 185.7 124.773 186.159 124.527C186.628 124.271 187.14 124.143 187.695 124.143C188.719 124.143 189.476 124.437 189.967 125.023C190.458 125.61 190.703 126.405 190.703 127.407V132.191H189.199V127.743C189.199 126.954 189.028 126.389 188.687 126.047C188.346 125.695 187.887 125.519 187.311 125.519C186.607 125.519 186.058 125.749 185.663 126.207C185.279 126.666 185.087 127.279 185.087 128.047V132.191ZM192.77 128.079C192.77 127.343 192.919 126.682 193.218 126.095C193.517 125.498 193.943 125.023 194.498 124.671C195.053 124.319 195.709 124.143 196.466 124.143C197.17 124.143 197.773 124.314 198.274 124.655C198.775 124.986 199.133 125.45 199.346 126.047L199.154 126.255L199.314 124.367H200.658V131.871C200.658 132.693 200.498 133.402 200.178 133.999C199.858 134.607 199.405 135.077 198.818 135.407C198.231 135.738 197.538 135.903 196.738 135.903C195.671 135.903 194.797 135.621 194.114 135.055C193.431 134.49 193.015 133.711 192.866 132.719H194.37C194.466 133.295 194.722 133.743 195.138 134.063C195.554 134.383 196.087 134.543 196.738 134.543C197.474 134.543 198.061 134.319 198.498 133.871C198.946 133.434 199.17 132.842 199.17 132.095V129.887L199.362 130.095C199.159 130.682 198.791 131.146 198.258 131.487C197.725 131.818 197.106 131.983 196.402 131.983C195.655 131.983 195.01 131.813 194.466 131.471C193.922 131.119 193.501 130.65 193.202 130.063C192.914 129.477 192.77 128.815 192.77 128.079ZM194.274 128.047C194.274 128.538 194.37 128.981 194.562 129.375C194.765 129.77 195.042 130.085 195.394 130.319C195.757 130.554 196.178 130.671 196.658 130.671C197.17 130.671 197.607 130.559 197.97 130.335C198.333 130.111 198.61 129.802 198.802 129.407C199.005 129.013 199.106 128.559 199.106 128.047C199.106 127.535 199.01 127.087 198.818 126.703C198.626 126.319 198.349 126.015 197.986 125.791C197.623 125.567 197.186 125.455 196.674 125.455C196.173 125.455 195.741 125.573 195.378 125.807C195.026 126.042 194.754 126.357 194.562 126.751C194.37 127.135 194.274 127.567 194.274 128.047ZM207.652 128.271C207.652 127.471 207.828 126.762 208.18 126.143C208.532 125.525 209.012 125.039 209.62 124.687C210.238 124.335 210.942 124.159 211.732 124.159C212.521 124.159 213.22 124.335 213.828 124.687C214.436 125.039 214.916 125.525 215.268 126.143C215.62 126.762 215.796 127.471 215.796 128.271C215.796 129.071 215.62 129.781 215.268 130.399C214.916 131.018 214.436 131.503 213.828 131.855C213.22 132.207 212.521 132.383 211.732 132.383C210.942 132.383 210.238 132.207 209.62 131.855C209.012 131.503 208.532 131.018 208.18 130.399C207.828 129.781 207.652 129.071 207.652 128.271ZM209.172 128.271C209.172 128.815 209.278 129.295 209.492 129.711C209.716 130.127 210.02 130.453 210.404 130.687C210.788 130.922 211.23 131.039 211.732 131.039C212.233 131.039 212.676 130.922 213.06 130.687C213.444 130.453 213.742 130.127 213.956 129.711C214.18 129.295 214.292 128.815 214.292 128.271C214.292 127.717 214.18 127.237 213.956 126.831C213.742 126.415 213.444 126.09 213.06 125.855C212.676 125.621 212.233 125.503 211.732 125.503C211.23 125.503 210.788 125.621 210.404 125.855C210.02 126.09 209.716 126.415 209.492 126.831C209.278 127.237 209.172 127.717 209.172 128.271ZM223.161 124.367H224.649V132.191H223.305L223.145 131.007C222.921 131.413 222.569 131.743 222.089 131.999C221.609 132.255 221.081 132.383 220.505 132.383C219.598 132.383 218.894 132.101 218.393 131.535C217.902 130.959 217.657 130.191 217.657 129.231V124.367H219.161V128.735C219.161 129.567 219.326 130.165 219.657 130.527C219.998 130.879 220.457 131.055 221.033 131.055C221.726 131.055 222.254 130.842 222.617 130.415C222.98 129.978 223.161 129.338 223.161 128.495V124.367ZM226.479 124.367H231.055V125.631H226.479V124.367ZM229.519 132.191H228.015V121.919H229.519V132.191ZM237.228 128.271C237.228 127.471 237.404 126.762 237.756 126.143C238.108 125.525 238.588 125.039 239.196 124.687C239.815 124.335 240.519 124.159 241.308 124.159C242.097 124.159 242.796 124.335 243.404 124.687C244.012 125.039 244.492 125.525 244.844 126.143C245.196 126.762 245.372 127.471 245.372 128.271C245.372 129.071 245.196 129.781 244.844 130.399C244.492 131.018 244.012 131.503 243.404 131.855C242.796 132.207 242.097 132.383 241.308 132.383C240.519 132.383 239.815 132.207 239.196 131.855C238.588 131.503 238.108 131.018 237.756 130.399C237.404 129.781 237.228 129.071 237.228 128.271ZM238.748 128.271C238.748 128.815 238.855 129.295 239.068 129.711C239.292 130.127 239.596 130.453 239.98 130.687C240.364 130.922 240.807 131.039 241.308 131.039C241.809 131.039 242.252 130.922 242.636 130.687C243.02 130.453 243.319 130.127 243.532 129.711C243.756 129.295 243.868 128.815 243.868 128.271C243.868 127.717 243.756 127.237 243.532 126.831C243.319 126.415 243.02 126.09 242.636 125.855C242.252 125.621 241.809 125.503 241.308 125.503C240.807 125.503 240.364 125.621 239.98 125.855C239.596 126.09 239.292 126.415 239.068 126.831C238.855 127.237 238.748 127.717 238.748 128.271ZM249.021 132.191H247.517V124.367H248.877L249.037 125.567C249.282 125.119 249.634 124.773 250.093 124.527C250.562 124.271 251.074 124.143 251.629 124.143C252.653 124.143 253.41 124.437 253.901 125.023C254.391 125.61 254.637 126.405 254.637 127.407V132.191H253.133V127.743C253.133 126.954 252.962 126.389 252.621 126.047C252.279 125.695 251.821 125.519 251.245 125.519C250.541 125.519 249.991 125.749 249.597 126.207C249.213 126.666 249.021 127.279 249.021 128.047V132.191ZM261.223 124.367H265.799V125.631H261.223V124.367ZM264.263 132.191H262.759V121.919H264.263V132.191ZM269.133 132.175H267.629V120.415H269.133V125.567C269.378 125.141 269.73 124.799 270.189 124.543C270.647 124.277 271.181 124.143 271.789 124.143C272.781 124.143 273.522 124.437 274.013 125.023C274.503 125.61 274.749 126.405 274.749 127.407V132.191H273.245V127.743C273.245 127.21 273.165 126.783 273.005 126.463C272.855 126.133 272.637 125.893 272.349 125.743C272.071 125.594 271.746 125.519 271.373 125.519C270.893 125.519 270.482 125.626 270.141 125.839C269.81 126.053 269.559 126.341 269.389 126.703C269.218 127.066 269.133 127.471 269.133 127.919V132.175ZM280.688 132.383C279.93 132.383 279.258 132.213 278.672 131.871C278.085 131.519 277.626 131.039 277.296 130.431C276.965 129.813 276.8 129.098 276.8 128.287C276.8 127.466 276.96 126.746 277.28 126.127C277.61 125.509 278.058 125.023 278.624 124.671C279.2 124.319 279.866 124.143 280.624 124.143C281.37 124.143 282.016 124.303 282.56 124.623C283.114 124.943 283.541 125.391 283.84 125.967C284.149 126.543 284.304 127.221 284.304 127.999V128.559L277.6 128.575L277.632 127.567H282.8C282.8 126.917 282.602 126.394 282.208 125.999C281.813 125.605 281.285 125.407 280.624 125.407C280.122 125.407 279.69 125.519 279.328 125.743C278.976 125.957 278.704 126.277 278.512 126.703C278.33 127.119 278.24 127.621 278.24 128.207C278.24 129.146 278.453 129.871 278.88 130.383C279.306 130.885 279.92 131.135 280.72 131.135C281.306 131.135 281.786 131.018 282.16 130.783C282.533 130.549 282.784 130.207 282.912 129.759H284.32C284.128 130.591 283.717 131.237 283.088 131.695C282.458 132.154 281.658 132.383 280.688 132.383ZM290.487 124.367H298.119V125.631H290.487V124.367ZM294.967 120.479V121.775C294.871 121.775 294.764 121.775 294.647 121.775C294.54 121.775 294.423 121.775 294.295 121.775C293.836 121.775 293.527 121.893 293.367 122.127C293.217 122.362 293.143 122.693 293.143 123.119V132.191H291.639V123.119C291.639 122.479 291.745 121.962 291.959 121.567C292.172 121.162 292.46 120.869 292.823 120.687C293.185 120.506 293.591 120.415 294.039 120.415C294.188 120.415 294.343 120.421 294.503 120.431C294.663 120.442 294.817 120.458 294.967 120.479ZM296.615 132.191V124.367H298.119V132.191H296.615ZM297.367 122.447C297.089 122.447 296.86 122.357 296.679 122.175C296.497 121.983 296.407 121.754 296.407 121.487C296.407 121.21 296.497 120.981 296.679 120.799C296.86 120.618 297.089 120.527 297.367 120.527C297.633 120.527 297.857 120.618 298.039 120.799C298.22 120.981 298.311 121.21 298.311 121.487C298.311 121.754 298.22 121.983 298.039 122.175C297.857 122.357 297.633 122.447 297.367 122.447ZM302.24 132.191H300.736V124.367H302.096L302.256 125.567C302.501 125.119 302.853 124.773 303.312 124.527C303.781 124.271 304.293 124.143 304.848 124.143C305.872 124.143 306.629 124.437 307.12 125.023C307.611 125.61 307.856 126.405 307.856 127.407V132.191H306.352V127.743C306.352 126.954 306.181 126.389 305.84 126.047C305.499 125.695 305.04 125.519 304.464 125.519C303.76 125.519 303.211 125.749 302.816 126.207C302.432 126.666 302.24 127.279 302.24 128.047V132.191ZM312.707 132.383C311.875 132.383 311.219 132.165 310.739 131.727C310.27 131.29 310.035 130.719 310.035 130.015C310.035 129.301 310.291 128.73 310.803 128.303C311.315 127.866 312.03 127.61 312.947 127.535L315.411 127.343V127.119C315.411 126.682 315.331 126.335 315.171 126.079C315.011 125.813 314.793 125.626 314.515 125.519C314.238 125.402 313.923 125.343 313.571 125.343C312.942 125.343 312.451 125.477 312.099 125.743C311.758 125.999 311.587 126.367 311.587 126.847H310.275C310.275 126.303 310.414 125.829 310.691 125.423C310.969 125.018 311.358 124.703 311.859 124.479C312.371 124.255 312.963 124.143 313.635 124.143C314.286 124.143 314.851 124.261 315.331 124.495C315.822 124.719 316.201 125.066 316.467 125.535C316.745 125.994 316.883 126.575 316.883 127.279V132.191H315.603L315.443 130.927C315.241 131.375 314.889 131.733 314.387 131.999C313.897 132.255 313.337 132.383 312.707 132.383ZM313.139 131.215C313.854 131.215 314.414 131.002 314.819 130.575C315.225 130.138 315.427 129.551 315.427 128.815V128.399L313.427 128.559C312.766 128.623 312.286 128.778 311.987 129.023C311.699 129.269 311.555 129.583 311.555 129.967C311.555 130.383 311.694 130.698 311.971 130.911C312.259 131.114 312.649 131.215 313.139 131.215ZM320.95 132.191H319.446V124.367H320.806L320.966 125.567C321.211 125.119 321.563 124.773 322.022 124.527C322.491 124.271 323.003 124.143 323.558 124.143C324.582 124.143 325.339 124.437 325.83 125.023C326.321 125.61 326.566 126.405 326.566 127.407V132.191H325.062V127.743C325.062 126.954 324.891 126.389 324.55 126.047C324.209 125.695 323.75 125.519 323.174 125.519C322.47 125.519 321.921 125.749 321.526 126.207C321.142 126.666 320.95 127.279 320.95 128.047V132.191ZM328.617 128.287C328.617 127.466 328.777 126.746 329.097 126.127C329.428 125.509 329.881 125.023 330.457 124.671C331.033 124.319 331.7 124.143 332.457 124.143C333.439 124.143 334.255 124.405 334.905 124.927C335.556 125.45 335.945 126.143 336.073 127.007H334.569C334.441 126.506 334.191 126.127 333.817 125.871C333.444 125.615 333.007 125.487 332.505 125.487C332.036 125.487 331.62 125.605 331.257 125.839C330.895 126.063 330.612 126.383 330.409 126.799C330.207 127.215 330.105 127.706 330.105 128.271C330.105 128.837 330.201 129.327 330.393 129.743C330.585 130.149 330.857 130.469 331.209 130.703C331.561 130.927 331.972 131.039 332.441 131.039C332.975 131.039 333.433 130.906 333.817 130.639C334.201 130.373 334.457 130.01 334.585 129.551H336.089C335.993 130.117 335.775 130.613 335.433 131.039C335.103 131.455 334.676 131.786 334.153 132.031C333.641 132.266 333.071 132.383 332.441 132.383C331.673 132.383 331.001 132.213 330.425 131.871C329.86 131.53 329.417 131.055 329.097 130.447C328.777 129.829 328.617 129.109 328.617 128.287ZM338.156 132.191V124.367H339.66V132.191H338.156ZM338.892 122.511C338.625 122.511 338.391 122.415 338.188 122.223C337.996 122.021 337.9 121.786 337.9 121.519C337.9 121.242 337.996 121.007 338.188 120.815C338.391 120.623 338.625 120.527 338.892 120.527C339.169 120.527 339.404 120.623 339.596 120.815C339.788 121.007 339.884 121.242 339.884 121.519C339.884 121.786 339.788 122.021 339.596 122.223C339.404 122.415 339.169 122.511 338.892 122.511ZM344.612 132.383C343.78 132.383 343.124 132.165 342.644 131.727C342.174 131.29 341.94 130.719 341.94 130.015C341.94 129.301 342.196 128.73 342.708 128.303C343.22 127.866 343.934 127.61 344.852 127.535L347.316 127.343V127.119C347.316 126.682 347.236 126.335 347.076 126.079C346.916 125.813 346.697 125.626 346.42 125.519C346.142 125.402 345.828 125.343 345.476 125.343C344.846 125.343 344.356 125.477 344.004 125.743C343.662 125.999 343.492 126.367 343.492 126.847H342.18C342.18 126.303 342.318 125.829 342.596 125.423C342.873 125.018 343.262 124.703 343.764 124.479C344.276 124.255 344.868 124.143 345.54 124.143C346.19 124.143 346.756 124.261 347.236 124.495C347.726 124.719 348.105 125.066 348.372 125.535C348.649 125.994 348.788 126.575 348.788 127.279V132.191H347.508L347.348 130.927C347.145 131.375 346.793 131.733 346.292 131.999C345.801 132.255 345.241 132.383 344.612 132.383ZM345.044 131.215C345.758 131.215 346.318 131.002 346.724 130.575C347.129 130.138 347.332 129.551 347.332 128.815V128.399L345.332 128.559C344.67 128.623 344.19 128.778 343.892 129.023C343.604 129.269 343.46 129.583 343.46 129.967C343.46 130.383 343.598 130.698 343.876 130.911C344.164 131.114 344.553 131.215 345.044 131.215ZM352.887 132.191H351.383V120.415H352.887V132.191ZM37.576 150.271C37.576 149.471 37.752 148.762 38.104 148.143C38.456 147.525 38.936 147.039 39.544 146.687C40.1627 146.335 40.8667 146.159 41.656 146.159C42.4453 146.159 43.144 146.335 43.752 146.687C44.36 147.039 44.84 147.525 45.192 148.143C45.544 148.762 45.72 149.471 45.72 150.271C45.72 151.071 45.544 151.781 45.192 152.399C44.84 153.018 44.36 153.503 43.752 153.855C43.144 154.207 42.4453 154.383 41.656 154.383C40.8667 154.383 40.1627 154.207 39.544 153.855C38.936 153.503 38.456 153.018 38.104 152.399C37.752 151.781 37.576 151.071 37.576 150.271ZM39.096 150.271C39.096 150.815 39.2027 151.295 39.416 151.711C39.64 152.127 39.944 152.453 40.328 152.687C40.712 152.922 41.1547 153.039 41.656 153.039C42.1573 153.039 42.6 152.922 42.984 152.687C43.368 152.453 43.6667 152.127 43.88 151.711C44.104 151.295 44.216 150.815 44.216 150.271C44.216 149.717 44.104 149.237 43.88 148.831C43.6667 148.415 43.368 148.09 42.984 147.855C42.6 147.621 42.1573 147.503 41.656 147.503C41.1547 147.503 40.712 147.621 40.328 147.855C39.944 148.09 39.64 148.415 39.416 148.831C39.2027 149.237 39.096 149.717 39.096 150.271ZM47.8649 157.695V146.367H49.2249L49.3369 147.775C49.5929 147.231 49.9715 146.826 50.4729 146.559C50.9849 146.282 51.5502 146.143 52.1689 146.143C52.9155 146.143 53.5609 146.319 54.1049 146.671C54.6489 147.013 55.0649 147.493 55.3529 148.111C55.6515 148.719 55.8009 149.423 55.8009 150.223C55.8009 151.023 55.6569 151.738 55.3689 152.367C55.0915 152.997 54.6809 153.493 54.1369 153.855C53.6035 154.218 52.9475 154.399 52.1689 154.399C51.5395 154.399 50.9795 154.271 50.4889 154.015C49.9982 153.759 49.6249 153.391 49.3689 152.911V157.695H47.8649ZM49.3849 150.287C49.3849 150.81 49.4809 151.285 49.6729 151.711C49.8755 152.127 50.1582 152.453 50.5209 152.687C50.8942 152.922 51.3369 153.039 51.8489 153.039C52.3609 153.039 52.7982 152.922 53.1609 152.687C53.5235 152.442 53.8009 152.111 53.9929 151.695C54.1955 151.279 54.2969 150.81 54.2969 150.287C54.2969 149.743 54.1955 149.263 53.9929 148.847C53.8009 148.431 53.5235 148.106 53.1609 147.871C52.7982 147.637 52.3609 147.519 51.8489 147.519C51.3369 147.519 50.8942 147.637 50.5209 147.871C50.1582 148.106 49.8755 148.431 49.6729 148.847C49.4809 149.263 49.3849 149.743 49.3849 150.287ZM57.9386 157.695V146.367H59.2986L59.4106 147.775C59.6666 147.231 60.0453 146.826 60.5466 146.559C61.0586 146.282 61.624 146.143 62.2426 146.143C62.9893 146.143 63.6346 146.319 64.1786 146.671C64.7226 147.013 65.1386 147.493 65.4266 148.111C65.7253 148.719 65.8746 149.423 65.8746 150.223C65.8746 151.023 65.7306 151.738 65.4426 152.367C65.1653 152.997 64.7546 153.493 64.2106 153.855C63.6773 154.218 63.0213 154.399 62.2426 154.399C61.6133 154.399 61.0533 154.271 60.5626 154.015C60.072 153.759 59.6986 153.391 59.4426 152.911V157.695H57.9386ZM59.4586 150.287C59.4586 150.81 59.5546 151.285 59.7466 151.711C59.9493 152.127 60.232 152.453 60.5946 152.687C60.968 152.922 61.4106 153.039 61.9226 153.039C62.4346 153.039 62.872 152.922 63.2346 152.687C63.5973 152.442 63.8746 152.111 64.0666 151.695C64.2693 151.279 64.3706 150.81 64.3706 150.287C64.3706 149.743 64.2693 149.263 64.0666 148.847C63.8746 148.431 63.5973 148.106 63.2346 147.871C62.872 147.637 62.4346 147.519 61.9226 147.519C61.4106 147.519 60.968 147.637 60.5946 147.871C60.232 148.106 59.9493 148.431 59.7466 148.847C59.5546 149.263 59.4586 149.743 59.4586 150.287ZM67.5004 150.271C67.5004 149.471 67.6764 148.762 68.0284 148.143C68.3804 147.525 68.8604 147.039 69.4684 146.687C70.087 146.335 70.791 146.159 71.5804 146.159C72.3697 146.159 73.0684 146.335 73.6764 146.687C74.2844 147.039 74.7644 147.525 75.1164 148.143C75.4684 148.762 75.6444 149.471 75.6444 150.271C75.6444 151.071 75.4684 151.781 75.1164 152.399C74.7644 153.018 74.2844 153.503 73.6764 153.855C73.0684 154.207 72.3697 154.383 71.5804 154.383C70.791 154.383 70.087 154.207 69.4684 153.855C68.8604 153.503 68.3804 153.018 68.0284 152.399C67.6764 151.781 67.5004 151.071 67.5004 150.271ZM69.0204 150.271C69.0204 150.815 69.127 151.295 69.3404 151.711C69.5644 152.127 69.8684 152.453 70.2524 152.687C70.6364 152.922 71.079 153.039 71.5804 153.039C72.0817 153.039 72.5244 152.922 72.9084 152.687C73.2924 152.453 73.591 152.127 73.8044 151.711C74.0284 151.295 74.1404 150.815 74.1404 150.271C74.1404 149.717 74.0284 149.237 73.8044 148.831C73.591 148.415 73.2924 148.09 72.9084 147.855C72.5244 147.621 72.0817 147.503 71.5804 147.503C71.079 147.503 70.6364 147.621 70.2524 147.855C69.8684 148.09 69.5644 148.415 69.3404 148.831C69.127 149.237 69.0204 149.717 69.0204 150.271ZM82.2692 146.303V147.679H81.5972C80.8826 147.679 80.3172 147.887 79.9012 148.303C79.4959 148.709 79.2932 149.29 79.2932 150.047V154.191H77.7892V146.383H79.1972L79.3252 147.951H79.1812C79.2879 147.439 79.5439 147.023 79.9492 146.703C80.3546 146.373 80.8612 146.207 81.4692 146.207C81.6079 146.207 81.7359 146.218 81.8532 146.239C81.9812 146.25 82.1199 146.271 82.2692 146.303ZM83.6404 146.367H88.2164V147.631H83.6404V146.367ZM86.6804 154.191H85.1764V143.919H86.6804V154.191ZM95.4541 146.367H96.9421V154.191H95.5981L95.4381 153.007C95.2141 153.413 94.8621 153.743 94.3821 153.999C93.9021 154.255 93.3741 154.383 92.7981 154.383C91.8915 154.383 91.1875 154.101 90.6861 153.535C90.1955 152.959 89.9501 152.191 89.9501 151.231V146.367H91.4541V150.735C91.4541 151.567 91.6195 152.165 91.9501 152.527C92.2915 152.879 92.7501 153.055 93.3261 153.055C94.0195 153.055 94.5475 152.842 94.9101 152.415C95.2728 151.978 95.4541 151.338 95.4541 150.495V146.367ZM101.108 154.191H99.6043V146.367H100.964L101.124 147.567C101.37 147.119 101.722 146.773 102.18 146.527C102.65 146.271 103.162 146.143 103.716 146.143C104.74 146.143 105.498 146.437 105.988 147.023C106.479 147.61 106.724 148.405 106.724 149.407V154.191H105.22V149.743C105.22 148.954 105.05 148.389 104.708 148.047C104.367 147.695 103.908 147.519 103.332 147.519C102.628 147.519 102.079 147.749 101.684 148.207C101.3 148.666 101.108 149.279 101.108 150.047V154.191ZM109.287 154.191V146.367H110.791V154.191H109.287ZM110.023 144.511C109.757 144.511 109.522 144.415 109.319 144.223C109.127 144.021 109.031 143.786 109.031 143.519C109.031 143.242 109.127 143.007 109.319 142.815C109.522 142.623 109.757 142.527 110.023 142.527C110.301 142.527 110.535 142.623 110.727 142.815C110.919 143.007 111.015 143.242 111.015 143.519C111.015 143.786 110.919 144.021 110.727 144.223C110.535 144.415 110.301 144.511 110.023 144.511ZM112.623 146.367H117.199V147.631H112.623V146.367ZM115.663 154.191H114.159V143.919H115.663V154.191ZM119.029 154.191V146.367H120.533V154.191H119.029ZM119.765 144.511C119.498 144.511 119.263 144.415 119.061 144.223C118.869 144.021 118.773 143.786 118.773 143.519C118.773 143.242 118.869 143.007 119.061 142.815C119.263 142.623 119.498 142.527 119.765 142.527C120.042 142.527 120.277 142.623 120.469 142.815C120.661 143.007 120.757 143.242 120.757 143.519C120.757 143.786 120.661 144.021 120.469 144.223C120.277 144.415 120.042 144.511 119.765 144.511ZM126.572 154.383C125.815 154.383 125.143 154.213 124.556 153.871C123.969 153.519 123.511 153.039 123.18 152.431C122.849 151.813 122.684 151.098 122.684 150.287C122.684 149.466 122.844 148.746 123.164 148.127C123.495 147.509 123.943 147.023 124.508 146.671C125.084 146.319 125.751 146.143 126.508 146.143C127.255 146.143 127.9 146.303 128.444 146.623C128.999 146.943 129.425 147.391 129.724 147.967C130.033 148.543 130.188 149.221 130.188 149.999V150.559L123.484 150.575L123.516 149.567H128.684C128.684 148.917 128.487 148.394 128.092 147.999C127.697 147.605 127.169 147.407 126.508 147.407C126.007 147.407 125.575 147.519 125.212 147.743C124.86 147.957 124.588 148.277 124.396 148.703C124.215 149.119 124.124 149.621 124.124 150.207C124.124 151.146 124.337 151.871 124.764 152.383C125.191 152.885 125.804 153.135 126.604 153.135C127.191 153.135 127.671 153.018 128.044 152.783C128.417 152.549 128.668 152.207 128.796 151.759H130.204C130.012 152.591 129.601 153.237 128.972 153.695C128.343 154.154 127.543 154.383 126.572 154.383ZM131.708 151.919H133.148C133.148 152.314 133.292 152.629 133.58 152.863C133.868 153.087 134.257 153.199 134.748 153.199C135.281 153.199 135.692 153.098 135.98 152.895C136.268 152.682 136.412 152.399 136.412 152.047C136.412 151.791 136.332 151.578 136.172 151.407C136.023 151.237 135.745 151.098 135.34 150.991L133.964 150.671C133.271 150.501 132.753 150.239 132.412 149.887C132.081 149.535 131.916 149.071 131.916 148.495C131.916 148.015 132.039 147.599 132.284 147.247C132.54 146.895 132.887 146.623 133.324 146.431C133.772 146.239 134.284 146.143 134.86 146.143C135.436 146.143 135.932 146.245 136.348 146.447C136.775 146.65 137.105 146.933 137.34 147.295C137.585 147.658 137.713 148.09 137.724 148.591H136.284C136.273 148.186 136.14 147.871 135.884 147.647C135.628 147.423 135.271 147.311 134.812 147.311C134.343 147.311 133.98 147.413 133.724 147.615C133.468 147.818 133.34 148.095 133.34 148.447C133.34 148.97 133.724 149.327 134.492 149.519L135.868 149.855C136.529 150.005 137.025 150.25 137.356 150.591C137.687 150.922 137.852 151.375 137.852 151.951C137.852 152.442 137.719 152.874 137.452 153.247C137.185 153.61 136.817 153.893 136.348 154.095C135.889 154.287 135.345 154.383 134.716 154.383C133.799 154.383 133.068 154.159 132.524 153.711C131.98 153.263 131.708 152.666 131.708 151.919ZM144.023 146.367H148.599V147.631H144.023V146.367ZM147.063 154.191H145.559V143.919H147.063V154.191ZM151.933 154.175H150.429V142.415H151.933V147.567C152.178 147.141 152.53 146.799 152.989 146.543C153.447 146.277 153.981 146.143 154.589 146.143C155.581 146.143 156.322 146.437 156.813 147.023C157.303 147.61 157.549 148.405 157.549 149.407V154.191H156.045V149.743C156.045 149.21 155.965 148.783 155.805 148.463C155.655 148.133 155.437 147.893 155.149 147.743C154.871 147.594 154.546 147.519 154.173 147.519C153.693 147.519 153.282 147.626 152.941 147.839C152.61 148.053 152.359 148.341 152.189 148.703C152.018 149.066 151.933 149.471 151.933 149.919V154.175ZM162.4 154.383C161.568 154.383 160.912 154.165 160.432 153.727C159.962 153.29 159.728 152.719 159.728 152.015C159.728 151.301 159.984 150.73 160.496 150.303C161.008 149.866 161.722 149.61 162.64 149.535L165.104 149.343V149.119C165.104 148.682 165.024 148.335 164.864 148.079C164.704 147.813 164.485 147.626 164.208 147.519C163.93 147.402 163.616 147.343 163.264 147.343C162.634 147.343 162.144 147.477 161.792 147.743C161.45 147.999 161.28 148.367 161.28 148.847H159.968C159.968 148.303 160.106 147.829 160.384 147.423C160.661 147.018 161.05 146.703 161.552 146.479C162.064 146.255 162.656 146.143 163.328 146.143C163.978 146.143 164.544 146.261 165.024 146.495C165.514 146.719 165.893 147.066 166.16 147.535C166.437 147.994 166.576 148.575 166.576 149.279V154.191H165.296L165.136 152.927C164.933 153.375 164.581 153.733 164.08 153.999C163.589 154.255 163.029 154.383 162.4 154.383ZM162.832 153.215C163.546 153.215 164.106 153.002 164.512 152.575C164.917 152.138 165.12 151.551 165.12 150.815V150.399L163.12 150.559C162.458 150.623 161.978 150.778 161.68 151.023C161.392 151.269 161.248 151.583 161.248 151.967C161.248 152.383 161.386 152.698 161.664 152.911C161.952 153.114 162.341 153.215 162.832 153.215ZM168.182 146.367H172.758V147.631H168.182V146.367ZM171.222 154.191H169.718V143.919H171.222V154.191ZM178.93 150.287C178.93 149.466 179.09 148.746 179.41 148.127C179.741 147.509 180.194 147.023 180.77 146.671C181.346 146.319 182.013 146.143 182.77 146.143C183.752 146.143 184.568 146.405 185.218 146.927C185.869 147.45 186.258 148.143 186.386 149.007H184.882C184.754 148.506 184.504 148.127 184.13 147.871C183.757 147.615 183.32 147.487 182.818 147.487C182.349 147.487 181.933 147.605 181.57 147.839C181.208 148.063 180.925 148.383 180.722 148.799C180.52 149.215 180.418 149.706 180.418 150.271C180.418 150.837 180.514 151.327 180.706 151.743C180.898 152.149 181.17 152.469 181.522 152.703C181.874 152.927 182.285 153.039 182.754 153.039C183.288 153.039 183.746 152.906 184.13 152.639C184.514 152.373 184.77 152.01 184.898 151.551H186.402C186.306 152.117 186.088 152.613 185.746 153.039C185.416 153.455 184.989 153.786 184.466 154.031C183.954 154.266 183.384 154.383 182.754 154.383C181.986 154.383 181.314 154.213 180.738 153.871C180.173 153.53 179.73 153.055 179.41 152.447C179.09 151.829 178.93 151.109 178.93 150.287ZM192.949 146.303V147.679H192.277C191.563 147.679 190.997 147.887 190.581 148.303C190.176 148.709 189.973 149.29 189.973 150.047V154.191H188.469V146.383H189.877L190.005 147.951H189.861C189.968 147.439 190.224 147.023 190.629 146.703C191.035 146.373 191.541 146.207 192.149 146.207C192.288 146.207 192.416 146.218 192.533 146.239C192.661 146.25 192.8 146.271 192.949 146.303ZM195.698 146.367L198.45 153.983L197.522 155.263L194.114 146.367H195.698ZM194.322 157.695V156.463H195.33C195.576 156.463 195.8 156.437 196.002 156.383C196.205 156.341 196.392 156.239 196.562 156.079C196.733 155.93 196.877 155.69 196.994 155.359L200.29 146.367H201.842L198.146 155.951C197.88 156.623 197.544 157.109 197.138 157.407C196.733 157.706 196.232 157.855 195.634 157.855C195.389 157.855 195.16 157.839 194.946 157.807C194.733 157.786 194.525 157.749 194.322 157.695ZM203.523 157.695V146.367H204.883L204.995 147.775C205.251 147.231 205.63 146.826 206.131 146.559C206.643 146.282 207.208 146.143 207.827 146.143C208.574 146.143 209.219 146.319 209.763 146.671C210.307 147.013 210.723 147.493 211.011 148.111C211.31 148.719 211.459 149.423 211.459 150.223C211.459 151.023 211.315 151.738 211.027 152.367C210.75 152.997 210.339 153.493 209.795 153.855C209.262 154.218 208.606 154.399 207.827 154.399C207.198 154.399 206.638 154.271 206.147 154.015C205.656 153.759 205.283 153.391 205.027 152.911V157.695H203.523ZM205.043 150.287C205.043 150.81 205.139 151.285 205.331 151.711C205.534 152.127 205.816 152.453 206.179 152.687C206.552 152.922 206.995 153.039 207.507 153.039C208.019 153.039 208.456 152.922 208.819 152.687C209.182 152.442 209.459 152.111 209.651 151.695C209.854 151.279 209.955 150.81 209.955 150.287C209.955 149.743 209.854 149.263 209.651 148.847C209.459 148.431 209.182 148.106 208.819 147.871C208.456 147.637 208.019 147.519 207.507 147.519C206.995 147.519 206.552 147.637 206.179 147.871C205.816 148.106 205.534 148.431 205.331 148.847C205.139 149.263 205.043 149.743 205.043 150.287ZM212.687 146.367H217.263V147.631H212.687V146.367ZM215.727 154.191H214.223V143.919H215.727V154.191ZM218.502 150.271C218.502 149.471 218.678 148.762 219.03 148.143C219.382 147.525 219.862 147.039 220.47 146.687C221.089 146.335 221.793 146.159 222.582 146.159C223.372 146.159 224.07 146.335 224.678 146.687C225.286 147.039 225.766 147.525 226.118 148.143C226.47 148.762 226.646 149.471 226.646 150.271C226.646 151.071 226.47 151.781 226.118 152.399C225.766 153.018 225.286 153.503 224.678 153.855C224.07 154.207 223.372 154.383 222.582 154.383C221.793 154.383 221.089 154.207 220.47 153.855C219.862 153.503 219.382 153.018 219.03 152.399C218.678 151.781 218.502 151.071 218.502 150.271ZM220.022 150.271C220.022 150.815 220.129 151.295 220.342 151.711C220.566 152.127 220.87 152.453 221.254 152.687C221.638 152.922 222.081 153.039 222.582 153.039C223.084 153.039 223.526 152.922 223.91 152.687C224.294 152.453 224.593 152.127 224.806 151.711C225.03 151.295 225.142 150.815 225.142 150.271C225.142 149.717 225.03 149.237 224.806 148.831C224.593 148.415 224.294 148.09 223.91 147.855C223.526 147.621 223.084 147.503 222.582 147.503C222.081 147.503 221.638 147.621 221.254 147.855C220.87 148.09 220.566 148.415 220.342 148.831C220.129 149.237 220.022 149.717 220.022 150.271ZM233.134 150.287C233.134 149.466 233.294 148.746 233.614 148.127C233.945 147.509 234.398 147.023 234.974 146.671C235.55 146.319 236.217 146.143 236.974 146.143C237.955 146.143 238.771 146.405 239.422 146.927C240.073 147.45 240.462 148.143 240.59 149.007H239.086C238.958 148.506 238.707 148.127 238.334 147.871C237.961 147.615 237.523 147.487 237.022 147.487C236.553 147.487 236.137 147.605 235.774 147.839C235.411 148.063 235.129 148.383 234.926 148.799C234.723 149.215 234.622 149.706 234.622 150.271C234.622 150.837 234.718 151.327 234.91 151.743C235.102 152.149 235.374 152.469 235.726 152.703C236.078 152.927 236.489 153.039 236.958 153.039C237.491 153.039 237.95 152.906 238.334 152.639C238.718 152.373 238.974 152.01 239.102 151.551H240.606C240.51 152.117 240.291 152.613 239.95 153.039C239.619 153.455 239.193 153.786 238.67 154.031C238.158 154.266 237.587 154.383 236.958 154.383C236.19 154.383 235.518 154.213 234.942 153.871C234.377 153.53 233.934 153.055 233.614 152.447C233.294 151.829 233.134 151.109 233.134 150.287ZM244.961 154.383C244.129 154.383 243.473 154.165 242.993 153.727C242.524 153.29 242.289 152.719 242.289 152.015C242.289 151.301 242.545 150.73 243.057 150.303C243.569 149.866 244.284 149.61 245.201 149.535L247.665 149.343V149.119C247.665 148.682 247.585 148.335 247.425 148.079C247.265 147.813 247.046 147.626 246.769 147.519C246.492 147.402 246.177 147.343 245.825 147.343C245.196 147.343 244.705 147.477 244.353 147.743C244.012 147.999 243.841 148.367 243.841 148.847H242.529C242.529 148.303 242.668 147.829 242.945 147.423C243.222 147.018 243.612 146.703 244.113 146.479C244.625 146.255 245.217 146.143 245.889 146.143C246.54 146.143 247.105 146.261 247.585 146.495C248.076 146.719 248.454 147.066 248.721 147.535C248.998 147.994 249.137 148.575 249.137 149.279V154.191H247.857L247.697 152.927C247.494 153.375 247.142 153.733 246.641 153.999C246.15 154.255 245.59 154.383 244.961 154.383ZM245.393 153.215C246.108 153.215 246.668 153.002 247.073 152.575C247.478 152.138 247.681 151.551 247.681 150.815V150.399L245.681 150.559C245.02 150.623 244.54 150.778 244.241 151.023C243.953 151.269 243.809 151.583 243.809 151.967C243.809 152.383 243.948 152.698 244.225 152.911C244.513 153.114 244.902 153.215 245.393 153.215ZM253.204 154.191H251.7V146.367H253.06L253.22 147.567C253.465 147.119 253.817 146.773 254.276 146.527C254.745 146.271 255.257 146.143 255.812 146.143C256.836 146.143 257.593 146.437 258.084 147.023C258.575 147.61 258.82 148.405 258.82 149.407V154.191H257.316V149.743C257.316 148.954 257.145 148.389 256.804 148.047C256.463 147.695 256.004 147.519 255.428 147.519C254.724 147.519 254.175 147.749 253.78 148.207C253.396 148.666 253.204 149.279 253.204 150.047V154.191ZM266.238 157.695V146.367H267.598L267.71 147.775C267.966 147.231 268.345 146.826 268.846 146.559C269.358 146.282 269.923 146.143 270.542 146.143C271.289 146.143 271.934 146.319 272.478 146.671C273.022 147.013 273.438 147.493 273.726 148.111C274.025 148.719 274.174 149.423 274.174 150.223C274.174 151.023 274.03 151.738 273.742 152.367C273.465 152.997 273.054 153.493 272.51 153.855C271.977 154.218 271.321 154.399 270.542 154.399C269.913 154.399 269.353 154.271 268.862 154.015C268.371 153.759 267.998 153.391 267.742 152.911V157.695H266.238ZM267.758 150.287C267.758 150.81 267.854 151.285 268.046 151.711C268.249 152.127 268.531 152.453 268.894 152.687C269.267 152.922 269.71 153.039 270.222 153.039C270.734 153.039 271.171 152.922 271.534 152.687C271.897 152.442 272.174 152.111 272.366 151.695C272.569 151.279 272.67 150.81 272.67 150.287C272.67 149.743 272.569 149.263 272.366 148.847C272.174 148.431 271.897 148.106 271.534 147.871C271.171 147.637 270.734 147.519 270.222 147.519C269.71 147.519 269.267 147.637 268.894 147.871C268.531 148.106 268.249 148.431 268.046 148.847C267.854 149.263 267.758 149.743 267.758 150.287ZM280.792 146.303V147.679H280.12C279.405 147.679 278.84 147.887 278.424 148.303C278.018 148.709 277.816 149.29 277.816 150.047V154.191H276.312V146.383H277.72L277.848 147.951H277.704C277.81 147.439 278.066 147.023 278.472 146.703C278.877 146.373 279.384 146.207 279.992 146.207C280.13 146.207 280.258 146.218 280.376 146.239C280.504 146.25 280.642 146.271 280.792 146.303ZM281.889 150.271C281.889 149.471 282.065 148.762 282.417 148.143C282.769 147.525 283.249 147.039 283.857 146.687C284.476 146.335 285.18 146.159 285.969 146.159C286.758 146.159 287.457 146.335 288.065 146.687C288.673 147.039 289.153 147.525 289.505 148.143C289.857 148.762 290.033 149.471 290.033 150.271C290.033 151.071 289.857 151.781 289.505 152.399C289.153 153.018 288.673 153.503 288.065 153.855C287.457 154.207 286.758 154.383 285.969 154.383C285.18 154.383 284.476 154.207 283.857 153.855C283.249 153.503 282.769 153.018 282.417 152.399C282.065 151.781 281.889 151.071 281.889 150.271ZM283.409 150.271C283.409 150.815 283.516 151.295 283.729 151.711C283.953 152.127 284.257 152.453 284.641 152.687C285.025 152.922 285.468 153.039 285.969 153.039C286.47 153.039 286.913 152.922 287.297 152.687C287.681 152.453 287.98 152.127 288.193 151.711C288.417 151.295 288.529 150.815 288.529 150.271C288.529 149.717 288.417 149.237 288.193 148.831C287.98 148.415 287.681 148.09 287.297 147.855C286.913 147.621 286.47 147.503 285.969 147.503C285.468 147.503 285.025 147.621 284.641 147.855C284.257 148.09 283.953 148.415 283.729 148.831C283.516 149.237 283.409 149.717 283.409 150.271ZM294.011 154.191L290.859 146.367H292.459L294.171 150.735C294.309 151.098 294.432 151.445 294.539 151.775C294.645 152.095 294.731 152.373 294.795 152.607C294.869 152.341 294.96 152.047 295.067 151.727C295.184 151.407 295.312 151.077 295.451 150.735L297.195 146.367H298.763L295.499 154.191H294.011ZM300.439 154.191V146.367H301.943V154.191H300.439ZM301.175 144.511C300.909 144.511 300.674 144.415 300.471 144.223C300.279 144.021 300.183 143.786 300.183 143.519C300.183 143.242 300.279 143.007 300.471 142.815C300.674 142.623 300.909 142.527 301.175 142.527C301.453 142.527 301.687 142.623 301.879 142.815C302.071 143.007 302.167 143.242 302.167 143.519C302.167 143.786 302.071 144.021 301.879 144.223C301.687 144.415 301.453 144.511 301.175 144.511ZM307.743 154.383C306.985 154.383 306.335 154.213 305.791 153.871C305.247 153.519 304.825 153.034 304.527 152.415C304.239 151.797 304.095 151.093 304.095 150.303C304.095 149.503 304.244 148.794 304.543 148.175C304.841 147.546 305.268 147.05 305.823 146.687C306.377 146.325 307.039 146.143 307.807 146.143C308.415 146.143 308.953 146.271 309.423 146.527C309.903 146.773 310.276 147.141 310.543 147.631V142.415H312.031V154.191H310.687L310.559 152.767C310.303 153.29 309.924 153.69 309.423 153.967C308.932 154.245 308.372 154.383 307.743 154.383ZM308.047 153.023C308.559 153.023 308.996 152.906 309.359 152.671C309.732 152.437 310.02 152.111 310.223 151.695C310.425 151.279 310.527 150.799 310.527 150.255C310.527 149.711 310.425 149.237 310.223 148.831C310.02 148.415 309.732 148.09 309.359 147.855C308.996 147.621 308.559 147.503 308.047 147.503C307.535 147.503 307.097 147.626 306.735 147.871C306.372 148.106 306.095 148.431 305.903 148.847C305.711 149.253 305.615 149.722 305.615 150.255C305.615 150.799 305.711 151.279 305.903 151.695C306.095 152.111 306.372 152.437 306.735 152.671C307.097 152.906 307.535 153.023 308.047 153.023ZM318.056 154.383C317.299 154.383 316.627 154.213 316.04 153.871C315.454 153.519 314.995 153.039 314.664 152.431C314.334 151.813 314.168 151.098 314.168 150.287C314.168 149.466 314.328 148.746 314.648 148.127C314.979 147.509 315.427 147.023 315.992 146.671C316.568 146.319 317.235 146.143 317.992 146.143C318.739 146.143 319.384 146.303 319.928 146.623C320.483 146.943 320.91 147.391 321.208 147.967C321.518 148.543 321.672 149.221 321.672 149.999V150.559L314.968 150.575L315 149.567H320.168C320.168 148.917 319.971 148.394 319.576 147.999C319.182 147.605 318.654 147.407 317.992 147.407C317.491 147.407 317.059 147.519 316.696 147.743C316.344 147.957 316.072 148.277 315.88 148.703C315.699 149.119 315.608 149.621 315.608 150.207C315.608 151.146 315.822 151.871 316.248 152.383C316.675 152.885 317.288 153.135 318.088 153.135C318.675 153.135 319.155 153.018 319.528 152.783C319.902 152.549 320.152 152.207 320.28 151.759H321.688C321.496 152.591 321.086 153.237 320.456 153.695C319.827 154.154 319.027 154.383 318.056 154.383ZM324.468 154.383C324.159 154.383 323.887 154.277 323.652 154.063C323.428 153.839 323.316 153.573 323.316 153.263C323.316 152.943 323.428 152.677 323.652 152.463C323.887 152.239 324.159 152.127 324.468 152.127C324.777 152.127 325.044 152.239 325.268 152.463C325.492 152.677 325.604 152.943 325.604 153.263C325.604 153.573 325.492 153.839 325.268 154.063C325.044 154.277 324.777 154.383 324.468 154.383Z" fill="#6C584C"/>
<rect x="48" y="0.191406" width="13" height="28" rx="5" fill="#BF9264"/>
<rect x="143" y="0.191406" width="13" height="28" rx="5" fill="#BF9264"/>
<rect x="238" y="0.191406" width="13" height="28" rx="5" fill="#BF9264"/>
<rect x="333" y="0.191406" width="13" height="28" rx="5" fill="#BF9264"/>
</svg>
