<svg width="277" height="79" viewBox="0 0 277 79" fill="none" xmlns="http://www.w3.org/2000/svg">
<path d="M3 56.6914C3 67.1848 11.5066 75.6914 22 75.6914H255C265.493 75.6914 274 67.1848 274 56.6914V39.6266C274 29.1332 265.493 20.6266 255 20.6266H108.049C107.113 20.6266 106.199 20.365 105.395 19.8865C99.8155 16.5646 76.3387 3.19141 60 3.19141C57.2111 3.19141 58.4341 8.61584 60.0611 13.4134C61.228 16.8543 58.7755 20.6266 55.1421 20.6266H22C11.5066 20.6266 3 29.1331 3 39.6266V56.6914Z" fill="#ADC178" stroke="#437338" stroke-width="6"/>
<path d="M21.344 40.9954V52.6914H19.296V40.9954H21.344ZM26.0806 42.1794L25.6006 45.6354H24.5606L24.0806 42.1794C24.0273 41.8807 24.0486 41.6407 24.1446 41.4594C24.2513 41.2781 24.39 41.1447 24.5606 41.0594C24.742 40.9634 24.9286 40.9154 25.1206 40.9154C25.2806 40.9154 25.4406 40.9634 25.6006 41.0594C25.7713 41.1447 25.9046 41.2781 26.0006 41.4594C26.0966 41.6407 26.1233 41.8807 26.0806 42.1794ZM30.4669 52.6914H28.5149V44.7874H30.3069L30.5469 46.1954L30.3229 46.0034C30.4829 45.6194 30.7762 45.2834 31.2029 44.9954C31.6295 44.6967 32.1629 44.5474 32.8029 44.5474C33.4962 44.5474 34.0615 44.7287 34.4989 45.0914C34.9469 45.4541 35.2562 45.9341 35.4269 46.5314H35.1069C35.2242 45.9341 35.5229 45.4541 36.0029 45.0914C36.4935 44.7287 37.0855 44.5474 37.7789 44.5474C38.7389 44.5474 39.4749 44.8194 39.9869 45.3634C40.4989 45.8967 40.7549 46.6167 40.7549 47.5234V52.6914H38.8189V48.0354C38.8189 47.4701 38.6749 47.0434 38.3869 46.7554C38.1095 46.4567 37.7362 46.3074 37.2669 46.3074C36.9682 46.3074 36.6909 46.3767 36.4349 46.5154C36.1895 46.6541 35.9922 46.8621 35.8429 47.1394C35.6935 47.4167 35.6189 47.7741 35.6189 48.2114V52.6914H33.6669V48.0194C33.6669 47.4647 33.5282 47.0434 33.2509 46.7554C32.9735 46.4674 32.6055 46.3234 32.1469 46.3234C31.8375 46.3234 31.5549 46.3927 31.2989 46.5314C31.0429 46.6594 30.8402 46.8674 30.6909 47.1554C30.5415 47.4327 30.4669 47.7847 30.4669 48.2114V52.6914ZM47.3356 50.2914H49.1916C49.2023 50.6327 49.3303 50.9047 49.5756 51.1074C49.821 51.3101 50.1623 51.4114 50.5996 51.4114C51.069 51.4114 51.421 51.3261 51.6556 51.1554C51.901 50.9847 52.0236 50.7554 52.0236 50.4674C52.0236 50.2754 51.9596 50.1047 51.8316 49.9554C51.7036 49.8061 51.4636 49.6941 51.1116 49.6194L49.6876 49.2834C48.973 49.1234 48.4396 48.8674 48.0876 48.5154C47.7463 48.1527 47.5756 47.6567 47.5756 47.0274C47.5756 46.5154 47.709 46.0727 47.9756 45.6994C48.253 45.3261 48.6263 45.0434 49.0956 44.8514C49.565 44.6487 50.1036 44.5474 50.7116 44.5474C51.2983 44.5474 51.8156 44.6541 52.2636 44.8674C52.7116 45.0807 53.0583 45.3794 53.3036 45.7634C53.5596 46.1474 53.693 46.5954 53.7036 47.1074H51.8476C51.8476 46.7661 51.741 46.4994 51.5276 46.3074C51.3143 46.1047 51.0156 46.0034 50.6316 46.0034C50.2476 46.0034 49.949 46.0887 49.7356 46.2594C49.5223 46.4301 49.4156 46.6594 49.4156 46.9474C49.4156 47.3847 49.757 47.6834 50.4396 47.8434L51.8636 48.1794C52.525 48.3287 53.021 48.5687 53.3516 48.8994C53.693 49.2301 53.8636 49.6994 53.8636 50.3074C53.8636 50.8407 53.725 51.3047 53.4476 51.6994C53.1703 52.0834 52.781 52.3821 52.2796 52.5954C51.7783 52.7981 51.2023 52.8994 50.5516 52.8994C49.5703 52.8994 48.7863 52.6594 48.1996 52.1794C47.6236 51.6994 47.3356 51.0701 47.3356 50.2914ZM55.3659 48.7234C55.3659 47.9127 55.5312 47.1927 55.8619 46.5634C56.2032 45.9341 56.6672 45.4434 57.2539 45.0914C57.8512 44.7287 58.5392 44.5474 59.3179 44.5474C60.3952 44.5474 61.2752 44.8301 61.9579 45.3954C62.6512 45.9501 63.0512 46.7021 63.1579 47.6514H61.2059C61.0885 47.2034 60.8699 46.8674 60.5499 46.6434C60.2405 46.4087 59.8512 46.2914 59.3819 46.2914C58.9765 46.2914 58.6139 46.3927 58.2939 46.5954C57.9845 46.7874 57.7445 47.0647 57.5739 47.4274C57.4032 47.7901 57.3179 48.2221 57.3179 48.7234C57.3179 49.2247 57.3979 49.6567 57.5579 50.0194C57.7179 50.3821 57.9472 50.6647 58.2459 50.8674C58.5552 51.0594 58.9179 51.1554 59.3339 51.1554C59.8245 51.1554 60.2299 51.0381 60.5499 50.8034C60.8805 50.5687 61.0992 50.2327 61.2059 49.7954H63.1739C63.0885 50.4141 62.8699 50.9581 62.5179 51.4274C62.1765 51.8861 61.7339 52.2487 61.1899 52.5154C60.6459 52.7714 60.0272 52.8994 59.3339 52.8994C58.5339 52.8994 57.8352 52.7287 57.2379 52.3874C56.6405 52.0354 56.1765 51.5501 55.8459 50.9314C55.5259 50.3021 55.3659 49.5661 55.3659 48.7234ZM67.4588 52.8994C66.6268 52.8994 65.9654 52.6754 65.4748 52.2274C64.9948 51.7687 64.7548 51.1714 64.7548 50.4354C64.7548 49.7101 65.0054 49.1341 65.5068 48.7074C66.0188 48.2701 66.7441 48.0141 67.6828 47.9394L70.0508 47.7474V47.5714C70.0508 47.2087 69.9814 46.9207 69.8428 46.7074C69.7148 46.4834 69.5281 46.3234 69.2828 46.2274C69.0374 46.1207 68.7494 46.0674 68.4188 46.0674C67.8428 46.0674 67.4001 46.1847 67.0908 46.4194C66.7814 46.6434 66.6268 46.9634 66.6268 47.3794H64.9628C64.9628 46.8034 65.1068 46.3074 65.3948 45.8914C65.6934 45.4647 66.1094 45.1341 66.6428 44.8994C67.1868 44.6647 67.8108 44.5474 68.5148 44.5474C69.2294 44.5474 69.8428 44.6754 70.3548 44.9314C70.8668 45.1767 71.2614 45.5501 71.5388 46.0514C71.8161 46.5421 71.9548 47.1554 71.9548 47.8914V52.6914H70.2428L70.0988 51.5234C69.9281 51.9287 69.5974 52.2594 69.1068 52.5154C68.6268 52.7714 68.0774 52.8994 67.4588 52.8994ZM68.0828 51.4274C68.6908 51.4274 69.1708 51.2567 69.5228 50.9154C69.8854 50.5741 70.0668 50.0994 70.0668 49.4914V49.0754L68.4188 49.2034C67.8108 49.2567 67.3788 49.3847 67.1228 49.5874C66.8668 49.7794 66.7388 50.0354 66.7388 50.3554C66.7388 50.7074 66.8561 50.9741 67.0908 51.1554C67.3254 51.3367 67.6561 51.4274 68.0828 51.4274ZM79.3124 44.7554V46.5634H78.5924C77.8777 46.5634 77.3177 46.7554 76.9124 47.1394C76.507 47.5127 76.3044 48.0834 76.3044 48.8514V52.6914H74.3524V44.8034H76.1924L76.3524 46.4354H76.1604C76.267 45.9127 76.5177 45.4861 76.9124 45.1554C77.307 44.8247 77.819 44.6594 78.4484 44.6594C78.587 44.6594 78.7257 44.6647 78.8644 44.6754C79.003 44.6861 79.1524 44.7127 79.3124 44.7554ZM84.384 52.8994C83.6053 52.8994 82.912 52.7234 82.304 52.3714C81.7067 52.0087 81.2373 51.5181 80.896 50.8994C80.5547 50.2701 80.384 49.5501 80.384 48.7394C80.384 47.9181 80.5493 47.1927 80.88 46.5634C81.2107 45.9341 81.6747 45.4434 82.272 45.0914C82.8693 44.7287 83.552 44.5474 84.32 44.5474C85.12 44.5474 85.808 44.7181 86.384 45.0594C86.96 45.3901 87.4027 45.8541 87.712 46.4514C88.032 47.0487 88.192 47.7634 88.192 48.5954V49.1874L81.408 49.2034L81.44 47.9554H86.256C86.256 47.4114 86.08 46.9741 85.728 46.6434C85.3867 46.3127 84.9227 46.1474 84.336 46.1474C83.8773 46.1474 83.488 46.2434 83.168 46.4354C82.8587 46.6274 82.624 46.9154 82.464 47.2994C82.304 47.6834 82.224 48.1527 82.224 48.7074C82.224 49.5607 82.4053 50.2061 82.768 50.6434C83.1413 51.0807 83.6907 51.2994 84.416 51.2994C84.9493 51.2994 85.3867 51.1981 85.728 50.9954C86.08 50.7927 86.3093 50.5047 86.416 50.1314H88.224C88.0533 50.9954 87.6267 51.6727 86.944 52.1634C86.272 52.6541 85.4187 52.8994 84.384 52.8994ZM93.4822 52.8994C92.7142 52.8994 92.0529 52.7287 91.4982 52.3874C90.9542 52.0354 90.5276 51.5501 90.2182 50.9314C89.9196 50.3127 89.7702 49.5927 89.7702 48.7714C89.7702 47.9501 89.9196 47.2247 90.2182 46.5954C90.5276 45.9554 90.9702 45.4541 91.5462 45.0914C92.1222 44.7287 92.8049 44.5474 93.5942 44.5474C94.1489 44.5474 94.6556 44.6594 95.1143 44.8834C95.5729 45.0967 95.9249 45.4007 96.1702 45.7954V40.7874H98.1062V52.6914H96.3142L96.1863 51.4594C95.9516 51.9074 95.5889 52.2594 95.0982 52.5154C94.6183 52.7714 94.0796 52.8994 93.4822 52.8994ZM93.9142 51.1074C94.3729 51.1074 94.7676 51.0114 95.0982 50.8194C95.4289 50.6167 95.6849 50.3341 95.8663 49.9714C96.0583 49.5981 96.1543 49.1767 96.1543 48.7074C96.1543 48.2274 96.0583 47.8114 95.8663 47.4594C95.6849 47.0967 95.4289 46.8141 95.0982 46.6114C94.7676 46.3981 94.3729 46.2914 93.9142 46.2914C93.4662 46.2914 93.0769 46.3981 92.7462 46.6114C92.4156 46.8141 92.1596 47.0967 91.9782 47.4594C91.8076 47.8221 91.7222 48.2381 91.7222 48.7074C91.7222 49.1767 91.8076 49.5927 91.9782 49.9554C92.1596 50.3181 92.4156 50.6007 92.7462 50.8034C93.0769 51.0061 93.4662 51.1074 93.9142 51.1074ZM104.949 48.7234C104.949 47.9021 105.13 47.1821 105.493 46.5634C105.856 45.9341 106.357 45.4434 106.997 45.0914C107.637 44.7394 108.362 44.5634 109.173 44.5634C109.994 44.5634 110.72 44.7394 111.349 45.0914C111.989 45.4434 112.49 45.9341 112.853 46.5634C113.216 47.1821 113.397 47.9021 113.397 48.7234C113.397 49.5447 113.216 50.2701 112.853 50.8994C112.49 51.5181 111.989 52.0034 111.349 52.3554C110.72 52.7074 109.994 52.8834 109.173 52.8834C108.362 52.8834 107.637 52.7074 106.997 52.3554C106.357 52.0034 105.856 51.5181 105.493 50.8994C105.13 50.2701 104.949 49.5447 104.949 48.7234ZM106.901 48.7234C106.901 49.2034 106.997 49.6247 107.189 49.9874C107.392 50.3501 107.658 50.6327 107.989 50.8354C108.33 51.0381 108.725 51.1394 109.173 51.1394C109.621 51.1394 110.016 51.0381 110.357 50.8354C110.698 50.6327 110.965 50.3501 111.157 49.9874C111.349 49.6247 111.445 49.2034 111.445 48.7234C111.445 48.2327 111.349 47.8114 111.157 47.4594C110.965 47.0967 110.698 46.8141 110.357 46.6114C110.016 46.4087 109.621 46.3074 109.173 46.3074C108.725 46.3074 108.33 46.4087 107.989 46.6114C107.658 46.8141 107.392 47.0967 107.189 47.4594C106.997 47.8114 106.901 48.2327 106.901 48.7234ZM114.609 44.7874H119.569V46.4194H114.609V44.7874ZM119.585 40.8674V42.5314C119.478 42.5314 119.366 42.5314 119.249 42.5314C119.142 42.5314 119.03 42.5314 118.913 42.5314C118.422 42.5314 118.092 42.6487 117.921 42.8834C117.761 43.1181 117.681 43.4327 117.681 43.8274V52.6914H115.745V43.8274C115.745 43.1021 115.862 42.5207 116.097 42.0834C116.332 41.6354 116.662 41.3101 117.089 41.1074C117.516 40.8941 118.012 40.7874 118.577 40.7874C118.737 40.7874 118.902 40.7927 119.073 40.8034C119.254 40.8141 119.425 40.8354 119.585 40.8674ZM125.639 48.5634C125.639 47.7954 125.794 47.1127 126.103 46.5154C126.423 45.9074 126.866 45.4274 127.431 45.0754C127.997 44.7234 128.653 44.5474 129.399 44.5474C130.071 44.5474 130.647 44.6967 131.127 44.9954C131.607 45.2834 131.943 45.6887 132.135 46.2114L131.927 46.3874L132.087 44.7874H133.895V52.2914C133.895 53.1661 133.725 53.9234 133.383 54.5634C133.053 55.2141 132.578 55.7101 131.959 56.0514C131.351 56.4034 130.615 56.5794 129.751 56.5794C128.621 56.5794 127.693 56.2754 126.967 55.6674C126.242 55.0594 125.815 54.2274 125.687 53.1714H127.639C127.703 53.6834 127.917 54.0834 128.279 54.3714C128.653 54.6594 129.143 54.8034 129.751 54.8034C130.423 54.8034 130.957 54.6061 131.351 54.2114C131.757 53.8274 131.959 53.3047 131.959 52.6434V50.6754L132.183 50.8834C131.991 51.3847 131.639 51.7847 131.127 52.0834C130.615 52.3821 130.023 52.5314 129.351 52.5314C128.605 52.5314 127.954 52.3607 127.399 52.0194C126.845 51.6781 126.413 51.2087 126.103 50.6114C125.794 50.0141 125.639 49.3314 125.639 48.5634ZM127.607 48.5154C127.607 48.9634 127.693 49.3634 127.863 49.7154C128.045 50.0567 128.295 50.3287 128.615 50.5314C128.935 50.7341 129.309 50.8354 129.735 50.8354C130.183 50.8354 130.567 50.7394 130.887 50.5474C131.218 50.3447 131.469 50.0727 131.639 49.7314C131.821 49.3794 131.911 48.9741 131.911 48.5154C131.911 48.0567 131.826 47.6621 131.655 47.3314C131.485 46.9901 131.234 46.7234 130.903 46.5314C130.583 46.3394 130.194 46.2434 129.735 46.2434C129.298 46.2434 128.919 46.3447 128.599 46.5474C128.279 46.7394 128.034 47.0061 127.863 47.3474C127.693 47.6887 127.607 48.0781 127.607 48.5154ZM139.931 52.8994C139.153 52.8994 138.459 52.7234 137.851 52.3714C137.254 52.0087 136.785 51.5181 136.443 50.8994C136.102 50.2701 135.931 49.5501 135.931 48.7394C135.931 47.9181 136.097 47.1927 136.427 46.5634C136.758 45.9341 137.222 45.4434 137.819 45.0914C138.417 44.7287 139.099 44.5474 139.867 44.5474C140.667 44.5474 141.355 44.7181 141.931 45.0594C142.507 45.3901 142.95 45.8541 143.259 46.4514C143.579 47.0487 143.739 47.7634 143.739 48.5954V49.1874L136.955 49.2034L136.987 47.9554H141.803C141.803 47.4114 141.627 46.9741 141.275 46.6434C140.934 46.3127 140.47 46.1474 139.883 46.1474C139.425 46.1474 139.035 46.2434 138.715 46.4354C138.406 46.6274 138.171 46.9154 138.011 47.2994C137.851 47.6834 137.771 48.1527 137.771 48.7074C137.771 49.5607 137.953 50.2061 138.315 50.6434C138.689 51.0807 139.238 51.2994 139.963 51.2994C140.497 51.2994 140.934 51.1981 141.275 50.9954C141.627 50.7927 141.857 50.5047 141.963 50.1314H143.771C143.601 50.9954 143.174 51.6727 142.491 52.1634C141.819 52.6541 140.966 52.8994 139.931 52.8994ZM144.92 44.7874H149.912V46.4194H144.92V44.7874ZM148.392 52.6914H146.44V42.3234H148.392V52.6914ZM151.056 44.7874H156.048V46.4194H151.056V44.7874ZM154.528 52.6914H152.576V42.3234H154.528V52.6914ZM157.757 52.6914V44.7874H159.709V52.6914H157.757ZM158.717 43.2034C158.387 43.2034 158.104 43.0914 157.869 42.8674C157.645 42.6327 157.533 42.3501 157.533 42.0194C157.533 41.6887 157.645 41.4114 157.869 41.1874C158.104 40.9634 158.387 40.8514 158.717 40.8514C159.048 40.8514 159.325 40.9634 159.549 41.1874C159.784 41.4114 159.901 41.6887 159.901 42.0194C159.901 42.3501 159.784 42.6327 159.549 42.8674C159.325 43.0914 159.048 43.2034 158.717 43.2034ZM164.158 52.6914H162.206V44.7874H164.014L164.174 45.8114C164.419 45.4167 164.766 45.1074 165.214 44.8834C165.673 44.6594 166.169 44.5474 166.702 44.5474C167.694 44.5474 168.441 44.8407 168.942 45.4274C169.454 46.0141 169.71 46.8141 169.71 47.8274V52.6914H167.758V48.2914C167.758 47.6301 167.609 47.1394 167.31 46.8194C167.011 46.4887 166.606 46.3234 166.094 46.3234C165.486 46.3234 165.011 46.5154 164.67 46.8994C164.329 47.2834 164.158 47.7954 164.158 48.4354V52.6914ZM171.66 48.5634C171.66 47.7954 171.815 47.1127 172.124 46.5154C172.444 45.9074 172.887 45.4274 173.452 45.0754C174.017 44.7234 174.673 44.5474 175.42 44.5474C176.092 44.5474 176.668 44.6967 177.148 44.9954C177.628 45.2834 177.964 45.6887 178.156 46.2114L177.948 46.3874L178.108 44.7874H179.916V52.2914C179.916 53.1661 179.745 53.9234 179.404 54.5634C179.073 55.2141 178.599 55.7101 177.98 56.0514C177.372 56.4034 176.636 56.5794 175.772 56.5794C174.641 56.5794 173.713 56.2754 172.988 55.6674C172.263 55.0594 171.836 54.2274 171.708 53.1714H173.66C173.724 53.6834 173.937 54.0834 174.3 54.3714C174.673 54.6594 175.164 54.8034 175.772 54.8034C176.444 54.8034 176.977 54.6061 177.372 54.2114C177.777 53.8274 177.98 53.3047 177.98 52.6434V50.6754L178.204 50.8834C178.012 51.3847 177.66 51.7847 177.148 52.0834C176.636 52.3821 176.044 52.5314 175.372 52.5314C174.625 52.5314 173.975 52.3607 173.42 52.0194C172.865 51.6781 172.433 51.2087 172.124 50.6114C171.815 50.0141 171.66 49.3314 171.66 48.5634ZM173.628 48.5154C173.628 48.9634 173.713 49.3634 173.884 49.7154C174.065 50.0567 174.316 50.3287 174.636 50.5314C174.956 50.7341 175.329 50.8354 175.756 50.8354C176.204 50.8354 176.588 50.7394 176.908 50.5474C177.239 50.3447 177.489 50.0727 177.66 49.7314C177.841 49.3794 177.932 48.9741 177.932 48.5154C177.932 48.0567 177.847 47.6621 177.676 47.3314C177.505 46.9901 177.255 46.7234 176.924 46.5314C176.604 46.3394 176.215 46.2434 175.756 46.2434C175.319 46.2434 174.94 46.3447 174.62 46.5474C174.3 46.7394 174.055 47.0061 173.884 47.3474C173.713 47.6887 173.628 48.0781 173.628 48.5154ZM186.601 50.2914H188.457C188.467 50.6327 188.595 50.9047 188.841 51.1074C189.086 51.3101 189.427 51.4114 189.865 51.4114C190.334 51.4114 190.686 51.3261 190.921 51.1554C191.166 50.9847 191.289 50.7554 191.289 50.4674C191.289 50.2754 191.225 50.1047 191.097 49.9554C190.969 49.8061 190.729 49.6941 190.377 49.6194L188.953 49.2834C188.238 49.1234 187.705 48.8674 187.353 48.5154C187.011 48.1527 186.841 47.6567 186.841 47.0274C186.841 46.5154 186.974 46.0727 187.241 45.6994C187.518 45.3261 187.891 45.0434 188.361 44.8514C188.83 44.6487 189.369 44.5474 189.977 44.5474C190.563 44.5474 191.081 44.6541 191.529 44.8674C191.977 45.0807 192.323 45.3794 192.569 45.7634C192.825 46.1474 192.958 46.5954 192.969 47.1074H191.113C191.113 46.7661 191.006 46.4994 190.793 46.3074C190.579 46.1047 190.281 46.0034 189.897 46.0034C189.513 46.0034 189.214 46.0887 189.001 46.2594C188.787 46.4301 188.681 46.6594 188.681 46.9474C188.681 47.3847 189.022 47.6834 189.705 47.8434L191.129 48.1794C191.79 48.3287 192.286 48.5687 192.617 48.8994C192.958 49.2301 193.129 49.6994 193.129 50.3074C193.129 50.8407 192.99 51.3047 192.713 51.6994C192.435 52.0834 192.046 52.3821 191.545 52.5954C191.043 52.7981 190.467 52.8994 189.817 52.8994C188.835 52.8994 188.051 52.6594 187.465 52.1794C186.889 51.6994 186.601 51.0701 186.601 50.2914ZM194.631 48.7234C194.631 47.9127 194.796 47.1927 195.127 46.5634C195.468 45.9341 195.932 45.4434 196.519 45.0914C197.116 44.7287 197.804 44.5474 198.583 44.5474C199.66 44.5474 200.54 44.8301 201.223 45.3954C201.916 45.9501 202.316 46.7021 202.423 47.6514H200.471C200.354 47.2034 200.135 46.8674 199.815 46.6434C199.506 46.4087 199.116 46.2914 198.647 46.2914C198.242 46.2914 197.879 46.3927 197.559 46.5954C197.25 46.7874 197.01 47.0647 196.839 47.4274C196.668 47.7901 196.583 48.2221 196.583 48.7234C196.583 49.2247 196.663 49.6567 196.823 50.0194C196.983 50.3821 197.212 50.6647 197.511 50.8674C197.82 51.0594 198.183 51.1554 198.599 51.1554C199.09 51.1554 199.495 51.0381 199.815 50.8034C200.146 50.5687 200.364 50.2327 200.471 49.7954H202.439C202.354 50.4141 202.135 50.9581 201.783 51.4274C201.442 51.8861 200.999 52.2487 200.455 52.5154C199.911 52.7714 199.292 52.8994 198.599 52.8994C197.799 52.8994 197.1 52.7287 196.503 52.3874C195.906 52.0354 195.442 51.5501 195.111 50.9314C194.791 50.3021 194.631 49.5661 194.631 48.7234ZM206.724 52.8994C205.892 52.8994 205.23 52.6754 204.74 52.2274C204.26 51.7687 204.02 51.1714 204.02 50.4354C204.02 49.7101 204.27 49.1341 204.772 48.7074C205.284 48.2701 206.009 48.0141 206.948 47.9394L209.316 47.7474V47.5714C209.316 47.2087 209.246 46.9207 209.108 46.7074C208.98 46.4834 208.793 46.3234 208.548 46.2274C208.302 46.1207 208.014 46.0674 207.684 46.0674C207.108 46.0674 206.665 46.1847 206.356 46.4194C206.046 46.6434 205.892 46.9634 205.892 47.3794H204.228C204.228 46.8034 204.372 46.3074 204.66 45.8914C204.958 45.4647 205.374 45.1341 205.908 44.8994C206.452 44.6647 207.076 44.5474 207.78 44.5474C208.494 44.5474 209.108 44.6754 209.62 44.9314C210.132 45.1767 210.526 45.5501 210.804 46.0514C211.081 46.5421 211.22 47.1554 211.22 47.8914V52.6914H209.508L209.364 51.5234C209.193 51.9287 208.862 52.2594 208.372 52.5154C207.892 52.7714 207.342 52.8994 206.724 52.8994ZM207.348 51.4274C207.956 51.4274 208.436 51.2567 208.788 50.9154C209.15 50.5741 209.332 50.0994 209.332 49.4914V49.0754L207.684 49.2034C207.076 49.2567 206.644 49.3847 206.388 49.5874C206.132 49.7794 206.004 50.0354 206.004 50.3554C206.004 50.7074 206.121 50.9741 206.356 51.1554C206.59 51.3367 206.921 51.4274 207.348 51.4274ZM215.569 52.6914H213.617V44.7874H215.409L215.649 46.1954L215.425 46.0034C215.585 45.6194 215.879 45.2834 216.305 44.9954C216.732 44.6967 217.265 44.5474 217.905 44.5474C218.599 44.5474 219.164 44.7287 219.601 45.0914C220.049 45.4541 220.359 45.9341 220.529 46.5314H220.209C220.327 45.9341 220.625 45.4541 221.105 45.0914C221.596 44.7287 222.188 44.5474 222.881 44.5474C223.841 44.5474 224.577 44.8194 225.089 45.3634C225.601 45.8967 225.857 46.6167 225.857 47.5234V52.6914H223.921V48.0354C223.921 47.4701 223.777 47.0434 223.489 46.7554C223.212 46.4567 222.839 46.3074 222.369 46.3074C222.071 46.3074 221.793 46.3767 221.537 46.5154C221.292 46.6541 221.095 46.8621 220.945 47.1394C220.796 47.4167 220.721 47.7741 220.721 48.2114V52.6914H218.769V48.0194C218.769 47.4647 218.631 47.0434 218.353 46.7554C218.076 46.4674 217.708 46.3234 217.249 46.3234C216.94 46.3234 216.657 46.3927 216.401 46.5314C216.145 46.6594 215.943 46.8674 215.793 47.1554C215.644 47.4327 215.569 47.7847 215.569 48.2114V52.6914ZM230.206 52.6914H228.254V44.7874H230.046L230.286 46.1954L230.062 46.0034C230.222 45.6194 230.515 45.2834 230.942 44.9954C231.368 44.6967 231.902 44.5474 232.542 44.5474C233.235 44.5474 233.8 44.7287 234.238 45.0914C234.686 45.4541 234.995 45.9341 235.166 46.5314H234.846C234.963 45.9341 235.262 45.4541 235.742 45.0914C236.232 44.7287 236.824 44.5474 237.518 44.5474C238.478 44.5474 239.214 44.8194 239.726 45.3634C240.238 45.8967 240.494 46.6167 240.494 47.5234V52.6914H238.558V48.0354C238.558 47.4701 238.414 47.0434 238.126 46.7554C237.848 46.4567 237.475 46.3074 237.006 46.3074C236.707 46.3074 236.43 46.3767 236.174 46.5154C235.928 46.6541 235.731 46.8621 235.582 47.1394C235.432 47.4167 235.358 47.7741 235.358 48.2114V52.6914H233.406V48.0194C233.406 47.4647 233.267 47.0434 232.99 46.7554C232.712 46.4674 232.344 46.3234 231.886 46.3234C231.576 46.3234 231.294 46.3927 231.038 46.5314C230.782 46.6594 230.579 46.8674 230.43 47.1554C230.28 47.4327 230.206 47.7847 230.206 48.2114V52.6914ZM246.426 52.8994C245.647 52.8994 244.954 52.7234 244.346 52.3714C243.749 52.0087 243.279 51.5181 242.938 50.8994C242.597 50.2701 242.426 49.5501 242.426 48.7394C242.426 47.9181 242.591 47.1927 242.922 46.5634C243.253 45.9341 243.717 45.4434 244.314 45.0914C244.911 44.7287 245.594 44.5474 246.362 44.5474C247.162 44.5474 247.85 44.7181 248.426 45.0594C249.002 45.3901 249.445 45.8541 249.754 46.4514C250.074 47.0487 250.234 47.7634 250.234 48.5954V49.1874L243.45 49.2034L243.482 47.9554H248.298C248.298 47.4114 248.122 46.9741 247.77 46.6434C247.429 46.3127 246.965 46.1474 246.378 46.1474C245.919 46.1474 245.53 46.2434 245.21 46.4354C244.901 46.6274 244.666 46.9154 244.506 47.2994C244.346 47.6834 244.266 48.1527 244.266 48.7074C244.266 49.5607 244.447 50.2061 244.81 50.6434C245.183 51.0807 245.733 51.2994 246.458 51.2994C246.991 51.2994 247.429 51.1981 247.77 50.9954C248.122 50.7927 248.351 50.5047 248.458 50.1314H250.266C250.095 50.9954 249.669 51.6727 248.986 52.1634C248.314 52.6541 247.461 52.8994 246.426 52.8994ZM255.524 52.8994C254.756 52.8994 254.095 52.7287 253.54 52.3874C252.996 52.0354 252.569 51.5501 252.26 50.9314C251.961 50.3127 251.812 49.5927 251.812 48.7714C251.812 47.9501 251.961 47.2247 252.26 46.5954C252.569 45.9554 253.012 45.4541 253.588 45.0914C254.164 44.7287 254.847 44.5474 255.636 44.5474C256.191 44.5474 256.697 44.6594 257.156 44.8834C257.615 45.0967 257.967 45.4007 258.212 45.7954V40.7874H260.148V52.6914H258.356L258.228 51.4594C257.993 51.9074 257.631 52.2594 257.14 52.5154C256.66 52.7714 256.121 52.8994 255.524 52.8994ZM255.956 51.1074C256.415 51.1074 256.809 51.0114 257.14 50.8194C257.471 50.6167 257.727 50.3341 257.908 49.9714C258.1 49.5981 258.196 49.1767 258.196 48.7074C258.196 48.2274 258.1 47.8114 257.908 47.4594C257.727 47.0967 257.471 46.8141 257.14 46.6114C256.809 46.3981 256.415 46.2914 255.956 46.2914C255.508 46.2914 255.119 46.3981 254.788 46.6114C254.457 46.8141 254.201 47.0967 254.02 47.4594C253.849 47.8221 253.764 48.2381 253.764 48.7074C253.764 49.1767 253.849 49.5927 254.02 49.9554C254.201 50.3181 254.457 50.6007 254.788 50.8034C255.119 51.0061 255.508 51.1074 255.956 51.1074Z" fill="#F7F7F7"/>
</svg>
