<svg width="154" height="154" viewBox="0 0 154 154" fill="none" xmlns="http://www.w3.org/2000/svg">
<g filter="url(#filter0_d_223_257)">
<path d="M72.3861 14.3687L43.5695 24.0287C39.2426 25.4792 35.6639 28.5802 33.6124 32.6565L15.4771 68.6915C13.4024 72.8141 13.0604 77.5947 14.5273 81.9705L24.18 110.765C25.6567 115.17 28.8431 118.797 33.0219 120.828L69.0529 138.342C73.1292 140.324 77.8203 140.627 82.1177 139.186L111.034 129.493C115.405 128.027 119.01 124.879 121.051 120.745L138.472 85.4506C140.495 81.3537 140.814 76.6234 139.362 72.2915L129.626 43.2486C128.184 38.9461 125.11 35.3824 121.065 33.325L85.7314 15.3521C81.5948 13.248 76.7864 12.8936 72.3861 14.3687Z" fill="#ADC178"/>
</g>
<rect x="40.8535" y="32.407" width="5.66474" height="5.66474" transform="rotate(-18.5324 40.8535 32.407)" fill="#437338"/>
<rect x="46.2246" y="30.6064" width="5.66474" height="5.66474" transform="rotate(-18.5324 46.2246 30.6064)" fill="#437338"/>
<rect x="51.5957" y="28.8059" width="5.66474" height="5.66474" transform="rotate(-18.5324 51.5957 28.8059)" fill="#437338"/>
<rect x="56.9678" y="27.0051" width="5.66474" height="5.66474" transform="rotate(-18.5324 56.9678 27.0051)" fill="#437338"/>
<rect x="62.3379" y="25.2051" width="5.66474" height="5.66474" transform="rotate(-18.5324 62.3379 25.2051)" fill="#437338"/>
<rect x="67.708" y="23.4041" width="5.66474" height="5.66474" transform="rotate(-18.5324 67.708 23.4041)" fill="#437338"/>
<rect x="73.0791" y="21.6042" width="5.66474" height="5.66474" transform="rotate(-18.5324 73.0791 21.6042)" fill="#437338"/>
<rect x="37.2832" y="39.5784" width="5.66474" height="5.66474" transform="rotate(-18.5324 37.2832 39.5784)" fill="#437338"/>
<rect x="80.252" y="25.1743" width="5.66474" height="5.66474" transform="rotate(-18.5324 80.252 25.1743)" fill="#437338"/>
<rect x="33.7119" y="46.7495" width="5.66474" height="5.66474" transform="rotate(-18.5324 33.7119 46.7495)" fill="#437338"/>
<rect x="87.4219" y="28.7449" width="5.66474" height="5.66474" transform="rotate(-18.5324 87.4219 28.7449)" fill="#437338"/>
<rect x="30.1416" y="53.9219" width="5.66474" height="5.66474" transform="rotate(-18.5324 30.1416 53.9219)" fill="#437338"/>
<rect x="35.5127" y="52.1206" width="5.66474" height="5.66474" transform="rotate(-18.5324 35.5127 52.1206)" fill="#437338"/>
<rect x="40.8848" y="50.3206" width="5.66474" height="5.66474" transform="rotate(-18.5324 40.8848 50.3206)" fill="#437338"/>
<rect x="83.8516" y="35.917" width="5.66474" height="5.66474" transform="rotate(-18.5324 83.8516 35.917)" fill="#437338"/>
<rect x="89.2236" y="34.116" width="5.66474" height="5.66474" transform="rotate(-18.5324 89.2236 34.116)" fill="#437338"/>
<rect x="94.5938" y="32.3154" width="5.66474" height="5.66474" transform="rotate(-18.5324 94.5938 32.3154)" fill="#437338"/>
<rect x="31.9404" y="59.2922" width="5.66474" height="5.66474" transform="rotate(-18.5324 31.9404 59.2922)" fill="#437338"/>
<rect x="42.6846" y="55.6912" width="5.66474" height="5.66474" transform="rotate(-18.5324 42.6846 55.6912)" fill="#437338"/>
<rect x="80.2812" y="43.0879" width="5.66474" height="5.66474" transform="rotate(-18.5324 80.2812 43.0879)" fill="#437338"/>
<rect x="48.0557" y="53.8904" width="5.66474" height="5.66474" transform="rotate(-18.5324 48.0557 53.8904)" fill="#437338"/>
<rect x="85.6523" y="41.2871" width="5.66474" height="5.66474" transform="rotate(-18.5324 85.6523 41.2871)" fill="#437338"/>
<rect x="96.3945" y="37.6863" width="5.66474" height="5.66474" transform="rotate(-18.5324 96.3945 37.6863)" fill="#437338"/>
<rect x="23" y="68.2644" width="5.66474" height="5.66474" transform="rotate(-18.5324 23 68.2644)" fill="#437338"/>
<rect x="28.3711" y="66.4639" width="5.66474" height="5.66474" transform="rotate(-18.5324 28.3711 66.4639)" fill="#437338"/>
<rect x="49.8564" y="59.2617" width="5.66474" height="5.66474" transform="rotate(-18.5324 49.8564 59.2617)" fill="#437338"/>
<rect x="55.2275" y="57.4612" width="5.66474" height="5.66474" transform="rotate(-18.5324 55.2275 57.4612)" fill="#437338"/>
<rect x="82.0811" y="48.4595" width="5.66474" height="5.66474" transform="rotate(-18.5324 82.0811 48.4595)" fill="#437338"/>
<rect x="76.7119" y="50.2595" width="5.66474" height="5.66474" transform="rotate(-18.5324 76.7119 50.2595)" fill="#437338"/>
<rect x="103.566" y="41.2571" width="5.66474" height="5.66474" transform="rotate(-18.5324 103.566 41.2571)" fill="#437338"/>
<rect x="108.938" y="39.457" width="5.66474" height="5.66474" transform="rotate(-18.5324 108.938 39.457)" fill="#437338"/>
<rect x="19.4307" y="75.4358" width="5.66474" height="5.66474" transform="rotate(-18.5324 19.4307 75.4358)" fill="#437338"/>
<rect x="24.8018" y="73.6355" width="5.66474" height="5.66474" transform="rotate(-18.5324 24.8018 73.6355)" fill="#437338"/>
<rect x="57.0273" y="62.8325" width="5.66474" height="5.66474" transform="rotate(-18.5324 57.0273 62.8325)" fill="#437338"/>
<rect x="62.3975" y="61.0325" width="5.66474" height="5.66474" transform="rotate(-18.5324 62.3975 61.0325)" fill="#437338"/>
<rect x="67.7686" y="59.2317" width="5.66474" height="5.66474" transform="rotate(-18.5324 67.7686 59.2317)" fill="#437338"/>
<rect x="73.1406" y="57.4312" width="5.66474" height="5.66474" transform="rotate(-18.5324 73.1406 57.4312)" fill="#437338"/>
<rect x="78.5117" y="55.6304" width="5.66474" height="5.66474" transform="rotate(-18.5324 78.5117 55.6304)" fill="#437338"/>
<rect x="110.737" y="44.8276" width="5.66474" height="5.66474" transform="rotate(-18.5324 110.737 44.8276)" fill="#437338"/>
<rect x="116.108" y="43.0273" width="5.66474" height="5.66474" transform="rotate(-18.5324 116.108 43.0273)" fill="#437338"/>
<rect x="21.2314" y="80.8071" width="5.66474" height="5.66474" transform="rotate(-18.5324 21.2314 80.8071)" fill="#437338"/>
<rect x="53.457" y="70.0039" width="5.66474" height="5.66474" transform="rotate(-18.5324 53.457 70.0039)" fill="#437338"/>
<rect x="58.8281" y="68.2036" width="5.66474" height="5.66474" transform="rotate(-18.5324 58.8281 68.2036)" fill="#437338"/>
<rect x="85.6836" y="59.2014" width="5.66474" height="5.66474" transform="rotate(-18.5324 85.6836 59.2014)" fill="#437338"/>
<rect x="80.3125" y="61.0015" width="5.66474" height="5.66474" transform="rotate(-18.5324 80.3125 61.0015)" fill="#437338"/>
<rect x="117.909" y="48.3984" width="5.66474" height="5.66474" transform="rotate(-18.5324 117.909 48.3984)" fill="#437338"/>
<rect x="23.0312" y="86.178" width="5.66474" height="5.66474" transform="rotate(-18.5324 23.0312 86.178)" fill="#437338"/>
<rect x="28.4014" y="84.3772" width="5.66474" height="5.66474" transform="rotate(-18.5324 28.4014 84.3772)" fill="#437338"/>
<rect x="49.8857" y="77.1758" width="5.66474" height="5.66474" transform="rotate(-18.5324 49.8857 77.1758)" fill="#437338"/>
<rect x="92.8545" y="62.7717" width="5.66474" height="5.66474" transform="rotate(-18.5324 92.8545 62.7717)" fill="#437338"/>
<rect x="114.337" y="55.5698" width="5.66474" height="5.66474" transform="rotate(-18.5324 114.337 55.5698)" fill="#437338"/>
<rect x="119.71" y="53.7693" width="5.66474" height="5.66474" transform="rotate(-18.5324 119.71 53.7693)" fill="#437338"/>
<rect x="24.832" y="91.5488" width="5.66474" height="5.66474" transform="rotate(-18.5324 24.832 91.5488)" fill="#437338"/>
<rect x="30.2041" y="89.748" width="5.66474" height="5.66474" transform="rotate(-18.5324 30.2041 89.748)" fill="#437338"/>
<rect x="35.5732" y="87.9475" width="5.66474" height="5.66474" transform="rotate(-18.5324 35.5732 87.9475)" fill="#437338"/>
<rect x="46.3154" y="84.3467" width="5.66474" height="5.66474" transform="rotate(-18.5324 46.3154 84.3467)" fill="#437338"/>
<rect x="100.026" y="66.3416" width="5.66474" height="5.66474" transform="rotate(-18.5324 100.026 66.3416)" fill="#437338"/>
<rect x="110.769" y="62.7405" width="5.66474" height="5.66474" transform="rotate(-18.5324 110.769 62.7405)" fill="#437338"/>
<rect x="116.139" y="60.9407" width="5.66474" height="5.66474" transform="rotate(-18.5324 116.139 60.9407)" fill="#437338"/>
<rect x="121.51" y="59.1401" width="5.66474" height="5.66474" transform="rotate(-18.5324 121.51 59.1401)" fill="#437338"/>
<rect x="26.6318" y="96.9197" width="5.66474" height="5.66474" transform="rotate(-18.5324 26.6318 96.9197)" fill="#437338"/>
<rect x="32.0039" y="95.1189" width="5.66474" height="5.66474" transform="rotate(-18.5324 32.0039 95.1189)" fill="#437338"/>
<rect x="37.375" y="93.3186" width="5.66474" height="5.66474" transform="rotate(-18.5324 37.375 93.3186)" fill="#437338"/>
<rect x="42.7451" y="91.5183" width="5.66474" height="5.66474" transform="rotate(-18.5324 42.7451 91.5183)" fill="#437338"/>
<rect x="48.1162" y="89.7178" width="5.66474" height="5.66474" transform="rotate(-18.5324 48.1162 89.7178)" fill="#437338"/>
<rect x="101.826" y="71.7124" width="5.66474" height="5.66474" transform="rotate(-18.5324 101.826 71.7124)" fill="#437338"/>
<rect x="107.197" y="69.9124" width="5.66474" height="5.66474" transform="rotate(-18.5324 107.197 69.9124)" fill="#437338"/>
<rect x="112.568" y="68.1116" width="5.66474" height="5.66474" transform="rotate(-18.5324 112.568 68.1116)" fill="#437338"/>
<rect x="117.938" y="66.3115" width="5.66474" height="5.66474" transform="rotate(-18.5324 117.938 66.3115)" fill="#437338"/>
<rect x="123.31" y="64.5107" width="5.66474" height="5.66474" transform="rotate(-18.5324 123.31 64.5107)" fill="#437338"/>
<rect x="28.4336" y="102.291" width="5.66474" height="5.66474" transform="rotate(-18.5324 28.4336 102.291)" fill="#437338"/>
<rect x="33.8037" y="100.49" width="5.66474" height="5.66474" transform="rotate(-18.5324 33.8037 100.49)" fill="#437338"/>
<rect x="55.2881" y="93.2881" width="5.66474" height="5.66474" transform="rotate(-18.5324 55.2881 93.2881)" fill="#437338"/>
<rect x="98.2539" y="78.8845" width="5.66474" height="5.66474" transform="rotate(-18.5324 98.2539 78.8845)" fill="#437338"/>
<rect x="119.74" y="71.6824" width="5.66474" height="5.66474" transform="rotate(-18.5324 119.74 71.6824)" fill="#437338"/>
<rect x="125.11" y="69.8818" width="5.66474" height="5.66474" transform="rotate(-18.5324 125.11 69.8818)" fill="#437338"/>
<rect x="30.2334" y="107.662" width="5.66474" height="5.66474" transform="rotate(-18.5324 30.2334 107.662)" fill="#437338"/>
<rect x="35.6045" y="105.861" width="5.66474" height="5.66474" transform="rotate(-18.5324 35.6045 105.861)" fill="#437338"/>
<rect x="62.46" y="96.8589" width="5.66474" height="5.66474" transform="rotate(-18.5324 62.46 96.8589)" fill="#437338"/>
<rect x="67.8301" y="95.0583" width="5.66474" height="5.66474" transform="rotate(-18.5324 67.8301 95.0583)" fill="#437338"/>
<rect x="89.3135" y="87.856" width="5.66474" height="5.66474" transform="rotate(-18.5324 89.3135 87.856)" fill="#437338"/>
<rect x="94.6846" y="86.0562" width="5.66474" height="5.66474" transform="rotate(-18.5324 94.6846 86.0562)" fill="#437338"/>
<rect x="121.54" y="77.0537" width="5.66474" height="5.66474" transform="rotate(-18.5324 121.54 77.0537)" fill="#437338"/>
<rect x="126.91" y="75.2529" width="5.66474" height="5.66474" transform="rotate(-18.5324 126.91 75.2529)" fill="#437338"/>
<rect x="37.4053" y="111.232" width="5.66474" height="5.66474" transform="rotate(-18.5324 37.4053 111.232)" fill="#437338"/>
<rect x="42.7764" y="109.431" width="5.66474" height="5.66474" transform="rotate(-18.5324 42.7764 109.431)" fill="#437338"/>
<rect x="69.6318" y="100.429" width="5.66474" height="5.66474" transform="rotate(-18.5324 69.6318 100.429)" fill="#437338"/>
<rect x="75.002" y="98.6289" width="5.66474" height="5.66474" transform="rotate(-18.5324 75.002 98.6289)" fill="#437338"/>
<rect x="80.373" y="96.8281" width="5.66474" height="5.66474" transform="rotate(-18.5324 80.373 96.8281)" fill="#437338"/>
<rect x="85.7441" y="95.0278" width="5.66474" height="5.66474" transform="rotate(-18.5324 85.7441 95.0278)" fill="#437338"/>
<rect x="91.1143" y="93.2275" width="5.66474" height="5.66474" transform="rotate(-18.5324 91.1143 93.2275)" fill="#437338"/>
<rect x="117.97" y="84.2246" width="5.66474" height="5.66474" transform="rotate(-18.5324 117.97 84.2246)" fill="#437338"/>
<rect x="123.341" y="82.4246" width="5.66474" height="5.66474" transform="rotate(-18.5324 123.341 82.4246)" fill="#437338"/>
<rect x="49.9473" y="113.002" width="5.66474" height="5.66474" transform="rotate(-18.5324 49.9473 113.002)" fill="#437338"/>
<rect x="66.0605" y="107.6" width="5.66474" height="5.66474" transform="rotate(-18.5324 66.0605 107.6)" fill="#437338"/>
<rect x="60.6895" y="109.401" width="5.66474" height="5.66474" transform="rotate(-18.5324 60.6895 109.401)" fill="#437338"/>
<rect x="64.2607" y="102.23" width="5.66474" height="5.66474" transform="rotate(-18.5324 64.2607 102.23)" fill="#437338"/>
<rect x="98.2861" y="96.7981" width="5.66474" height="5.66474" transform="rotate(-18.5324 98.2861 96.7981)" fill="#437338"/>
<rect x="96.4854" y="91.427" width="5.66474" height="5.66474" transform="rotate(-18.5324 96.4854 91.427)" fill="#437338"/>
<rect x="114.4" y="91.3967" width="5.66474" height="5.66474" transform="rotate(-18.5324 114.4 91.3967)" fill="#437338"/>
<rect x="51.7471" y="118.373" width="5.66474" height="5.66474" transform="rotate(-18.5324 51.7471 118.373)" fill="#437338"/>
<rect x="57.1182" y="116.573" width="5.66474" height="5.66474" transform="rotate(-18.5324 57.1182 116.573)" fill="#437338"/>
<rect x="62.4893" y="114.772" width="5.66474" height="5.66474" transform="rotate(-18.5324 62.4893 114.772)" fill="#437338"/>
<rect x="103.657" y="94.9978" width="5.66474" height="5.66474" transform="rotate(-18.5324 103.657 94.9978)" fill="#437338"/>
<rect x="105.457" y="100.369" width="5.66474" height="5.66474" transform="rotate(-18.5324 105.457 100.369)" fill="#437338"/>
<rect x="110.828" y="98.5679" width="5.66474" height="5.66474" transform="rotate(-18.5324 110.828 98.5679)" fill="#437338"/>
<rect x="116.198" y="96.7678" width="5.66474" height="5.66474" transform="rotate(-18.5324 116.198 96.7678)" fill="#437338"/>
<rect x="58.9199" y="121.944" width="5.66474" height="5.66474" transform="rotate(-18.5324 58.9199 121.944)" fill="#437338"/>
<rect x="112.63" y="103.939" width="5.66474" height="5.66474" transform="rotate(-18.5324 112.63 103.939)" fill="#437338"/>
<rect x="66.0918" y="125.514" width="5.66474" height="5.66474" transform="rotate(-18.5324 66.0918 125.514)" fill="#437338"/>
<rect x="109.059" y="111.111" width="5.66474" height="5.66474" transform="rotate(-18.5324 109.059 111.111)" fill="#437338"/>
<rect x="73.2627" y="129.085" width="5.66474" height="5.66474" transform="rotate(-18.5324 73.2627 129.085)" fill="#437338"/>
<rect x="78.6328" y="127.284" width="5.66474" height="5.66474" transform="rotate(-18.5324 78.6328 127.284)" fill="#437338"/>
<rect x="84.0039" y="125.484" width="5.66474" height="5.66474" transform="rotate(-18.5324 84.0039 125.484)" fill="#437338"/>
<rect x="89.376" y="123.683" width="5.66474" height="5.66474" transform="rotate(-18.5324 89.376 123.683)" fill="#437338"/>
<rect x="94.7461" y="121.883" width="5.66474" height="5.66474" transform="rotate(-18.5324 94.7461 121.883)" fill="#437338"/>
<rect x="100.118" y="120.082" width="5.66474" height="5.66474" transform="rotate(-18.5324 100.118 120.082)" fill="#437338"/>
<rect x="105.486" y="118.282" width="5.66474" height="5.66474" transform="rotate(-18.5324 105.486 118.282)" fill="#437338"/>
<defs>
<filter id="filter0_d_223_257" x="10.9824" y="11.1056" width="133.051" height="133.034" filterUnits="userSpaceOnUse" color-interpolation-filters="sRGB">
<feFlood flood-opacity="0" result="BackgroundImageFix"/>
<feColorMatrix in="SourceAlpha" type="matrix" values="0 0 0 0 0 0 0 0 0 0 0 0 0 0 0 0 0 0 127 0" result="hardAlpha"/>
<feOffset dx="0.563291" dy="0.844937"/>
<feGaussianBlur stdDeviation="1.60538"/>
<feComposite in2="hardAlpha" operator="out"/>
<feColorMatrix type="matrix" values="0 0 0 0 0.504338 0 0 0 0 0.428074 0 0 0 0 0.389941 0 0 0 0.13 0"/>
<feBlend mode="normal" in2="BackgroundImageFix" result="effect1_dropShadow_223_257"/>
<feBlend mode="normal" in="SourceGraphic" in2="effect1_dropShadow_223_257" result="shape"/>
</filter>
</defs>
</svg>
