<svg width="183" height="144" viewBox="0 0 183 144" fill="none" xmlns="http://www.w3.org/2000/svg">
<path d="M84.3007 8.61164C90.5973 7.04255 97.2311 7.53175 103.229 10.0075L103.681 10.194C106.732 11.4533 109.968 12.2067 113.262 12.4247L117.163 12.6829C121.77 12.9878 126.195 14.5999 129.919 17.3302L131.169 18.2464C133.49 19.9481 136.186 21.0665 139.03 21.5071C144.457 22.3478 149.199 25.6278 151.901 30.4087L152.729 31.8733C154.094 34.2887 156.013 36.3459 158.327 37.8758C163.623 41.377 166.615 47.4668 166.148 53.7986L165.913 56.9795C165.707 59.7774 166.014 62.5895 166.821 65.2767L168.1 69.5366C169.919 75.5988 169.799 82.078 167.756 88.0685L167.182 89.7523C166.621 91.3971 166.202 93.087 165.93 94.8034L165.516 97.4183C164.824 101.791 162.964 105.895 160.133 109.298C158.835 110.858 157.344 112.245 155.76 113.513C153.919 114.988 151.316 117.187 149.012 119.555C146.444 122.193 141.122 128.236 126.609 136.215C122.085 138.703 102.615 140.614 99.1217 136.477C95.628 132.34 101.248 126.779 106.39 123.279C110.534 120.458 113.499 119.139 114.936 118.593C115.297 118.455 115.357 117.926 115.026 117.728C114.897 117.652 114.739 117.646 114.606 117.713L107.138 121.477C104.395 122.859 101.306 123.405 98.2559 123.046L92.5017 122.37C90.7599 122.165 89.0035 122.111 87.2524 122.209L82.0135 122.504C78.4766 122.702 74.9323 122.28 71.5409 121.257L70.4539 120.93C68.3259 120.288 66.1339 119.881 63.9172 119.718L59.7863 119.413C55.4584 119.094 51.2491 117.851 47.4422 115.768L39.5621 111.456L36.0475 109.615C30.8395 106.887 26.5351 102.707 23.657 97.5801L21.8897 94.4321C21.2132 93.2272 20.4102 92.0979 19.4943 91.0632C16.0644 87.1888 14.3207 82.1068 14.6494 76.9428L14.8801 73.3187C15.0385 70.8292 14.8346 68.3299 14.2747 65.899C13.1452 60.9956 13.4763 55.8688 15.2271 51.1514L16.9814 46.4247L18.6032 40.9493C20.0899 35.9296 23.4302 31.6633 27.9466 29.0156L28.6319 28.6138C30.6511 27.4301 32.4016 25.8386 33.7717 23.9409C36.6708 19.9255 41.1897 17.3888 46.1274 17.0049L46.5865 16.9692C49.6648 16.7299 52.6284 15.6959 55.1875 13.9683L56.3474 13.1853C60.7047 10.2437 65.9335 8.87325 71.1735 9.29935L74.0223 9.53101C77.3122 9.79853 80.6237 9.52791 83.8265 8.7298L84.3007 8.61164Z" fill="#437338"/>
<path d="M82.5815 15.1323C88.3741 13.6765 94.5152 14.1185 100.032 16.4083C102.837 17.5729 105.815 18.2693 108.846 18.4697L112.63 18.72C116.437 18.9717 120.092 20.3095 123.162 22.5747L124.111 23.2747C126.52 25.0521 129.382 26.1121 132.368 26.3323C137.629 26.7202 142.353 29.6965 144.974 34.2742L146.053 36.1577C147.363 38.4457 149.33 40.2871 151.7 41.4434C156.311 43.6936 159.193 48.4198 159.083 53.5497L158.962 59.1567C158.898 62.1304 159.44 65.0861 160.554 67.8437L160.748 68.3244C162.961 73.799 163.117 79.8897 161.188 85.4705L160.727 86.8027C160.162 88.4355 159.749 90.1167 159.492 91.8251L158.303 99.7361C158.089 101.154 157.648 102.527 156.995 103.803C154.829 108.036 150.308 110.435 146.159 112.758C145.23 113.278 144.333 113.926 143.554 114.731C141.265 117.099 138.804 123.661 125.869 130.824C121.837 133.057 109.009 136.542 105.898 132.833C102.787 129.124 112.135 126.038 116.718 122.896C117.264 122.522 117.807 122.127 118.342 121.718C122.259 118.728 120.049 112.998 115.134 112.636C114.051 112.556 112.966 112.774 111.998 113.268L107.879 115.366C103.415 117.64 98.3202 118.359 93.4015 117.409L92.8195 117.296C90.0242 116.756 87.1459 116.818 84.3763 117.477L83.8967 117.591C79.7052 118.589 75.2977 118.105 71.4219 116.223C68.5293 114.818 65.3228 114.185 62.1132 114.384L61.4568 114.424C56.8531 114.71 52.2822 113.484 48.4394 110.932L44.9451 108.613C43.6459 107.75 42.2652 107.017 40.8229 106.424L40.6208 106.341C35.2969 104.152 30.9726 100.068 28.4823 94.8782L27.5984 93.036C26.7737 91.3172 25.5979 89.7904 24.147 88.5539C20.5312 85.4726 18.7785 80.7323 19.5202 76.04L19.9828 73.113C20.3067 71.0634 20.2914 68.9745 19.9376 66.9298L19.6984 65.548C18.8904 60.8789 19.307 56.08 20.9076 51.62L22.0669 48.3894L23.394 43.2662C24.5756 38.7046 27.7993 34.9453 32.1273 33.0818L32.524 32.911C34.8105 31.9265 36.7854 30.3375 38.2366 28.3148C40.589 25.0359 44.2676 22.9612 48.2907 22.6443L49.2865 22.5659C52.0324 22.3497 54.6745 21.4215 56.9523 19.8729L57.9883 19.1686C61.8719 16.5283 66.5419 15.2962 71.2225 15.6771L73.6447 15.8742C76.6384 16.1178 79.6684 15.8644 82.5815 15.1323Z" fill="#ADC178"/>
<path d="M53.0829 66.4414L44.5689 65.8135L43.2309 46.6091L50.8071 47.1678L50.1879 59.6029L50.41 59.6193L52.7567 47.3116L58.5808 47.7411L59.0703 60.2828L59.2924 60.2991L60.5304 47.8849L68.1067 48.4436L64.1635 67.2585L55.6741 66.6325L54.859 61.5354L54.6369 61.519L53.0829 66.4414ZM81.6393 68.5472L75.3216 68.0813C75.2789 67.7639 75.2449 67.4388 75.2199 67.1062C75.2124 66.7582 75.2263 66.3457 75.2615 65.8686L75.0394 65.8522C75.0139 66.1977 74.8626 66.567 74.5855 66.9601C74.326 67.338 73.9222 67.6556 73.3739 67.9129C72.8268 68.1538 72.109 68.2414 71.2206 68.1759C70.0031 68.0861 69.0558 67.8095 68.3787 67.346C67.7016 66.8826 67.2386 66.3191 66.9898 65.6556C66.7422 64.9757 66.6463 64.2573 66.7021 63.5005L66.7894 62.3159C66.9059 60.7365 67.4844 59.6213 68.5249 58.9702C69.5655 58.319 71.262 58.0802 73.6147 58.2537C73.9438 58.278 74.2722 58.3105 74.6 58.3512C74.9443 58.3931 75.3045 58.4445 75.6804 58.5053C75.734 58.2281 75.6998 58.0188 75.5779 57.8774C75.4724 57.7373 75.3298 57.6524 75.15 57.6226C74.8399 57.5666 74.5373 57.5195 74.2424 57.4812C73.9651 57.4277 73.6866 57.3906 73.407 57.37C72.0908 57.2729 70.9687 57.3473 70.0408 57.5932C69.1293 57.8403 68.4077 58.0931 67.8758 58.3516L67.8247 52.9883C69.304 52.6673 70.6762 52.4542 71.9411 52.349C73.2225 52.245 74.3896 52.2318 75.4426 52.3094C77.713 52.4769 79.4312 53.0668 80.5972 54.0791C81.7808 55.0762 82.3083 56.4467 82.1797 58.1906L81.6283 65.6682C81.6061 66.6425 81.6097 67.6022 81.6393 68.5472ZM74.8247 63.3799L74.9394 61.8252C74.9442 61.7594 74.9204 61.6336 74.8679 61.4477C74.8331 61.2467 74.6512 61.134 74.3222 61.1097C73.9931 61.0855 73.7884 61.1696 73.7081 61.3622C73.6454 61.5395 73.6116 61.6611 73.6067 61.7269L73.4921 63.2817C73.4884 63.331 73.504 63.4562 73.5388 63.6573C73.5901 63.8596 73.7802 63.9728 74.1093 63.9971C74.4383 64.0214 74.6348 63.9366 74.6987 63.7428C74.7791 63.5503 74.8211 63.4293 74.8247 63.3799ZM91.2114 64.8117L91.2877 69.1595C90.7692 69.2371 90.1544 69.2744 89.4433 69.2716C88.7475 69.2865 88.087 69.2708 87.4618 69.2247C86.4417 69.1495 85.5572 68.9189 84.8082 68.5328C84.0769 68.1315 83.5307 67.4626 83.1697 66.5262C82.8251 65.591 82.7159 64.2679 82.8421 62.5568L83.8594 48.7616L90.9668 49.2857L89.9058 63.6733C89.8718 64.1339 89.9728 64.4474 90.2087 64.6137C90.461 64.7811 90.7952 64.8471 91.2114 64.8117ZM100.297 65.4817L100.373 69.8295C99.8549 69.9071 99.2401 69.9444 98.529 69.9416C97.8332 69.9565 97.1727 69.9409 96.5475 69.8948C95.5275 69.8195 94.6429 69.5889 93.8939 69.2028C93.1626 68.8015 92.6164 68.1327 92.2554 67.1962C91.9108 66.261 91.8016 64.9379 91.9278 63.2269L92.9451 49.4316L100.053 49.9558L98.9915 64.3433C98.9575 64.8039 99.0585 65.1174 99.2944 65.2837C99.5467 65.4512 99.8809 65.5172 100.297 65.4817ZM108.983 54.8325C111.352 55.0072 113.198 55.6644 114.52 56.804C115.842 57.9436 116.467 59.4454 116.396 61.3094L116.189 64.1227L107.897 63.5112L107.795 64.8932C107.762 65.3374 107.968 65.5759 108.412 65.6087C108.856 65.6414 109.095 65.4357 109.127 64.9915L109.175 64.3498L116.033 65.2278L115.994 65.746C115.862 67.5393 115.076 68.8874 113.637 69.7903C112.198 70.6767 110.254 71.0296 107.802 70.8488C105.63 70.6886 103.931 70.0671 102.704 68.9841C101.494 67.9023 100.814 66.4627 100.665 64.6652C100.632 64.4477 100.615 64.1156 100.615 63.669C100.631 63.2236 100.661 62.7047 100.705 62.1124C100.747 61.5366 100.793 61.0272 100.842 60.5842C100.909 60.126 100.975 59.7917 101.04 59.5815C101.426 57.9392 102.304 56.6971 103.672 55.8552C105.041 55.0132 106.812 54.6724 108.983 54.8325ZM108.093 60.846L108.028 61.7344L109.36 61.8327L109.426 60.9442C109.459 60.5 109.253 60.2615 108.809 60.2288C108.364 60.196 108.126 60.4017 108.093 60.846ZM127.002 65.9127L127.078 71.9477C126.477 72.0192 125.896 72.059 125.333 72.0671C124.768 72.0917 124.231 72.0851 123.721 72.0475C122.553 71.9614 121.529 71.7122 120.65 71.3C119.772 70.8713 119.111 70.1857 118.668 69.2432C118.226 68.2843 118.066 66.974 118.188 65.3123L118.489 61.2404L117.156 61.1421L117.549 55.8116L118.931 55.9135L119.473 53.9436L126.186 53.7687L125.989 56.434L127.766 56.565L127.373 61.8955L125.596 61.7645L125.414 64.2323C125.369 64.8411 125.453 65.2691 125.667 65.5164C125.881 65.7473 126.194 65.8779 126.606 65.9082C126.655 65.9119 126.713 65.9161 126.778 65.921C126.861 65.927 126.935 65.9243 127.002 65.9127ZM139.444 66.1354L132.213 65.6022C132.284 64.648 132.489 63.8856 132.829 63.3152C133.186 62.7295 133.609 62.2644 134.098 61.92C134.586 61.5756 135.063 61.2799 135.528 61.033C136.009 60.7873 136.409 60.5272 136.727 60.2529C137.061 59.9799 137.245 59.613 137.279 59.1523L137.318 58.6341C137.326 58.5189 137.327 58.3949 137.32 58.2621C137.33 58.1305 137.281 58.011 137.173 57.9038C137.083 57.7814 136.89 57.7093 136.593 57.6874C136.297 57.6656 136.096 57.7086 135.988 57.8165C135.882 57.9079 135.816 58.0188 135.79 58.1492C135.781 58.2809 135.771 58.4043 135.763 58.5194L135.648 60.0742L128.64 59.5573L128.847 56.744C128.898 56.053 129.079 55.3964 129.389 54.7741C129.716 54.1531 130.203 53.6101 130.849 53.1449C131.496 52.6798 132.34 52.3368 133.382 52.1159C134.441 51.8797 135.728 51.8174 137.241 51.929C138.755 52.0407 139.986 52.2886 140.933 52.6727C141.899 53.0417 142.642 53.5018 143.164 54.053C143.686 54.6043 144.03 55.2087 144.196 55.8661C144.379 56.5247 144.445 57.1995 144.394 57.8905L144.256 59.7661C144.193 60.6216 144.002 61.3023 143.684 61.8081C143.366 62.2975 142.99 62.6916 142.554 62.9903C142.119 63.289 141.676 63.5706 141.227 63.8352C140.795 64.0846 140.409 64.3869 140.068 64.7423C139.745 65.0824 139.537 65.5468 139.444 66.1354ZM138.886 68.9973L138.74 70.9716C138.694 71.5968 138.4 72.1127 137.857 72.5193C137.314 72.9259 136.483 73.0879 135.365 73.0054C134.262 72.9241 133.465 72.6337 132.972 72.1343C132.48 71.6348 132.257 71.0724 132.303 70.4472L132.447 68.4977C132.493 67.8725 132.796 67.349 133.356 66.9271C133.917 66.5053 134.748 66.335 135.851 66.4163C136.969 66.4988 137.767 66.781 138.245 67.2628C138.722 67.7446 138.936 68.3228 138.886 68.9973Z" fill="#F0EAD2"/>
<path d="M42.3397 82.536C42.2818 82.3533 42.2409 82.1228 42.2168 81.8444C42.1933 81.5572 42.1886 81.258 42.2027 80.9468C42.2256 80.6362 42.256 80.3441 42.2941 80.0703C42.3416 79.7883 42.403 79.5609 42.4782 79.388C42.6152 79.3446 42.7504 79.2654 42.8838 79.1503C43.0179 79.0264 43.1366 78.8076 43.24 78.4941C43.3434 78.1805 43.417 77.7265 43.4609 77.132C43.506 76.5198 43.4909 76.0592 43.4156 75.7503C43.3497 75.4332 43.2545 75.2121 43.1299 75.0869C43.0149 74.9535 42.9102 74.861 42.8159 74.8095C42.7471 74.6528 42.7051 74.4355 42.6899 74.1579C42.6754 73.8713 42.6799 73.5683 42.7034 73.2489C42.7365 72.9212 42.786 72.6126 42.852 72.3231C42.9186 72.0247 43.0035 71.7811 43.1066 71.5925C43.3626 71.6292 43.6801 71.6794 44.059 71.743C44.438 71.8066 44.8483 71.8681 45.29 71.9274C45.7412 71.9786 46.1797 72.0198 46.6057 72.0512C47.2357 72.0977 47.8093 72.1221 48.3265 72.1246C48.8533 72.1188 49.3044 72.112 49.6797 72.1039C49.7412 72.3583 49.7812 72.6021 49.7997 72.8354C49.8188 73.0599 49.8199 73.2875 49.8029 73.5182C49.7721 73.9352 49.6973 74.3445 49.5785 74.7461C49.4692 75.1395 49.3528 75.5681 49.2294 76.0318C49.1155 76.4874 49.0357 77.0257 48.9899 77.6468C48.9487 78.2058 48.9568 78.6391 49.0145 78.9467C49.0721 79.2542 49.1581 79.4792 49.2725 79.6214C49.3875 79.7548 49.5097 79.853 49.6388 79.9161C49.6984 80.197 49.722 80.5423 49.7097 80.9517C49.698 81.3523 49.6555 81.7462 49.5824 82.1333C49.5188 82.5123 49.4293 82.8179 49.314 83.0503C49.0675 83.0054 48.7504 82.9507 48.3626 82.8865C47.9741 82.8311 47.5591 82.7737 47.1174 82.7143C46.675 82.6639 46.2453 82.6233 45.8283 82.5925C45.4024 82.5611 44.967 82.5379 44.522 82.5229C44.0852 82.5175 43.6751 82.514 43.2916 82.5125C42.9074 82.5199 42.5902 82.5277 42.3397 82.536ZM55.6667 83.7463C54.2203 83.6396 53.0549 83.3529 52.1705 82.8862C51.2955 82.4113 50.6729 81.7811 50.3026 80.9954C49.9323 80.2098 49.7864 79.2846 49.8649 78.2198C49.9552 76.9954 50.2541 76.0271 50.7616 75.3151C51.278 74.6038 52.0322 74.1152 53.0242 73.8494C54.0169 73.5747 55.2763 73.4936 56.8025 73.6061C57.9383 73.6899 58.941 73.8843 59.8106 74.1893C60.6892 74.4949 61.3684 74.9019 61.8484 75.4101C62.329 75.9095 62.5441 76.5007 62.4937 77.184C62.4754 77.4324 62.4168 77.6824 62.318 77.9338C62.2287 78.177 62.0611 78.3922 61.8154 78.5792C61.5696 78.7663 61.2115 78.9049 60.7409 78.9951C60.2703 79.0853 59.6491 79.102 58.8771 79.045C58.3625 79.0071 57.897 78.9683 57.4806 78.9287C57.0737 78.8808 56.6986 78.8264 56.3551 78.7654L55.6897 78.7163L55.617 79.7012L56.2692 79.7493L56.3085 79.2169C58.1961 79.2669 60.1837 79.4135 62.2712 79.6566C62.1986 80.6416 61.9244 81.4555 61.4488 82.0984C60.9732 82.7414 60.2653 83.2066 59.3252 83.4942C58.3857 83.7728 57.1662 83.8568 55.6667 83.7463ZM55.7407 78.0242L56.3929 78.0723L56.4498 77.3003L55.7976 77.2522L55.7407 78.0242ZM67.6186 84.6277C66.2965 84.5302 65.2933 84.2822 64.6089 83.8838C63.9253 83.4765 63.5025 82.919 63.3405 82.2112C63.2658 81.8934 63.2422 81.5482 63.2697 81.1755C63.3061 80.8035 63.3638 80.384 63.4428 79.917C63.5219 79.45 63.5871 78.9284 63.6385 78.3523L62.7734 78.2885C62.7473 78.0368 62.7369 77.755 62.742 77.4432C62.7472 77.1313 62.7701 76.8207 62.8107 76.5115C62.852 76.1934 62.904 75.9117 62.9667 75.6665C63.2112 75.4972 63.4464 75.3317 63.6724 75.1699C63.908 74.9999 64.1193 74.7969 64.3062 74.5609C64.4931 74.3249 64.632 74.014 64.7229 73.6281C65.039 73.6961 65.4227 73.7556 65.874 73.8067C66.3341 73.8585 66.8214 73.9033 67.3361 73.9413C67.8602 73.971 68.3714 73.9953 68.8696 74.0142C69.3685 74.0243 69.81 74.0256 70.1942 74.0182C70.235 74.1908 70.2669 74.3626 70.29 74.5338C70.313 74.705 70.3275 74.8711 70.3335 75.0322L73.235 75.2461C73.2676 75.4091 73.281 75.651 73.2752 75.9717C73.2694 76.2925 73.2445 76.6297 73.2006 76.9833C73.1662 77.3287 73.1132 77.6236 73.0417 77.8682L69.3672 77.6106L69.1621 80.3923L69.548 80.4208L69.7312 78.1192C69.9316 78.0626 70.1751 78.027 70.4617 78.0124C70.7577 77.9897 71.0655 77.9901 71.3849 78.0136C71.7044 78.0372 72.0089 78.0819 72.2984 78.1479C72.5886 78.205 72.8331 78.2765 73.032 78.3626C73.0553 78.4089 73.0797 78.5624 73.1051 78.823C73.1311 79.0747 73.144 79.3834 73.1438 79.7492C73.1531 80.1067 73.1444 80.4674 73.1176 80.8312C73.0888 81.2216 73.0153 81.6132 72.8971 82.0059C72.7878 82.3993 72.6133 82.7701 72.3735 83.1182C72.1343 83.4574 71.8091 83.7546 71.3977 84.0097C70.987 84.256 70.4697 84.4364 69.8457 84.551C69.2305 84.6662 68.4881 84.6918 67.6186 84.6277ZM74.8609 79.3539C74.6657 79.3395 74.4708 79.3207 74.2763 79.2974C74.0824 79.2653 73.8847 79.2239 73.6832 79.1734C73.6046 78.9089 73.577 78.6169 73.6006 78.2975C73.6242 77.978 73.6758 77.7008 73.7556 77.4658C74.0471 77.5051 74.326 77.5346 74.5921 77.5543C74.8672 77.5745 75.1319 77.5539 75.3863 77.4924L75.3073 77.1119C75.2166 77.1319 75.1265 77.1431 75.0371 77.1455C74.9478 77.1478 74.8498 77.145 74.7433 77.1372C74.3618 77.1091 74.0361 76.9289 73.7662 76.5968C73.5051 76.2653 73.3936 75.8422 73.4315 75.3275C73.4721 74.7774 73.6341 74.3344 73.9176 73.9984C74.21 73.6631 74.5798 73.4272 75.027 73.2907C75.4831 73.1548 75.9773 73.1065 76.5097 73.1458C77.2107 73.1975 77.7831 73.3601 78.2268 73.6337C78.6705 73.9073 78.9924 74.2611 79.1923 74.6952C79.3923 75.1292 79.4726 75.6125 79.4333 76.1448C79.3888 76.7482 79.2349 77.2632 78.9715 77.6899C78.7081 78.1165 78.3615 78.4612 77.9317 78.7239C77.5115 78.9784 77.0388 79.1577 76.5137 79.2617C75.9886 79.3657 75.4377 79.3964 74.8609 79.3539ZM86.7067 86.0085C85.5709 85.9248 84.7118 85.7187 84.1294 85.3902C83.5558 85.0625 83.2867 84.5385 83.3219 83.8185C83.1932 84.1123 83.1368 84.3937 83.1526 84.6625C83.178 84.9231 83.2256 85.1853 83.2953 85.4492C82.4149 85.411 81.6144 85.3787 80.8937 85.3524C80.173 85.326 79.5779 85.291 79.1082 85.2475C79.0413 84.5823 79.0229 83.9252 79.0529 83.2762C79.0918 82.6278 79.191 81.9482 79.3504 81.2373C79.9982 81.2851 80.6134 81.4107 81.1961 81.6143C81.7884 81.8096 82.3028 82.0929 82.7393 82.4641L83.0148 82.1766C82.7712 81.9713 82.5117 81.8005 82.2362 81.6642C81.9703 81.5197 81.6857 81.3872 81.3823 81.2667C80.9758 81.094 80.608 80.8795 80.2789 80.6233C79.9588 80.3677 79.7142 80.0553 79.5451 79.686C79.3761 79.3166 79.3106 78.8747 79.3485 78.36C79.3891 77.8099 79.5506 77.3133 79.8331 76.8702C80.1244 76.4278 80.5553 76.0893 81.1257 75.8548C81.6968 75.6114 82.4171 75.5218 83.2867 75.5859C84.4136 75.669 85.2676 75.8837 85.8487 76.2299C86.4394 76.5678 86.7154 77.119 86.6769 77.8834C86.8151 77.5813 86.8763 77.2959 86.8605 77.0271C86.8541 76.7501 86.8089 76.4568 86.7246 76.1472C87.3553 76.1848 87.8972 76.2159 88.3504 76.2404C88.8131 76.2567 89.2311 76.2741 89.6044 76.2927C89.9784 76.3024 90.3384 76.3201 90.6845 76.3456C90.7655 76.9404 90.7853 77.5797 90.7438 78.2636C90.7023 78.9475 90.6065 79.6408 90.4566 80.3434C89.8095 80.2868 89.2687 80.18 88.8342 80.023C88.3997 79.8661 87.9834 79.6436 87.5854 79.3555L87.3355 79.6583C87.5469 79.8166 87.7425 79.947 87.9223 80.0495C88.1027 80.1431 88.2661 80.2265 88.4123 80.2997C88.9372 80.5615 89.3632 80.8337 89.6903 81.1166C90.018 81.3906 90.2528 81.7157 90.3945 82.0919C90.537 82.4592 90.5885 82.9091 90.5493 83.4415C90.5015 84.0892 90.3482 84.5954 90.0894 84.9599C89.8305 85.3244 89.5079 85.5861 89.1215 85.745C88.7446 85.8956 88.3412 85.9819 87.9114 86.0037C87.4898 86.035 87.0882 86.0367 86.7067 86.0085ZM98.8392 86.93C97.5171 86.8325 96.5139 86.5845 95.8296 86.1861C95.1459 85.7789 94.7231 85.2213 94.5612 84.5135C94.4865 84.1958 94.4629 83.8505 94.4903 83.4779C94.5267 83.1059 94.5844 82.6863 94.6634 82.2193C94.7425 81.7523 94.8077 81.2308 94.8591 80.6547L93.994 80.5909C93.9679 80.3392 93.9575 80.0574 93.9627 79.7455C93.9678 79.4336 93.9907 79.1231 94.0314 78.8138C94.0727 78.4957 94.1247 78.2141 94.1873 77.9689C94.4318 77.7996 94.667 77.634 94.8931 77.4723C95.1286 77.3023 95.3399 77.0993 95.5268 76.8633C95.7137 76.6272 95.8526 76.3163 95.9435 75.9305C96.2597 75.9984 96.6434 76.0579 97.0946 76.109C97.5547 76.1608 98.0421 76.2057 98.5567 76.2436C99.0809 76.2734 99.5921 76.2977 100.09 76.3166C100.589 76.3266 101.031 76.3279 101.415 76.3206C101.456 76.4931 101.488 76.665 101.511 76.8362C101.534 77.0074 101.548 77.1735 101.554 77.3345L104.456 77.5485C104.488 77.7115 104.502 77.9533 104.496 78.2741C104.49 78.5948 104.465 78.932 104.421 79.2856C104.387 79.631 104.334 79.926 104.262 80.1705L100.588 79.9129L100.383 82.6946L100.769 82.7231L100.952 80.4215C101.152 80.3649 101.396 80.3293 101.682 80.3148C101.978 80.292 102.286 80.2924 102.606 80.316C102.925 80.3395 103.229 80.3843 103.519 80.4502C103.809 80.5073 104.054 80.5789 104.253 80.6649C104.276 80.7112 104.3 80.8647 104.326 81.1253C104.352 81.377 104.365 81.6858 104.364 82.0515C104.374 82.4091 104.365 82.7697 104.338 83.1335C104.309 83.5239 104.236 83.9155 104.118 84.3083C104.008 84.7017 103.834 85.0724 103.594 85.4205C103.355 85.7597 103.03 86.0569 102.618 86.3121C102.208 86.5584 101.69 86.7388 101.066 86.8533C100.451 86.9686 99.7088 86.9941 98.8392 86.93ZM108.456 87.6392C107.391 87.5607 106.559 87.361 105.958 87.0401C105.366 86.7199 104.953 86.3281 104.72 85.8648C104.486 85.4015 104.388 84.9126 104.426 84.3979C104.484 83.6171 104.806 83.003 105.392 82.5555C105.978 82.1081 106.875 81.9244 108.082 82.0045L110.906 82.186L110.958 81.4805L110.226 81.4266L110.199 81.7859C109.292 81.7547 108.397 81.7244 107.516 81.6951C106.635 81.6658 105.762 81.5881 104.897 81.4618C104.777 80.0613 104.898 78.7231 105.26 77.4472C105.517 77.4662 105.828 77.4935 106.191 77.5292C106.563 77.5656 106.952 77.6077 107.359 77.6555C107.775 77.6952 108.183 77.7341 108.582 77.7724C108.98 77.8108 109.334 77.8458 109.644 77.8776C109.509 78.1353 109.423 78.3966 109.386 78.6614C109.357 78.927 109.378 79.1873 109.449 79.4422C109.547 78.709 109.864 78.2195 110.4 77.9735C110.936 77.7275 111.674 77.6392 112.614 77.7085C113.83 77.7982 114.748 78.0443 115.37 78.447C115.992 78.8408 116.384 79.3917 116.546 80.0995C116.628 80.4356 116.647 80.7938 116.601 81.1741C116.564 81.5461 116.511 81.9079 116.44 82.2596C116.37 82.6112 116.324 82.929 116.303 83.213C116.263 83.7542 116.319 84.1464 116.471 84.3896C116.632 84.6245 116.807 84.7846 116.997 84.87C117.058 85.1332 117.079 85.4603 117.059 85.8514C117.048 86.2431 117.01 86.6329 116.946 87.0207C116.882 87.4085 116.795 87.7411 116.685 88.0185C116.288 88.0784 115.875 88.106 115.448 88.1012C115.019 88.1053 114.672 88.0975 114.406 88.0779C113.731 88.0282 113.209 87.9094 112.839 87.7215C112.47 87.5337 112.3 87.2268 112.332 86.8009C112.343 86.6501 112.381 86.4923 112.447 86.3276C112.522 86.1636 112.606 85.987 112.7 85.7976L112.367 85.5991C112.178 85.9777 111.929 86.334 111.619 86.668C111.318 87.0027 110.91 87.2626 110.397 87.4478C109.893 87.6336 109.246 87.6974 108.456 87.6392ZM110.048 83.8356L110.78 83.8896L110.842 83.0511L110.11 82.9971L110.048 83.8356ZM117.441 88.0743C117.383 87.8916 117.342 87.661 117.318 87.3827C117.294 87.0955 117.29 86.7963 117.304 86.4851C117.327 86.1745 117.357 85.8823 117.395 85.6086C117.443 85.3266 117.504 85.0992 117.579 84.9263C117.716 84.8829 117.852 84.8036 117.985 84.6886C118.119 84.5646 118.238 84.3459 118.341 84.0323C118.444 83.7188 118.518 83.2648 118.562 82.6703C118.607 82.058 118.592 81.5975 118.517 81.2886C118.451 80.9715 118.356 80.7503 118.231 80.6252C118.116 80.4918 118.011 80.3993 117.917 80.3478C117.848 80.191 117.806 79.9738 117.791 79.6961C117.776 79.4096 117.781 79.1066 117.805 78.7871C117.838 78.4595 117.887 78.1509 117.953 77.8614C118.02 77.5629 118.105 77.3194 118.208 77.1307C118.464 77.1675 118.781 77.2176 119.16 77.2813C119.539 77.3449 119.949 77.4064 120.391 77.4657C120.842 77.5168 121.281 77.5581 121.707 77.5895C122.337 77.636 122.91 77.6604 123.428 77.6629C123.954 77.6571 124.405 77.6502 124.781 77.6422C124.842 77.8966 124.882 78.1404 124.901 78.3737C124.92 78.5981 124.921 78.8257 124.904 79.0564C124.873 79.4735 124.798 79.8828 124.68 80.2844C124.57 80.6778 124.454 81.1064 124.33 81.5701C124.217 82.0256 124.137 82.5639 124.091 83.1851C124.05 83.7441 124.058 84.1774 124.116 84.4849C124.173 84.7925 124.259 85.0174 124.374 85.1597C124.489 85.2931 124.611 85.3913 124.74 85.4543C124.799 85.7353 124.823 86.0805 124.811 86.49C124.799 86.8906 124.757 87.2845 124.683 87.6716C124.62 88.0505 124.53 88.3562 124.415 88.5886C124.169 88.5436 123.851 88.489 123.464 88.4247C123.075 88.3693 122.66 88.3119 122.218 88.2526C121.776 88.2021 121.346 88.1615 120.929 88.1308C120.503 88.0994 120.068 88.0762 119.623 88.0612C119.186 88.0558 118.776 88.0523 118.393 88.0508C118.009 88.0581 117.691 88.066 117.441 88.0743ZM125.2 88.6465C125.143 88.4638 125.102 88.2333 125.078 87.9549C125.054 87.6677 125.049 87.3685 125.063 87.0573C125.086 86.7467 125.117 86.4546 125.155 86.1808C125.202 85.8988 125.264 85.6714 125.339 85.4985C125.476 85.4551 125.611 85.3759 125.745 85.2608C125.879 85.1369 125.997 84.9226 126.1 84.6179C126.203 84.3043 126.277 83.8503 126.321 83.2558C126.366 82.6436 126.351 82.183 126.275 81.8741C126.209 81.5659 126.113 81.3492 125.989 81.224C125.874 81.0906 125.769 80.9982 125.675 80.9466C125.606 80.7899 125.564 80.5727 125.549 80.295C125.534 80.0084 125.539 79.701 125.563 79.3727C125.596 79.045 125.646 78.732 125.713 78.4336C125.779 78.1352 125.864 77.8916 125.967 77.703C126.223 77.7397 126.541 77.7899 126.92 77.8535C127.299 77.9171 127.709 77.9786 128.151 78.0379C128.602 78.0891 129.04 78.1303 129.466 78.1617C130.096 78.2082 130.67 78.2326 131.187 78.2351C131.714 78.2293 132.165 78.2225 132.54 78.2144C132.602 78.4688 132.642 78.7126 132.66 78.9459C132.68 79.1704 132.681 79.398 132.664 79.6287C132.639 79.957 132.567 80.3308 132.447 80.7502C132.336 81.1702 132.22 81.5899 132.1 82.0092C131.98 82.4286 131.907 82.8069 131.882 83.1441L131.865 83.3836C132.189 82.9793 132.446 82.4585 132.636 81.8213C132.835 81.1758 132.961 80.3732 133.014 79.4136C133.261 79.4497 133.525 79.4959 133.807 79.5524C134.097 79.6095 134.454 79.667 134.878 79.725C135.302 79.7831 135.833 79.8356 136.472 79.8827C136.996 79.9214 137.427 79.9398 137.766 79.938C138.105 79.9363 138.4 79.9312 138.65 79.9229C138.91 79.9064 139.188 79.8957 139.483 79.8906C139.54 80.0822 139.58 80.3216 139.604 80.6088C139.628 80.8871 139.628 81.1816 139.605 81.4922C139.591 81.8034 139.56 82.1 139.513 82.3819C139.475 82.6557 139.418 82.8835 139.342 83.0652C138.889 83.1567 138.498 83.2661 138.167 83.3934C137.845 83.5213 137.554 83.6649 137.292 83.824C137.464 84.5147 137.731 85.0741 138.092 85.5022C138.462 85.9221 138.861 86.2637 139.288 86.5272C139.337 86.7092 139.36 86.9384 139.357 87.2148C139.364 87.4918 139.351 87.7853 139.319 88.0952C139.297 88.3969 139.253 88.688 139.188 88.9687C139.122 89.2494 139.047 89.4803 138.963 89.6614C138.602 89.5991 138.201 89.5249 137.761 89.439C137.322 89.353 136.773 89.2858 136.117 89.2374C135.389 89.1837 134.794 89.1532 134.33 89.1458C133.867 89.1384 133.484 89.1369 133.18 89.1412C132.884 89.1551 132.612 89.1662 132.361 89.1745C132.411 88.8571 132.455 88.5659 132.492 88.301C132.53 88.0272 132.558 87.775 132.575 87.5443C132.602 87.1716 132.61 86.8287 132.597 86.5155C132.585 86.2024 132.518 85.903 132.396 85.6175C132.274 85.3319 132.063 85.0487 131.763 84.7679L131.674 85.9657L132.154 86.0011C132.203 86.1831 132.225 86.4167 132.222 86.702C132.229 86.979 132.216 87.2725 132.184 87.5824C132.161 87.893 132.117 88.1886 132.052 88.4692C131.987 88.741 131.913 88.9631 131.829 89.1353C131.459 89.0723 130.996 88.9936 130.441 88.8991C129.894 88.8142 129.31 88.7488 128.689 88.703C128.263 88.6716 127.828 88.6484 127.383 88.6334C126.946 88.628 126.536 88.6245 126.152 88.623C125.768 88.6304 125.451 88.6382 125.2 88.6465Z" fill="#437338"/>
</svg>
