<?xml version="1.0" standalone="no"?>
<!DOCTYPE svg PUBLIC "-//W3C//DTD SVG 20010904//EN"
 "http://www.w3.org/TR/2001/REC-SVG-20010904/DTD/svg10.dtd">
<svg version="1.0" xmlns="http://www.w3.org/2000/svg"
 width="512.000000pt" height="512.000000pt" viewBox="0 0 512.000000 512.000000"
 preserveAspectRatio="xMidYMid meet">

<g transform="translate(0.000000,512.000000) scale(0.100000,-0.100000)"
fill="#000000" stroke="none">
<path d="M1159 4942 c-121 -32 -224 -111 -293 -225 -51 -86 -66 -167 -66 -359
0 -232 21 -306 115 -423 l46 -56 -3 -96 -3 -97 -168 -73 c-92 -40 -193 -89
-222 -109 -112 -74 -202 -208 -231 -343 -18 -85 -19 -366 -1 -400 26 -53 114
-48 136 7 5 15 11 106 13 202 3 172 4 176 34 240 37 79 107 151 183 189 31 16
132 61 225 100 93 40 176 80 183 89 10 13 12 59 11 194 l-3 176 -50 49 c-28
26 -62 71 -75 98 -24 48 -25 58 -25 255 0 197 1 207 24 255 32 63 93 124 156
156 41 20 65 24 135 24 70 0 94 -4 135 -24 63 -32 124 -93 156 -156 23 -48 24
-58 24 -250 0 -195 -1 -201 -26 -255 -33 -70 -110 -145 -169 -166 -72 -25 -94
-38 -109 -65 -19 -33 -8 -74 25 -96 22 -14 34 -15 75 -7 l49 11 0 -91 c1 -59
5 -97 14 -108 7 -10 103 -55 214 -102 111 -46 221 -98 246 -115 55 -38 98 -92
134 -168 25 -53 27 -70 30 -204 l4 -147 -59 -27 c-274 -127 -487 -178 -748
-177 -160 0 -303 20 -447 63 -54 16 -107 29 -118 29 -29 0 -70 -44 -70 -75 0
-49 44 -78 170 -113 351 -96 722 -83 1064 38 129 46 329 138 349 161 15 18 17
44 17 188 0 244 -35 359 -143 477 -71 79 -136 117 -330 199 l-167 70 0 99 0
99 39 42 c48 52 86 125 106 202 22 84 20 385 -3 474 -44 167 -186 305 -352
343 -87 20 -148 19 -231 -2z"/>
<path d="M3183 4945 c-151 -41 -260 -154 -292 -303 -16 -75 -15 -490 2 -521
24 -47 111 -49 134 -3 4 10 10 130 13 267 5 274 7 280 71 344 70 70 17 66 809
66 792 0 739 4 809 -66 70 -69 66 -26 66 -729 0 -703 4 -660 -66 -729 -70 -70
-17 -66 -809 -66 -792 0 -739 -4 -809 66 -62 62 -65 75 -71 304 -3 116 -9 217
-13 225 -8 15 -497 343 -530 356 -27 10 -74 -15 -87 -47 -25 -60 -15 -70 235
-235 l235 -155 0 -154 c0 -169 10 -235 47 -309 30 -59 106 -137 161 -165 99
-50 109 -51 829 -51 710 0 736 1 827 47 59 30 137 106 165 161 50 98 51 115
51 752 0 637 -1 654 -51 752 -47 92 -158 174 -267 197 -85 18 -1391 14 -1459
-4z"/>
<path d="M3400 4467 c-51 -26 -47 -117 5 -137 39 -15 997 -13 1029 1 53 25 57
110 5 136 -35 18 -1003 18 -1039 0z"/>
<path d="M3400 4147 c-51 -26 -47 -117 5 -137 39 -15 997 -13 1029 1 53 25 57
110 5 136 -35 18 -1003 18 -1039 0z"/>
<path d="M3400 3827 c-51 -26 -47 -117 5 -137 38 -14 518 -13 549 1 53 25 57
110 5 136 -34 18 -524 18 -559 0z"/>
<path d="M3882 2390 c-12 -5 -27 -21 -32 -35 -6 -15 -10 -118 -10 -231 l0
-204 -298 0 c-316 0 -365 -6 -454 -51 -92 -47 -174 -158 -197 -267 -15 -73
-15 -1051 0 -1124 23 -109 105 -220 197 -267 99 -50 109 -51 829 -51 710 0
736 1 827 47 59 30 137 106 165 161 49 96 51 122 51 672 0 550 -2 576 -51 672
-28 55 -106 131 -165 161 -82 41 -137 47 -449 47 l-294 0 -3 220 c-3 240 -5
245 -63 255 -17 2 -40 0 -53 -5z m784 -652 c41 -22 90 -71 112 -112 15 -28 17
-80 17 -586 0 -614 3 -580 -66 -649 -70 -70 -17 -66 -809 -66 -792 0 -739 -4
-809 66 -69 68 -66 40 -69 614 -2 286 0 539 3 562 7 47 46 110 89 144 62 49
54 49 801 46 641 -2 703 -3 731 -19z"/>
<path d="M3383 1140 c-34 -21 -63 -66 -63 -100 0 -54 65 -120 118 -120 57 0
122 64 122 120 0 56 -65 120 -122 120 -13 0 -37 -9 -55 -20z"/>
<path d="M4343 1140 c-34 -21 -63 -66 -63 -100 0 -54 65 -120 118 -120 57 0
122 64 122 120 0 56 -65 120 -122 120 -13 0 -37 -9 -55 -20z"/>
<path d="M3722 788 c-45 -22 -34 -86 27 -151 89 -97 253 -97 342 0 63 67 72
129 24 151 -34 16 -361 15 -393 0z"/>
<path d="M463 2065 c-151 -41 -260 -154 -292 -303 -15 -74 -15 -1210 0 -1284
23 -109 105 -220 197 -267 99 -50 109 -51 829 -51 459 0 689 4 725 11 75 16
143 53 198 108 95 95 120 179 120 402 l0 156 227 154 c131 89 234 165 242 180
26 47 -18 109 -77 109 -22 0 -528 -337 -539 -359 -4 -9 -10 -110 -13 -226 -6
-229 -9 -242 -71 -304 -70 -70 -17 -66 -809 -66 -792 0 -739 -4 -809 66 -70
69 -66 26 -66 729 0 703 -4 660 66 729 70 70 17 66 809 66 792 0 739 4 809
-66 64 -64 66 -70 71 -350 4 -188 8 -260 18 -272 32 -38 110 -27 131 19 7 16
11 103 11 247 0 295 -18 366 -120 468 -55 55 -123 92 -198 108 -85 18 -1391
14 -1459 -4z"/>
<path d="M680 1587 c-51 -26 -47 -117 5 -137 39 -15 997 -13 1029 1 53 25 57
110 5 136 -35 18 -1003 18 -1039 0z"/>
<path d="M680 1267 c-51 -26 -47 -117 5 -137 39 -15 997 -13 1029 1 53 25 57
110 5 136 -35 18 -1003 18 -1039 0z"/>
<path d="M680 947 c-51 -26 -47 -117 5 -137 38 -14 518 -13 549 1 53 25 57
110 5 136 -34 18 -524 18 -559 0z"/>
</g>
</svg>
