<svg width="13" height="15" viewBox="0 0 13 15" fill="none" xmlns="http://www.w3.org/2000/svg">
<path d="M2.54517 6.66998C2.54517 4.88834 2.54517 3.99689 3.09894 3.44375C3.65208 2.88998 4.54353 2.88998 6.32517 2.88998H8.21517C9.99681 2.88998 10.8883 2.88998 11.4414 3.44375C11.9952 3.99689 11.9952 4.88834 11.9952 6.66998V9.81998C11.9952 11.6016 11.9952 12.4931 11.4414 13.0462C10.8883 13.6 9.99681 13.6 8.21517 13.6H6.32517C4.54353 13.6 3.65208 13.6 3.09894 13.0462C2.54517 12.4931 2.54517 11.6016 2.54517 9.81998V6.66998Z" stroke="#6C584C" stroke-width="1.26"/>
<path d="M2.54503 11.71C2.04377 11.71 1.56304 11.5109 1.2086 11.1564C0.854154 10.802 0.655029 10.3213 0.655029 9.82V6.04C0.655029 3.66427 0.655029 2.47609 1.39339 1.73836C2.13175 1.00063 3.3193 1 5.69503 1H8.21503C8.71629 1 9.19702 1.19912 9.55146 1.55357C9.90591 1.90801 10.105 2.38874 10.105 2.89" stroke="#6C584C" stroke-width="1.26"/>
</svg>
