<svg width="42" height="20" viewBox="0 0 42 20" fill="none" xmlns="http://www.w3.org/2000/svg">
<rect x="0.5" y="0.5" width="41" height="19" rx="5.5" stroke="#859E4F"/>
<path d="M15.34 10.52C15.34 10.0133 15.4433 9.56333 15.65 9.17C15.8633 8.77667 16.1533 8.47 16.52 8.25C16.8933 8.02333 17.3233 7.91 17.81 7.91C18.4833 7.91 19.0333 8.08667 19.46 8.44C19.8933 8.78667 20.1433 9.25667 20.21 9.85H18.99C18.9167 9.57 18.78 9.36 18.58 9.22C18.3867 9.07333 18.1433 9 17.85 9C17.5967 9 17.37 9.06333 17.17 9.19C16.9767 9.31 16.8267 9.48333 16.72 9.71C16.6133 9.93667 16.56 10.2067 16.56 10.52C16.56 10.8333 16.61 11.1033 16.71 11.33C16.81 11.5567 16.9533 11.7333 17.14 11.86C17.3333 11.98 17.56 12.04 17.82 12.04C18.1267 12.04 18.38 11.9667 18.58 11.82C18.7867 11.6733 18.9233 11.4633 18.99 11.19H20.22C20.1667 11.5767 20.03 11.9167 19.81 12.21C19.5967 12.4967 19.32 12.7233 18.98 12.89C18.64 13.05 18.2533 13.13 17.82 13.13C17.32 13.13 16.8833 13.0233 16.51 12.81C16.1367 12.59 15.8467 12.2867 15.64 11.9C15.44 11.5067 15.34 11.0467 15.34 10.52ZM20.838 10.52C20.838 10.0067 20.9514 9.55667 21.178 9.17C21.4047 8.77667 21.718 8.47 22.118 8.25C22.518 8.03 22.9714 7.92 23.478 7.92C23.9914 7.92 24.4447 8.03 24.838 8.25C25.238 8.47 25.5514 8.77667 25.778 9.17C26.0047 9.55667 26.118 10.0067 26.118 10.52C26.118 11.0333 26.0047 11.4867 25.778 11.88C25.5514 12.2667 25.238 12.57 24.838 12.79C24.4447 13.01 23.9914 13.12 23.478 13.12C22.9714 13.12 22.518 13.01 22.118 12.79C21.718 12.57 21.4047 12.2667 21.178 11.88C20.9514 11.4867 20.838 11.0333 20.838 10.52ZM22.058 10.52C22.058 10.82 22.118 11.0833 22.238 11.31C22.3647 11.5367 22.5314 11.7133 22.738 11.84C22.9514 11.9667 23.198 12.03 23.478 12.03C23.758 12.03 24.0047 11.9667 24.218 11.84C24.4314 11.7133 24.598 11.5367 24.718 11.31C24.838 11.0833 24.898 10.82 24.898 10.52C24.898 10.2133 24.838 9.95 24.718 9.73C24.598 9.50333 24.4314 9.32667 24.218 9.2C24.0047 9.07333 23.758 9.01 23.478 9.01C23.198 9.01 22.9514 9.07333 22.738 9.2C22.5314 9.32667 22.3647 9.50333 22.238 9.73C22.118 9.95 22.058 10.2133 22.058 10.52ZM27.0851 15.29V8.06H28.2151L28.2951 8.81C28.4417 8.52333 28.6684 8.30333 28.9751 8.15C29.2817 7.99 29.6184 7.91 29.9851 7.91C30.4584 7.91 30.8651 8.01667 31.2051 8.23C31.5517 8.44333 31.8217 8.74 32.0151 9.12C32.2084 9.5 32.3051 9.95 32.3051 10.47C32.3051 10.9833 32.2151 11.44 32.0351 11.84C31.8551 12.24 31.5917 12.5567 31.2451 12.79C30.9051 13.0167 30.4884 13.13 29.9951 13.13C29.6284 13.13 29.2917 13.06 28.9851 12.92C28.6851 12.78 28.4584 12.5867 28.3051 12.34V15.29H27.0851ZM28.3151 10.53C28.3151 10.8233 28.3717 11.0833 28.4851 11.31C28.5984 11.5367 28.7584 11.7167 28.9651 11.85C29.1784 11.9767 29.4251 12.04 29.7051 12.04C29.9917 12.04 30.2384 11.9767 30.4451 11.85C30.6517 11.7167 30.8084 11.5367 30.9151 11.31C31.0217 11.0833 31.0751 10.8233 31.0751 10.53C31.0751 10.2367 31.0217 9.97667 30.9151 9.75C30.8084 9.52333 30.6517 9.34667 30.4451 9.22C30.2384 9.08667 29.9917 9.02 29.7051 9.02C29.4251 9.02 29.1784 9.08333 28.9651 9.21C28.7584 9.33667 28.5984 9.51333 28.4851 9.74C28.3717 9.96667 28.3151 10.23 28.3151 10.53ZM33.8307 8.06L35.4407 12.62L34.7807 13.87L32.5407 8.06H33.8307ZM32.6707 15.29V14.28H33.4007C33.5607 14.28 33.7007 14.26 33.8207 14.22C33.9407 14.1867 34.0474 14.12 34.1407 14.02C34.2407 13.92 34.324 13.7733 34.3907 13.58L36.4407 8.06H37.7007L35.2807 14.1C35.1007 14.5533 34.874 14.8833 34.6007 15.09C34.3274 15.2967 33.9874 15.4 33.5807 15.4C33.4074 15.4 33.244 15.39 33.0907 15.37C32.944 15.3567 32.804 15.33 32.6707 15.29Z" fill="#859E4F"/>
<path d="M5.46997 9.41C5.46997 8.02428 5.46997 7.33093 5.90068 6.90071C6.3309 6.47 7.02425 6.47 8.40997 6.47H9.87997C11.2657 6.47 11.959 6.47 12.3893 6.90071C12.82 7.33093 12.82 8.02428 12.82 9.41V11.86C12.82 13.2457 12.82 13.9391 12.3893 14.3693C11.959 14.8 11.2657 14.8 9.87997 14.8H8.40997C7.02425 14.8 6.3309 14.8 5.90068 14.3693C5.46997 13.9391 5.46997 13.2457 5.46997 11.86V9.41Z" stroke="#859E4F"/>
<path d="M5.47 13.33C5.08013 13.33 4.70623 13.1751 4.43055 12.8994C4.15487 12.6238 4 12.2499 4 11.86V8.92C4 7.07221 4 6.14807 4.57428 5.57428C5.14856 5.00049 6.07221 5 7.92 5H9.88C10.2699 5 10.6438 5.15487 10.9194 5.43055C11.1951 5.70623 11.35 6.08013 11.35 6.47" stroke="#859E4F"/>
</svg>
