<svg width="40" height="20" viewBox="0 0 40 20" fill="none" xmlns="http://www.w3.org/2000/svg">
<rect x="0.5" y="0.5" width="39" height="19" rx="5.5" stroke="#859E4F"/>
<path d="M17.84 13.13C17.3533 13.13 16.92 13.02 16.54 12.8C16.1667 12.5733 15.8733 12.2667 15.66 11.88C15.4467 11.4867 15.34 11.0367 15.34 10.53C15.34 10.0167 15.4433 9.56333 15.65 9.17C15.8567 8.77667 16.1467 8.47 16.52 8.25C16.8933 8.02333 17.32 7.91 17.8 7.91C18.3 7.91 18.73 8.01667 19.09 8.23C19.45 8.43667 19.7267 8.72667 19.92 9.1C20.12 9.47333 20.22 9.92 20.22 10.44V10.81L15.98 10.82L16 10.04H19.01C19.01 9.7 18.9 9.42667 18.68 9.22C18.4667 9.01333 18.1767 8.91 17.81 8.91C17.5233 8.91 17.28 8.97 17.08 9.09C16.8867 9.21 16.74 9.39 16.64 9.63C16.54 9.87 16.49 10.1633 16.49 10.51C16.49 11.0433 16.6033 11.4467 16.83 11.72C17.0633 11.9933 17.4067 12.13 17.86 12.13C18.1933 12.13 18.4667 12.0667 18.68 11.94C18.9 11.8133 19.0433 11.6333 19.11 11.4H20.24C20.1333 11.94 19.8667 12.3633 19.44 12.67C19.02 12.9767 18.4867 13.13 17.84 13.13ZM23.2264 13.13C22.7464 13.13 22.3331 13.0233 21.9864 12.81C21.6464 12.59 21.3797 12.2867 21.1864 11.9C20.9997 11.5133 20.9064 11.0633 20.9064 10.55C20.9064 10.0367 20.9997 9.58333 21.1864 9.19C21.3797 8.79 21.6564 8.47667 22.0164 8.25C22.3764 8.02333 22.8031 7.91 23.2964 7.91C23.6431 7.91 23.9597 7.98 24.2464 8.12C24.5331 8.25333 24.7531 8.44333 24.9064 8.69V5.56H26.1164V13H24.9964L24.9164 12.23C24.7697 12.51 24.5431 12.73 24.2364 12.89C23.9364 13.05 23.5997 13.13 23.2264 13.13ZM23.4964 12.01C23.7831 12.01 24.0297 11.95 24.2364 11.83C24.4431 11.7033 24.6031 11.5267 24.7164 11.3C24.8364 11.0667 24.8964 10.8033 24.8964 10.51C24.8964 10.21 24.8364 9.95 24.7164 9.73C24.6031 9.50333 24.4431 9.32667 24.2364 9.2C24.0297 9.06667 23.7831 9 23.4964 9C23.2164 9 22.9731 9.06667 22.7664 9.2C22.5597 9.32667 22.3997 9.50333 22.2864 9.73C22.1797 9.95667 22.1264 10.2167 22.1264 10.51C22.1264 10.8033 22.1797 11.0633 22.2864 11.29C22.3997 11.5167 22.5597 11.6933 22.7664 11.82C22.9731 11.9467 23.2164 12.01 23.4964 12.01ZM27.3878 13V8.06H28.6078V13H27.3878ZM27.9878 7.07C27.7811 7.07 27.6045 7 27.4578 6.86C27.3178 6.71333 27.2478 6.53667 27.2478 6.33C27.2478 6.12333 27.3178 5.95 27.4578 5.81C27.6045 5.67 27.7811 5.6 27.9878 5.6C28.1945 5.6 28.3678 5.67 28.5078 5.81C28.6545 5.95 28.7278 6.12333 28.7278 6.33C28.7278 6.53667 28.6545 6.71333 28.5078 6.86C28.3678 7 28.1945 7.07 27.9878 7.07ZM29.3783 8.06H32.4983V9.08H29.3783V8.06ZM31.5483 13H30.3283V6.52H31.5483V13Z" fill="#859E4F"/>
<path d="M6.08333 12.9167H6.67708L10.75 8.84375L10.1562 8.25L6.08333 12.3229V12.9167ZM5.66667 13.75C5.54861 13.75 5.44972 13.71 5.37 13.63C5.29028 13.55 5.25028 13.4511 5.25 13.3333V12.3229C5.25 12.2118 5.27083 12.1058 5.3125 12.005C5.35417 11.9042 5.41319 11.8157 5.48958 11.7396L10.75 6.48958C10.8333 6.41319 10.9254 6.35417 11.0263 6.3125C11.1271 6.27083 11.2329 6.25 11.3438 6.25C11.4546 6.25 11.5622 6.27083 11.6667 6.3125C11.7711 6.35417 11.8614 6.41667 11.9375 6.5L12.5104 7.08333C12.5937 7.15972 12.6544 7.25 12.6925 7.35417C12.7306 7.45833 12.7497 7.5625 12.75 7.66667C12.75 7.77778 12.7308 7.88375 12.6925 7.98458C12.6542 8.08542 12.5935 8.17736 12.5104 8.26042L7.26042 13.5104C7.18403 13.5868 7.09542 13.6458 6.99458 13.6875C6.89375 13.7292 6.78792 13.75 6.67708 13.75H5.66667ZM10.4479 8.55208L10.1562 8.25L10.75 8.84375L10.4479 8.55208Z" fill="#859E4F"/>
</svg>
