<svg width="68" height="65" viewBox="0 0 68 65" fill="none" xmlns="http://www.w3.org/2000/svg">
<path d="M31.4432 2.05261C32.8813 0.861816 34.9629 0.861816 36.4011 2.05261L41.2968 6.10636C42.0795 6.75445 43.0849 7.07025 44.0976 6.9861L50.546 6.45031C52.4543 6.29175 54.1938 7.54668 54.6452 9.40761L56.0317 15.1237C56.2833 16.161 56.9504 17.0491 57.8764 17.5798L63.1384 20.5955C64.8683 21.5869 65.5675 23.7264 64.7569 25.548L62.4414 30.7519C61.9938 31.7578 61.9938 32.9063 62.4414 33.9122L64.7569 39.1161C65.5675 40.9377 64.8683 43.0772 63.1384 44.0686L57.8764 47.0842C56.9504 47.6149 56.2833 48.5031 56.0317 49.5403L54.6452 55.2564C54.1938 57.1174 52.4543 58.3723 50.546 58.2137L44.0976 57.6779C43.0849 57.5938 42.0795 57.9096 41.2968 58.5577L36.4011 62.6114C34.9629 63.8022 32.8813 63.8022 31.4432 62.6114L26.5475 58.5577C25.7648 57.9096 24.7594 57.5938 23.7467 57.6779L17.2983 58.2137C15.3899 58.3723 13.6504 57.1174 13.199 55.2564L11.8125 49.5403C11.5609 48.5031 10.8939 47.6149 9.96783 47.0842L4.70584 44.0686C2.97597 43.0772 2.27676 40.9377 3.08732 39.1161L5.40286 33.9122C5.85045 32.9063 5.85045 31.7578 5.40286 30.7519L3.08732 25.548C2.27676 23.7264 2.97597 21.5868 4.70584 20.5955L9.96783 17.5798C10.8939 17.0491 11.5609 16.161 11.8125 15.1237L13.199 9.40761C13.6504 7.54668 15.3899 6.29175 17.2983 6.45031L23.7467 6.9861C24.7594 7.07025 25.7648 6.75445 26.5475 6.10636L31.4432 2.05261Z" fill="#F0EAD2"/>
<path d="M31.4601 4.03551C32.802 2.92438 34.7444 2.92439 36.0863 4.03552L40.6545 7.81809C41.3848 8.42282 42.323 8.71749 43.2679 8.63898L49.285 8.13903C51.0656 7.99108 52.6887 9.16205 53.1099 10.8985L54.4037 16.2322C54.6385 17.2001 55.2609 18.0288 56.125 18.524L61.035 21.3379C62.6491 22.263 63.3016 24.2594 62.5452 25.9591L60.3846 30.8149C59.9669 31.7535 59.9669 32.8252 60.3846 33.7638L62.5452 38.6195C63.3016 40.3193 62.6491 42.3157 61.035 43.2407L56.125 46.0546C55.2609 46.5498 54.6385 47.3786 54.4037 48.3464L53.1099 53.6802C52.6887 55.4166 51.0656 56.5876 49.285 56.4396L43.2679 55.9397C42.323 55.8612 41.3848 56.1558 40.6545 56.7606L36.0863 60.5431C34.7444 61.6543 32.802 61.6543 31.4601 60.5431L26.8919 56.7606C26.1615 56.1558 25.2234 55.8612 24.2784 55.9397L18.2614 56.4396C16.4808 56.5876 14.8576 55.4166 14.4364 53.6802L13.1426 48.3464C12.9079 47.3786 12.2854 46.5498 11.4214 46.0546L6.51139 43.2407C4.89725 42.3157 4.24481 40.3193 5.00115 38.6195L7.16179 33.7638C7.57944 32.8252 7.57943 31.7535 7.16179 30.8149L5.00115 25.9591C4.24481 24.2594 4.89725 22.263 6.51139 21.3379L11.4214 18.524C12.2854 18.0288 12.9079 17.2001 13.1426 16.2322L14.4364 10.8985C14.8576 9.16205 16.4808 7.99108 18.2614 8.13903L24.2784 8.63898C25.2234 8.71749 26.1615 8.42282 26.8919 7.81809L31.4601 4.03551Z" fill="#D599E0"/>
<path d="M29.5562 31.272C29.4708 31.0587 29.4015 30.7867 29.3482 30.456C29.2948 30.1147 29.2628 29.7573 29.2522 29.384C29.2522 29.0107 29.2628 28.6587 29.2842 28.328C29.3162 27.9867 29.3695 27.7093 29.4442 27.496C29.6895 27.4107 29.9135 27.24 30.1162 26.984C30.3188 26.728 30.4202 26.3387 30.4202 25.816C30.4202 25.2507 30.3775 24.84 30.2922 24.584C30.2068 24.328 30.0895 24.1627 29.9402 24.088C29.8015 24.0027 29.6362 23.9547 29.4442 23.944C29.3482 23.7627 29.2788 23.5067 29.2362 23.176C29.1935 22.8453 29.1722 22.488 29.1722 22.104C29.1828 21.7093 29.2148 21.336 29.2682 20.984C29.3215 20.6213 29.4015 20.3227 29.5082 20.088C30.9375 20.0027 32.3028 19.896 33.6042 19.768C34.9055 19.6293 36.2495 19.48 37.6362 19.32C37.7322 19.6187 37.8015 19.9333 37.8442 20.264C37.8975 20.584 37.9242 20.8827 37.9242 21.16C37.9242 21.6613 37.8708 22.12 37.7642 22.536C37.6682 22.9413 37.5668 23.352 37.4602 23.768C37.3535 24.1733 37.3002 24.6267 37.3002 25.128C37.3002 25.9173 37.4015 26.488 37.6042 26.84C37.8175 27.192 38.0415 27.4107 38.2762 27.496C38.3722 27.8267 38.4308 28.2373 38.4522 28.728C38.4735 29.208 38.4575 29.6827 38.4042 30.152C38.3615 30.6107 38.2815 30.984 38.1642 31.272C37.8655 31.24 37.4762 31.2027 36.9962 31.16C36.5268 31.128 36.0095 31.096 35.4442 31.064C34.8788 31.0427 34.3082 31.032 33.7322 31.032C33.2202 31.032 32.6975 31.0427 32.1642 31.064C31.6415 31.096 31.1508 31.128 30.6922 31.16C30.2335 31.2027 29.8548 31.24 29.5562 31.272Z" fill="#F0EAD2"/>
<path d="M21.1536 39.3483C21.1536 39.0088 21.2145 38.715 21.3364 38.4669C21.4626 38.2188 21.6389 38.0251 21.8652 37.8859C22.0959 37.7466 22.3614 37.6769 22.6617 37.6769C22.9054 37.6769 23.1252 37.7292 23.3211 37.8336C23.5213 37.9337 23.6714 38.0774 23.7715 38.2645L23.8238 37.7749H24.555V42.495H23.765V40.5691C23.6649 40.7302 23.5148 40.8564 23.3145 40.9478C23.1187 41.0392 22.8989 41.0849 22.6552 41.0849C22.3418 41.0849 22.0719 41.0109 21.8456 40.8629C21.6193 40.7106 21.4474 40.5038 21.3299 40.2427C21.2123 39.9815 21.1536 39.6834 21.1536 39.3483ZM21.9501 39.3874C21.9501 39.5789 21.9849 39.7487 22.0545 39.8967C22.1285 40.0446 22.233 40.1622 22.3679 40.2492C22.5028 40.3319 22.6617 40.3733 22.8445 40.3733C23.0316 40.3733 23.1927 40.3319 23.3276 40.2492C23.4625 40.1622 23.567 40.0446 23.641 39.8967C23.7193 39.7487 23.7585 39.5789 23.7585 39.3874C23.7585 39.1916 23.7193 39.0197 23.641 38.8717C23.567 38.7237 23.4625 38.6084 23.3276 38.5257C23.1927 38.443 23.0316 38.4016 22.8445 38.4016C22.6617 38.4016 22.5028 38.4451 22.3679 38.5322C22.233 38.6149 22.1285 38.7302 22.0545 38.8782C21.9849 39.0262 21.9501 39.1959 21.9501 39.3874ZM27.5721 37.7749H28.3686V41H27.6309L27.5721 40.5691C27.4764 40.7214 27.3327 40.8455 27.1412 40.9412C26.9497 41.037 26.7451 41.0849 26.5275 41.0849C26.1576 41.0849 25.8681 40.9674 25.6592 40.7323C25.4503 40.4973 25.3459 40.1839 25.3459 39.7922V37.7749H26.1423V39.5115C26.1423 39.8161 26.2011 40.0359 26.3186 40.1709C26.4361 40.3058 26.6059 40.3733 26.8278 40.3733C27.0803 40.3733 27.2674 40.2993 27.3893 40.1513C27.5112 39.9989 27.5721 39.7704 27.5721 39.4658V37.7749ZM30.5703 41.0849C30.2526 41.0849 29.9697 41.0131 29.7216 40.8694C29.4779 40.7214 29.2864 40.5212 29.1471 40.2688C29.0078 40.012 28.9382 39.7182 28.9382 39.3874C28.9382 39.0523 29.0056 38.7563 29.1405 38.4995C29.2755 38.2428 29.4648 38.0425 29.7085 37.8989C29.9523 37.7509 30.2308 37.6769 30.5442 37.6769C30.8706 37.6769 31.1514 37.7466 31.3864 37.8859C31.6214 38.0208 31.802 38.2101 31.9283 38.4538C32.0588 38.6976 32.1241 38.9892 32.1241 39.3287V39.5702L29.356 39.5768L29.369 39.0675H31.3342C31.3342 38.8456 31.2623 38.6671 31.1187 38.5322C30.9794 38.3973 30.7901 38.3298 30.5507 38.3298C30.3636 38.3298 30.2047 38.369 30.0741 38.4473C29.9479 38.5257 29.8522 38.6432 29.7869 38.7999C29.7216 38.9566 29.689 39.1481 29.689 39.3744C29.689 39.7226 29.7629 39.9859 29.9109 40.1643C30.0633 40.3428 30.2874 40.432 30.5834 40.432C30.801 40.432 30.9794 40.3907 31.1187 40.308C31.2623 40.2253 31.3559 40.1078 31.3994 39.9554H32.1372C32.0675 40.308 31.8934 40.5843 31.6149 40.7846C31.3407 40.9848 30.9925 41.0849 30.5703 41.0849ZM32.5135 40.0207H33.2708C33.2752 40.16 33.3274 40.271 33.4275 40.3537C33.5276 40.4364 33.6669 40.4777 33.8453 40.4777C34.0368 40.4777 34.1805 40.4429 34.2762 40.3733C34.3763 40.3036 34.4264 40.21 34.4264 40.0925C34.4264 40.0142 34.4002 39.9445 34.348 39.8836C34.2958 39.8227 34.1979 39.777 34.0542 39.7465L33.4732 39.6094C33.1816 39.5441 32.964 39.4397 32.8203 39.296C32.6811 39.1481 32.6114 38.9457 32.6114 38.6889C32.6114 38.48 32.6658 38.2993 32.7746 38.147C32.8878 37.9947 33.0401 37.8793 33.2316 37.801C33.4231 37.7183 33.6429 37.6769 33.891 37.6769C34.1304 37.6769 34.3415 37.7205 34.5243 37.8075C34.7071 37.8946 34.8485 38.0164 34.9486 38.1731C35.0531 38.3298 35.1075 38.5126 35.1119 38.7215H34.3545C34.3545 38.5822 34.311 38.4734 34.224 38.3951C34.1369 38.3124 34.0151 38.271 33.8584 38.271C33.7017 38.271 33.5798 38.3059 33.4928 38.3755C33.4057 38.4451 33.3622 38.5387 33.3622 38.6562C33.3622 38.8347 33.5015 38.9566 33.78 39.0218L34.3611 39.1589C34.6309 39.2199 34.8333 39.3178 34.9682 39.4527C35.1075 39.5876 35.1772 39.7792 35.1772 40.0272C35.1772 40.2449 35.1206 40.4342 35.0074 40.5952C34.8942 40.7519 34.7354 40.8738 34.5308 40.9608C34.3263 41.0435 34.0912 41.0849 33.8257 41.0849C33.4253 41.0849 33.1054 40.9869 32.866 40.7911C32.631 40.5952 32.5135 40.3384 32.5135 40.0207ZM35.4637 37.7749H37.5006V38.4408H35.4637V37.7749ZM36.8804 41H36.0839V36.7695H36.8804V41ZM38.0023 41V37.7749H38.7988V41H38.0023ZM38.394 37.1285C38.2591 37.1285 38.1437 37.0828 38.048 36.9914C37.9566 36.8957 37.9109 36.7804 37.9109 36.6454C37.9109 36.5105 37.9566 36.3973 38.048 36.3059C38.1437 36.2145 38.2591 36.1688 38.394 36.1688C38.5289 36.1688 38.6421 36.2145 38.7335 36.3059C38.8293 36.3973 38.8771 36.5105 38.8771 36.6454C38.8771 36.7804 38.8293 36.8957 38.7335 36.9914C38.6421 37.0828 38.5289 37.1285 38.394 37.1285ZM39.4324 39.3809C39.4324 39.0458 39.5064 38.752 39.6543 38.4995C39.8023 38.2428 40.0069 38.0425 40.268 37.8989C40.5292 37.7553 40.8251 37.6835 41.1559 37.6835C41.491 37.6835 41.787 37.7553 42.0438 37.8989C42.3049 38.0425 42.5095 38.2428 42.6575 38.4995C42.8055 38.752 42.8795 39.0458 42.8795 39.3809C42.8795 39.716 42.8055 40.012 42.6575 40.2688C42.5095 40.5212 42.3049 40.7193 42.0438 40.8629C41.787 41.0065 41.491 41.0783 41.1559 41.0783C40.8251 41.0783 40.5292 41.0065 40.268 40.8629C40.0069 40.7193 39.8023 40.5212 39.6543 40.2688C39.5064 40.012 39.4324 39.716 39.4324 39.3809ZM40.2289 39.3809C40.2289 39.5768 40.268 39.7487 40.3464 39.8967C40.4291 40.0446 40.5379 40.16 40.6728 40.2427C40.8121 40.3254 40.9731 40.3667 41.1559 40.3667C41.3387 40.3667 41.4998 40.3254 41.639 40.2427C41.7783 40.16 41.8871 40.0446 41.9655 39.8967C42.0438 39.7487 42.083 39.5768 42.083 39.3809C42.083 39.1807 42.0438 39.0088 41.9655 38.8652C41.8871 38.7172 41.7783 38.6018 41.639 38.5191C41.4998 38.4364 41.3387 38.3951 41.1559 38.3951C40.9731 38.3951 40.8121 38.4364 40.6728 38.5191C40.5379 38.6018 40.4291 38.7172 40.3464 38.8652C40.268 39.0088 40.2289 39.1807 40.2289 39.3809ZM44.3073 41H43.5108V37.7749H44.2485L44.3138 38.1927C44.4139 38.0317 44.5554 37.9054 44.7382 37.814C44.9253 37.7226 45.1277 37.6769 45.3453 37.6769C45.7501 37.6769 46.0548 37.7966 46.2593 38.036C46.4682 38.2754 46.5727 38.6018 46.5727 39.0153V41H45.7762V39.2046C45.7762 38.9348 45.7153 38.7346 45.5934 38.604C45.4716 38.4691 45.3062 38.4016 45.0972 38.4016C44.8492 38.4016 44.6555 38.48 44.5162 38.6366C44.3769 38.7933 44.3073 39.0023 44.3073 39.2634V41ZM27.368 47.0849C27.0285 47.0849 26.7587 46.9935 26.5585 46.8107C26.3626 46.6235 26.2647 46.3798 26.2647 46.0795C26.2647 45.7835 26.367 45.5485 26.5715 45.3744C26.7804 45.1959 27.0764 45.0915 27.4594 45.061L28.4256 44.9827V44.9109C28.4256 44.7629 28.3973 44.6454 28.3408 44.5583C28.2885 44.4669 28.2124 44.4016 28.1123 44.3624C28.0122 44.3189 27.8946 44.2972 27.7597 44.2972C27.5247 44.2972 27.3441 44.345 27.2179 44.4408C27.0916 44.5322 27.0285 44.6628 27.0285 44.8325H26.3495C26.3495 44.5975 26.4083 44.3951 26.5258 44.2253C26.6477 44.0513 26.8174 43.9163 27.035 43.8206C27.257 43.7248 27.5116 43.6769 27.7989 43.6769C28.0905 43.6769 28.3408 43.7292 28.5497 43.8336C28.7586 43.9337 28.9196 44.0861 29.0328 44.2906C29.146 44.4908 29.2025 44.7411 29.2025 45.0414V47H28.504L28.4452 46.5234C28.3756 46.6888 28.2407 46.8237 28.0405 46.9282C27.8446 47.0326 27.6204 47.0849 27.368 47.0849ZM27.6226 46.4842C27.8707 46.4842 28.0666 46.4146 28.2102 46.2753C28.3582 46.136 28.4322 45.9424 28.4322 45.6943V45.5245L27.7597 45.5768C27.5116 45.5985 27.3354 45.6508 27.2309 45.7335C27.1265 45.8118 27.0742 45.9163 27.0742 46.0468C27.0742 46.1905 27.1221 46.2993 27.2179 46.3733C27.3136 46.4472 27.4485 46.4842 27.6226 46.4842ZM29.7369 46.0207H30.4942C30.4986 46.16 30.5508 46.271 30.6509 46.3537C30.751 46.4364 30.8903 46.4777 31.0688 46.4777C31.2603 46.4777 31.4039 46.4429 31.4996 46.3733C31.5997 46.3036 31.6498 46.21 31.6498 46.0925C31.6498 46.0142 31.6237 45.9445 31.5715 45.8836C31.5192 45.8227 31.4213 45.777 31.2777 45.7465L30.6966 45.6094C30.405 45.5441 30.1874 45.4397 30.0438 45.296C29.9045 45.1481 29.8348 44.9457 29.8348 44.6889C29.8348 44.48 29.8893 44.2993 29.9981 44.147C30.1112 43.9947 30.2636 43.8793 30.4551 43.801C30.6466 43.7183 30.8664 43.6769 31.1145 43.6769C31.3538 43.6769 31.5649 43.7205 31.7477 43.8075C31.9305 43.8946 32.072 44.0164 32.1721 44.1731C32.2765 44.3298 32.3309 44.5126 32.3353 44.7215H31.578C31.578 44.5822 31.5345 44.4734 31.4474 44.3951C31.3604 44.3124 31.2385 44.271 31.0818 44.271C30.9251 44.271 30.8033 44.3059 30.7162 44.3755C30.6292 44.4451 30.5856 44.5387 30.5856 44.6562C30.5856 44.8347 30.7249 44.9566 31.0035 45.0218L31.5845 45.1589C31.8544 45.2199 32.0567 45.3178 32.1917 45.4527C32.3309 45.5876 32.4006 45.7792 32.4006 46.0272C32.4006 46.2449 32.344 46.4342 32.2308 46.5952C32.1177 46.7519 31.9588 46.8738 31.7543 46.9608C31.5497 47.0435 31.3147 47.0849 31.0492 47.0849C30.6487 47.0849 30.3288 46.9869 30.0895 46.7911C29.8544 46.5952 29.7369 46.3384 29.7369 46.0207ZM33.81 47H33.0201V42.1427H33.81V45.1263L35.0635 43.7749H36.0624L34.835 45.0545L36.0363 47H35.1223L34.2801 45.6421L33.81 46.1317V47ZM37.8162 47.0849C37.4984 47.0849 37.2155 47.0131 36.9674 46.8694C36.7237 46.7214 36.5322 46.5212 36.3929 46.2688C36.2536 46.012 36.184 45.7182 36.184 45.3874C36.184 45.0523 36.2515 44.7563 36.3864 44.4995C36.5213 44.2428 36.7106 44.0425 36.9544 43.8989C37.1981 43.7509 37.4767 43.6769 37.79 43.6769C38.1165 43.6769 38.3972 43.7466 38.6322 43.8859C38.8673 44.0208 39.0479 44.2101 39.1741 44.4538C39.3047 44.6976 39.37 44.9892 39.37 45.3287V45.5702L36.6018 45.5768L36.6149 45.0675H38.58C38.58 44.8456 38.5082 44.6671 38.3646 44.5322C38.2253 44.3973 38.0359 44.3298 37.7966 44.3298C37.6094 44.3298 37.4506 44.369 37.32 44.4473C37.1938 44.5257 37.098 44.6432 37.0327 44.7999C36.9674 44.9566 36.9348 45.1481 36.9348 45.3744C36.9348 45.7226 37.0088 45.9859 37.1568 46.1643C37.3091 46.3428 37.5332 46.432 37.8292 46.432C38.0468 46.432 38.2253 46.3907 38.3646 46.308C38.5082 46.2253 38.6018 46.1078 38.6453 45.9554H39.383C39.3134 46.308 39.1393 46.5843 38.8607 46.7846C38.5865 46.9848 38.2383 47.0849 37.8162 47.0849ZM41.3327 47.0849C41.0193 47.0849 40.7495 47.0152 40.5232 46.876C40.3012 46.7323 40.1271 46.5343 40.0009 46.2819C39.879 46.0294 39.8181 45.7356 39.8181 45.4005C39.8181 45.0654 39.879 44.7694 40.0009 44.5126C40.1271 44.2515 40.3077 44.0469 40.5428 43.8989C40.7778 43.7509 41.0563 43.6769 41.3784 43.6769C41.6047 43.6769 41.8115 43.7226 41.9986 43.814C42.1858 43.9011 42.3294 44.0251 42.4295 44.1862V42.1427H43.2195V47H42.4883L42.4361 46.4973C42.3403 46.6801 42.1923 46.8237 41.9921 46.9282C41.7962 47.0326 41.5765 47.0849 41.3327 47.0849ZM41.509 46.3537C41.6961 46.3537 41.8572 46.3145 41.9921 46.2362C42.127 46.1535 42.2315 46.0381 42.3055 45.8901C42.3838 45.7378 42.423 45.5659 42.423 45.3744C42.423 45.1785 42.3838 45.0088 42.3055 44.8652C42.2315 44.7172 42.127 44.6018 41.9921 44.5191C41.8572 44.4321 41.6961 44.3886 41.509 44.3886C41.3262 44.3886 41.1673 44.4321 41.0324 44.5191C40.8975 44.6018 40.793 44.7172 40.719 44.8652C40.6494 45.0131 40.6146 45.1829 40.6146 45.3744C40.6146 45.5659 40.6494 45.7356 40.719 45.8836C40.793 46.0316 40.8975 46.1469 41.0324 46.2296C41.1673 46.3123 41.3262 46.3537 41.509 46.3537Z" fill="#F0EAD2"/>
</svg>
