<svg width="68" height="65" viewBox="0 0 68 65" fill="none" xmlns="http://www.w3.org/2000/svg">
<path d="M31.4432 2.05261C32.8813 0.861816 34.9629 0.861816 36.4011 2.05261L41.2968 6.10636C42.0795 6.75445 43.0849 7.07025 44.0976 6.9861L50.546 6.45031C52.4543 6.29175 54.1938 7.54668 54.6452 9.40761L56.0317 15.1237C56.2833 16.161 56.9504 17.0491 57.8764 17.5798L63.1384 20.5955C64.8683 21.5869 65.5675 23.7264 64.7569 25.548L62.4414 30.7519C61.9938 31.7578 61.9938 32.9063 62.4414 33.9122L64.7569 39.1161C65.5675 40.9377 64.8683 43.0772 63.1384 44.0686L57.8764 47.0842C56.9504 47.6149 56.2833 48.5031 56.0317 49.5403L54.6452 55.2564C54.1938 57.1174 52.4543 58.3723 50.546 58.2137L44.0976 57.6779C43.0849 57.5938 42.0795 57.9096 41.2968 58.5577L36.4011 62.6114C34.9629 63.8022 32.8813 63.8022 31.4432 62.6114L26.5475 58.5577C25.7648 57.9096 24.7594 57.5938 23.7467 57.6779L17.2983 58.2137C15.3899 58.3723 13.6504 57.1174 13.199 55.2564L11.8125 49.5403C11.5609 48.5031 10.8939 47.6149 9.96783 47.0842L4.70584 44.0686C2.97597 43.0772 2.27676 40.9377 3.08732 39.1161L5.40286 33.9122C5.85045 32.9063 5.85045 31.7578 5.40286 30.7519L3.08732 25.548C2.27676 23.7264 2.97597 21.5868 4.70584 20.5955L9.96783 17.5798C10.8939 17.0491 11.5609 16.161 11.8125 15.1237L13.199 9.40761C13.6504 7.54668 15.3899 6.29175 17.2983 6.45031L23.7467 6.9861C24.7594 7.07025 25.7648 6.75445 26.5475 6.10636L31.4432 2.05261Z" fill="#F0EAD2"/>
<path d="M31.3397 4.03551C32.6816 2.92438 34.624 2.92439 35.9659 4.03552L40.5341 7.81809C41.2645 8.42282 42.2026 8.71749 43.1476 8.63898L49.1646 8.13903C50.9453 7.99108 52.5684 9.16205 52.9896 10.8985L54.2834 16.2322C54.5181 17.2001 55.1406 18.0288 56.0046 18.524L60.9146 21.3379C62.5288 22.263 63.1812 24.2594 62.4249 25.9591L60.2642 30.8149C59.8466 31.7535 59.8466 32.8252 60.2642 33.7638L62.4249 38.6195C63.1812 40.3193 62.5288 42.3157 60.9146 43.2407L56.0046 46.0546C55.1406 46.5498 54.5181 47.3786 54.2834 48.3464L52.9896 53.6802C52.5684 55.4166 50.9452 56.5876 49.1646 56.4396L43.1476 55.9397C42.2026 55.8612 41.2645 56.1558 40.5341 56.7606L35.9659 60.5431C34.624 61.6543 32.6816 61.6543 31.3397 60.5431L26.7715 56.7606C26.0412 56.1558 25.103 55.8612 24.1581 55.9397L18.1411 56.4396C16.3604 56.5876 14.7373 55.4166 14.3161 53.6802L13.0223 48.3464C12.7875 47.3786 12.1651 46.5498 11.301 46.0546L6.39103 43.2407C4.77689 42.3157 4.12445 40.3193 4.88078 38.6195L7.04142 33.7638C7.45907 32.8252 7.45907 31.7535 7.04142 30.8149L4.88078 25.9591C4.12445 24.2594 4.77689 22.263 6.39103 21.3379L11.301 18.524C12.1651 18.0288 12.7875 17.2001 13.0223 16.2322L14.3161 10.8985C14.7373 9.16205 16.3604 7.99108 18.1411 8.13903L24.1581 8.63898C25.103 8.71749 26.0412 8.42282 26.7715 7.81809L31.3397 4.03551Z" fill="#99A6E0"/>
<path d="M29.5562 34.272C29.4708 34.0587 29.4015 33.7867 29.3482 33.456C29.2948 33.1147 29.2628 32.7573 29.2522 32.384C29.2522 32.0107 29.2628 31.6587 29.2842 31.328C29.3162 30.9867 29.3695 30.7093 29.4442 30.496C29.6895 30.4107 29.9135 30.24 30.1162 29.984C30.3188 29.728 30.4202 29.3387 30.4202 28.816C30.4202 28.2507 30.3775 27.84 30.2922 27.584C30.2068 27.328 30.0895 27.1627 29.9402 27.088C29.8015 27.0027 29.6362 26.9547 29.4442 26.944C29.3482 26.7627 29.2788 26.5067 29.2362 26.176C29.1935 25.8453 29.1722 25.488 29.1722 25.104C29.1828 24.7093 29.2148 24.336 29.2682 23.984C29.3215 23.6213 29.4015 23.3227 29.5082 23.088C30.9375 23.0027 32.3028 22.896 33.6042 22.768C34.9055 22.6293 36.2495 22.48 37.6362 22.32C37.7322 22.6187 37.8015 22.9333 37.8442 23.264C37.8975 23.584 37.9242 23.8827 37.9242 24.16C37.9242 24.6613 37.8708 25.12 37.7642 25.536C37.6682 25.9413 37.5668 26.352 37.4602 26.768C37.3535 27.1733 37.3002 27.6267 37.3002 28.128C37.3002 28.9173 37.4015 29.488 37.6042 29.84C37.8175 30.192 38.0415 30.4107 38.2762 30.496C38.3722 30.8267 38.4308 31.2373 38.4522 31.728C38.4735 32.208 38.4575 32.6827 38.4042 33.152C38.3615 33.6107 38.2815 33.984 38.1642 34.272C37.8655 34.24 37.4762 34.2027 36.9962 34.16C36.5268 34.128 36.0095 34.096 35.4442 34.064C34.8788 34.0427 34.3082 34.032 33.7322 34.032C33.2202 34.032 32.6975 34.0427 32.1642 34.064C31.6415 34.096 31.1508 34.128 30.6922 34.16C30.2335 34.2027 29.8548 34.24 29.5562 34.272Z" fill="#F0EAD2"/>
<path d="M27.7628 43.3483C27.7628 43.0088 27.8238 42.715 27.9456 42.4669C28.0719 42.2188 28.2481 42.0251 28.4744 41.8859C28.7051 41.7466 28.9706 41.6769 29.2709 41.6769C29.5147 41.6769 29.7345 41.7292 29.9303 41.8336C30.1305 41.9337 30.2807 42.0774 30.3808 42.2645L30.433 41.7749H31.1642V46.495H30.3743V44.5691C30.2742 44.7302 30.124 44.8564 29.9238 44.9478C29.7279 45.0392 29.5081 45.0849 29.2644 45.0849C28.951 45.0849 28.6812 45.0109 28.4549 44.8629C28.2285 44.7106 28.0566 44.5038 27.9391 44.2427C27.8216 43.9815 27.7628 43.6834 27.7628 43.3483ZM28.5593 43.3874C28.5593 43.5789 28.5941 43.7487 28.6638 43.8967C28.7378 44.0446 28.8422 44.1622 28.9771 44.2492C29.1121 44.3319 29.2709 44.3733 29.4537 44.3733C29.6409 44.3733 29.8019 44.3319 29.9369 44.2492C30.0718 44.1622 30.1762 44.0446 30.2502 43.8967C30.3286 43.7487 30.3677 43.5789 30.3677 43.3874C30.3677 43.1916 30.3286 43.0197 30.2502 42.8717C30.1762 42.7237 30.0718 42.6084 29.9369 42.5257C29.8019 42.443 29.6409 42.4016 29.4537 42.4016C29.2709 42.4016 29.1121 42.4451 28.9771 42.5322C28.8422 42.6149 28.7378 42.7302 28.6638 42.8782C28.5941 43.0262 28.5593 43.1959 28.5593 43.3874ZM34.1814 41.7749H34.9778V45H34.2401L34.1814 44.5691C34.0856 44.7214 33.942 44.8455 33.7505 44.9412C33.559 45.037 33.3544 45.0849 33.1368 45.0849C32.7668 45.0849 32.4774 44.9674 32.2685 44.7323C32.0596 44.4973 31.9551 44.1839 31.9551 43.7922V41.7749H32.7516V43.5115C32.7516 43.8161 32.8104 44.0359 32.9279 44.1709C33.0454 44.3058 33.2151 44.3733 33.4371 44.3733C33.6895 44.3733 33.8767 44.2993 33.9986 44.1513C34.1204 43.9989 34.1814 43.7704 34.1814 43.4658V41.7749ZM35.8005 45V41.7749H36.597V45H35.8005ZM36.1922 41.1285C36.0573 41.1285 35.942 41.0828 35.8462 40.9914C35.7548 40.8957 35.7091 40.7804 35.7091 40.6454C35.7091 40.5105 35.7548 40.3973 35.8462 40.3059C35.942 40.2145 36.0573 40.1688 36.1922 40.1688C36.3271 40.1688 36.4403 40.2145 36.5317 40.3059C36.6275 40.3973 36.6753 40.5105 36.6753 40.6454C36.6753 40.7804 36.6275 40.8957 36.5317 40.9914C36.4403 41.0828 36.3271 41.1285 36.1922 41.1285ZM39.8485 45H37.2502V44.3471L38.8562 42.4408H37.2502V41.7749H39.8485V42.4343L38.2229 44.3341H39.8485V45Z" fill="#F0EAD2"/>
</svg>
