<svg width="40" height="20" viewBox="0 0 40 20" fill="none" xmlns="http://www.w3.org/2000/svg">
<rect x="0.5" y="0.5" width="39" height="19" rx="5.5" fill="#859E4F" stroke="#859E4F"/>
<path d="M10.25 11.5H11.41C11.4167 11.7133 11.4967 11.8833 11.65 12.01C11.8033 12.1367 12.0167 12.2 12.29 12.2C12.5833 12.2 12.8033 12.1467 12.95 12.04C13.1033 11.9333 13.18 11.79 13.18 11.61C13.18 11.49 13.14 11.3833 13.06 11.29C12.98 11.1967 12.83 11.1267 12.61 11.08L11.72 10.87C11.2733 10.77 10.94 10.61 10.72 10.39C10.5067 10.1633 10.4 9.85333 10.4 9.46C10.4 9.14 10.4833 8.86333 10.65 8.63C10.8233 8.39667 11.0567 8.22 11.35 8.1C11.6433 7.97333 11.98 7.91 12.36 7.91C12.7267 7.91 13.05 7.97667 13.33 8.11C13.61 8.24333 13.8267 8.43 13.98 8.67C14.14 8.91 14.2233 9.19 14.23 9.51H13.07C13.07 9.29667 13.0033 9.13 12.87 9.01C12.7367 8.88333 12.55 8.82 12.31 8.82C12.07 8.82 11.8833 8.87333 11.75 8.98C11.6167 9.08667 11.55 9.23 11.55 9.41C11.55 9.68333 11.7633 9.87 12.19 9.97L13.08 10.18C13.4933 10.2733 13.8033 10.4233 14.01 10.63C14.2233 10.8367 14.33 11.13 14.33 11.51C14.33 11.8433 14.2433 12.1333 14.07 12.38C13.8967 12.62 13.6533 12.8067 13.34 12.94C13.0267 13.0667 12.6667 13.13 12.26 13.13C11.6467 13.13 11.1567 12.98 10.79 12.68C10.43 12.38 10.25 11.9867 10.25 11.5ZM16.7289 13.13C16.2089 13.13 15.7956 12.99 15.4889 12.71C15.1889 12.4233 15.0389 12.05 15.0389 11.59C15.0389 11.1367 15.1956 10.7767 15.5089 10.51C15.8289 10.2367 16.2822 10.0767 16.8689 10.03L18.3489 9.91V9.8C18.3489 9.57333 18.3056 9.39333 18.2189 9.26C18.1389 9.12 18.0222 9.02 17.8689 8.96C17.7156 8.89333 17.5356 8.86 17.3289 8.86C16.9689 8.86 16.6922 8.93333 16.4989 9.08C16.3056 9.22 16.2089 9.42 16.2089 9.68H15.1689C15.1689 9.32 15.2589 9.01 15.4389 8.75C15.6256 8.48333 15.8856 8.27667 16.2189 8.13C16.5589 7.98333 16.9489 7.91 17.3889 7.91C17.8356 7.91 18.2189 7.99 18.5389 8.15C18.8589 8.30333 19.1056 8.53667 19.2789 8.85C19.4522 9.15667 19.5389 9.54 19.5389 10V13H18.4689L18.3789 12.27C18.2722 12.5233 18.0656 12.73 17.7589 12.89C17.4589 13.05 17.1156 13.13 16.7289 13.13ZM17.1189 12.21C17.4989 12.21 17.7989 12.1033 18.0189 11.89C18.2456 11.6767 18.3589 11.38 18.3589 11V10.74L17.3289 10.82C16.9489 10.8533 16.6789 10.9333 16.5189 11.06C16.3589 11.18 16.2789 11.34 16.2789 11.54C16.2789 11.76 16.3522 11.9267 16.4989 12.04C16.6456 12.1533 16.8522 12.21 17.1189 12.21ZM21.9421 13L19.9821 8.06H21.2821L22.1421 10.33C22.2488 10.6233 22.3388 10.8933 22.4121 11.14C22.4921 11.38 22.5488 11.5667 22.5821 11.7C22.6154 11.5467 22.6721 11.35 22.7521 11.11C22.8388 10.8633 22.9354 10.6033 23.0421 10.33L23.9421 8.06H25.2021L23.1421 13H21.9421ZM27.8791 13.13C27.3924 13.13 26.9591 13.02 26.5791 12.8C26.2057 12.5733 25.9124 12.2667 25.6991 11.88C25.4857 11.4867 25.3791 11.0367 25.3791 10.53C25.3791 10.0167 25.4824 9.56333 25.6891 9.17C25.8957 8.77667 26.1857 8.47 26.5591 8.25C26.9324 8.02333 27.3591 7.91 27.8391 7.91C28.3391 7.91 28.7691 8.01667 29.1291 8.23C29.4891 8.43667 29.7657 8.72667 29.9591 9.1C30.1591 9.47333 30.2591 9.92 30.2591 10.44V10.81L26.0191 10.82L26.0391 10.04H29.0491C29.0491 9.7 28.9391 9.42667 28.7191 9.22C28.5057 9.01333 28.2157 8.91 27.8491 8.91C27.5624 8.91 27.3191 8.97 27.1191 9.09C26.9257 9.21 26.7791 9.39 26.6791 9.63C26.5791 9.87 26.5291 10.1633 26.5291 10.51C26.5291 11.0433 26.6424 11.4467 26.8691 11.72C27.1024 11.9933 27.4457 12.13 27.8991 12.13C28.2324 12.13 28.5057 12.0667 28.7191 11.94C28.9391 11.8133 29.0824 11.6333 29.1491 11.4H30.2791C30.1724 11.94 29.9057 12.3633 29.4791 12.67C29.0591 12.9767 28.5257 13.13 27.8791 13.13Z" fill="#FAF2DD"/>
</svg>
