<svg width="17" height="17" viewBox="0 0 17 17" fill="none" xmlns="http://www.w3.org/2000/svg">
<path d="M8.5 14.875C7.0125 14.875 5.69618 14.4236 4.55104 13.5207C3.4059 12.6178 2.66215 11.4637 2.31979 10.0583C2.27257 9.88125 2.30799 9.71904 2.42604 9.57171C2.5441 9.42437 2.70347 9.33867 2.90417 9.31458C3.09306 9.29097 3.26424 9.32639 3.41771 9.42083C3.57118 9.51528 3.67743 9.65694 3.73646 9.84583C4.01979 10.9083 4.60417 11.776 5.48958 12.449C6.375 13.1219 7.37847 13.4583 8.5 13.4583C9.88125 13.4583 11.0531 12.9774 12.0155 12.0155C12.9778 11.0535 13.4588 9.88172 13.4583 8.5C13.4579 7.11828 12.9769 5.94669 12.0155 4.98525C11.054 4.02381 9.88219 3.54261 8.5 3.54167C7.68542 3.54167 6.92396 3.73056 6.21562 4.10833C5.50729 4.48611 4.91111 5.00556 4.42708 5.66667H5.66667C5.86736 5.66667 6.03571 5.73467 6.17171 5.87067C6.30771 6.00667 6.37547 6.17478 6.375 6.375C6.37453 6.57522 6.30653 6.74357 6.171 6.88004C6.03547 7.01651 5.86736 7.08428 5.66667 7.08333H2.83333C2.63264 7.08333 2.46453 7.01533 2.329 6.87933C2.19347 6.74333 2.12547 6.57522 2.125 6.375V3.54167C2.125 3.34097 2.193 3.17286 2.329 3.03733C2.465 2.90181 2.63311 2.83381 2.83333 2.83333C3.03356 2.83286 3.2019 2.90086 3.33837 3.03733C3.47485 3.17381 3.54261 3.34192 3.54167 3.54167V4.49792C4.14375 3.74236 4.87876 3.15799 5.74671 2.74479C6.61465 2.3316 7.53242 2.125 8.5 2.125C9.38542 2.125 10.2149 2.29335 10.9884 2.63004C11.7619 2.96674 12.4348 3.42101 13.0071 3.99287C13.5795 4.56474 14.034 5.23765 14.3707 6.01163C14.7074 6.7856 14.8755 7.61506 14.875 8.5C14.8745 9.38494 14.7064 10.2144 14.3707 10.9884C14.0349 11.7623 13.5804 12.4353 13.0071 13.0071C12.4338 13.579 11.7609 14.0335 10.9884 14.3707C10.2158 14.7078 9.38636 14.8759 8.5 14.875ZM9.20833 8.21667L10.9792 9.9875C11.109 10.1174 11.174 10.2826 11.174 10.4833C11.174 10.684 11.109 10.8493 10.9792 10.9792C10.8493 11.109 10.684 11.174 10.4833 11.174C10.2826 11.174 10.1174 11.109 9.9875 10.9792L8.00417 8.99583C7.93333 8.925 7.88021 8.84543 7.84479 8.75712C7.80937 8.66882 7.79167 8.57721 7.79167 8.48229V5.66667C7.79167 5.46597 7.85967 5.29786 7.99567 5.16233C8.13167 5.02681 8.29978 4.95881 8.5 4.95833C8.70022 4.95786 8.86857 5.02586 9.00504 5.16233C9.14151 5.29881 9.20928 5.46692 9.20833 5.66667V8.21667Z" fill="#859E4F"/>
</svg>
