<svg width="203" height="83" viewBox="0 0 203 83" fill="none" xmlns="http://www.w3.org/2000/svg">
<mask id="path-1-outside-1_339_6852" maskUnits="userSpaceOnUse" x="0" y="-0.509094" width="203" height="83" fill="black">
<rect fill="white" y="-0.509094" width="203" height="83"/>
<path d="M41.8415 76.1771C18.4588 76.1771 6.76748 66.6603 6.76748 47.6267C6.76748 37.2401 9.70951 29.6164 15.5936 24.7556C21.5288 19.8949 30.406 17.4645 42.2253 17.4645C54.7609 17.4645 63.8683 19.8693 69.5477 24.6789C75.2783 29.4373 78.1435 36.4726 78.1435 45.7847C78.1435 56.2737 75.1248 63.9741 69.0872 68.886C63.0497 73.7467 53.9678 76.1771 41.8415 76.1771ZM40.3833 51.0036H44.5277V42.638H40.3833V51.0036ZM119.417 76.1004C114.403 76.1004 110.259 75.691 106.984 74.8724C103.761 74.0537 101.151 72.8769 99.1558 71.3419C97.2115 69.7558 95.6254 67.8627 94.3974 65.6626L92.402 66.6603C92.7601 67.4278 93.0415 68.1697 93.2462 68.886C93.4509 69.6023 93.5532 70.2931 93.5532 70.9582C93.5532 72.135 93.1183 73.056 92.2485 73.7212C91.4298 74.3863 90.4065 74.8468 89.1785 75.1026C87.9506 75.3585 86.7226 75.4864 85.4946 75.4864C83.6526 75.4864 81.606 75.2561 79.3547 74.7956C78.8431 73.4142 78.4593 71.6489 78.2035 69.5C77.9988 67.2999 77.9477 65.0486 78.05 62.7461C78.1523 60.3925 78.4082 58.3459 78.8175 56.6062C79.585 56.3504 80.3269 55.8643 81.0432 55.148C81.7595 54.4317 82.3479 53.1781 82.8084 51.3874C83.2689 49.5454 83.4991 46.9359 83.4991 43.559C83.4991 40.6937 83.3201 38.4169 82.9619 36.7284C82.6549 34.9888 82.2456 33.6585 81.7339 32.7375C81.2734 31.7653 80.7618 31.0746 80.199 30.6653C79.6873 30.2559 79.2268 29.9489 78.8175 29.7443C78.3058 28.0558 77.9477 26.1115 77.743 23.9114C77.5895 21.7113 77.6151 19.5367 77.8198 17.3878C78.0756 15.1877 78.5105 13.3457 79.1245 11.8619C81.6828 12.1689 84.548 12.4247 87.7203 12.6294C90.8926 12.7829 94.423 12.8596 98.3116 12.8596C102.098 12.8596 105.654 12.7573 108.98 12.5526C112.305 12.2968 115.043 12.0666 117.192 11.8619C117.601 12.8852 117.882 14.1388 118.036 15.6226C118.241 17.1064 118.343 18.4878 118.343 19.767C116.757 20.6368 115.299 21.6601 113.968 22.8369C112.638 23.9626 111.41 25.1394 110.284 26.3674L111.973 27.8256C114.378 25.2673 117.115 23.0672 120.185 21.2252C123.255 19.3832 126.529 18.4623 130.009 18.4623C137.274 18.4623 142.8 20.9438 146.586 25.9069C150.424 30.8699 152.343 37.7773 152.343 46.6289C152.343 52.82 151.191 58.1156 148.889 62.5159C146.638 66.9161 143.082 70.2931 138.221 72.6467C133.36 74.9491 127.092 76.1004 119.417 76.1004ZM114.659 50.3896H118.803V43.252H114.659V50.3896ZM154.608 74.7956C154.198 73.7723 153.866 72.4676 153.61 70.8815C153.354 69.2442 153.201 67.5301 153.15 65.7393C153.15 63.9485 153.201 62.26 153.303 60.6739C153.457 59.0366 153.712 57.7063 154.071 56.683C154.838 56.376 155.58 55.8899 156.296 55.2248C157.013 54.5596 157.601 53.5619 158.061 52.2316C158.573 50.9013 158.829 49.0849 158.829 46.7824C158.829 44.5312 158.522 42.7915 157.908 41.5635C157.345 40.2844 156.68 39.3634 155.912 38.8006C155.196 38.1866 154.582 37.7517 154.071 37.4959C153.61 36.6261 153.277 35.3981 153.073 33.812C152.868 32.1747 152.766 30.4094 152.766 28.5163C152.817 26.6232 152.97 24.8068 153.226 23.0672C153.482 21.3275 153.866 19.8949 154.378 18.7693C154.94 18.8204 155.426 18.8972 155.836 18.9995C156.245 19.0507 156.706 19.1018 157.217 19.153C157.013 22.3253 157.652 25.0626 159.136 27.3651C160.62 29.6164 162.641 31.2281 165.199 32.2002C167.809 33.1724 170.571 33.377 173.488 32.8142C171.032 32.7119 168.755 32.0723 166.657 30.8955C164.611 29.6675 162.948 28.0558 161.669 26.0604C160.441 24.0137 159.827 21.7369 159.827 19.2297C159.827 17.132 160.313 15.1109 161.285 13.1666C162.308 11.1712 163.997 9.53386 166.35 8.25472C168.704 6.92441 171.876 6.25926 175.867 6.25926C182.263 6.25926 186.919 7.87098 189.835 11.0944C192.803 14.2667 194.287 18.9739 194.287 25.2161C194.287 28.1326 194.031 30.8188 193.519 33.2747C193.059 35.6795 192.573 38.0075 192.061 40.2588C191.601 42.4589 191.37 44.7102 191.37 47.0127C191.37 49.2128 191.601 50.978 192.061 52.3083C192.573 53.6386 193.187 54.6364 193.903 55.3015C194.67 55.9155 195.412 56.376 196.129 56.683C196.487 57.7063 196.717 59.0366 196.819 60.6739C196.973 62.26 197.024 63.9485 196.973 65.7393C196.973 67.5301 196.845 69.2442 196.589 70.8815C196.333 72.4676 196.001 73.7723 195.591 74.7956C194.159 74.6421 192.291 74.4631 189.989 74.2584C187.738 74.1049 185.282 73.9514 182.621 73.7979C179.96 73.6956 177.3 73.6444 174.639 73.6444C172.183 73.6444 169.676 73.6956 167.118 73.7979C164.611 73.9514 162.257 74.1049 160.057 74.2584C157.857 74.4631 156.04 74.6421 154.608 74.7956Z"/>
</mask>
<path d="M41.8415 76.1771C18.4588 76.1771 6.76748 66.6603 6.76748 47.6267C6.76748 37.2401 9.70951 29.6164 15.5936 24.7556C21.5288 19.8949 30.406 17.4645 42.2253 17.4645C54.7609 17.4645 63.8683 19.8693 69.5477 24.6789C75.2783 29.4373 78.1435 36.4726 78.1435 45.7847C78.1435 56.2737 75.1248 63.9741 69.0872 68.886C63.0497 73.7467 53.9678 76.1771 41.8415 76.1771ZM40.3833 51.0036H44.5277V42.638H40.3833V51.0036ZM119.417 76.1004C114.403 76.1004 110.259 75.691 106.984 74.8724C103.761 74.0537 101.151 72.8769 99.1558 71.3419C97.2115 69.7558 95.6254 67.8627 94.3974 65.6626L92.402 66.6603C92.7601 67.4278 93.0415 68.1697 93.2462 68.886C93.4509 69.6023 93.5532 70.2931 93.5532 70.9582C93.5532 72.135 93.1183 73.056 92.2485 73.7212C91.4298 74.3863 90.4065 74.8468 89.1785 75.1026C87.9506 75.3585 86.7226 75.4864 85.4946 75.4864C83.6526 75.4864 81.606 75.2561 79.3547 74.7956C78.8431 73.4142 78.4593 71.6489 78.2035 69.5C77.9988 67.2999 77.9477 65.0486 78.05 62.7461C78.1523 60.3925 78.4082 58.3459 78.8175 56.6062C79.585 56.3504 80.3269 55.8643 81.0432 55.148C81.7595 54.4317 82.3479 53.1781 82.8084 51.3874C83.2689 49.5454 83.4991 46.9359 83.4991 43.559C83.4991 40.6937 83.3201 38.4169 82.9619 36.7284C82.6549 34.9888 82.2456 33.6585 81.7339 32.7375C81.2734 31.7653 80.7618 31.0746 80.199 30.6653C79.6873 30.2559 79.2268 29.9489 78.8175 29.7443C78.3058 28.0558 77.9477 26.1115 77.743 23.9114C77.5895 21.7113 77.6151 19.5367 77.8198 17.3878C78.0756 15.1877 78.5105 13.3457 79.1245 11.8619C81.6828 12.1689 84.548 12.4247 87.7203 12.6294C90.8926 12.7829 94.423 12.8596 98.3116 12.8596C102.098 12.8596 105.654 12.7573 108.98 12.5526C112.305 12.2968 115.043 12.0666 117.192 11.8619C117.601 12.8852 117.882 14.1388 118.036 15.6226C118.241 17.1064 118.343 18.4878 118.343 19.767C116.757 20.6368 115.299 21.6601 113.968 22.8369C112.638 23.9626 111.41 25.1394 110.284 26.3674L111.973 27.8256C114.378 25.2673 117.115 23.0672 120.185 21.2252C123.255 19.3832 126.529 18.4623 130.009 18.4623C137.274 18.4623 142.8 20.9438 146.586 25.9069C150.424 30.8699 152.343 37.7773 152.343 46.6289C152.343 52.82 151.191 58.1156 148.889 62.5159C146.638 66.9161 143.082 70.2931 138.221 72.6467C133.36 74.9491 127.092 76.1004 119.417 76.1004ZM114.659 50.3896H118.803V43.252H114.659V50.3896ZM154.608 74.7956C154.198 73.7723 153.866 72.4676 153.61 70.8815C153.354 69.2442 153.201 67.5301 153.15 65.7393C153.15 63.9485 153.201 62.26 153.303 60.6739C153.457 59.0366 153.712 57.7063 154.071 56.683C154.838 56.376 155.58 55.8899 156.296 55.2248C157.013 54.5596 157.601 53.5619 158.061 52.2316C158.573 50.9013 158.829 49.0849 158.829 46.7824C158.829 44.5312 158.522 42.7915 157.908 41.5635C157.345 40.2844 156.68 39.3634 155.912 38.8006C155.196 38.1866 154.582 37.7517 154.071 37.4959C153.61 36.6261 153.277 35.3981 153.073 33.812C152.868 32.1747 152.766 30.4094 152.766 28.5163C152.817 26.6232 152.97 24.8068 153.226 23.0672C153.482 21.3275 153.866 19.8949 154.378 18.7693C154.94 18.8204 155.426 18.8972 155.836 18.9995C156.245 19.0507 156.706 19.1018 157.217 19.153C157.013 22.3253 157.652 25.0626 159.136 27.3651C160.62 29.6164 162.641 31.2281 165.199 32.2002C167.809 33.1724 170.571 33.377 173.488 32.8142C171.032 32.7119 168.755 32.0723 166.657 30.8955C164.611 29.6675 162.948 28.0558 161.669 26.0604C160.441 24.0137 159.827 21.7369 159.827 19.2297C159.827 17.132 160.313 15.1109 161.285 13.1666C162.308 11.1712 163.997 9.53386 166.35 8.25472C168.704 6.92441 171.876 6.25926 175.867 6.25926C182.263 6.25926 186.919 7.87098 189.835 11.0944C192.803 14.2667 194.287 18.9739 194.287 25.2161C194.287 28.1326 194.031 30.8188 193.519 33.2747C193.059 35.6795 192.573 38.0075 192.061 40.2588C191.601 42.4589 191.37 44.7102 191.37 47.0127C191.37 49.2128 191.601 50.978 192.061 52.3083C192.573 53.6386 193.187 54.6364 193.903 55.3015C194.67 55.9155 195.412 56.376 196.129 56.683C196.487 57.7063 196.717 59.0366 196.819 60.6739C196.973 62.26 197.024 63.9485 196.973 65.7393C196.973 67.5301 196.845 69.2442 196.589 70.8815C196.333 72.4676 196.001 73.7723 195.591 74.7956C194.159 74.6421 192.291 74.4631 189.989 74.2584C187.738 74.1049 185.282 73.9514 182.621 73.7979C179.96 73.6956 177.3 73.6444 174.639 73.6444C172.183 73.6444 169.676 73.6956 167.118 73.7979C164.611 73.9514 162.257 74.1049 160.057 74.2584C157.857 74.4631 156.04 74.6421 154.608 74.7956Z" fill="#ADC178"/>
<path d="M15.5936 24.7556L11.792 20.1137L11.7821 20.1217L11.7723 20.1299L15.5936 24.7556ZM69.5477 24.6789L65.6702 29.2576L65.6924 29.2764L65.7147 29.295L69.5477 24.6789ZM69.0872 68.886L72.8499 73.5596L72.8618 73.55L72.8738 73.5403L69.0872 68.886ZM40.3833 51.0036H34.3833V57.0036H40.3833V51.0036ZM44.5277 51.0036V57.0036H50.5277V51.0036H44.5277ZM44.5277 42.638H50.5277V36.638H44.5277V42.638ZM40.3833 42.638V36.638H34.3833V42.638H40.3833ZM41.8415 76.1771V70.1771C30.8097 70.1771 23.6494 67.9073 19.3238 64.3862C15.2344 61.0575 12.7675 55.8549 12.7675 47.6267H6.76748H0.767485C0.767485 58.4321 4.14627 67.5047 11.7482 73.6928C19.1139 79.6885 29.4906 82.1771 41.8415 82.1771V76.1771ZM6.76748 47.6267H12.7675C12.7675 38.3462 15.3628 32.7287 19.4148 29.3814L15.5936 24.7556L11.7723 20.1299C4.05621 26.504 0.767485 36.1339 0.767485 47.6267H6.76748ZM15.5936 24.7556L19.3952 29.3976C23.8128 25.7797 31.0797 23.4645 42.2253 23.4645V17.4645V11.4645C29.7323 11.4645 19.2447 14.0101 11.792 20.1137L15.5936 24.7556ZM42.2253 17.4645V23.4645C54.2345 23.4645 61.6025 25.8129 65.6702 29.2576L69.5477 24.6789L73.4252 20.1001C66.1342 13.9258 55.2872 11.4645 42.2253 11.4645V17.4645ZM69.5477 24.6789L65.7147 29.295C69.7378 32.6355 72.1435 37.7707 72.1435 45.7847H78.1435H84.1435C84.1435 35.1744 80.8188 26.2391 73.3807 20.0628L69.5477 24.6789ZM78.1435 45.7847H72.1435C72.1435 55.1366 69.4907 60.8229 65.3007 64.2317L69.0872 68.886L72.8738 73.5403C80.7588 67.1253 84.1435 57.4108 84.1435 45.7847H78.1435ZM69.0872 68.886L65.3246 64.2124C60.8082 67.8485 53.3273 70.1771 41.8415 70.1771V76.1771V82.1771C54.6083 82.1771 65.2912 79.645 72.8499 73.5596L69.0872 68.886ZM40.3833 51.0036V57.0036H44.5277V51.0036V45.0036H40.3833V51.0036ZM44.5277 51.0036H50.5277V42.638H44.5277H38.5277V51.0036H44.5277ZM44.5277 42.638V36.638H40.3833V42.638V48.638H44.5277V42.638ZM40.3833 42.638H34.3833V51.0036H40.3833H46.3833V42.638H40.3833ZM106.984 74.8724L105.507 80.6878L105.518 80.6905L105.529 80.6932L106.984 74.8724ZM99.1558 71.3419L95.3631 75.9911L95.4296 76.0454L95.4976 76.0977L99.1558 71.3419ZM94.3974 65.6626L99.6366 62.7384L96.8423 57.7319L91.7141 60.296L94.3974 65.6626ZM92.402 66.6603L89.7187 61.2937L84.4952 63.9055L86.9649 69.1976L92.402 66.6603ZM92.2485 73.7212L88.6038 68.955L88.5335 69.0087L88.4649 69.0645L92.2485 73.7212ZM89.1785 75.1026L90.4023 80.9765L90.4023 80.9765L89.1785 75.1026ZM79.3547 74.7956L73.7282 76.8795L74.8861 80.0058L78.1524 80.6739L79.3547 74.7956ZM78.2035 69.5L72.2293 70.0557L72.2364 70.1326L72.2456 70.2093L78.2035 69.5ZM78.05 62.7461L84.0441 63.0125L84.0443 63.0067L78.05 62.7461ZM78.8175 56.6062L76.9201 50.9141L73.7438 51.9729L72.977 55.232L78.8175 56.6062ZM81.0432 55.148L85.2858 59.3907L85.2858 59.3907L81.0432 55.148ZM82.8084 51.3874L88.6194 52.8816L88.6244 52.8621L88.6293 52.8426L82.8084 51.3874ZM82.9619 36.7284L77.0532 37.7711L77.0711 37.8726L77.0925 37.9734L82.9619 36.7284ZM81.7339 32.7375L76.3115 35.306L76.3947 35.4815L76.489 35.6513L81.7339 32.7375ZM80.199 30.6653L76.4508 35.3505L76.5584 35.4366L76.6699 35.5177L80.199 30.6653ZM78.8175 29.7443L73.0753 31.4843L73.8243 33.9559L76.1342 35.1108L78.8175 29.7443ZM77.743 23.9114L71.7576 24.329L71.7624 24.3981L71.7688 24.4671L77.743 23.9114ZM77.8198 17.3878L71.8599 16.6948L71.8527 16.7568L71.8468 16.8189L77.8198 17.3878ZM79.1245 11.8619L79.8394 5.90464L75.3206 5.36238L73.5804 9.56779L79.1245 11.8619ZM87.7203 12.6294L87.334 18.6169L87.3822 18.62L87.4303 18.6224L87.7203 12.6294ZM108.98 12.5526L109.348 18.5413L109.394 18.5385L109.44 18.535L108.98 12.5526ZM117.192 11.8619L122.763 9.63355L121.094 5.46306L116.623 5.88892L117.192 11.8619ZM118.036 15.6226L112.068 16.24L112.078 16.3414L112.092 16.4424L118.036 15.6226ZM118.343 19.767L121.228 25.0279L124.343 23.3196V19.767H118.343ZM113.968 22.8369L117.844 27.4172L117.894 27.3746L117.944 27.3309L113.968 22.8369ZM110.284 26.3674L105.861 22.313L101.685 26.8688L106.363 30.9083L110.284 26.3674ZM111.973 27.8256L108.051 32.3665L112.405 36.1264L116.345 31.935L111.973 27.8256ZM120.185 21.2252L117.098 16.0802L117.098 16.0802L120.185 21.2252ZM146.586 25.9069L141.816 29.5461L141.828 29.5616L141.84 29.5769L146.586 25.9069ZM148.889 62.5159L143.573 59.7341L143.56 59.7585L143.547 59.783L148.889 62.5159ZM138.221 72.6467L140.789 78.0691L140.813 78.0581L140.836 78.0469L138.221 72.6467ZM114.659 50.3896H108.659V56.3896H114.659V50.3896ZM118.803 50.3896V56.3896H124.803V50.3896H118.803ZM118.803 43.252H124.803V37.252H118.803V43.252ZM114.659 43.252V37.252H108.659V43.252H114.659ZM119.417 76.1004V70.1004C114.681 70.1004 111.068 69.7088 108.439 69.0515L106.984 74.8724L105.529 80.6932C109.449 81.6733 114.125 82.1004 119.417 82.1004V76.1004ZM106.984 74.8724L108.461 69.057C105.788 68.3781 103.99 67.4909 102.814 66.5862L99.1558 71.3419L95.4976 76.0977C98.3124 78.2629 101.734 79.7294 105.507 80.6878L106.984 74.8724ZM99.1558 71.3419L102.949 66.6928C101.593 65.5872 100.497 64.2802 99.6366 62.7384L94.3974 65.6626L89.1582 68.5868C90.7536 71.4452 92.8296 73.9244 95.3631 75.9911L99.1558 71.3419ZM94.3974 65.6626L91.7141 60.296L89.7187 61.2937L92.402 66.6603L95.0852 72.0269L97.0807 71.0291L94.3974 65.6626ZM92.402 66.6603L86.9649 69.1976C87.2068 69.7161 87.3703 70.1606 87.4771 70.5343L93.2462 68.886L99.0153 67.2377C98.7128 66.1788 98.3134 65.1394 97.8391 64.123L92.402 66.6603ZM93.2462 68.886L87.4771 70.5343C87.5467 70.7779 87.5532 70.9128 87.5532 70.9582H93.5532H99.5532C99.5532 69.6733 99.3551 68.4267 99.0153 67.2377L93.2462 68.886ZM93.5532 70.9582H87.5532C87.5532 70.798 87.5861 70.4257 87.8015 69.9695C88.0235 69.4994 88.3362 69.1596 88.6038 68.955L92.2485 73.7212L95.8932 78.4873C98.3714 76.5922 99.5532 73.8422 99.5532 70.9582H93.5532ZM92.2485 73.7212L88.4649 69.0645C88.5185 69.021 88.4211 69.1316 87.9548 69.2287L89.1785 75.1026L90.4023 80.9765C92.3919 80.562 94.3412 79.7517 96.032 78.3778L92.2485 73.7212ZM89.1785 75.1026L87.9548 69.2287C87.1207 69.4025 86.3027 69.4864 85.4946 69.4864V75.4864V81.4864C87.1425 81.4864 88.7804 81.3144 90.4023 80.9765L89.1785 75.1026ZM85.4946 75.4864V69.4864C84.1412 69.4864 82.5054 69.3158 80.5571 68.9173L79.3547 74.7956L78.1524 80.6739C80.7067 81.1964 83.1641 81.4864 85.4946 81.4864V75.4864ZM79.3547 74.7956L84.9812 72.7117C84.6909 71.9279 84.3848 70.6674 84.1614 68.7907L78.2035 69.5L72.2456 70.2093C72.5338 72.6305 72.9952 74.9004 73.7282 76.8795L79.3547 74.7956ZM78.2035 69.5L84.1777 68.9442C83.9995 67.0288 83.9534 65.0525 84.0441 63.0125L78.05 62.7461L72.0559 62.4797C71.9419 65.0446 71.9981 67.5709 72.2293 70.0557L78.2035 69.5ZM78.05 62.7461L84.0443 63.0067C84.1352 60.9175 84.3568 59.2605 84.658 57.9805L78.8175 56.6062L72.977 55.232C72.4595 57.4313 72.1695 59.8675 72.0557 62.4855L78.05 62.7461ZM78.8175 56.6062L80.7149 62.2983C82.5605 61.6831 84.0731 60.6034 85.2858 59.3907L81.0432 55.148L76.8006 50.9054C76.6929 51.013 76.6439 51.0425 76.6614 51.0311C76.6819 51.0176 76.7686 50.9647 76.9201 50.9141L78.8175 56.6062ZM81.0432 55.148L85.2858 59.3907C87.1602 57.5163 88.0798 54.9798 88.6194 52.8816L82.8084 51.3874L76.9975 49.8931C76.8316 50.5381 76.6826 50.9245 76.5903 51.1212C76.4905 51.3339 76.5237 51.1822 76.8006 50.9054L81.0432 55.148ZM82.8084 51.3874L88.6293 52.8426C89.2667 50.2929 89.4991 47.1097 89.4991 43.559H83.4991H77.4991C77.4991 46.7622 77.2711 48.7979 76.9876 49.9321L82.8084 51.3874ZM83.4991 43.559H89.4991C89.4991 40.5106 89.3143 37.7605 88.8313 35.4834L82.9619 36.7284L77.0925 37.9734C77.3258 39.0732 77.4991 40.8769 77.4991 43.559H83.4991ZM82.9619 36.7284L88.8706 35.6857C88.5151 33.6711 87.96 31.5896 86.9789 29.8236L81.7339 32.7375L76.489 35.6513C76.4855 35.6451 76.5067 35.6826 76.5452 35.7768C76.5834 35.8702 76.6331 36.0057 76.69 36.1905C76.8055 36.5658 76.9319 37.0838 77.0532 37.7711L82.9619 36.7284ZM81.7339 32.7375L87.1564 30.169C86.4796 28.7401 85.4288 27.0498 83.728 25.8129L80.199 30.6653L76.6699 35.5177C76.3579 35.2907 76.2089 35.0961 76.1835 35.0617C76.1574 35.0265 76.2088 35.0891 76.3115 35.306L81.7339 32.7375ZM80.199 30.6653L83.9471 25.9801C83.2341 25.4097 82.4114 24.833 81.5008 24.3777L78.8175 29.7443L76.1342 35.1108C76.0761 35.0818 76.0772 35.0774 76.1416 35.1203C76.2042 35.162 76.3066 35.2351 76.4508 35.3505L80.199 30.6653ZM78.8175 29.7443L84.5596 28.0042C84.1899 26.784 83.8934 25.25 83.7172 23.3557L77.743 23.9114L71.7688 24.4671C72.0019 26.9731 72.4218 29.3276 73.0753 31.4843L78.8175 29.7443ZM77.743 23.9114L83.7285 23.4938C83.5974 21.6152 83.62 19.7707 83.7927 17.9566L77.8198 17.3878L71.8468 16.8189C71.6102 19.3028 71.5816 21.8074 71.7576 24.329L77.743 23.9114ZM77.8198 17.3878L83.7796 18.0808C83.9938 16.2388 84.3295 14.9755 84.6686 14.156L79.1245 11.8619L73.5804 9.56779C72.6915 11.7159 72.1574 14.1365 71.8599 16.6948L77.8198 17.3878ZM79.1245 11.8619L78.4096 17.8192C81.0988 18.1419 84.0762 18.4067 87.334 18.6169L87.7203 12.6294L88.1066 6.64183C85.0199 6.44269 82.2667 6.19592 79.8394 5.90464L79.1245 11.8619ZM87.7203 12.6294L87.4303 18.6224C90.7177 18.7814 94.3468 18.8596 98.3116 18.8596V12.8596V6.85963C94.4992 6.85963 91.0675 6.78432 88.0103 6.63639L87.7203 12.6294ZM98.3116 12.8596V18.8596C102.205 18.8596 105.885 18.7545 109.348 18.5413L108.98 12.5526L108.611 6.56396C105.423 6.76014 101.991 6.85963 98.3116 6.85963V12.8596ZM108.98 12.5526L109.44 18.535C112.785 18.2777 115.562 18.0443 117.761 17.8349L117.192 11.8619L116.623 5.88892C114.524 6.08882 111.826 6.31594 108.519 6.57031L108.98 12.5526ZM117.192 11.8619L111.621 14.0902C111.766 14.4521 111.953 15.1279 112.068 16.24L118.036 15.6226L124.004 15.0052C123.812 13.1497 123.436 11.3183 122.763 9.63355L117.192 11.8619ZM118.036 15.6226L112.092 16.4424C112.266 17.6992 112.343 18.8037 112.343 19.767H118.343H124.343C124.343 18.172 124.216 16.5136 123.98 14.8027L118.036 15.6226ZM118.343 19.767L115.458 14.5061C113.488 15.5863 111.663 16.8654 109.993 18.3429L113.968 22.8369L117.944 27.3309C118.934 26.4549 120.025 25.6873 121.228 25.0279L118.343 19.767ZM113.968 22.8369L110.093 18.2566C108.578 19.5384 107.166 20.89 105.861 22.313L110.284 26.3674L114.707 30.4217C115.654 29.3888 116.698 28.3868 117.844 27.4172L113.968 22.8369ZM110.284 26.3674L106.363 30.9083L108.051 32.3665L111.973 27.8256L115.895 23.2846L114.206 21.8264L110.284 26.3674ZM111.973 27.8256L116.345 31.935C118.363 29.7874 120.666 27.9334 123.272 26.3702L120.185 21.2252L117.098 16.0802C113.563 18.2009 110.392 20.7472 107.601 23.7161L111.973 27.8256ZM120.185 21.2252L123.272 26.3702C125.438 25.0707 127.65 24.4623 130.009 24.4623V18.4623V12.4623C125.409 12.4623 121.072 13.6958 117.098 16.0802L120.185 21.2252ZM130.009 18.4623V24.4623C135.75 24.4623 139.36 26.3265 141.816 29.5461L146.586 25.9069L151.357 22.2676C146.24 15.5611 138.798 12.4623 130.009 12.4623V18.4623ZM146.586 25.9069L141.84 29.5769C144.59 33.1336 146.343 38.5726 146.343 46.6289H152.343H158.343C158.343 36.982 156.258 28.6063 151.333 22.2368L146.586 25.9069ZM152.343 46.6289H146.343C146.343 52.0856 145.329 56.3784 143.573 59.7341L148.889 62.5159L154.205 65.2976C157.054 59.8528 158.343 53.5544 158.343 46.6289H152.343ZM148.889 62.5159L143.547 59.783C141.946 62.9122 139.407 65.4059 135.606 67.2464L138.221 72.6467L140.836 78.0469C146.756 75.1802 151.329 70.92 154.23 65.2487L148.889 62.5159ZM138.221 72.6467L135.652 67.2242C131.862 69.0198 126.557 70.1004 119.417 70.1004V76.1004V82.1004C127.628 82.1004 134.859 80.8784 140.789 78.0691L138.221 72.6467ZM114.659 50.3896V56.3896H118.803V50.3896V44.3896H114.659V50.3896ZM118.803 50.3896H124.803V43.252H118.803H112.803V50.3896H118.803ZM118.803 43.252V37.252H114.659V43.252V49.252H118.803V43.252ZM114.659 43.252H108.659V50.3896H114.659H120.659V43.252H114.659ZM154.608 74.7956L149.037 77.024L150.726 81.2459L155.247 80.7615L154.608 74.7956ZM153.61 70.8815L147.682 71.8077L147.684 71.8223L147.687 71.8369L153.61 70.8815ZM153.15 65.7393H147.15V65.825L147.152 65.9107L153.15 65.7393ZM153.303 60.6739L147.329 60.1139L147.321 60.2006L147.315 60.2876L153.303 60.6739ZM154.071 56.683L151.842 51.1121L149.309 52.1255L148.407 54.7009L154.071 56.683ZM156.296 55.2248L160.379 59.6215L160.379 59.6215L156.296 55.2248ZM158.061 52.2316L152.461 50.0777L152.425 50.1727L152.392 50.2689L158.061 52.2316ZM157.908 41.5635L152.416 43.98L152.475 44.1149L152.541 44.2468L157.908 41.5635ZM155.912 38.8006L152.008 43.3561L152.181 43.5044L152.364 43.639L155.912 38.8006ZM154.071 37.4959L148.768 40.3032L149.667 42.0025L151.387 42.8624L154.071 37.4959ZM153.073 33.812L147.119 34.5562L147.121 34.568L147.122 34.5798L153.073 33.812ZM152.766 28.5163L146.768 28.3542L146.766 28.4352V28.5163H152.766ZM153.226 23.0672L159.162 23.9401L159.162 23.9401L153.226 23.0672ZM154.378 18.7693L154.921 12.7939L150.678 12.4082L148.915 16.2864L154.378 18.7693ZM155.836 18.9995L154.381 24.8204L154.732 24.9082L155.092 24.9532L155.836 18.9995ZM157.217 19.153L163.205 19.5393L163.578 13.7592L157.814 13.1828L157.217 19.153ZM159.136 27.3651L154.093 30.6153L154.109 30.6412L154.126 30.667L159.136 27.3651ZM165.199 32.2002L163.068 37.8089L163.086 37.8159L163.104 37.8227L165.199 32.2002ZM173.488 32.8142L174.625 38.7055L173.738 26.8194L173.488 32.8142ZM166.657 30.8955L163.57 36.0405L163.645 36.0855L163.722 36.1284L166.657 30.8955ZM161.669 26.0604L156.524 29.1473L156.569 29.2235L156.617 29.2984L161.669 26.0604ZM161.285 13.1666L155.946 10.4287L155.932 10.456L155.918 10.4833L161.285 13.1666ZM166.35 8.25472L169.215 13.5265L169.259 13.5026L169.303 13.4781L166.35 8.25472ZM189.835 11.0944L185.386 15.1199L185.42 15.1569L185.454 15.1934L189.835 11.0944ZM193.519 33.2747L187.645 32.051L187.635 32.0986L187.626 32.1463L193.519 33.2747ZM192.061 40.2588L186.21 38.9291L186.199 38.9793L186.188 39.0296L192.061 40.2588ZM192.061 52.3083L186.391 54.271L186.424 54.3672L186.461 54.4622L192.061 52.3083ZM193.903 55.3015L189.82 59.6983L189.982 59.8487L190.155 59.9867L193.903 55.3015ZM196.129 56.683L201.792 54.7009L200.919 52.2084L198.492 51.1681L196.129 56.683ZM196.819 60.6739L190.831 61.0482L190.837 61.1502L190.847 61.2519L196.819 60.6739ZM196.973 65.7393L190.975 65.568L190.973 65.6536V65.7393H196.973ZM196.589 70.8815L202.513 71.8369L202.515 71.8223L202.517 71.8077L196.589 70.8815ZM195.591 74.7956L194.952 80.7615L199.474 81.2459L201.162 77.024L195.591 74.7956ZM189.989 74.2584L190.52 68.282L190.459 68.2765L190.397 68.2723L189.989 74.2584ZM182.621 73.7979L182.967 67.8079L182.909 67.8045L182.852 67.8023L182.621 73.7979ZM167.118 73.7979L166.878 67.8027L166.815 67.8052L166.751 67.8091L167.118 73.7979ZM160.057 74.2584L159.639 68.2729L159.57 68.2778L159.501 68.2842L160.057 74.2584ZM154.608 74.7956L160.179 72.5673C159.989 72.0938 159.748 71.2553 159.533 69.9261L153.61 70.8815L147.687 71.8369C147.984 73.6799 148.408 75.4509 149.037 77.024L154.608 74.7956ZM153.61 70.8815L159.538 69.9552C159.324 68.587 159.192 67.126 159.147 65.568L153.15 65.7393L147.152 65.9107C147.21 67.9342 147.384 69.9013 147.682 71.8077L153.61 70.8815ZM153.15 65.7393H159.15C159.15 64.0616 159.198 62.5029 159.291 61.0602L153.303 60.6739L147.315 60.2876C147.204 62.0172 147.15 63.8355 147.15 65.7393H153.15ZM153.303 60.6739L159.277 61.234C159.406 59.8596 159.596 59.0575 159.734 58.6651L154.071 56.683L148.407 54.7009C147.828 56.3551 147.507 58.2137 147.329 60.1139L153.303 60.6739ZM154.071 56.683L156.299 62.2539C157.864 61.6278 159.219 60.699 160.379 59.6215L156.296 55.2248L152.214 50.828C151.941 51.0809 151.812 51.1242 151.842 51.1121L154.071 56.683ZM156.296 55.2248L160.379 59.6215C162.063 58.0577 163.081 56.0717 163.731 54.1942L158.061 52.2316L152.392 50.2689C152.265 50.6341 152.16 50.8391 152.107 50.9297C152.054 51.0184 152.077 50.9552 152.214 50.828L156.296 55.2248ZM158.061 52.2316L163.662 54.3855C164.55 52.0753 164.829 49.4244 164.829 46.7824H158.829H152.829C152.829 48.7454 152.596 49.7272 152.461 50.0777L158.061 52.2316ZM158.829 46.7824H164.829C164.829 44.1261 164.49 41.3105 163.275 38.8803L157.908 41.5635L152.541 44.2468C152.528 44.2194 152.61 44.378 152.69 44.832C152.769 45.279 152.829 45.9164 152.829 46.7824H158.829ZM157.908 41.5635L163.4 39.1471C162.598 37.3254 161.384 35.3728 159.461 33.9622L155.912 38.8006L152.364 43.639C152.156 43.4863 152.088 43.3784 152.123 43.4264C152.159 43.4769 152.268 43.6424 152.416 43.98L157.908 41.5635ZM155.912 38.8006L159.817 34.2451C158.936 33.4894 157.895 32.6999 156.754 32.1293L154.071 37.4959L151.387 42.8624C151.3 42.8189 151.316 42.8176 151.447 42.9101C151.571 42.998 151.756 43.1407 152.008 43.3561L155.912 38.8006ZM154.071 37.4959L159.373 34.6886C159.402 34.7421 159.349 34.656 159.267 34.354C159.187 34.0597 159.099 33.6323 159.023 33.0441L153.073 33.812L147.122 34.5798C147.369 36.4901 147.826 38.525 148.768 40.3032L154.071 37.4959ZM153.073 33.812L159.026 33.0677C158.857 31.7101 158.766 30.1961 158.766 28.5163H152.766H146.766C146.766 30.6228 146.88 32.6392 147.119 34.5562L153.073 33.812ZM152.766 28.5163L158.764 28.6784C158.809 27.0052 158.944 25.4271 159.162 23.9401L153.226 23.0672L147.29 22.1942C146.997 24.1866 146.825 26.2411 146.768 28.3542L152.766 28.5163ZM153.226 23.0672L159.162 23.9401C159.368 22.5429 159.636 21.7007 159.84 21.2521L154.378 18.7693L148.915 16.2864C148.096 18.0891 147.596 20.1122 147.29 22.1942L153.226 23.0672ZM154.378 18.7693L153.834 24.7446C154.186 24.7766 154.352 24.8132 154.381 24.8204L155.836 18.9995L157.291 13.1786C156.501 12.9812 155.695 12.8643 154.921 12.7939L154.378 18.7693ZM155.836 18.9995L155.092 24.9532C155.56 25.0117 156.071 25.0683 156.62 25.1232L157.217 19.153L157.814 13.1828C157.34 13.1354 156.93 13.0896 156.58 13.0458L155.836 18.9995ZM157.217 19.153L151.23 18.7667C150.956 23.0075 151.805 27.0661 154.093 30.6153L159.136 27.3651L164.179 24.1149C163.499 23.0592 163.069 21.6431 163.205 19.5393L157.217 19.153ZM159.136 27.3651L154.126 30.667C156.315 33.9872 159.351 36.3964 163.068 37.8089L165.199 32.2002L167.33 26.5915C165.931 26.0598 164.925 25.2455 164.146 24.0632L159.136 27.3651ZM165.199 32.2002L163.104 37.8227C166.815 39.2052 170.702 39.4626 174.625 38.7055L173.488 32.8142L172.351 26.9229C170.441 27.2915 168.802 27.1395 167.294 26.5777L165.199 32.2002ZM173.488 32.8142L173.738 26.8194C172.203 26.7555 170.849 26.3675 169.593 25.6627L166.657 30.8955L163.722 36.1284C166.661 37.7772 169.861 38.6683 173.238 38.809L173.488 32.8142ZM166.657 30.8955L169.744 25.7506C168.485 24.9949 167.496 24.0337 166.72 22.8224L161.669 26.0604L156.617 29.2984C158.399 32.078 160.736 34.3402 163.57 36.0405L166.657 30.8955ZM161.669 26.0604L166.814 22.9734C166.174 21.9071 165.827 20.7066 165.827 19.2297H159.827H153.827C153.827 22.7671 154.707 26.1203 156.524 29.1473L161.669 26.0604ZM159.827 19.2297H165.827C165.827 18.0976 166.08 16.9922 166.651 15.8499L161.285 13.1666L155.918 10.4833C154.545 13.2296 153.827 16.1663 153.827 19.2297H159.827ZM161.285 13.1666L166.624 15.9045C166.996 15.1782 167.712 14.3434 169.215 13.5265L166.35 8.25472L163.485 2.98297C160.281 4.72435 157.62 7.16415 155.946 10.4287L161.285 13.1666ZM166.35 8.25472L169.303 13.4781C170.427 12.8428 172.453 12.2593 175.867 12.2593V6.25926V0.259259C171.3 0.259259 166.981 1.00607 163.398 3.03134L166.35 8.25472ZM175.867 6.25926V12.2593C181.376 12.2593 184.055 13.6489 185.386 15.1199L189.835 11.0944L194.285 7.06893C189.783 2.09303 183.15 0.259259 175.867 0.259259V6.25926ZM189.835 11.0944L185.454 15.1934C187.004 16.8502 188.287 19.8343 188.287 25.2161H194.287H200.287C200.287 18.1136 198.602 11.6832 194.217 6.99547L189.835 11.0944ZM194.287 25.2161H188.287C188.287 27.7861 188.061 30.0562 187.645 32.051L193.519 33.2747L199.393 34.4984C200.001 31.5813 200.287 28.4791 200.287 25.2161H194.287ZM193.519 33.2747L187.626 32.1463C187.178 34.4877 186.706 36.7485 186.21 38.9291L192.061 40.2588L197.912 41.5885C198.44 39.2665 198.94 36.8713 199.412 34.4031L193.519 33.2747ZM192.061 40.2588L186.188 39.0296C185.641 41.6438 185.37 44.3073 185.37 47.0127H191.37H197.37C197.37 45.1132 197.56 43.2741 197.934 41.488L192.061 40.2588ZM191.37 47.0127H185.37C185.37 49.5485 185.625 52.0575 186.391 54.271L192.061 52.3083L197.731 50.3457C197.576 49.8985 197.37 48.8771 197.37 47.0127H191.37ZM192.061 52.3083L186.461 54.4622C187.162 56.2847 188.199 58.1924 189.82 59.6983L193.903 55.3015L197.986 50.9048C198.094 51.0057 198.092 51.0351 198.015 50.9098C197.938 50.7842 197.812 50.5461 197.661 50.1545L192.061 52.3083ZM193.903 55.3015L190.155 59.9867C191.24 60.8548 192.442 61.631 193.765 62.1979L196.129 56.683L198.492 51.1681C198.382 51.121 198.101 50.9763 197.651 50.6163L193.903 55.3015ZM196.129 56.683L190.466 58.6651C190.575 58.9771 190.747 59.709 190.831 61.0482L196.819 60.6739L202.808 60.2996C202.687 58.3642 202.399 56.4355 201.792 54.7009L196.129 56.683ZM196.819 60.6739L190.847 61.2519C190.974 62.5606 191.02 63.997 190.975 65.568L196.973 65.7393L202.97 65.9107C203.028 63.9 202.972 61.9594 202.792 60.096L196.819 60.6739ZM196.973 65.7393H190.973C190.973 67.2446 190.865 68.6477 190.661 69.9552L196.589 70.8815L202.517 71.8077C202.825 69.8406 202.973 67.8156 202.973 65.7393H196.973ZM196.589 70.8815L190.666 69.9261C190.451 71.2553 190.21 72.0938 190.021 72.5673L195.591 74.7956L201.162 77.024C201.792 75.4509 202.215 73.6799 202.513 71.8369L196.589 70.8815ZM195.591 74.7956L196.231 68.8298C194.747 68.6708 192.84 68.4882 190.52 68.282L189.989 74.2584L189.458 80.2348C191.743 80.4379 193.57 80.6134 194.952 80.7615L195.591 74.7956ZM189.989 74.2584L190.397 68.2723C188.122 68.1171 185.644 67.9624 182.967 67.8079L182.621 73.7979L182.275 79.7879C184.919 79.9404 187.354 80.0926 189.581 80.2445L189.989 74.2584ZM182.621 73.7979L182.852 67.8023C180.114 67.697 177.377 67.6444 174.639 67.6444V73.6444V79.6444C177.223 79.6444 179.807 79.6941 182.39 79.7935L182.621 73.7979ZM174.639 73.6444V67.6444C172.1 67.6444 169.513 67.6973 166.878 67.8027L167.118 73.7979L167.358 79.7931C169.839 79.6938 172.266 79.6444 174.639 79.6444V73.6444ZM167.118 73.7979L166.751 67.8091C164.229 67.9635 161.859 68.1181 159.639 68.2729L160.057 74.2584L160.475 80.2438C162.656 80.0917 164.992 79.9393 167.484 79.7867L167.118 73.7979ZM160.057 74.2584L159.501 68.2842C157.286 68.4902 155.439 68.6722 153.969 68.8298L154.608 74.7956L155.247 80.7615C156.641 80.6121 158.427 80.4359 160.613 80.2326L160.057 74.2584Z" fill="#437338" mask="url(#path-1-outside-1_339_6852)"/>
</svg>
